G75*
%MOIN*%
%OFA0B0*%
%FSLAX25Y25*%
%IPPOS*%
%LPD*%
%AMOC8*
5,1,8,0,0,1.08239X$1,22.5*
%
%ADD10C,0.00600*%
%ADD11C,0.00500*%
%ADD12C,0.00100*%
%ADD13C,0.00200*%
%ADD14C,0.00276*%
%ADD15R,0.02756X0.01181*%
%ADD16R,0.04331X0.02363*%
%ADD17R,0.01181X0.02756*%
%ADD18R,0.00787X0.00787*%
%ADD19C,0.00800*%
%ADD20C,0.01000*%
%ADD21C,0.00400*%
%ADD22C,0.00787*%
%ADD23C,0.00197*%
D10*
X0114985Y0099741D02*
X0118485Y0099741D01*
X0128485Y0099741D01*
X0131985Y0099741D01*
X0135485Y0107741D02*
X0135485Y0108741D01*
X0136485Y0108741D01*
X0136485Y0114741D01*
X0135485Y0114741D01*
X0135485Y0115741D01*
X0131985Y0123741D02*
X0128485Y0123741D01*
X0118985Y0123741D01*
X0114985Y0123741D01*
X0115485Y0132241D02*
X0118985Y0132241D01*
X0128985Y0132241D01*
X0132485Y0132241D01*
X0135985Y0140241D02*
X0135985Y0141241D01*
X0136985Y0141241D01*
X0136985Y0147241D01*
X0135985Y0147241D01*
X0135985Y0148241D01*
X0132485Y0156241D02*
X0128985Y0156241D01*
X0119485Y0156241D01*
X0115485Y0156241D01*
X0111985Y0148241D02*
X0111985Y0147241D01*
X0110985Y0147241D01*
X0110985Y0141241D01*
X0111985Y0141241D01*
X0111985Y0140241D01*
X0122985Y0144241D02*
X0122987Y0144304D01*
X0122993Y0144366D01*
X0123003Y0144428D01*
X0123016Y0144490D01*
X0123034Y0144550D01*
X0123055Y0144609D01*
X0123080Y0144667D01*
X0123109Y0144723D01*
X0123141Y0144777D01*
X0123176Y0144829D01*
X0123214Y0144878D01*
X0123256Y0144926D01*
X0123300Y0144970D01*
X0123348Y0145012D01*
X0123397Y0145050D01*
X0123449Y0145085D01*
X0123503Y0145117D01*
X0123559Y0145146D01*
X0123617Y0145171D01*
X0123676Y0145192D01*
X0123736Y0145210D01*
X0123798Y0145223D01*
X0123860Y0145233D01*
X0123922Y0145239D01*
X0123985Y0145241D01*
X0124048Y0145239D01*
X0124110Y0145233D01*
X0124172Y0145223D01*
X0124234Y0145210D01*
X0124294Y0145192D01*
X0124353Y0145171D01*
X0124411Y0145146D01*
X0124467Y0145117D01*
X0124521Y0145085D01*
X0124573Y0145050D01*
X0124622Y0145012D01*
X0124670Y0144970D01*
X0124714Y0144926D01*
X0124756Y0144878D01*
X0124794Y0144829D01*
X0124829Y0144777D01*
X0124861Y0144723D01*
X0124890Y0144667D01*
X0124915Y0144609D01*
X0124936Y0144550D01*
X0124954Y0144490D01*
X0124967Y0144428D01*
X0124977Y0144366D01*
X0124983Y0144304D01*
X0124985Y0144241D01*
X0124983Y0144178D01*
X0124977Y0144116D01*
X0124967Y0144054D01*
X0124954Y0143992D01*
X0124936Y0143932D01*
X0124915Y0143873D01*
X0124890Y0143815D01*
X0124861Y0143759D01*
X0124829Y0143705D01*
X0124794Y0143653D01*
X0124756Y0143604D01*
X0124714Y0143556D01*
X0124670Y0143512D01*
X0124622Y0143470D01*
X0124573Y0143432D01*
X0124521Y0143397D01*
X0124467Y0143365D01*
X0124411Y0143336D01*
X0124353Y0143311D01*
X0124294Y0143290D01*
X0124234Y0143272D01*
X0124172Y0143259D01*
X0124110Y0143249D01*
X0124048Y0143243D01*
X0123985Y0143241D01*
X0123922Y0143243D01*
X0123860Y0143249D01*
X0123798Y0143259D01*
X0123736Y0143272D01*
X0123676Y0143290D01*
X0123617Y0143311D01*
X0123559Y0143336D01*
X0123503Y0143365D01*
X0123449Y0143397D01*
X0123397Y0143432D01*
X0123348Y0143470D01*
X0123300Y0143512D01*
X0123256Y0143556D01*
X0123214Y0143604D01*
X0123176Y0143653D01*
X0123141Y0143705D01*
X0123109Y0143759D01*
X0123080Y0143815D01*
X0123055Y0143873D01*
X0123034Y0143932D01*
X0123016Y0143992D01*
X0123003Y0144054D01*
X0122993Y0144116D01*
X0122987Y0144178D01*
X0122985Y0144241D01*
X0116985Y0144241D02*
X0116987Y0144413D01*
X0116993Y0144584D01*
X0117004Y0144756D01*
X0117019Y0144927D01*
X0117038Y0145098D01*
X0117061Y0145268D01*
X0117088Y0145438D01*
X0117120Y0145607D01*
X0117155Y0145775D01*
X0117195Y0145942D01*
X0117239Y0146108D01*
X0117286Y0146273D01*
X0117338Y0146437D01*
X0117394Y0146599D01*
X0117454Y0146760D01*
X0117518Y0146920D01*
X0117586Y0147078D01*
X0117657Y0147234D01*
X0117732Y0147388D01*
X0117812Y0147541D01*
X0117894Y0147691D01*
X0117981Y0147840D01*
X0118071Y0147986D01*
X0118165Y0148130D01*
X0118262Y0148272D01*
X0118363Y0148411D01*
X0118467Y0148548D01*
X0118574Y0148682D01*
X0118685Y0148813D01*
X0118798Y0148942D01*
X0118915Y0149068D01*
X0119035Y0149191D01*
X0119158Y0149311D01*
X0119284Y0149428D01*
X0119413Y0149541D01*
X0119544Y0149652D01*
X0119678Y0149759D01*
X0119815Y0149863D01*
X0119954Y0149964D01*
X0120096Y0150061D01*
X0120240Y0150155D01*
X0120386Y0150245D01*
X0120535Y0150332D01*
X0120685Y0150414D01*
X0120838Y0150494D01*
X0120992Y0150569D01*
X0121148Y0150640D01*
X0121306Y0150708D01*
X0121466Y0150772D01*
X0121627Y0150832D01*
X0121789Y0150888D01*
X0121953Y0150940D01*
X0122118Y0150987D01*
X0122284Y0151031D01*
X0122451Y0151071D01*
X0122619Y0151106D01*
X0122788Y0151138D01*
X0122958Y0151165D01*
X0123128Y0151188D01*
X0123299Y0151207D01*
X0123470Y0151222D01*
X0123642Y0151233D01*
X0123813Y0151239D01*
X0123985Y0151241D01*
X0124157Y0151239D01*
X0124328Y0151233D01*
X0124500Y0151222D01*
X0124671Y0151207D01*
X0124842Y0151188D01*
X0125012Y0151165D01*
X0125182Y0151138D01*
X0125351Y0151106D01*
X0125519Y0151071D01*
X0125686Y0151031D01*
X0125852Y0150987D01*
X0126017Y0150940D01*
X0126181Y0150888D01*
X0126343Y0150832D01*
X0126504Y0150772D01*
X0126664Y0150708D01*
X0126822Y0150640D01*
X0126978Y0150569D01*
X0127132Y0150494D01*
X0127285Y0150414D01*
X0127435Y0150332D01*
X0127584Y0150245D01*
X0127730Y0150155D01*
X0127874Y0150061D01*
X0128016Y0149964D01*
X0128155Y0149863D01*
X0128292Y0149759D01*
X0128426Y0149652D01*
X0128557Y0149541D01*
X0128686Y0149428D01*
X0128812Y0149311D01*
X0128935Y0149191D01*
X0129055Y0149068D01*
X0129172Y0148942D01*
X0129285Y0148813D01*
X0129396Y0148682D01*
X0129503Y0148548D01*
X0129607Y0148411D01*
X0129708Y0148272D01*
X0129805Y0148130D01*
X0129899Y0147986D01*
X0129989Y0147840D01*
X0130076Y0147691D01*
X0130158Y0147541D01*
X0130238Y0147388D01*
X0130313Y0147234D01*
X0130384Y0147078D01*
X0130452Y0146920D01*
X0130516Y0146760D01*
X0130576Y0146599D01*
X0130632Y0146437D01*
X0130684Y0146273D01*
X0130731Y0146108D01*
X0130775Y0145942D01*
X0130815Y0145775D01*
X0130850Y0145607D01*
X0130882Y0145438D01*
X0130909Y0145268D01*
X0130932Y0145098D01*
X0130951Y0144927D01*
X0130966Y0144756D01*
X0130977Y0144584D01*
X0130983Y0144413D01*
X0130985Y0144241D01*
X0130983Y0144069D01*
X0130977Y0143898D01*
X0130966Y0143726D01*
X0130951Y0143555D01*
X0130932Y0143384D01*
X0130909Y0143214D01*
X0130882Y0143044D01*
X0130850Y0142875D01*
X0130815Y0142707D01*
X0130775Y0142540D01*
X0130731Y0142374D01*
X0130684Y0142209D01*
X0130632Y0142045D01*
X0130576Y0141883D01*
X0130516Y0141722D01*
X0130452Y0141562D01*
X0130384Y0141404D01*
X0130313Y0141248D01*
X0130238Y0141094D01*
X0130158Y0140941D01*
X0130076Y0140791D01*
X0129989Y0140642D01*
X0129899Y0140496D01*
X0129805Y0140352D01*
X0129708Y0140210D01*
X0129607Y0140071D01*
X0129503Y0139934D01*
X0129396Y0139800D01*
X0129285Y0139669D01*
X0129172Y0139540D01*
X0129055Y0139414D01*
X0128935Y0139291D01*
X0128812Y0139171D01*
X0128686Y0139054D01*
X0128557Y0138941D01*
X0128426Y0138830D01*
X0128292Y0138723D01*
X0128155Y0138619D01*
X0128016Y0138518D01*
X0127874Y0138421D01*
X0127730Y0138327D01*
X0127584Y0138237D01*
X0127435Y0138150D01*
X0127285Y0138068D01*
X0127132Y0137988D01*
X0126978Y0137913D01*
X0126822Y0137842D01*
X0126664Y0137774D01*
X0126504Y0137710D01*
X0126343Y0137650D01*
X0126181Y0137594D01*
X0126017Y0137542D01*
X0125852Y0137495D01*
X0125686Y0137451D01*
X0125519Y0137411D01*
X0125351Y0137376D01*
X0125182Y0137344D01*
X0125012Y0137317D01*
X0124842Y0137294D01*
X0124671Y0137275D01*
X0124500Y0137260D01*
X0124328Y0137249D01*
X0124157Y0137243D01*
X0123985Y0137241D01*
X0123813Y0137243D01*
X0123642Y0137249D01*
X0123470Y0137260D01*
X0123299Y0137275D01*
X0123128Y0137294D01*
X0122958Y0137317D01*
X0122788Y0137344D01*
X0122619Y0137376D01*
X0122451Y0137411D01*
X0122284Y0137451D01*
X0122118Y0137495D01*
X0121953Y0137542D01*
X0121789Y0137594D01*
X0121627Y0137650D01*
X0121466Y0137710D01*
X0121306Y0137774D01*
X0121148Y0137842D01*
X0120992Y0137913D01*
X0120838Y0137988D01*
X0120685Y0138068D01*
X0120535Y0138150D01*
X0120386Y0138237D01*
X0120240Y0138327D01*
X0120096Y0138421D01*
X0119954Y0138518D01*
X0119815Y0138619D01*
X0119678Y0138723D01*
X0119544Y0138830D01*
X0119413Y0138941D01*
X0119284Y0139054D01*
X0119158Y0139171D01*
X0119035Y0139291D01*
X0118915Y0139414D01*
X0118798Y0139540D01*
X0118685Y0139669D01*
X0118574Y0139800D01*
X0118467Y0139934D01*
X0118363Y0140071D01*
X0118262Y0140210D01*
X0118165Y0140352D01*
X0118071Y0140496D01*
X0117981Y0140642D01*
X0117894Y0140791D01*
X0117812Y0140941D01*
X0117732Y0141094D01*
X0117657Y0141248D01*
X0117586Y0141404D01*
X0117518Y0141562D01*
X0117454Y0141722D01*
X0117394Y0141883D01*
X0117338Y0142045D01*
X0117286Y0142209D01*
X0117239Y0142374D01*
X0117195Y0142540D01*
X0117155Y0142707D01*
X0117120Y0142875D01*
X0117088Y0143044D01*
X0117061Y0143214D01*
X0117038Y0143384D01*
X0117019Y0143555D01*
X0117004Y0143726D01*
X0116993Y0143898D01*
X0116987Y0144069D01*
X0116985Y0144241D01*
X0111485Y0115741D02*
X0111485Y0114741D01*
X0110485Y0114741D01*
X0110485Y0108741D01*
X0111485Y0108741D01*
X0111485Y0107741D01*
X0122485Y0111741D02*
X0122487Y0111804D01*
X0122493Y0111866D01*
X0122503Y0111928D01*
X0122516Y0111990D01*
X0122534Y0112050D01*
X0122555Y0112109D01*
X0122580Y0112167D01*
X0122609Y0112223D01*
X0122641Y0112277D01*
X0122676Y0112329D01*
X0122714Y0112378D01*
X0122756Y0112426D01*
X0122800Y0112470D01*
X0122848Y0112512D01*
X0122897Y0112550D01*
X0122949Y0112585D01*
X0123003Y0112617D01*
X0123059Y0112646D01*
X0123117Y0112671D01*
X0123176Y0112692D01*
X0123236Y0112710D01*
X0123298Y0112723D01*
X0123360Y0112733D01*
X0123422Y0112739D01*
X0123485Y0112741D01*
X0123548Y0112739D01*
X0123610Y0112733D01*
X0123672Y0112723D01*
X0123734Y0112710D01*
X0123794Y0112692D01*
X0123853Y0112671D01*
X0123911Y0112646D01*
X0123967Y0112617D01*
X0124021Y0112585D01*
X0124073Y0112550D01*
X0124122Y0112512D01*
X0124170Y0112470D01*
X0124214Y0112426D01*
X0124256Y0112378D01*
X0124294Y0112329D01*
X0124329Y0112277D01*
X0124361Y0112223D01*
X0124390Y0112167D01*
X0124415Y0112109D01*
X0124436Y0112050D01*
X0124454Y0111990D01*
X0124467Y0111928D01*
X0124477Y0111866D01*
X0124483Y0111804D01*
X0124485Y0111741D01*
X0124483Y0111678D01*
X0124477Y0111616D01*
X0124467Y0111554D01*
X0124454Y0111492D01*
X0124436Y0111432D01*
X0124415Y0111373D01*
X0124390Y0111315D01*
X0124361Y0111259D01*
X0124329Y0111205D01*
X0124294Y0111153D01*
X0124256Y0111104D01*
X0124214Y0111056D01*
X0124170Y0111012D01*
X0124122Y0110970D01*
X0124073Y0110932D01*
X0124021Y0110897D01*
X0123967Y0110865D01*
X0123911Y0110836D01*
X0123853Y0110811D01*
X0123794Y0110790D01*
X0123734Y0110772D01*
X0123672Y0110759D01*
X0123610Y0110749D01*
X0123548Y0110743D01*
X0123485Y0110741D01*
X0123422Y0110743D01*
X0123360Y0110749D01*
X0123298Y0110759D01*
X0123236Y0110772D01*
X0123176Y0110790D01*
X0123117Y0110811D01*
X0123059Y0110836D01*
X0123003Y0110865D01*
X0122949Y0110897D01*
X0122897Y0110932D01*
X0122848Y0110970D01*
X0122800Y0111012D01*
X0122756Y0111056D01*
X0122714Y0111104D01*
X0122676Y0111153D01*
X0122641Y0111205D01*
X0122609Y0111259D01*
X0122580Y0111315D01*
X0122555Y0111373D01*
X0122534Y0111432D01*
X0122516Y0111492D01*
X0122503Y0111554D01*
X0122493Y0111616D01*
X0122487Y0111678D01*
X0122485Y0111741D01*
X0116485Y0111741D02*
X0116487Y0111913D01*
X0116493Y0112084D01*
X0116504Y0112256D01*
X0116519Y0112427D01*
X0116538Y0112598D01*
X0116561Y0112768D01*
X0116588Y0112938D01*
X0116620Y0113107D01*
X0116655Y0113275D01*
X0116695Y0113442D01*
X0116739Y0113608D01*
X0116786Y0113773D01*
X0116838Y0113937D01*
X0116894Y0114099D01*
X0116954Y0114260D01*
X0117018Y0114420D01*
X0117086Y0114578D01*
X0117157Y0114734D01*
X0117232Y0114888D01*
X0117312Y0115041D01*
X0117394Y0115191D01*
X0117481Y0115340D01*
X0117571Y0115486D01*
X0117665Y0115630D01*
X0117762Y0115772D01*
X0117863Y0115911D01*
X0117967Y0116048D01*
X0118074Y0116182D01*
X0118185Y0116313D01*
X0118298Y0116442D01*
X0118415Y0116568D01*
X0118535Y0116691D01*
X0118658Y0116811D01*
X0118784Y0116928D01*
X0118913Y0117041D01*
X0119044Y0117152D01*
X0119178Y0117259D01*
X0119315Y0117363D01*
X0119454Y0117464D01*
X0119596Y0117561D01*
X0119740Y0117655D01*
X0119886Y0117745D01*
X0120035Y0117832D01*
X0120185Y0117914D01*
X0120338Y0117994D01*
X0120492Y0118069D01*
X0120648Y0118140D01*
X0120806Y0118208D01*
X0120966Y0118272D01*
X0121127Y0118332D01*
X0121289Y0118388D01*
X0121453Y0118440D01*
X0121618Y0118487D01*
X0121784Y0118531D01*
X0121951Y0118571D01*
X0122119Y0118606D01*
X0122288Y0118638D01*
X0122458Y0118665D01*
X0122628Y0118688D01*
X0122799Y0118707D01*
X0122970Y0118722D01*
X0123142Y0118733D01*
X0123313Y0118739D01*
X0123485Y0118741D01*
X0123657Y0118739D01*
X0123828Y0118733D01*
X0124000Y0118722D01*
X0124171Y0118707D01*
X0124342Y0118688D01*
X0124512Y0118665D01*
X0124682Y0118638D01*
X0124851Y0118606D01*
X0125019Y0118571D01*
X0125186Y0118531D01*
X0125352Y0118487D01*
X0125517Y0118440D01*
X0125681Y0118388D01*
X0125843Y0118332D01*
X0126004Y0118272D01*
X0126164Y0118208D01*
X0126322Y0118140D01*
X0126478Y0118069D01*
X0126632Y0117994D01*
X0126785Y0117914D01*
X0126935Y0117832D01*
X0127084Y0117745D01*
X0127230Y0117655D01*
X0127374Y0117561D01*
X0127516Y0117464D01*
X0127655Y0117363D01*
X0127792Y0117259D01*
X0127926Y0117152D01*
X0128057Y0117041D01*
X0128186Y0116928D01*
X0128312Y0116811D01*
X0128435Y0116691D01*
X0128555Y0116568D01*
X0128672Y0116442D01*
X0128785Y0116313D01*
X0128896Y0116182D01*
X0129003Y0116048D01*
X0129107Y0115911D01*
X0129208Y0115772D01*
X0129305Y0115630D01*
X0129399Y0115486D01*
X0129489Y0115340D01*
X0129576Y0115191D01*
X0129658Y0115041D01*
X0129738Y0114888D01*
X0129813Y0114734D01*
X0129884Y0114578D01*
X0129952Y0114420D01*
X0130016Y0114260D01*
X0130076Y0114099D01*
X0130132Y0113937D01*
X0130184Y0113773D01*
X0130231Y0113608D01*
X0130275Y0113442D01*
X0130315Y0113275D01*
X0130350Y0113107D01*
X0130382Y0112938D01*
X0130409Y0112768D01*
X0130432Y0112598D01*
X0130451Y0112427D01*
X0130466Y0112256D01*
X0130477Y0112084D01*
X0130483Y0111913D01*
X0130485Y0111741D01*
X0130483Y0111569D01*
X0130477Y0111398D01*
X0130466Y0111226D01*
X0130451Y0111055D01*
X0130432Y0110884D01*
X0130409Y0110714D01*
X0130382Y0110544D01*
X0130350Y0110375D01*
X0130315Y0110207D01*
X0130275Y0110040D01*
X0130231Y0109874D01*
X0130184Y0109709D01*
X0130132Y0109545D01*
X0130076Y0109383D01*
X0130016Y0109222D01*
X0129952Y0109062D01*
X0129884Y0108904D01*
X0129813Y0108748D01*
X0129738Y0108594D01*
X0129658Y0108441D01*
X0129576Y0108291D01*
X0129489Y0108142D01*
X0129399Y0107996D01*
X0129305Y0107852D01*
X0129208Y0107710D01*
X0129107Y0107571D01*
X0129003Y0107434D01*
X0128896Y0107300D01*
X0128785Y0107169D01*
X0128672Y0107040D01*
X0128555Y0106914D01*
X0128435Y0106791D01*
X0128312Y0106671D01*
X0128186Y0106554D01*
X0128057Y0106441D01*
X0127926Y0106330D01*
X0127792Y0106223D01*
X0127655Y0106119D01*
X0127516Y0106018D01*
X0127374Y0105921D01*
X0127230Y0105827D01*
X0127084Y0105737D01*
X0126935Y0105650D01*
X0126785Y0105568D01*
X0126632Y0105488D01*
X0126478Y0105413D01*
X0126322Y0105342D01*
X0126164Y0105274D01*
X0126004Y0105210D01*
X0125843Y0105150D01*
X0125681Y0105094D01*
X0125517Y0105042D01*
X0125352Y0104995D01*
X0125186Y0104951D01*
X0125019Y0104911D01*
X0124851Y0104876D01*
X0124682Y0104844D01*
X0124512Y0104817D01*
X0124342Y0104794D01*
X0124171Y0104775D01*
X0124000Y0104760D01*
X0123828Y0104749D01*
X0123657Y0104743D01*
X0123485Y0104741D01*
X0123313Y0104743D01*
X0123142Y0104749D01*
X0122970Y0104760D01*
X0122799Y0104775D01*
X0122628Y0104794D01*
X0122458Y0104817D01*
X0122288Y0104844D01*
X0122119Y0104876D01*
X0121951Y0104911D01*
X0121784Y0104951D01*
X0121618Y0104995D01*
X0121453Y0105042D01*
X0121289Y0105094D01*
X0121127Y0105150D01*
X0120966Y0105210D01*
X0120806Y0105274D01*
X0120648Y0105342D01*
X0120492Y0105413D01*
X0120338Y0105488D01*
X0120185Y0105568D01*
X0120035Y0105650D01*
X0119886Y0105737D01*
X0119740Y0105827D01*
X0119596Y0105921D01*
X0119454Y0106018D01*
X0119315Y0106119D01*
X0119178Y0106223D01*
X0119044Y0106330D01*
X0118913Y0106441D01*
X0118784Y0106554D01*
X0118658Y0106671D01*
X0118535Y0106791D01*
X0118415Y0106914D01*
X0118298Y0107040D01*
X0118185Y0107169D01*
X0118074Y0107300D01*
X0117967Y0107434D01*
X0117863Y0107571D01*
X0117762Y0107710D01*
X0117665Y0107852D01*
X0117571Y0107996D01*
X0117481Y0108142D01*
X0117394Y0108291D01*
X0117312Y0108441D01*
X0117232Y0108594D01*
X0117157Y0108748D01*
X0117086Y0108904D01*
X0117018Y0109062D01*
X0116954Y0109222D01*
X0116894Y0109383D01*
X0116838Y0109545D01*
X0116786Y0109709D01*
X0116739Y0109874D01*
X0116695Y0110040D01*
X0116655Y0110207D01*
X0116620Y0110375D01*
X0116588Y0110544D01*
X0116561Y0110714D01*
X0116538Y0110884D01*
X0116519Y0111055D01*
X0116504Y0111226D01*
X0116493Y0111398D01*
X0116487Y0111569D01*
X0116485Y0111741D01*
X0034138Y0141872D02*
X0034141Y0142117D01*
X0034150Y0142363D01*
X0034165Y0142608D01*
X0034186Y0142852D01*
X0034213Y0143096D01*
X0034246Y0143339D01*
X0034285Y0143582D01*
X0034330Y0143823D01*
X0034381Y0144063D01*
X0034438Y0144302D01*
X0034500Y0144539D01*
X0034569Y0144775D01*
X0034643Y0145009D01*
X0034723Y0145241D01*
X0034808Y0145471D01*
X0034899Y0145699D01*
X0034996Y0145924D01*
X0035098Y0146148D01*
X0035206Y0146368D01*
X0035319Y0146586D01*
X0035437Y0146801D01*
X0035561Y0147013D01*
X0035689Y0147222D01*
X0035823Y0147428D01*
X0035962Y0147630D01*
X0036106Y0147829D01*
X0036255Y0148024D01*
X0036408Y0148216D01*
X0036566Y0148404D01*
X0036728Y0148588D01*
X0036896Y0148767D01*
X0037067Y0148943D01*
X0037243Y0149114D01*
X0037422Y0149282D01*
X0037606Y0149444D01*
X0037794Y0149602D01*
X0037986Y0149755D01*
X0038181Y0149904D01*
X0038380Y0150048D01*
X0038582Y0150187D01*
X0038788Y0150321D01*
X0038997Y0150449D01*
X0039209Y0150573D01*
X0039424Y0150691D01*
X0039642Y0150804D01*
X0039862Y0150912D01*
X0040086Y0151014D01*
X0040311Y0151111D01*
X0040539Y0151202D01*
X0040769Y0151287D01*
X0041001Y0151367D01*
X0041235Y0151441D01*
X0041471Y0151510D01*
X0041708Y0151572D01*
X0041947Y0151629D01*
X0042187Y0151680D01*
X0042428Y0151725D01*
X0042671Y0151764D01*
X0042914Y0151797D01*
X0043158Y0151824D01*
X0043402Y0151845D01*
X0043647Y0151860D01*
X0043893Y0151869D01*
X0044138Y0151872D01*
X0044383Y0151869D01*
X0044629Y0151860D01*
X0044874Y0151845D01*
X0045118Y0151824D01*
X0045362Y0151797D01*
X0045605Y0151764D01*
X0045848Y0151725D01*
X0046089Y0151680D01*
X0046329Y0151629D01*
X0046568Y0151572D01*
X0046805Y0151510D01*
X0047041Y0151441D01*
X0047275Y0151367D01*
X0047507Y0151287D01*
X0047737Y0151202D01*
X0047965Y0151111D01*
X0048190Y0151014D01*
X0048414Y0150912D01*
X0048634Y0150804D01*
X0048852Y0150691D01*
X0049067Y0150573D01*
X0049279Y0150449D01*
X0049488Y0150321D01*
X0049694Y0150187D01*
X0049896Y0150048D01*
X0050095Y0149904D01*
X0050290Y0149755D01*
X0050482Y0149602D01*
X0050670Y0149444D01*
X0050854Y0149282D01*
X0051033Y0149114D01*
X0051209Y0148943D01*
X0051380Y0148767D01*
X0051548Y0148588D01*
X0051710Y0148404D01*
X0051868Y0148216D01*
X0052021Y0148024D01*
X0052170Y0147829D01*
X0052314Y0147630D01*
X0052453Y0147428D01*
X0052587Y0147222D01*
X0052715Y0147013D01*
X0052839Y0146801D01*
X0052957Y0146586D01*
X0053070Y0146368D01*
X0053178Y0146148D01*
X0053280Y0145924D01*
X0053377Y0145699D01*
X0053468Y0145471D01*
X0053553Y0145241D01*
X0053633Y0145009D01*
X0053707Y0144775D01*
X0053776Y0144539D01*
X0053838Y0144302D01*
X0053895Y0144063D01*
X0053946Y0143823D01*
X0053991Y0143582D01*
X0054030Y0143339D01*
X0054063Y0143096D01*
X0054090Y0142852D01*
X0054111Y0142608D01*
X0054126Y0142363D01*
X0054135Y0142117D01*
X0054138Y0141872D01*
X0054135Y0141627D01*
X0054126Y0141381D01*
X0054111Y0141136D01*
X0054090Y0140892D01*
X0054063Y0140648D01*
X0054030Y0140405D01*
X0053991Y0140162D01*
X0053946Y0139921D01*
X0053895Y0139681D01*
X0053838Y0139442D01*
X0053776Y0139205D01*
X0053707Y0138969D01*
X0053633Y0138735D01*
X0053553Y0138503D01*
X0053468Y0138273D01*
X0053377Y0138045D01*
X0053280Y0137820D01*
X0053178Y0137596D01*
X0053070Y0137376D01*
X0052957Y0137158D01*
X0052839Y0136943D01*
X0052715Y0136731D01*
X0052587Y0136522D01*
X0052453Y0136316D01*
X0052314Y0136114D01*
X0052170Y0135915D01*
X0052021Y0135720D01*
X0051868Y0135528D01*
X0051710Y0135340D01*
X0051548Y0135156D01*
X0051380Y0134977D01*
X0051209Y0134801D01*
X0051033Y0134630D01*
X0050854Y0134462D01*
X0050670Y0134300D01*
X0050482Y0134142D01*
X0050290Y0133989D01*
X0050095Y0133840D01*
X0049896Y0133696D01*
X0049694Y0133557D01*
X0049488Y0133423D01*
X0049279Y0133295D01*
X0049067Y0133171D01*
X0048852Y0133053D01*
X0048634Y0132940D01*
X0048414Y0132832D01*
X0048190Y0132730D01*
X0047965Y0132633D01*
X0047737Y0132542D01*
X0047507Y0132457D01*
X0047275Y0132377D01*
X0047041Y0132303D01*
X0046805Y0132234D01*
X0046568Y0132172D01*
X0046329Y0132115D01*
X0046089Y0132064D01*
X0045848Y0132019D01*
X0045605Y0131980D01*
X0045362Y0131947D01*
X0045118Y0131920D01*
X0044874Y0131899D01*
X0044629Y0131884D01*
X0044383Y0131875D01*
X0044138Y0131872D01*
X0043893Y0131875D01*
X0043647Y0131884D01*
X0043402Y0131899D01*
X0043158Y0131920D01*
X0042914Y0131947D01*
X0042671Y0131980D01*
X0042428Y0132019D01*
X0042187Y0132064D01*
X0041947Y0132115D01*
X0041708Y0132172D01*
X0041471Y0132234D01*
X0041235Y0132303D01*
X0041001Y0132377D01*
X0040769Y0132457D01*
X0040539Y0132542D01*
X0040311Y0132633D01*
X0040086Y0132730D01*
X0039862Y0132832D01*
X0039642Y0132940D01*
X0039424Y0133053D01*
X0039209Y0133171D01*
X0038997Y0133295D01*
X0038788Y0133423D01*
X0038582Y0133557D01*
X0038380Y0133696D01*
X0038181Y0133840D01*
X0037986Y0133989D01*
X0037794Y0134142D01*
X0037606Y0134300D01*
X0037422Y0134462D01*
X0037243Y0134630D01*
X0037067Y0134801D01*
X0036896Y0134977D01*
X0036728Y0135156D01*
X0036566Y0135340D01*
X0036408Y0135528D01*
X0036255Y0135720D01*
X0036106Y0135915D01*
X0035962Y0136114D01*
X0035823Y0136316D01*
X0035689Y0136522D01*
X0035561Y0136731D01*
X0035437Y0136943D01*
X0035319Y0137158D01*
X0035206Y0137376D01*
X0035098Y0137596D01*
X0034996Y0137820D01*
X0034899Y0138045D01*
X0034808Y0138273D01*
X0034723Y0138503D01*
X0034643Y0138735D01*
X0034569Y0138969D01*
X0034500Y0139205D01*
X0034438Y0139442D01*
X0034381Y0139681D01*
X0034330Y0139921D01*
X0034285Y0140162D01*
X0034246Y0140405D01*
X0034213Y0140648D01*
X0034186Y0140892D01*
X0034165Y0141136D01*
X0034150Y0141381D01*
X0034141Y0141627D01*
X0034138Y0141872D01*
X0032471Y0199201D02*
X0032474Y0199446D01*
X0032483Y0199692D01*
X0032498Y0199937D01*
X0032519Y0200181D01*
X0032546Y0200425D01*
X0032579Y0200668D01*
X0032618Y0200911D01*
X0032663Y0201152D01*
X0032714Y0201392D01*
X0032771Y0201631D01*
X0032833Y0201868D01*
X0032902Y0202104D01*
X0032976Y0202338D01*
X0033056Y0202570D01*
X0033141Y0202800D01*
X0033232Y0203028D01*
X0033329Y0203253D01*
X0033431Y0203477D01*
X0033539Y0203697D01*
X0033652Y0203915D01*
X0033770Y0204130D01*
X0033894Y0204342D01*
X0034022Y0204551D01*
X0034156Y0204757D01*
X0034295Y0204959D01*
X0034439Y0205158D01*
X0034588Y0205353D01*
X0034741Y0205545D01*
X0034899Y0205733D01*
X0035061Y0205917D01*
X0035229Y0206096D01*
X0035400Y0206272D01*
X0035576Y0206443D01*
X0035755Y0206611D01*
X0035939Y0206773D01*
X0036127Y0206931D01*
X0036319Y0207084D01*
X0036514Y0207233D01*
X0036713Y0207377D01*
X0036915Y0207516D01*
X0037121Y0207650D01*
X0037330Y0207778D01*
X0037542Y0207902D01*
X0037757Y0208020D01*
X0037975Y0208133D01*
X0038195Y0208241D01*
X0038419Y0208343D01*
X0038644Y0208440D01*
X0038872Y0208531D01*
X0039102Y0208616D01*
X0039334Y0208696D01*
X0039568Y0208770D01*
X0039804Y0208839D01*
X0040041Y0208901D01*
X0040280Y0208958D01*
X0040520Y0209009D01*
X0040761Y0209054D01*
X0041004Y0209093D01*
X0041247Y0209126D01*
X0041491Y0209153D01*
X0041735Y0209174D01*
X0041980Y0209189D01*
X0042226Y0209198D01*
X0042471Y0209201D01*
X0042716Y0209198D01*
X0042962Y0209189D01*
X0043207Y0209174D01*
X0043451Y0209153D01*
X0043695Y0209126D01*
X0043938Y0209093D01*
X0044181Y0209054D01*
X0044422Y0209009D01*
X0044662Y0208958D01*
X0044901Y0208901D01*
X0045138Y0208839D01*
X0045374Y0208770D01*
X0045608Y0208696D01*
X0045840Y0208616D01*
X0046070Y0208531D01*
X0046298Y0208440D01*
X0046523Y0208343D01*
X0046747Y0208241D01*
X0046967Y0208133D01*
X0047185Y0208020D01*
X0047400Y0207902D01*
X0047612Y0207778D01*
X0047821Y0207650D01*
X0048027Y0207516D01*
X0048229Y0207377D01*
X0048428Y0207233D01*
X0048623Y0207084D01*
X0048815Y0206931D01*
X0049003Y0206773D01*
X0049187Y0206611D01*
X0049366Y0206443D01*
X0049542Y0206272D01*
X0049713Y0206096D01*
X0049881Y0205917D01*
X0050043Y0205733D01*
X0050201Y0205545D01*
X0050354Y0205353D01*
X0050503Y0205158D01*
X0050647Y0204959D01*
X0050786Y0204757D01*
X0050920Y0204551D01*
X0051048Y0204342D01*
X0051172Y0204130D01*
X0051290Y0203915D01*
X0051403Y0203697D01*
X0051511Y0203477D01*
X0051613Y0203253D01*
X0051710Y0203028D01*
X0051801Y0202800D01*
X0051886Y0202570D01*
X0051966Y0202338D01*
X0052040Y0202104D01*
X0052109Y0201868D01*
X0052171Y0201631D01*
X0052228Y0201392D01*
X0052279Y0201152D01*
X0052324Y0200911D01*
X0052363Y0200668D01*
X0052396Y0200425D01*
X0052423Y0200181D01*
X0052444Y0199937D01*
X0052459Y0199692D01*
X0052468Y0199446D01*
X0052471Y0199201D01*
X0052468Y0198956D01*
X0052459Y0198710D01*
X0052444Y0198465D01*
X0052423Y0198221D01*
X0052396Y0197977D01*
X0052363Y0197734D01*
X0052324Y0197491D01*
X0052279Y0197250D01*
X0052228Y0197010D01*
X0052171Y0196771D01*
X0052109Y0196534D01*
X0052040Y0196298D01*
X0051966Y0196064D01*
X0051886Y0195832D01*
X0051801Y0195602D01*
X0051710Y0195374D01*
X0051613Y0195149D01*
X0051511Y0194925D01*
X0051403Y0194705D01*
X0051290Y0194487D01*
X0051172Y0194272D01*
X0051048Y0194060D01*
X0050920Y0193851D01*
X0050786Y0193645D01*
X0050647Y0193443D01*
X0050503Y0193244D01*
X0050354Y0193049D01*
X0050201Y0192857D01*
X0050043Y0192669D01*
X0049881Y0192485D01*
X0049713Y0192306D01*
X0049542Y0192130D01*
X0049366Y0191959D01*
X0049187Y0191791D01*
X0049003Y0191629D01*
X0048815Y0191471D01*
X0048623Y0191318D01*
X0048428Y0191169D01*
X0048229Y0191025D01*
X0048027Y0190886D01*
X0047821Y0190752D01*
X0047612Y0190624D01*
X0047400Y0190500D01*
X0047185Y0190382D01*
X0046967Y0190269D01*
X0046747Y0190161D01*
X0046523Y0190059D01*
X0046298Y0189962D01*
X0046070Y0189871D01*
X0045840Y0189786D01*
X0045608Y0189706D01*
X0045374Y0189632D01*
X0045138Y0189563D01*
X0044901Y0189501D01*
X0044662Y0189444D01*
X0044422Y0189393D01*
X0044181Y0189348D01*
X0043938Y0189309D01*
X0043695Y0189276D01*
X0043451Y0189249D01*
X0043207Y0189228D01*
X0042962Y0189213D01*
X0042716Y0189204D01*
X0042471Y0189201D01*
X0042226Y0189204D01*
X0041980Y0189213D01*
X0041735Y0189228D01*
X0041491Y0189249D01*
X0041247Y0189276D01*
X0041004Y0189309D01*
X0040761Y0189348D01*
X0040520Y0189393D01*
X0040280Y0189444D01*
X0040041Y0189501D01*
X0039804Y0189563D01*
X0039568Y0189632D01*
X0039334Y0189706D01*
X0039102Y0189786D01*
X0038872Y0189871D01*
X0038644Y0189962D01*
X0038419Y0190059D01*
X0038195Y0190161D01*
X0037975Y0190269D01*
X0037757Y0190382D01*
X0037542Y0190500D01*
X0037330Y0190624D01*
X0037121Y0190752D01*
X0036915Y0190886D01*
X0036713Y0191025D01*
X0036514Y0191169D01*
X0036319Y0191318D01*
X0036127Y0191471D01*
X0035939Y0191629D01*
X0035755Y0191791D01*
X0035576Y0191959D01*
X0035400Y0192130D01*
X0035229Y0192306D01*
X0035061Y0192485D01*
X0034899Y0192669D01*
X0034741Y0192857D01*
X0034588Y0193049D01*
X0034439Y0193244D01*
X0034295Y0193443D01*
X0034156Y0193645D01*
X0034022Y0193851D01*
X0033894Y0194060D01*
X0033770Y0194272D01*
X0033652Y0194487D01*
X0033539Y0194705D01*
X0033431Y0194925D01*
X0033329Y0195149D01*
X0033232Y0195374D01*
X0033141Y0195602D01*
X0033056Y0195832D01*
X0032976Y0196064D01*
X0032902Y0196298D01*
X0032833Y0196534D01*
X0032771Y0196771D01*
X0032714Y0197010D01*
X0032663Y0197250D01*
X0032618Y0197491D01*
X0032579Y0197734D01*
X0032546Y0197977D01*
X0032519Y0198221D01*
X0032498Y0198465D01*
X0032483Y0198710D01*
X0032474Y0198956D01*
X0032471Y0199201D01*
X0115603Y0206265D02*
X0118103Y0203765D01*
X0133103Y0203765D01*
X0135603Y0206265D01*
X0135603Y0211265D01*
X0133103Y0213765D01*
X0118103Y0213765D01*
X0115603Y0216265D01*
X0115603Y0221265D01*
X0118103Y0223765D01*
X0133103Y0223765D01*
X0135603Y0226265D01*
X0135603Y0231265D01*
X0133103Y0233765D01*
X0135603Y0236265D01*
X0135603Y0241265D01*
X0133103Y0243765D01*
X0118103Y0243765D01*
X0115603Y0241265D01*
X0115603Y0236265D01*
X0118103Y0233765D01*
X0133103Y0233765D01*
X0133103Y0223765D02*
X0135603Y0221265D01*
X0135603Y0216265D01*
X0133103Y0213765D01*
X0118103Y0213765D02*
X0115603Y0211265D01*
X0115603Y0206265D01*
X0118103Y0223765D02*
X0115603Y0226265D01*
X0115603Y0231265D01*
X0118103Y0233765D01*
X0129635Y0290304D02*
X0129638Y0290549D01*
X0129647Y0290795D01*
X0129662Y0291040D01*
X0129683Y0291284D01*
X0129710Y0291528D01*
X0129743Y0291771D01*
X0129782Y0292014D01*
X0129827Y0292255D01*
X0129878Y0292495D01*
X0129935Y0292734D01*
X0129997Y0292971D01*
X0130066Y0293207D01*
X0130140Y0293441D01*
X0130220Y0293673D01*
X0130305Y0293903D01*
X0130396Y0294131D01*
X0130493Y0294356D01*
X0130595Y0294580D01*
X0130703Y0294800D01*
X0130816Y0295018D01*
X0130934Y0295233D01*
X0131058Y0295445D01*
X0131186Y0295654D01*
X0131320Y0295860D01*
X0131459Y0296062D01*
X0131603Y0296261D01*
X0131752Y0296456D01*
X0131905Y0296648D01*
X0132063Y0296836D01*
X0132225Y0297020D01*
X0132393Y0297199D01*
X0132564Y0297375D01*
X0132740Y0297546D01*
X0132919Y0297714D01*
X0133103Y0297876D01*
X0133291Y0298034D01*
X0133483Y0298187D01*
X0133678Y0298336D01*
X0133877Y0298480D01*
X0134079Y0298619D01*
X0134285Y0298753D01*
X0134494Y0298881D01*
X0134706Y0299005D01*
X0134921Y0299123D01*
X0135139Y0299236D01*
X0135359Y0299344D01*
X0135583Y0299446D01*
X0135808Y0299543D01*
X0136036Y0299634D01*
X0136266Y0299719D01*
X0136498Y0299799D01*
X0136732Y0299873D01*
X0136968Y0299942D01*
X0137205Y0300004D01*
X0137444Y0300061D01*
X0137684Y0300112D01*
X0137925Y0300157D01*
X0138168Y0300196D01*
X0138411Y0300229D01*
X0138655Y0300256D01*
X0138899Y0300277D01*
X0139144Y0300292D01*
X0139390Y0300301D01*
X0139635Y0300304D01*
X0139880Y0300301D01*
X0140126Y0300292D01*
X0140371Y0300277D01*
X0140615Y0300256D01*
X0140859Y0300229D01*
X0141102Y0300196D01*
X0141345Y0300157D01*
X0141586Y0300112D01*
X0141826Y0300061D01*
X0142065Y0300004D01*
X0142302Y0299942D01*
X0142538Y0299873D01*
X0142772Y0299799D01*
X0143004Y0299719D01*
X0143234Y0299634D01*
X0143462Y0299543D01*
X0143687Y0299446D01*
X0143911Y0299344D01*
X0144131Y0299236D01*
X0144349Y0299123D01*
X0144564Y0299005D01*
X0144776Y0298881D01*
X0144985Y0298753D01*
X0145191Y0298619D01*
X0145393Y0298480D01*
X0145592Y0298336D01*
X0145787Y0298187D01*
X0145979Y0298034D01*
X0146167Y0297876D01*
X0146351Y0297714D01*
X0146530Y0297546D01*
X0146706Y0297375D01*
X0146877Y0297199D01*
X0147045Y0297020D01*
X0147207Y0296836D01*
X0147365Y0296648D01*
X0147518Y0296456D01*
X0147667Y0296261D01*
X0147811Y0296062D01*
X0147950Y0295860D01*
X0148084Y0295654D01*
X0148212Y0295445D01*
X0148336Y0295233D01*
X0148454Y0295018D01*
X0148567Y0294800D01*
X0148675Y0294580D01*
X0148777Y0294356D01*
X0148874Y0294131D01*
X0148965Y0293903D01*
X0149050Y0293673D01*
X0149130Y0293441D01*
X0149204Y0293207D01*
X0149273Y0292971D01*
X0149335Y0292734D01*
X0149392Y0292495D01*
X0149443Y0292255D01*
X0149488Y0292014D01*
X0149527Y0291771D01*
X0149560Y0291528D01*
X0149587Y0291284D01*
X0149608Y0291040D01*
X0149623Y0290795D01*
X0149632Y0290549D01*
X0149635Y0290304D01*
X0149632Y0290059D01*
X0149623Y0289813D01*
X0149608Y0289568D01*
X0149587Y0289324D01*
X0149560Y0289080D01*
X0149527Y0288837D01*
X0149488Y0288594D01*
X0149443Y0288353D01*
X0149392Y0288113D01*
X0149335Y0287874D01*
X0149273Y0287637D01*
X0149204Y0287401D01*
X0149130Y0287167D01*
X0149050Y0286935D01*
X0148965Y0286705D01*
X0148874Y0286477D01*
X0148777Y0286252D01*
X0148675Y0286028D01*
X0148567Y0285808D01*
X0148454Y0285590D01*
X0148336Y0285375D01*
X0148212Y0285163D01*
X0148084Y0284954D01*
X0147950Y0284748D01*
X0147811Y0284546D01*
X0147667Y0284347D01*
X0147518Y0284152D01*
X0147365Y0283960D01*
X0147207Y0283772D01*
X0147045Y0283588D01*
X0146877Y0283409D01*
X0146706Y0283233D01*
X0146530Y0283062D01*
X0146351Y0282894D01*
X0146167Y0282732D01*
X0145979Y0282574D01*
X0145787Y0282421D01*
X0145592Y0282272D01*
X0145393Y0282128D01*
X0145191Y0281989D01*
X0144985Y0281855D01*
X0144776Y0281727D01*
X0144564Y0281603D01*
X0144349Y0281485D01*
X0144131Y0281372D01*
X0143911Y0281264D01*
X0143687Y0281162D01*
X0143462Y0281065D01*
X0143234Y0280974D01*
X0143004Y0280889D01*
X0142772Y0280809D01*
X0142538Y0280735D01*
X0142302Y0280666D01*
X0142065Y0280604D01*
X0141826Y0280547D01*
X0141586Y0280496D01*
X0141345Y0280451D01*
X0141102Y0280412D01*
X0140859Y0280379D01*
X0140615Y0280352D01*
X0140371Y0280331D01*
X0140126Y0280316D01*
X0139880Y0280307D01*
X0139635Y0280304D01*
X0139390Y0280307D01*
X0139144Y0280316D01*
X0138899Y0280331D01*
X0138655Y0280352D01*
X0138411Y0280379D01*
X0138168Y0280412D01*
X0137925Y0280451D01*
X0137684Y0280496D01*
X0137444Y0280547D01*
X0137205Y0280604D01*
X0136968Y0280666D01*
X0136732Y0280735D01*
X0136498Y0280809D01*
X0136266Y0280889D01*
X0136036Y0280974D01*
X0135808Y0281065D01*
X0135583Y0281162D01*
X0135359Y0281264D01*
X0135139Y0281372D01*
X0134921Y0281485D01*
X0134706Y0281603D01*
X0134494Y0281727D01*
X0134285Y0281855D01*
X0134079Y0281989D01*
X0133877Y0282128D01*
X0133678Y0282272D01*
X0133483Y0282421D01*
X0133291Y0282574D01*
X0133103Y0282732D01*
X0132919Y0282894D01*
X0132740Y0283062D01*
X0132564Y0283233D01*
X0132393Y0283409D01*
X0132225Y0283588D01*
X0132063Y0283772D01*
X0131905Y0283960D01*
X0131752Y0284152D01*
X0131603Y0284347D01*
X0131459Y0284546D01*
X0131320Y0284748D01*
X0131186Y0284954D01*
X0131058Y0285163D01*
X0130934Y0285375D01*
X0130816Y0285590D01*
X0130703Y0285808D01*
X0130595Y0286028D01*
X0130493Y0286252D01*
X0130396Y0286477D01*
X0130305Y0286705D01*
X0130220Y0286935D01*
X0130140Y0287167D01*
X0130066Y0287401D01*
X0129997Y0287637D01*
X0129935Y0287874D01*
X0129878Y0288113D01*
X0129827Y0288353D01*
X0129782Y0288594D01*
X0129743Y0288837D01*
X0129710Y0289080D01*
X0129683Y0289324D01*
X0129662Y0289568D01*
X0129647Y0289813D01*
X0129638Y0290059D01*
X0129635Y0290304D01*
X0343769Y0275678D02*
X0343769Y0270678D01*
X0346269Y0268178D01*
X0361269Y0268178D01*
X0363769Y0270678D01*
X0363769Y0275678D01*
X0361269Y0278178D01*
X0346269Y0278178D01*
X0343769Y0275678D01*
X0346269Y0268178D02*
X0343769Y0265678D01*
X0343769Y0260678D01*
X0346269Y0258178D01*
X0361269Y0258178D01*
X0363769Y0260678D01*
X0363769Y0265678D01*
X0361269Y0268178D01*
X0361269Y0258178D02*
X0363769Y0255678D01*
X0363769Y0250678D01*
X0361269Y0248178D01*
X0346269Y0248178D01*
X0343769Y0250678D01*
X0343769Y0255678D01*
X0346269Y0258178D01*
X0324981Y0104969D02*
X0324784Y0104969D01*
X0324981Y0104969D02*
X0324981Y0098591D01*
X0324784Y0098591D01*
X0320847Y0104969D02*
X0317304Y0104969D01*
X0313367Y0104969D02*
X0313170Y0104969D01*
X0313170Y0098591D01*
X0313367Y0098591D01*
X0345737Y0098080D02*
X0345737Y0093080D01*
X0348237Y0090580D01*
X0363237Y0090580D01*
X0365737Y0088080D01*
X0365737Y0083080D01*
X0363237Y0080580D01*
X0365737Y0078080D01*
X0365737Y0073080D01*
X0363237Y0070580D01*
X0348237Y0070580D01*
X0345737Y0073080D01*
X0345737Y0078080D01*
X0348237Y0080580D01*
X0363237Y0080580D01*
X0363237Y0090580D02*
X0365737Y0093080D01*
X0365737Y0098080D01*
X0363237Y0100580D01*
X0348237Y0100580D01*
X0345737Y0098080D01*
X0348237Y0090580D02*
X0345737Y0088080D01*
X0345737Y0083080D01*
X0348237Y0080580D01*
X0131603Y0050422D02*
X0131606Y0050667D01*
X0131615Y0050913D01*
X0131630Y0051158D01*
X0131651Y0051402D01*
X0131678Y0051646D01*
X0131711Y0051889D01*
X0131750Y0052132D01*
X0131795Y0052373D01*
X0131846Y0052613D01*
X0131903Y0052852D01*
X0131965Y0053089D01*
X0132034Y0053325D01*
X0132108Y0053559D01*
X0132188Y0053791D01*
X0132273Y0054021D01*
X0132364Y0054249D01*
X0132461Y0054474D01*
X0132563Y0054698D01*
X0132671Y0054918D01*
X0132784Y0055136D01*
X0132902Y0055351D01*
X0133026Y0055563D01*
X0133154Y0055772D01*
X0133288Y0055978D01*
X0133427Y0056180D01*
X0133571Y0056379D01*
X0133720Y0056574D01*
X0133873Y0056766D01*
X0134031Y0056954D01*
X0134193Y0057138D01*
X0134361Y0057317D01*
X0134532Y0057493D01*
X0134708Y0057664D01*
X0134887Y0057832D01*
X0135071Y0057994D01*
X0135259Y0058152D01*
X0135451Y0058305D01*
X0135646Y0058454D01*
X0135845Y0058598D01*
X0136047Y0058737D01*
X0136253Y0058871D01*
X0136462Y0058999D01*
X0136674Y0059123D01*
X0136889Y0059241D01*
X0137107Y0059354D01*
X0137327Y0059462D01*
X0137551Y0059564D01*
X0137776Y0059661D01*
X0138004Y0059752D01*
X0138234Y0059837D01*
X0138466Y0059917D01*
X0138700Y0059991D01*
X0138936Y0060060D01*
X0139173Y0060122D01*
X0139412Y0060179D01*
X0139652Y0060230D01*
X0139893Y0060275D01*
X0140136Y0060314D01*
X0140379Y0060347D01*
X0140623Y0060374D01*
X0140867Y0060395D01*
X0141112Y0060410D01*
X0141358Y0060419D01*
X0141603Y0060422D01*
X0141848Y0060419D01*
X0142094Y0060410D01*
X0142339Y0060395D01*
X0142583Y0060374D01*
X0142827Y0060347D01*
X0143070Y0060314D01*
X0143313Y0060275D01*
X0143554Y0060230D01*
X0143794Y0060179D01*
X0144033Y0060122D01*
X0144270Y0060060D01*
X0144506Y0059991D01*
X0144740Y0059917D01*
X0144972Y0059837D01*
X0145202Y0059752D01*
X0145430Y0059661D01*
X0145655Y0059564D01*
X0145879Y0059462D01*
X0146099Y0059354D01*
X0146317Y0059241D01*
X0146532Y0059123D01*
X0146744Y0058999D01*
X0146953Y0058871D01*
X0147159Y0058737D01*
X0147361Y0058598D01*
X0147560Y0058454D01*
X0147755Y0058305D01*
X0147947Y0058152D01*
X0148135Y0057994D01*
X0148319Y0057832D01*
X0148498Y0057664D01*
X0148674Y0057493D01*
X0148845Y0057317D01*
X0149013Y0057138D01*
X0149175Y0056954D01*
X0149333Y0056766D01*
X0149486Y0056574D01*
X0149635Y0056379D01*
X0149779Y0056180D01*
X0149918Y0055978D01*
X0150052Y0055772D01*
X0150180Y0055563D01*
X0150304Y0055351D01*
X0150422Y0055136D01*
X0150535Y0054918D01*
X0150643Y0054698D01*
X0150745Y0054474D01*
X0150842Y0054249D01*
X0150933Y0054021D01*
X0151018Y0053791D01*
X0151098Y0053559D01*
X0151172Y0053325D01*
X0151241Y0053089D01*
X0151303Y0052852D01*
X0151360Y0052613D01*
X0151411Y0052373D01*
X0151456Y0052132D01*
X0151495Y0051889D01*
X0151528Y0051646D01*
X0151555Y0051402D01*
X0151576Y0051158D01*
X0151591Y0050913D01*
X0151600Y0050667D01*
X0151603Y0050422D01*
X0151600Y0050177D01*
X0151591Y0049931D01*
X0151576Y0049686D01*
X0151555Y0049442D01*
X0151528Y0049198D01*
X0151495Y0048955D01*
X0151456Y0048712D01*
X0151411Y0048471D01*
X0151360Y0048231D01*
X0151303Y0047992D01*
X0151241Y0047755D01*
X0151172Y0047519D01*
X0151098Y0047285D01*
X0151018Y0047053D01*
X0150933Y0046823D01*
X0150842Y0046595D01*
X0150745Y0046370D01*
X0150643Y0046146D01*
X0150535Y0045926D01*
X0150422Y0045708D01*
X0150304Y0045493D01*
X0150180Y0045281D01*
X0150052Y0045072D01*
X0149918Y0044866D01*
X0149779Y0044664D01*
X0149635Y0044465D01*
X0149486Y0044270D01*
X0149333Y0044078D01*
X0149175Y0043890D01*
X0149013Y0043706D01*
X0148845Y0043527D01*
X0148674Y0043351D01*
X0148498Y0043180D01*
X0148319Y0043012D01*
X0148135Y0042850D01*
X0147947Y0042692D01*
X0147755Y0042539D01*
X0147560Y0042390D01*
X0147361Y0042246D01*
X0147159Y0042107D01*
X0146953Y0041973D01*
X0146744Y0041845D01*
X0146532Y0041721D01*
X0146317Y0041603D01*
X0146099Y0041490D01*
X0145879Y0041382D01*
X0145655Y0041280D01*
X0145430Y0041183D01*
X0145202Y0041092D01*
X0144972Y0041007D01*
X0144740Y0040927D01*
X0144506Y0040853D01*
X0144270Y0040784D01*
X0144033Y0040722D01*
X0143794Y0040665D01*
X0143554Y0040614D01*
X0143313Y0040569D01*
X0143070Y0040530D01*
X0142827Y0040497D01*
X0142583Y0040470D01*
X0142339Y0040449D01*
X0142094Y0040434D01*
X0141848Y0040425D01*
X0141603Y0040422D01*
X0141358Y0040425D01*
X0141112Y0040434D01*
X0140867Y0040449D01*
X0140623Y0040470D01*
X0140379Y0040497D01*
X0140136Y0040530D01*
X0139893Y0040569D01*
X0139652Y0040614D01*
X0139412Y0040665D01*
X0139173Y0040722D01*
X0138936Y0040784D01*
X0138700Y0040853D01*
X0138466Y0040927D01*
X0138234Y0041007D01*
X0138004Y0041092D01*
X0137776Y0041183D01*
X0137551Y0041280D01*
X0137327Y0041382D01*
X0137107Y0041490D01*
X0136889Y0041603D01*
X0136674Y0041721D01*
X0136462Y0041845D01*
X0136253Y0041973D01*
X0136047Y0042107D01*
X0135845Y0042246D01*
X0135646Y0042390D01*
X0135451Y0042539D01*
X0135259Y0042692D01*
X0135071Y0042850D01*
X0134887Y0043012D01*
X0134708Y0043180D01*
X0134532Y0043351D01*
X0134361Y0043527D01*
X0134193Y0043706D01*
X0134031Y0043890D01*
X0133873Y0044078D01*
X0133720Y0044270D01*
X0133571Y0044465D01*
X0133427Y0044664D01*
X0133288Y0044866D01*
X0133154Y0045072D01*
X0133026Y0045281D01*
X0132902Y0045493D01*
X0132784Y0045708D01*
X0132671Y0045926D01*
X0132563Y0046146D01*
X0132461Y0046370D01*
X0132364Y0046595D01*
X0132273Y0046823D01*
X0132188Y0047053D01*
X0132108Y0047285D01*
X0132034Y0047519D01*
X0131965Y0047755D01*
X0131903Y0047992D01*
X0131846Y0048231D01*
X0131795Y0048471D01*
X0131750Y0048712D01*
X0131711Y0048955D01*
X0131678Y0049198D01*
X0131651Y0049442D01*
X0131630Y0049686D01*
X0131615Y0049931D01*
X0131606Y0050177D01*
X0131603Y0050422D01*
D11*
X0134831Y0072548D02*
X0124980Y0073164D01*
X0119084Y0079438D02*
X0119086Y0079593D01*
X0119092Y0079749D01*
X0119101Y0079904D01*
X0119115Y0080059D01*
X0119132Y0080213D01*
X0119153Y0080367D01*
X0119178Y0080521D01*
X0119207Y0080673D01*
X0119239Y0080825D01*
X0119276Y0080977D01*
X0119316Y0081127D01*
X0119359Y0081276D01*
X0119407Y0081424D01*
X0119458Y0081571D01*
X0119512Y0081717D01*
X0119570Y0081861D01*
X0119632Y0082003D01*
X0119697Y0082145D01*
X0119766Y0082284D01*
X0119838Y0082422D01*
X0119914Y0082558D01*
X0119992Y0082692D01*
X0120075Y0082824D01*
X0120160Y0082953D01*
X0120248Y0083081D01*
X0120340Y0083207D01*
X0120435Y0083330D01*
X0120533Y0083451D01*
X0120633Y0083569D01*
X0120737Y0083685D01*
X0120843Y0083798D01*
X0120953Y0083909D01*
X0121065Y0084017D01*
X0121179Y0084122D01*
X0121296Y0084224D01*
X0121416Y0084324D01*
X0121538Y0084420D01*
X0121662Y0084513D01*
X0121789Y0084603D01*
X0121918Y0084690D01*
X0122049Y0084774D01*
X0122182Y0084855D01*
X0122317Y0084932D01*
X0122453Y0085006D01*
X0122592Y0085076D01*
X0122732Y0085143D01*
X0122874Y0085207D01*
X0123018Y0085267D01*
X0123162Y0085323D01*
X0123309Y0085376D01*
X0123456Y0085425D01*
X0123605Y0085471D01*
X0123754Y0085512D01*
X0123905Y0085550D01*
X0124057Y0085585D01*
X0124209Y0085616D01*
X0124362Y0085642D01*
X0124516Y0085665D01*
X0124670Y0085685D01*
X0124825Y0085700D01*
X0124980Y0085712D01*
X0134831Y0086328D01*
X0134831Y0072548D01*
X0134831Y0071564D01*
X0138769Y0071564D01*
X0138769Y0087312D01*
X0134831Y0087312D01*
X0134831Y0086328D01*
X0124980Y0073164D02*
X0124825Y0073176D01*
X0124670Y0073191D01*
X0124516Y0073211D01*
X0124362Y0073234D01*
X0124209Y0073260D01*
X0124057Y0073291D01*
X0123905Y0073326D01*
X0123754Y0073364D01*
X0123605Y0073405D01*
X0123456Y0073451D01*
X0123309Y0073500D01*
X0123162Y0073553D01*
X0123018Y0073609D01*
X0122874Y0073669D01*
X0122732Y0073733D01*
X0122592Y0073800D01*
X0122453Y0073870D01*
X0122317Y0073944D01*
X0122182Y0074021D01*
X0122049Y0074102D01*
X0121918Y0074186D01*
X0121789Y0074273D01*
X0121662Y0074363D01*
X0121538Y0074456D01*
X0121416Y0074552D01*
X0121296Y0074652D01*
X0121179Y0074754D01*
X0121065Y0074859D01*
X0120953Y0074967D01*
X0120843Y0075078D01*
X0120737Y0075191D01*
X0120633Y0075307D01*
X0120533Y0075425D01*
X0120435Y0075546D01*
X0120340Y0075669D01*
X0120248Y0075795D01*
X0120160Y0075923D01*
X0120075Y0076052D01*
X0119992Y0076184D01*
X0119914Y0076318D01*
X0119838Y0076454D01*
X0119766Y0076592D01*
X0119697Y0076731D01*
X0119632Y0076873D01*
X0119570Y0077015D01*
X0119512Y0077159D01*
X0119458Y0077305D01*
X0119407Y0077452D01*
X0119359Y0077600D01*
X0119316Y0077749D01*
X0119276Y0077899D01*
X0119239Y0078051D01*
X0119207Y0078203D01*
X0119178Y0078355D01*
X0119153Y0078509D01*
X0119132Y0078663D01*
X0119115Y0078817D01*
X0119101Y0078972D01*
X0119092Y0079127D01*
X0119086Y0079283D01*
X0119084Y0079438D01*
X0064320Y0110427D02*
X0060911Y0108459D01*
X0060419Y0109311D01*
X0051579Y0104919D01*
X0043335Y0107404D02*
X0043259Y0107539D01*
X0043187Y0107677D01*
X0043118Y0107816D01*
X0043052Y0107957D01*
X0042990Y0108099D01*
X0042931Y0108243D01*
X0042876Y0108388D01*
X0042824Y0108535D01*
X0042776Y0108683D01*
X0042732Y0108832D01*
X0042692Y0108982D01*
X0042655Y0109133D01*
X0042622Y0109285D01*
X0042592Y0109438D01*
X0042567Y0109591D01*
X0042545Y0109745D01*
X0042527Y0109899D01*
X0042513Y0110054D01*
X0042503Y0110209D01*
X0042497Y0110365D01*
X0042494Y0110520D01*
X0042495Y0110676D01*
X0042500Y0110831D01*
X0042509Y0110986D01*
X0042522Y0111141D01*
X0042539Y0111296D01*
X0042559Y0111450D01*
X0042584Y0111603D01*
X0042612Y0111756D01*
X0042643Y0111908D01*
X0042679Y0112060D01*
X0042718Y0112210D01*
X0042761Y0112359D01*
X0042808Y0112508D01*
X0042858Y0112655D01*
X0042912Y0112801D01*
X0042970Y0112945D01*
X0043031Y0113088D01*
X0043095Y0113229D01*
X0043163Y0113369D01*
X0043235Y0113507D01*
X0043310Y0113643D01*
X0043388Y0113778D01*
X0043470Y0113910D01*
X0043554Y0114040D01*
X0043642Y0114169D01*
X0043733Y0114294D01*
X0043828Y0114418D01*
X0043925Y0114539D01*
X0044025Y0114658D01*
X0044128Y0114775D01*
X0044234Y0114888D01*
X0044343Y0114999D01*
X0044454Y0115108D01*
X0044568Y0115213D01*
X0044685Y0115316D01*
X0044804Y0115416D01*
X0044926Y0115513D01*
X0045050Y0115607D01*
X0045176Y0115697D01*
X0045305Y0115785D01*
X0045305Y0115786D02*
X0053529Y0121245D01*
X0060419Y0109311D01*
X0064320Y0110427D02*
X0056446Y0124066D01*
X0053037Y0122097D01*
X0053529Y0121245D01*
X0051578Y0104919D02*
X0051438Y0104852D01*
X0051297Y0104788D01*
X0051153Y0104727D01*
X0051009Y0104670D01*
X0050863Y0104617D01*
X0050715Y0104567D01*
X0050567Y0104521D01*
X0050417Y0104479D01*
X0050267Y0104440D01*
X0050115Y0104405D01*
X0049963Y0104374D01*
X0049810Y0104347D01*
X0049656Y0104323D01*
X0049502Y0104304D01*
X0049347Y0104288D01*
X0049192Y0104276D01*
X0049037Y0104267D01*
X0048882Y0104263D01*
X0048726Y0104262D01*
X0048571Y0104265D01*
X0048416Y0104273D01*
X0048261Y0104283D01*
X0048106Y0104298D01*
X0047951Y0104317D01*
X0047798Y0104339D01*
X0047644Y0104365D01*
X0047492Y0104395D01*
X0047340Y0104429D01*
X0047189Y0104467D01*
X0047039Y0104508D01*
X0046891Y0104553D01*
X0046743Y0104601D01*
X0046596Y0104653D01*
X0046451Y0104709D01*
X0046308Y0104768D01*
X0046165Y0104831D01*
X0046025Y0104898D01*
X0045886Y0104968D01*
X0045749Y0105041D01*
X0045614Y0105117D01*
X0045480Y0105197D01*
X0045349Y0105281D01*
X0045220Y0105367D01*
X0045093Y0105457D01*
X0044968Y0105549D01*
X0044846Y0105645D01*
X0044725Y0105744D01*
X0044608Y0105845D01*
X0044493Y0105950D01*
X0044380Y0106057D01*
X0044271Y0106168D01*
X0044164Y0106280D01*
X0044060Y0106396D01*
X0043958Y0106514D01*
X0043860Y0106634D01*
X0043765Y0106757D01*
X0043673Y0106882D01*
X0043583Y0107010D01*
X0043498Y0107139D01*
X0043415Y0107271D01*
X0043335Y0107404D01*
X0147883Y0166064D02*
X0147883Y0179843D01*
X0147883Y0181812D01*
X0151820Y0185749D01*
X0167568Y0185749D01*
X0167568Y0166064D01*
X0147883Y0166064D01*
X0148276Y0171969D02*
X0148342Y0171971D01*
X0148408Y0171976D01*
X0148474Y0171986D01*
X0148539Y0171999D01*
X0148603Y0172015D01*
X0148666Y0172035D01*
X0148728Y0172059D01*
X0148788Y0172086D01*
X0148847Y0172116D01*
X0148904Y0172150D01*
X0148959Y0172187D01*
X0149012Y0172227D01*
X0149063Y0172269D01*
X0149111Y0172315D01*
X0149157Y0172363D01*
X0149199Y0172414D01*
X0149239Y0172467D01*
X0149276Y0172522D01*
X0149310Y0172579D01*
X0149340Y0172638D01*
X0149367Y0172698D01*
X0149391Y0172760D01*
X0149411Y0172823D01*
X0149427Y0172887D01*
X0149440Y0172952D01*
X0149450Y0173018D01*
X0149455Y0173084D01*
X0149457Y0173150D01*
X0149457Y0178662D01*
X0149458Y0178662D02*
X0149446Y0178734D01*
X0149430Y0178805D01*
X0149410Y0178875D01*
X0149387Y0178944D01*
X0149360Y0179012D01*
X0149330Y0179078D01*
X0149296Y0179143D01*
X0149259Y0179205D01*
X0149218Y0179266D01*
X0149175Y0179324D01*
X0149128Y0179381D01*
X0149079Y0179434D01*
X0149027Y0179485D01*
X0148972Y0179533D01*
X0148915Y0179579D01*
X0148856Y0179621D01*
X0148794Y0179660D01*
X0148731Y0179696D01*
X0148665Y0179728D01*
X0148599Y0179757D01*
X0148530Y0179782D01*
X0148461Y0179804D01*
X0148390Y0179822D01*
X0148319Y0179836D01*
X0148247Y0179847D01*
X0148174Y0179854D01*
X0148101Y0179857D01*
X0148028Y0179856D01*
X0147956Y0179851D01*
X0147883Y0179843D01*
X0145127Y0179056D02*
X0145037Y0178969D01*
X0144950Y0178880D01*
X0144865Y0178788D01*
X0144784Y0178693D01*
X0144705Y0178596D01*
X0144629Y0178496D01*
X0144557Y0178395D01*
X0144488Y0178291D01*
X0144422Y0178185D01*
X0144359Y0178076D01*
X0144300Y0177966D01*
X0144244Y0177855D01*
X0144191Y0177741D01*
X0144142Y0177626D01*
X0144097Y0177510D01*
X0144055Y0177392D01*
X0144017Y0177273D01*
X0143983Y0177153D01*
X0143952Y0177032D01*
X0143925Y0176910D01*
X0143902Y0176787D01*
X0143883Y0176664D01*
X0143868Y0176540D01*
X0143856Y0176415D01*
X0143848Y0176290D01*
X0143844Y0176165D01*
X0143844Y0176041D01*
X0143848Y0175916D01*
X0143856Y0175791D01*
X0143868Y0175666D01*
X0143883Y0175542D01*
X0143902Y0175419D01*
X0143925Y0175296D01*
X0143952Y0175174D01*
X0143983Y0175053D01*
X0144017Y0174933D01*
X0144055Y0174814D01*
X0144097Y0174696D01*
X0144142Y0174580D01*
X0144191Y0174465D01*
X0144244Y0174351D01*
X0144300Y0174240D01*
X0144359Y0174130D01*
X0144422Y0174021D01*
X0144488Y0173915D01*
X0144557Y0173811D01*
X0144629Y0173710D01*
X0144705Y0173610D01*
X0144784Y0173513D01*
X0144865Y0173418D01*
X0144950Y0173326D01*
X0145037Y0173237D01*
X0145127Y0173150D01*
X0147095Y0175513D02*
X0147054Y0175546D01*
X0147016Y0175582D01*
X0146980Y0175620D01*
X0146947Y0175661D01*
X0146917Y0175704D01*
X0146890Y0175750D01*
X0146867Y0175797D01*
X0146846Y0175845D01*
X0146830Y0175895D01*
X0146817Y0175946D01*
X0146807Y0175998D01*
X0146802Y0176050D01*
X0146800Y0176103D01*
X0146802Y0176156D01*
X0146807Y0176208D01*
X0146817Y0176260D01*
X0146830Y0176311D01*
X0146846Y0176361D01*
X0146867Y0176409D01*
X0146890Y0176456D01*
X0146917Y0176502D01*
X0146947Y0176545D01*
X0146980Y0176586D01*
X0147016Y0176624D01*
X0147054Y0176660D01*
X0147095Y0176693D01*
X0146308Y0177874D02*
X0146236Y0177816D01*
X0146167Y0177754D01*
X0146100Y0177690D01*
X0146035Y0177623D01*
X0145974Y0177554D01*
X0145916Y0177482D01*
X0145860Y0177407D01*
X0145808Y0177331D01*
X0145759Y0177252D01*
X0145713Y0177171D01*
X0145670Y0177089D01*
X0145631Y0177005D01*
X0145596Y0176919D01*
X0145564Y0176832D01*
X0145535Y0176744D01*
X0145511Y0176654D01*
X0145490Y0176564D01*
X0145473Y0176472D01*
X0145459Y0176381D01*
X0145450Y0176288D01*
X0145444Y0176196D01*
X0145442Y0176103D01*
X0145444Y0176010D01*
X0145450Y0175918D01*
X0145459Y0175825D01*
X0145473Y0175734D01*
X0145490Y0175642D01*
X0145511Y0175552D01*
X0145535Y0175462D01*
X0145564Y0175374D01*
X0145596Y0175287D01*
X0145631Y0175201D01*
X0145670Y0175117D01*
X0145713Y0175035D01*
X0145759Y0174954D01*
X0145808Y0174875D01*
X0145860Y0174799D01*
X0145916Y0174724D01*
X0145974Y0174652D01*
X0146035Y0174583D01*
X0146100Y0174516D01*
X0146167Y0174452D01*
X0146236Y0174390D01*
X0146308Y0174332D01*
X0162779Y0170788D02*
X0162781Y0170858D01*
X0162787Y0170929D01*
X0162797Y0170998D01*
X0162811Y0171067D01*
X0162829Y0171136D01*
X0162850Y0171203D01*
X0162875Y0171269D01*
X0162904Y0171333D01*
X0162937Y0171395D01*
X0162973Y0171456D01*
X0163013Y0171514D01*
X0163055Y0171570D01*
X0163101Y0171624D01*
X0163150Y0171675D01*
X0163201Y0171723D01*
X0163256Y0171768D01*
X0163312Y0171810D01*
X0163371Y0171848D01*
X0163432Y0171883D01*
X0163495Y0171915D01*
X0163560Y0171943D01*
X0163626Y0171968D01*
X0163693Y0171988D01*
X0163762Y0172005D01*
X0163831Y0172018D01*
X0163901Y0172027D01*
X0163971Y0172032D01*
X0164042Y0172033D01*
X0164112Y0172030D01*
X0164182Y0172023D01*
X0164252Y0172012D01*
X0164321Y0171997D01*
X0164389Y0171978D01*
X0164455Y0171956D01*
X0164521Y0171930D01*
X0164585Y0171900D01*
X0164647Y0171866D01*
X0164707Y0171829D01*
X0164764Y0171789D01*
X0164820Y0171745D01*
X0164873Y0171699D01*
X0164923Y0171649D01*
X0164970Y0171597D01*
X0165014Y0171542D01*
X0165055Y0171485D01*
X0165093Y0171426D01*
X0165128Y0171364D01*
X0165158Y0171301D01*
X0165186Y0171236D01*
X0165209Y0171169D01*
X0165229Y0171102D01*
X0165245Y0171033D01*
X0165257Y0170964D01*
X0165265Y0170894D01*
X0165269Y0170823D01*
X0165269Y0170753D01*
X0165265Y0170682D01*
X0165257Y0170612D01*
X0165245Y0170543D01*
X0165229Y0170474D01*
X0165209Y0170407D01*
X0165186Y0170340D01*
X0165158Y0170275D01*
X0165128Y0170212D01*
X0165093Y0170150D01*
X0165055Y0170091D01*
X0165014Y0170034D01*
X0164970Y0169979D01*
X0164923Y0169927D01*
X0164873Y0169877D01*
X0164820Y0169831D01*
X0164764Y0169787D01*
X0164707Y0169747D01*
X0164646Y0169710D01*
X0164585Y0169676D01*
X0164521Y0169646D01*
X0164455Y0169620D01*
X0164389Y0169598D01*
X0164321Y0169579D01*
X0164252Y0169564D01*
X0164182Y0169553D01*
X0164112Y0169546D01*
X0164042Y0169543D01*
X0163971Y0169544D01*
X0163901Y0169549D01*
X0163831Y0169558D01*
X0163762Y0169571D01*
X0163693Y0169588D01*
X0163626Y0169608D01*
X0163560Y0169633D01*
X0163495Y0169661D01*
X0163432Y0169693D01*
X0163371Y0169728D01*
X0163312Y0169766D01*
X0163256Y0169808D01*
X0163201Y0169853D01*
X0163150Y0169901D01*
X0163101Y0169952D01*
X0163055Y0170006D01*
X0163013Y0170062D01*
X0162973Y0170120D01*
X0162937Y0170181D01*
X0162904Y0170243D01*
X0162875Y0170307D01*
X0162850Y0170373D01*
X0162829Y0170440D01*
X0162811Y0170509D01*
X0162797Y0170578D01*
X0162787Y0170647D01*
X0162781Y0170718D01*
X0162779Y0170788D01*
X0205934Y0159359D02*
X0251209Y0159359D01*
X0251209Y0104241D01*
X0259083Y0104241D01*
X0259083Y0066249D01*
X0259550Y0066255D01*
X0260017Y0066272D01*
X0260484Y0066300D01*
X0260950Y0066340D01*
X0261414Y0066391D01*
X0261878Y0066454D01*
X0262339Y0066527D01*
X0262799Y0066612D01*
X0263256Y0066708D01*
X0263711Y0066815D01*
X0264163Y0066934D01*
X0264612Y0067063D01*
X0265058Y0067203D01*
X0265501Y0067354D01*
X0265939Y0067515D01*
X0266374Y0067688D01*
X0266804Y0067871D01*
X0267230Y0068064D01*
X0267650Y0068267D01*
X0268066Y0068481D01*
X0268476Y0068705D01*
X0268881Y0068938D01*
X0269280Y0069182D01*
X0269673Y0069435D01*
X0270060Y0069698D01*
X0270440Y0069970D01*
X0270813Y0070251D01*
X0271180Y0070541D01*
X0271539Y0070840D01*
X0271891Y0071148D01*
X0272235Y0071464D01*
X0272572Y0071788D01*
X0272900Y0072121D01*
X0273220Y0072461D01*
X0273532Y0072809D01*
X0273836Y0073165D01*
X0274130Y0073528D01*
X0274416Y0073898D01*
X0274692Y0074274D01*
X0274960Y0074658D01*
X0275218Y0075048D01*
X0275466Y0075444D01*
X0275705Y0075846D01*
X0275933Y0076253D01*
X0276152Y0076666D01*
X0276361Y0077084D01*
X0276559Y0077508D01*
X0276747Y0077936D01*
X0276925Y0078368D01*
X0277092Y0078804D01*
X0277248Y0079245D01*
X0277394Y0079689D01*
X0277528Y0080137D01*
X0277652Y0080587D01*
X0277765Y0081041D01*
X0277866Y0081497D01*
X0277957Y0081956D01*
X0278036Y0082416D01*
X0278104Y0082879D01*
X0278161Y0083343D01*
X0278206Y0083808D01*
X0278240Y0084274D01*
X0278263Y0084741D01*
X0278275Y0085208D01*
X0278275Y0085676D01*
X0278263Y0086143D01*
X0278240Y0086610D01*
X0278206Y0087076D01*
X0278161Y0087541D01*
X0278104Y0088005D01*
X0278036Y0088468D01*
X0277957Y0088928D01*
X0277866Y0089387D01*
X0277765Y0089843D01*
X0277652Y0090297D01*
X0277528Y0090747D01*
X0277394Y0091195D01*
X0277248Y0091639D01*
X0277092Y0092080D01*
X0276925Y0092516D01*
X0276747Y0092948D01*
X0276559Y0093376D01*
X0276361Y0093800D01*
X0276152Y0094218D01*
X0275933Y0094631D01*
X0275705Y0095039D01*
X0275466Y0095440D01*
X0275218Y0095836D01*
X0274960Y0096226D01*
X0274692Y0096610D01*
X0274416Y0096986D01*
X0274130Y0097356D01*
X0273836Y0097719D01*
X0273532Y0098075D01*
X0273220Y0098423D01*
X0272900Y0098763D01*
X0272572Y0099096D01*
X0272235Y0099420D01*
X0271891Y0099736D01*
X0271539Y0100044D01*
X0271180Y0100343D01*
X0270813Y0100633D01*
X0270440Y0100914D01*
X0270060Y0101186D01*
X0269673Y0101449D01*
X0269280Y0101702D01*
X0268881Y0101946D01*
X0268476Y0102179D01*
X0268066Y0102403D01*
X0267650Y0102617D01*
X0267230Y0102820D01*
X0266804Y0103013D01*
X0266374Y0103196D01*
X0265939Y0103369D01*
X0265501Y0103530D01*
X0265058Y0103681D01*
X0264612Y0103821D01*
X0264163Y0103950D01*
X0263711Y0104069D01*
X0263256Y0104176D01*
X0262799Y0104272D01*
X0262339Y0104357D01*
X0261878Y0104430D01*
X0261414Y0104493D01*
X0260950Y0104544D01*
X0260484Y0104584D01*
X0260017Y0104612D01*
X0259550Y0104629D01*
X0259083Y0104635D01*
X0251209Y0104241D02*
X0205934Y0104241D01*
X0205934Y0159359D01*
X0205934Y0183769D02*
X0205934Y0238887D01*
X0198060Y0238887D01*
X0198060Y0276879D01*
X0197593Y0276873D01*
X0197126Y0276856D01*
X0196659Y0276828D01*
X0196193Y0276788D01*
X0195729Y0276737D01*
X0195265Y0276674D01*
X0194804Y0276601D01*
X0194344Y0276516D01*
X0193887Y0276420D01*
X0193432Y0276313D01*
X0192980Y0276194D01*
X0192531Y0276065D01*
X0192085Y0275925D01*
X0191642Y0275774D01*
X0191204Y0275613D01*
X0190769Y0275440D01*
X0190339Y0275257D01*
X0189913Y0275064D01*
X0189493Y0274861D01*
X0189077Y0274647D01*
X0188667Y0274423D01*
X0188262Y0274190D01*
X0187863Y0273946D01*
X0187470Y0273693D01*
X0187083Y0273430D01*
X0186703Y0273158D01*
X0186330Y0272877D01*
X0185963Y0272587D01*
X0185604Y0272288D01*
X0185252Y0271980D01*
X0184908Y0271664D01*
X0184571Y0271340D01*
X0184243Y0271007D01*
X0183923Y0270667D01*
X0183611Y0270319D01*
X0183307Y0269963D01*
X0183013Y0269600D01*
X0182727Y0269230D01*
X0182451Y0268854D01*
X0182183Y0268470D01*
X0181925Y0268080D01*
X0181677Y0267684D01*
X0181438Y0267283D01*
X0181210Y0266875D01*
X0180991Y0266462D01*
X0180782Y0266044D01*
X0180584Y0265620D01*
X0180396Y0265192D01*
X0180218Y0264760D01*
X0180051Y0264324D01*
X0179895Y0263883D01*
X0179749Y0263439D01*
X0179615Y0262991D01*
X0179491Y0262541D01*
X0179378Y0262087D01*
X0179277Y0261631D01*
X0179186Y0261172D01*
X0179107Y0260712D01*
X0179039Y0260249D01*
X0178982Y0259785D01*
X0178937Y0259320D01*
X0178903Y0258854D01*
X0178880Y0258387D01*
X0178868Y0257920D01*
X0178868Y0257452D01*
X0178880Y0256985D01*
X0178903Y0256518D01*
X0178937Y0256052D01*
X0178982Y0255587D01*
X0179039Y0255123D01*
X0179107Y0254660D01*
X0179186Y0254200D01*
X0179277Y0253741D01*
X0179378Y0253285D01*
X0179491Y0252831D01*
X0179615Y0252381D01*
X0179749Y0251933D01*
X0179895Y0251489D01*
X0180051Y0251048D01*
X0180218Y0250612D01*
X0180396Y0250180D01*
X0180584Y0249752D01*
X0180782Y0249328D01*
X0180991Y0248910D01*
X0181210Y0248497D01*
X0181438Y0248089D01*
X0181677Y0247688D01*
X0181925Y0247292D01*
X0182183Y0246902D01*
X0182451Y0246518D01*
X0182727Y0246142D01*
X0183013Y0245772D01*
X0183307Y0245409D01*
X0183611Y0245053D01*
X0183923Y0244705D01*
X0184243Y0244365D01*
X0184571Y0244032D01*
X0184908Y0243708D01*
X0185252Y0243392D01*
X0185604Y0243084D01*
X0185963Y0242785D01*
X0186330Y0242495D01*
X0186703Y0242214D01*
X0187083Y0241942D01*
X0187470Y0241679D01*
X0187863Y0241426D01*
X0188262Y0241182D01*
X0188667Y0240949D01*
X0189077Y0240725D01*
X0189493Y0240511D01*
X0189913Y0240308D01*
X0190339Y0240115D01*
X0190769Y0239932D01*
X0191204Y0239759D01*
X0191642Y0239598D01*
X0192085Y0239447D01*
X0192531Y0239307D01*
X0192980Y0239178D01*
X0193432Y0239059D01*
X0193887Y0238952D01*
X0194344Y0238856D01*
X0194804Y0238771D01*
X0195265Y0238698D01*
X0195729Y0238635D01*
X0196193Y0238584D01*
X0196659Y0238544D01*
X0197126Y0238516D01*
X0197593Y0238499D01*
X0198060Y0238493D01*
X0205934Y0238887D02*
X0251209Y0238887D01*
X0251209Y0183769D01*
X0205934Y0183769D01*
X0251209Y0238887D02*
X0259083Y0238887D01*
X0259083Y0276879D01*
X0259550Y0276873D01*
X0260017Y0276856D01*
X0260484Y0276828D01*
X0260950Y0276788D01*
X0261414Y0276737D01*
X0261878Y0276674D01*
X0262339Y0276601D01*
X0262799Y0276516D01*
X0263256Y0276420D01*
X0263711Y0276313D01*
X0264163Y0276194D01*
X0264612Y0276065D01*
X0265058Y0275925D01*
X0265501Y0275774D01*
X0265939Y0275613D01*
X0266374Y0275440D01*
X0266804Y0275257D01*
X0267230Y0275064D01*
X0267650Y0274861D01*
X0268066Y0274647D01*
X0268476Y0274423D01*
X0268881Y0274190D01*
X0269280Y0273946D01*
X0269673Y0273693D01*
X0270060Y0273430D01*
X0270440Y0273158D01*
X0270813Y0272877D01*
X0271180Y0272587D01*
X0271539Y0272288D01*
X0271891Y0271980D01*
X0272235Y0271664D01*
X0272572Y0271340D01*
X0272900Y0271007D01*
X0273220Y0270667D01*
X0273532Y0270319D01*
X0273836Y0269963D01*
X0274130Y0269600D01*
X0274416Y0269230D01*
X0274692Y0268854D01*
X0274960Y0268470D01*
X0275218Y0268080D01*
X0275466Y0267684D01*
X0275705Y0267283D01*
X0275933Y0266875D01*
X0276152Y0266462D01*
X0276361Y0266044D01*
X0276559Y0265620D01*
X0276747Y0265192D01*
X0276925Y0264760D01*
X0277092Y0264324D01*
X0277248Y0263883D01*
X0277394Y0263439D01*
X0277528Y0262991D01*
X0277652Y0262541D01*
X0277765Y0262087D01*
X0277866Y0261631D01*
X0277957Y0261172D01*
X0278036Y0260712D01*
X0278104Y0260249D01*
X0278161Y0259785D01*
X0278206Y0259320D01*
X0278240Y0258854D01*
X0278263Y0258387D01*
X0278275Y0257920D01*
X0278275Y0257452D01*
X0278263Y0256985D01*
X0278240Y0256518D01*
X0278206Y0256052D01*
X0278161Y0255587D01*
X0278104Y0255123D01*
X0278036Y0254660D01*
X0277957Y0254200D01*
X0277866Y0253741D01*
X0277765Y0253285D01*
X0277652Y0252831D01*
X0277528Y0252381D01*
X0277394Y0251933D01*
X0277248Y0251489D01*
X0277092Y0251048D01*
X0276925Y0250612D01*
X0276747Y0250180D01*
X0276559Y0249752D01*
X0276361Y0249328D01*
X0276152Y0248910D01*
X0275933Y0248497D01*
X0275705Y0248090D01*
X0275466Y0247688D01*
X0275218Y0247292D01*
X0274960Y0246902D01*
X0274692Y0246518D01*
X0274416Y0246142D01*
X0274130Y0245772D01*
X0273836Y0245409D01*
X0273532Y0245053D01*
X0273220Y0244705D01*
X0272900Y0244365D01*
X0272572Y0244032D01*
X0272235Y0243708D01*
X0271891Y0243392D01*
X0271539Y0243084D01*
X0271180Y0242785D01*
X0270813Y0242495D01*
X0270440Y0242214D01*
X0270060Y0241942D01*
X0269673Y0241679D01*
X0269280Y0241426D01*
X0268881Y0241182D01*
X0268476Y0240949D01*
X0268066Y0240725D01*
X0267650Y0240511D01*
X0267230Y0240308D01*
X0266804Y0240115D01*
X0266374Y0239932D01*
X0265939Y0239759D01*
X0265501Y0239598D01*
X0265058Y0239447D01*
X0264612Y0239307D01*
X0264163Y0239178D01*
X0263711Y0239059D01*
X0263256Y0238952D01*
X0262799Y0238856D01*
X0262339Y0238771D01*
X0261878Y0238698D01*
X0261414Y0238635D01*
X0260950Y0238584D01*
X0260484Y0238544D01*
X0260017Y0238516D01*
X0259550Y0238499D01*
X0259083Y0238493D01*
X0282339Y0238993D02*
X0283914Y0238993D01*
X0283914Y0241355D01*
X0282339Y0241355D01*
X0282143Y0246867D02*
X0292576Y0246867D01*
X0292576Y0245095D01*
X0294938Y0245095D01*
X0294938Y0246867D01*
X0305371Y0246867D01*
X0305371Y0229150D01*
X0282143Y0229150D01*
X0282143Y0246867D01*
X0292576Y0246867D02*
X0294938Y0246867D01*
X0303599Y0241355D02*
X0303599Y0238993D01*
X0305174Y0238993D01*
X0305174Y0241355D02*
X0303599Y0241355D01*
X0305387Y0225772D02*
X0282158Y0225772D01*
X0282158Y0208056D01*
X0292591Y0208056D01*
X0292591Y0209828D01*
X0294954Y0209828D01*
X0294954Y0208056D01*
X0292591Y0208056D01*
X0294954Y0208056D02*
X0305387Y0208056D01*
X0305387Y0225772D01*
X0305190Y0215930D02*
X0303615Y0215930D01*
X0303615Y0213568D01*
X0305190Y0213568D01*
X0283930Y0213568D02*
X0283930Y0215930D01*
X0282355Y0215930D01*
X0282355Y0213568D02*
X0283930Y0213568D01*
X0293461Y0255851D02*
X0311572Y0255851D01*
X0311572Y0277111D01*
X0293461Y0277111D01*
X0293461Y0255851D01*
X0294550Y0261757D02*
X0294552Y0261816D01*
X0294558Y0261874D01*
X0294568Y0261932D01*
X0294581Y0261989D01*
X0294599Y0262046D01*
X0294620Y0262101D01*
X0294645Y0262154D01*
X0294673Y0262205D01*
X0294704Y0262255D01*
X0294739Y0262302D01*
X0294777Y0262347D01*
X0294818Y0262390D01*
X0294862Y0262429D01*
X0294908Y0262465D01*
X0294956Y0262499D01*
X0295007Y0262529D01*
X0295060Y0262555D01*
X0295114Y0262578D01*
X0295169Y0262597D01*
X0295226Y0262613D01*
X0295284Y0262625D01*
X0295342Y0262633D01*
X0295401Y0262637D01*
X0295459Y0262637D01*
X0295518Y0262633D01*
X0295576Y0262625D01*
X0295634Y0262613D01*
X0295691Y0262597D01*
X0295746Y0262578D01*
X0295800Y0262555D01*
X0295853Y0262529D01*
X0295904Y0262499D01*
X0295952Y0262465D01*
X0295998Y0262429D01*
X0296042Y0262390D01*
X0296083Y0262347D01*
X0296121Y0262302D01*
X0296156Y0262255D01*
X0296187Y0262205D01*
X0296215Y0262154D01*
X0296240Y0262101D01*
X0296261Y0262046D01*
X0296279Y0261989D01*
X0296292Y0261932D01*
X0296302Y0261874D01*
X0296308Y0261816D01*
X0296310Y0261757D01*
X0296308Y0261698D01*
X0296302Y0261640D01*
X0296292Y0261582D01*
X0296279Y0261525D01*
X0296261Y0261468D01*
X0296240Y0261413D01*
X0296215Y0261360D01*
X0296187Y0261309D01*
X0296156Y0261259D01*
X0296121Y0261212D01*
X0296083Y0261167D01*
X0296042Y0261124D01*
X0295998Y0261085D01*
X0295952Y0261049D01*
X0295904Y0261015D01*
X0295853Y0260985D01*
X0295800Y0260959D01*
X0295746Y0260936D01*
X0295691Y0260917D01*
X0295634Y0260901D01*
X0295576Y0260889D01*
X0295518Y0260881D01*
X0295459Y0260877D01*
X0295401Y0260877D01*
X0295342Y0260881D01*
X0295284Y0260889D01*
X0295226Y0260901D01*
X0295169Y0260917D01*
X0295114Y0260936D01*
X0295060Y0260959D01*
X0295007Y0260985D01*
X0294956Y0261015D01*
X0294908Y0261049D01*
X0294862Y0261085D01*
X0294818Y0261124D01*
X0294777Y0261167D01*
X0294739Y0261212D01*
X0294704Y0261259D01*
X0294673Y0261309D01*
X0294645Y0261360D01*
X0294620Y0261413D01*
X0294599Y0261468D01*
X0294581Y0261525D01*
X0294568Y0261582D01*
X0294558Y0261640D01*
X0294552Y0261698D01*
X0294550Y0261757D01*
X0372194Y0269091D02*
X0372194Y0245469D01*
X0391879Y0245469D01*
X0391879Y0269091D01*
X0372194Y0269091D01*
X0388960Y0264367D02*
X0388962Y0264414D01*
X0388968Y0264460D01*
X0388977Y0264506D01*
X0388991Y0264550D01*
X0389008Y0264594D01*
X0389029Y0264635D01*
X0389053Y0264675D01*
X0389080Y0264713D01*
X0389111Y0264748D01*
X0389144Y0264781D01*
X0389180Y0264811D01*
X0389219Y0264837D01*
X0389259Y0264861D01*
X0389301Y0264880D01*
X0389345Y0264897D01*
X0389390Y0264909D01*
X0389436Y0264918D01*
X0389482Y0264923D01*
X0389529Y0264924D01*
X0389575Y0264921D01*
X0389621Y0264914D01*
X0389667Y0264903D01*
X0389711Y0264889D01*
X0389754Y0264871D01*
X0389795Y0264849D01*
X0389835Y0264824D01*
X0389872Y0264796D01*
X0389907Y0264765D01*
X0389939Y0264731D01*
X0389968Y0264694D01*
X0389993Y0264656D01*
X0390016Y0264615D01*
X0390035Y0264572D01*
X0390050Y0264528D01*
X0390062Y0264483D01*
X0390070Y0264437D01*
X0390074Y0264390D01*
X0390074Y0264344D01*
X0390070Y0264297D01*
X0390062Y0264251D01*
X0390050Y0264206D01*
X0390035Y0264162D01*
X0390016Y0264119D01*
X0389993Y0264078D01*
X0389968Y0264040D01*
X0389939Y0264003D01*
X0389907Y0263969D01*
X0389872Y0263938D01*
X0389835Y0263910D01*
X0389796Y0263885D01*
X0389754Y0263863D01*
X0389711Y0263845D01*
X0389667Y0263831D01*
X0389621Y0263820D01*
X0389575Y0263813D01*
X0389529Y0263810D01*
X0389482Y0263811D01*
X0389436Y0263816D01*
X0389390Y0263825D01*
X0389345Y0263837D01*
X0389301Y0263854D01*
X0389259Y0263873D01*
X0389219Y0263897D01*
X0389180Y0263923D01*
X0389144Y0263953D01*
X0389111Y0263986D01*
X0389080Y0264021D01*
X0389053Y0264059D01*
X0389029Y0264099D01*
X0389008Y0264140D01*
X0388991Y0264184D01*
X0388977Y0264228D01*
X0388968Y0264274D01*
X0388962Y0264320D01*
X0388960Y0264367D01*
X0397942Y0249595D02*
X0417233Y0249595D01*
X0417233Y0234241D01*
X0397942Y0234241D01*
X0397942Y0249595D01*
X0398729Y0236997D02*
X0398731Y0237059D01*
X0398737Y0237122D01*
X0398747Y0237183D01*
X0398761Y0237244D01*
X0398778Y0237304D01*
X0398799Y0237363D01*
X0398825Y0237420D01*
X0398853Y0237475D01*
X0398885Y0237529D01*
X0398921Y0237580D01*
X0398959Y0237630D01*
X0399001Y0237676D01*
X0399045Y0237720D01*
X0399093Y0237761D01*
X0399142Y0237799D01*
X0399194Y0237833D01*
X0399248Y0237864D01*
X0399304Y0237892D01*
X0399362Y0237916D01*
X0399421Y0237937D01*
X0399481Y0237953D01*
X0399542Y0237966D01*
X0399604Y0237975D01*
X0399666Y0237980D01*
X0399729Y0237981D01*
X0399791Y0237978D01*
X0399853Y0237971D01*
X0399915Y0237960D01*
X0399975Y0237945D01*
X0400035Y0237927D01*
X0400093Y0237905D01*
X0400150Y0237879D01*
X0400205Y0237849D01*
X0400258Y0237816D01*
X0400309Y0237780D01*
X0400357Y0237741D01*
X0400403Y0237698D01*
X0400446Y0237653D01*
X0400486Y0237605D01*
X0400523Y0237555D01*
X0400557Y0237502D01*
X0400588Y0237448D01*
X0400614Y0237392D01*
X0400638Y0237334D01*
X0400657Y0237274D01*
X0400673Y0237214D01*
X0400685Y0237152D01*
X0400693Y0237091D01*
X0400697Y0237028D01*
X0400697Y0236966D01*
X0400693Y0236903D01*
X0400685Y0236842D01*
X0400673Y0236780D01*
X0400657Y0236720D01*
X0400638Y0236660D01*
X0400614Y0236602D01*
X0400588Y0236546D01*
X0400557Y0236492D01*
X0400523Y0236439D01*
X0400486Y0236389D01*
X0400446Y0236341D01*
X0400403Y0236296D01*
X0400357Y0236253D01*
X0400309Y0236214D01*
X0400258Y0236178D01*
X0400205Y0236145D01*
X0400150Y0236115D01*
X0400093Y0236089D01*
X0400035Y0236067D01*
X0399975Y0236049D01*
X0399915Y0236034D01*
X0399853Y0236023D01*
X0399791Y0236016D01*
X0399729Y0236013D01*
X0399666Y0236014D01*
X0399604Y0236019D01*
X0399542Y0236028D01*
X0399481Y0236041D01*
X0399421Y0236057D01*
X0399362Y0236078D01*
X0399304Y0236102D01*
X0399248Y0236130D01*
X0399194Y0236161D01*
X0399142Y0236195D01*
X0399093Y0236233D01*
X0399045Y0236274D01*
X0399001Y0236318D01*
X0398959Y0236364D01*
X0398921Y0236414D01*
X0398885Y0236465D01*
X0398853Y0236519D01*
X0398825Y0236574D01*
X0398799Y0236631D01*
X0398778Y0236690D01*
X0398761Y0236750D01*
X0398747Y0236811D01*
X0398737Y0236872D01*
X0398731Y0236935D01*
X0398729Y0236997D01*
X0412780Y0188776D02*
X0377347Y0188776D01*
X0377347Y0153343D01*
X0412780Y0153343D01*
X0412780Y0188776D01*
X0378135Y0159249D02*
X0378137Y0159305D01*
X0378143Y0159360D01*
X0378153Y0159414D01*
X0378166Y0159468D01*
X0378184Y0159521D01*
X0378205Y0159572D01*
X0378229Y0159622D01*
X0378257Y0159670D01*
X0378289Y0159716D01*
X0378323Y0159760D01*
X0378361Y0159801D01*
X0378401Y0159839D01*
X0378444Y0159874D01*
X0378489Y0159906D01*
X0378537Y0159935D01*
X0378586Y0159961D01*
X0378637Y0159983D01*
X0378689Y0160001D01*
X0378743Y0160015D01*
X0378798Y0160026D01*
X0378853Y0160033D01*
X0378908Y0160036D01*
X0378964Y0160035D01*
X0379019Y0160030D01*
X0379074Y0160021D01*
X0379128Y0160009D01*
X0379181Y0159992D01*
X0379233Y0159972D01*
X0379283Y0159948D01*
X0379331Y0159921D01*
X0379378Y0159891D01*
X0379422Y0159857D01*
X0379464Y0159820D01*
X0379502Y0159780D01*
X0379539Y0159738D01*
X0379572Y0159693D01*
X0379601Y0159647D01*
X0379628Y0159598D01*
X0379650Y0159547D01*
X0379670Y0159495D01*
X0379685Y0159441D01*
X0379697Y0159387D01*
X0379705Y0159332D01*
X0379709Y0159277D01*
X0379709Y0159221D01*
X0379705Y0159166D01*
X0379697Y0159111D01*
X0379685Y0159057D01*
X0379670Y0159003D01*
X0379650Y0158951D01*
X0379628Y0158900D01*
X0379601Y0158851D01*
X0379572Y0158805D01*
X0379539Y0158760D01*
X0379502Y0158718D01*
X0379464Y0158678D01*
X0379422Y0158641D01*
X0379378Y0158607D01*
X0379331Y0158577D01*
X0379283Y0158550D01*
X0379233Y0158526D01*
X0379181Y0158506D01*
X0379128Y0158489D01*
X0379074Y0158477D01*
X0379019Y0158468D01*
X0378964Y0158463D01*
X0378908Y0158462D01*
X0378853Y0158465D01*
X0378798Y0158472D01*
X0378743Y0158483D01*
X0378689Y0158497D01*
X0378637Y0158515D01*
X0378586Y0158537D01*
X0378537Y0158563D01*
X0378489Y0158592D01*
X0378444Y0158624D01*
X0378401Y0158659D01*
X0378361Y0158697D01*
X0378323Y0158738D01*
X0378289Y0158782D01*
X0378257Y0158828D01*
X0378229Y0158876D01*
X0378205Y0158926D01*
X0378184Y0158977D01*
X0378166Y0159030D01*
X0378153Y0159084D01*
X0378143Y0159138D01*
X0378137Y0159193D01*
X0378135Y0159249D01*
X0407194Y0116426D02*
X0426485Y0116426D01*
X0426485Y0101072D01*
X0407194Y0101072D01*
X0407194Y0116426D01*
X0395658Y0115150D02*
X0375973Y0115150D01*
X0375973Y0091528D01*
X0395658Y0091528D01*
X0395658Y0115150D01*
X0407981Y0103828D02*
X0407983Y0103890D01*
X0407989Y0103953D01*
X0407999Y0104014D01*
X0408013Y0104075D01*
X0408030Y0104135D01*
X0408051Y0104194D01*
X0408077Y0104251D01*
X0408105Y0104306D01*
X0408137Y0104360D01*
X0408173Y0104411D01*
X0408211Y0104461D01*
X0408253Y0104507D01*
X0408297Y0104551D01*
X0408345Y0104592D01*
X0408394Y0104630D01*
X0408446Y0104664D01*
X0408500Y0104695D01*
X0408556Y0104723D01*
X0408614Y0104747D01*
X0408673Y0104768D01*
X0408733Y0104784D01*
X0408794Y0104797D01*
X0408856Y0104806D01*
X0408918Y0104811D01*
X0408981Y0104812D01*
X0409043Y0104809D01*
X0409105Y0104802D01*
X0409167Y0104791D01*
X0409227Y0104776D01*
X0409287Y0104758D01*
X0409345Y0104736D01*
X0409402Y0104710D01*
X0409457Y0104680D01*
X0409510Y0104647D01*
X0409561Y0104611D01*
X0409609Y0104572D01*
X0409655Y0104529D01*
X0409698Y0104484D01*
X0409738Y0104436D01*
X0409775Y0104386D01*
X0409809Y0104333D01*
X0409840Y0104279D01*
X0409866Y0104223D01*
X0409890Y0104165D01*
X0409909Y0104105D01*
X0409925Y0104045D01*
X0409937Y0103983D01*
X0409945Y0103922D01*
X0409949Y0103859D01*
X0409949Y0103797D01*
X0409945Y0103734D01*
X0409937Y0103673D01*
X0409925Y0103611D01*
X0409909Y0103551D01*
X0409890Y0103491D01*
X0409866Y0103433D01*
X0409840Y0103377D01*
X0409809Y0103323D01*
X0409775Y0103270D01*
X0409738Y0103220D01*
X0409698Y0103172D01*
X0409655Y0103127D01*
X0409609Y0103084D01*
X0409561Y0103045D01*
X0409510Y0103009D01*
X0409457Y0102976D01*
X0409402Y0102946D01*
X0409345Y0102920D01*
X0409287Y0102898D01*
X0409227Y0102880D01*
X0409167Y0102865D01*
X0409105Y0102854D01*
X0409043Y0102847D01*
X0408981Y0102844D01*
X0408918Y0102845D01*
X0408856Y0102850D01*
X0408794Y0102859D01*
X0408733Y0102872D01*
X0408673Y0102888D01*
X0408614Y0102909D01*
X0408556Y0102933D01*
X0408500Y0102961D01*
X0408446Y0102992D01*
X0408394Y0103026D01*
X0408345Y0103064D01*
X0408297Y0103105D01*
X0408253Y0103149D01*
X0408211Y0103195D01*
X0408173Y0103245D01*
X0408137Y0103296D01*
X0408105Y0103350D01*
X0408077Y0103405D01*
X0408051Y0103462D01*
X0408030Y0103521D01*
X0408013Y0103581D01*
X0407999Y0103642D01*
X0407989Y0103703D01*
X0407983Y0103766D01*
X0407981Y0103828D01*
X0377778Y0096253D02*
X0377780Y0096300D01*
X0377786Y0096346D01*
X0377795Y0096392D01*
X0377809Y0096436D01*
X0377826Y0096480D01*
X0377847Y0096521D01*
X0377871Y0096561D01*
X0377898Y0096599D01*
X0377929Y0096634D01*
X0377962Y0096667D01*
X0377998Y0096697D01*
X0378037Y0096723D01*
X0378077Y0096747D01*
X0378119Y0096766D01*
X0378163Y0096783D01*
X0378208Y0096795D01*
X0378254Y0096804D01*
X0378300Y0096809D01*
X0378347Y0096810D01*
X0378393Y0096807D01*
X0378439Y0096800D01*
X0378485Y0096789D01*
X0378529Y0096775D01*
X0378572Y0096757D01*
X0378613Y0096735D01*
X0378653Y0096710D01*
X0378690Y0096682D01*
X0378725Y0096651D01*
X0378757Y0096617D01*
X0378786Y0096580D01*
X0378811Y0096542D01*
X0378834Y0096501D01*
X0378853Y0096458D01*
X0378868Y0096414D01*
X0378880Y0096369D01*
X0378888Y0096323D01*
X0378892Y0096276D01*
X0378892Y0096230D01*
X0378888Y0096183D01*
X0378880Y0096137D01*
X0378868Y0096092D01*
X0378853Y0096048D01*
X0378834Y0096005D01*
X0378811Y0095964D01*
X0378786Y0095926D01*
X0378757Y0095889D01*
X0378725Y0095855D01*
X0378690Y0095824D01*
X0378653Y0095796D01*
X0378614Y0095771D01*
X0378572Y0095749D01*
X0378529Y0095731D01*
X0378485Y0095717D01*
X0378439Y0095706D01*
X0378393Y0095699D01*
X0378347Y0095696D01*
X0378300Y0095697D01*
X0378254Y0095702D01*
X0378208Y0095711D01*
X0378163Y0095723D01*
X0378119Y0095740D01*
X0378077Y0095759D01*
X0378037Y0095783D01*
X0377998Y0095809D01*
X0377962Y0095839D01*
X0377929Y0095872D01*
X0377898Y0095907D01*
X0377871Y0095945D01*
X0377847Y0095985D01*
X0377826Y0096026D01*
X0377809Y0096070D01*
X0377795Y0096114D01*
X0377786Y0096160D01*
X0377780Y0096206D01*
X0377778Y0096253D01*
X0205934Y0104241D02*
X0198060Y0104241D01*
X0198060Y0066249D01*
X0197593Y0066255D01*
X0197126Y0066272D01*
X0196659Y0066300D01*
X0196193Y0066340D01*
X0195729Y0066391D01*
X0195265Y0066454D01*
X0194804Y0066527D01*
X0194344Y0066612D01*
X0193887Y0066708D01*
X0193432Y0066815D01*
X0192980Y0066934D01*
X0192531Y0067063D01*
X0192085Y0067203D01*
X0191642Y0067354D01*
X0191204Y0067515D01*
X0190769Y0067688D01*
X0190339Y0067871D01*
X0189913Y0068064D01*
X0189493Y0068267D01*
X0189077Y0068481D01*
X0188667Y0068705D01*
X0188262Y0068938D01*
X0187863Y0069182D01*
X0187470Y0069435D01*
X0187083Y0069698D01*
X0186703Y0069970D01*
X0186330Y0070251D01*
X0185963Y0070541D01*
X0185604Y0070840D01*
X0185252Y0071148D01*
X0184908Y0071464D01*
X0184571Y0071788D01*
X0184243Y0072121D01*
X0183923Y0072461D01*
X0183611Y0072809D01*
X0183307Y0073165D01*
X0183013Y0073528D01*
X0182727Y0073898D01*
X0182451Y0074274D01*
X0182183Y0074658D01*
X0181925Y0075048D01*
X0181677Y0075444D01*
X0181438Y0075845D01*
X0181210Y0076253D01*
X0180991Y0076666D01*
X0180782Y0077084D01*
X0180584Y0077508D01*
X0180396Y0077936D01*
X0180218Y0078368D01*
X0180051Y0078804D01*
X0179895Y0079245D01*
X0179749Y0079689D01*
X0179615Y0080137D01*
X0179491Y0080587D01*
X0179378Y0081041D01*
X0179277Y0081497D01*
X0179186Y0081956D01*
X0179107Y0082416D01*
X0179039Y0082879D01*
X0178982Y0083343D01*
X0178937Y0083808D01*
X0178903Y0084274D01*
X0178880Y0084741D01*
X0178868Y0085208D01*
X0178868Y0085676D01*
X0178880Y0086143D01*
X0178903Y0086610D01*
X0178937Y0087076D01*
X0178982Y0087541D01*
X0179039Y0088005D01*
X0179107Y0088468D01*
X0179186Y0088928D01*
X0179277Y0089387D01*
X0179378Y0089843D01*
X0179491Y0090297D01*
X0179615Y0090747D01*
X0179749Y0091195D01*
X0179895Y0091639D01*
X0180051Y0092080D01*
X0180218Y0092516D01*
X0180396Y0092948D01*
X0180584Y0093376D01*
X0180782Y0093800D01*
X0180991Y0094218D01*
X0181210Y0094631D01*
X0181438Y0095038D01*
X0181677Y0095440D01*
X0181925Y0095836D01*
X0182183Y0096226D01*
X0182451Y0096610D01*
X0182727Y0096986D01*
X0183013Y0097356D01*
X0183307Y0097719D01*
X0183611Y0098075D01*
X0183923Y0098423D01*
X0184243Y0098763D01*
X0184571Y0099096D01*
X0184908Y0099420D01*
X0185252Y0099736D01*
X0185604Y0100044D01*
X0185963Y0100343D01*
X0186330Y0100633D01*
X0186703Y0100914D01*
X0187083Y0101186D01*
X0187470Y0101449D01*
X0187863Y0101702D01*
X0188262Y0101946D01*
X0188667Y0102179D01*
X0189077Y0102403D01*
X0189493Y0102617D01*
X0189913Y0102820D01*
X0190339Y0103013D01*
X0190769Y0103196D01*
X0191204Y0103369D01*
X0191642Y0103530D01*
X0192085Y0103681D01*
X0192531Y0103821D01*
X0192980Y0103950D01*
X0193432Y0104069D01*
X0193887Y0104176D01*
X0194344Y0104272D01*
X0194804Y0104357D01*
X0195265Y0104430D01*
X0195729Y0104493D01*
X0196193Y0104544D01*
X0196659Y0104584D01*
X0197126Y0104612D01*
X0197593Y0104629D01*
X0198060Y0104635D01*
X0065211Y0231452D02*
X0051573Y0223578D01*
X0049604Y0226987D01*
X0050457Y0227480D01*
X0046064Y0236320D01*
X0048550Y0244563D02*
X0048685Y0244639D01*
X0048823Y0244711D01*
X0048962Y0244780D01*
X0049103Y0244846D01*
X0049245Y0244908D01*
X0049389Y0244967D01*
X0049534Y0245022D01*
X0049681Y0245074D01*
X0049829Y0245122D01*
X0049978Y0245166D01*
X0050128Y0245206D01*
X0050279Y0245243D01*
X0050431Y0245276D01*
X0050584Y0245306D01*
X0050737Y0245331D01*
X0050891Y0245353D01*
X0051045Y0245371D01*
X0051200Y0245385D01*
X0051355Y0245395D01*
X0051511Y0245401D01*
X0051666Y0245404D01*
X0051822Y0245403D01*
X0051977Y0245398D01*
X0052132Y0245389D01*
X0052287Y0245376D01*
X0052442Y0245359D01*
X0052596Y0245339D01*
X0052749Y0245314D01*
X0052902Y0245286D01*
X0053054Y0245255D01*
X0053206Y0245219D01*
X0053356Y0245180D01*
X0053505Y0245137D01*
X0053654Y0245090D01*
X0053801Y0245040D01*
X0053947Y0244986D01*
X0054091Y0244928D01*
X0054234Y0244867D01*
X0054375Y0244803D01*
X0054515Y0244735D01*
X0054653Y0244663D01*
X0054789Y0244588D01*
X0054924Y0244510D01*
X0055056Y0244428D01*
X0055186Y0244344D01*
X0055315Y0244256D01*
X0055440Y0244165D01*
X0055564Y0244070D01*
X0055685Y0243973D01*
X0055804Y0243873D01*
X0055921Y0243770D01*
X0056034Y0243664D01*
X0056145Y0243555D01*
X0056254Y0243444D01*
X0056359Y0243330D01*
X0056462Y0243213D01*
X0056562Y0243094D01*
X0056659Y0242972D01*
X0056753Y0242848D01*
X0056843Y0242722D01*
X0056931Y0242593D01*
X0056931Y0242594D02*
X0062390Y0234369D01*
X0050457Y0227480D01*
X0062390Y0234369D02*
X0063243Y0234862D01*
X0065211Y0231452D01*
X0046064Y0236320D02*
X0045997Y0236460D01*
X0045933Y0236601D01*
X0045872Y0236745D01*
X0045815Y0236889D01*
X0045762Y0237035D01*
X0045712Y0237183D01*
X0045666Y0237331D01*
X0045624Y0237481D01*
X0045585Y0237631D01*
X0045550Y0237783D01*
X0045519Y0237935D01*
X0045492Y0238088D01*
X0045468Y0238242D01*
X0045449Y0238396D01*
X0045433Y0238551D01*
X0045421Y0238706D01*
X0045412Y0238861D01*
X0045408Y0239016D01*
X0045407Y0239172D01*
X0045410Y0239327D01*
X0045418Y0239482D01*
X0045428Y0239637D01*
X0045443Y0239792D01*
X0045462Y0239947D01*
X0045484Y0240100D01*
X0045510Y0240254D01*
X0045540Y0240406D01*
X0045574Y0240558D01*
X0045612Y0240709D01*
X0045653Y0240859D01*
X0045698Y0241007D01*
X0045746Y0241155D01*
X0045798Y0241302D01*
X0045854Y0241447D01*
X0045913Y0241590D01*
X0045976Y0241733D01*
X0046043Y0241873D01*
X0046113Y0242012D01*
X0046186Y0242149D01*
X0046262Y0242284D01*
X0046342Y0242418D01*
X0046426Y0242549D01*
X0046512Y0242678D01*
X0046602Y0242805D01*
X0046694Y0242930D01*
X0046790Y0243053D01*
X0046889Y0243173D01*
X0046990Y0243290D01*
X0047095Y0243405D01*
X0047202Y0243518D01*
X0047313Y0243627D01*
X0047425Y0243734D01*
X0047541Y0243838D01*
X0047659Y0243940D01*
X0047779Y0244038D01*
X0047902Y0244133D01*
X0048027Y0244225D01*
X0048155Y0244315D01*
X0048284Y0244400D01*
X0048416Y0244483D01*
X0048549Y0244563D01*
X0139192Y0259321D02*
X0149044Y0258705D01*
X0149044Y0257721D01*
X0152981Y0257721D01*
X0152981Y0273469D01*
X0149044Y0273469D01*
X0149044Y0272485D01*
X0139192Y0271869D01*
X0133296Y0265595D02*
X0133298Y0265440D01*
X0133304Y0265284D01*
X0133313Y0265129D01*
X0133327Y0264974D01*
X0133344Y0264820D01*
X0133365Y0264666D01*
X0133390Y0264512D01*
X0133419Y0264360D01*
X0133451Y0264208D01*
X0133488Y0264056D01*
X0133528Y0263906D01*
X0133571Y0263757D01*
X0133619Y0263609D01*
X0133670Y0263462D01*
X0133724Y0263316D01*
X0133782Y0263172D01*
X0133844Y0263030D01*
X0133909Y0262888D01*
X0133978Y0262749D01*
X0134050Y0262611D01*
X0134126Y0262475D01*
X0134204Y0262341D01*
X0134287Y0262209D01*
X0134372Y0262080D01*
X0134460Y0261952D01*
X0134552Y0261826D01*
X0134647Y0261703D01*
X0134745Y0261582D01*
X0134845Y0261464D01*
X0134949Y0261348D01*
X0135055Y0261235D01*
X0135165Y0261124D01*
X0135277Y0261016D01*
X0135391Y0260911D01*
X0135508Y0260809D01*
X0135628Y0260709D01*
X0135750Y0260613D01*
X0135874Y0260520D01*
X0136001Y0260430D01*
X0136130Y0260343D01*
X0136261Y0260259D01*
X0136394Y0260178D01*
X0136529Y0260101D01*
X0136665Y0260027D01*
X0136804Y0259957D01*
X0136944Y0259890D01*
X0137086Y0259826D01*
X0137230Y0259766D01*
X0137374Y0259710D01*
X0137521Y0259657D01*
X0137668Y0259608D01*
X0137817Y0259562D01*
X0137966Y0259521D01*
X0138117Y0259483D01*
X0138269Y0259448D01*
X0138421Y0259417D01*
X0138574Y0259391D01*
X0138728Y0259368D01*
X0138882Y0259348D01*
X0139037Y0259333D01*
X0139192Y0259321D01*
X0133296Y0265595D02*
X0133298Y0265750D01*
X0133304Y0265906D01*
X0133313Y0266061D01*
X0133327Y0266216D01*
X0133344Y0266370D01*
X0133365Y0266524D01*
X0133390Y0266678D01*
X0133419Y0266830D01*
X0133451Y0266982D01*
X0133488Y0267134D01*
X0133528Y0267284D01*
X0133571Y0267433D01*
X0133619Y0267581D01*
X0133670Y0267728D01*
X0133724Y0267874D01*
X0133782Y0268018D01*
X0133844Y0268160D01*
X0133909Y0268302D01*
X0133978Y0268441D01*
X0134050Y0268579D01*
X0134126Y0268715D01*
X0134204Y0268849D01*
X0134287Y0268981D01*
X0134372Y0269110D01*
X0134460Y0269238D01*
X0134552Y0269364D01*
X0134647Y0269487D01*
X0134745Y0269608D01*
X0134845Y0269726D01*
X0134949Y0269842D01*
X0135055Y0269955D01*
X0135165Y0270066D01*
X0135277Y0270174D01*
X0135391Y0270279D01*
X0135508Y0270381D01*
X0135628Y0270481D01*
X0135750Y0270577D01*
X0135874Y0270670D01*
X0136001Y0270760D01*
X0136130Y0270847D01*
X0136261Y0270931D01*
X0136394Y0271012D01*
X0136529Y0271089D01*
X0136665Y0271163D01*
X0136804Y0271233D01*
X0136944Y0271300D01*
X0137086Y0271364D01*
X0137230Y0271424D01*
X0137374Y0271480D01*
X0137521Y0271533D01*
X0137668Y0271582D01*
X0137817Y0271628D01*
X0137966Y0271669D01*
X0138117Y0271707D01*
X0138269Y0271742D01*
X0138421Y0271773D01*
X0138574Y0271799D01*
X0138728Y0271822D01*
X0138882Y0271842D01*
X0139037Y0271857D01*
X0139192Y0271869D01*
X0149044Y0272485D02*
X0149044Y0258705D01*
D12*
X0298630Y0264876D02*
X0299363Y0264876D01*
X0298997Y0264876D02*
X0298997Y0263775D01*
X0299734Y0263775D02*
X0299734Y0264876D01*
X0300285Y0264876D01*
X0300468Y0264693D01*
X0300468Y0264326D01*
X0300285Y0264142D01*
X0299734Y0264142D01*
X0300839Y0263959D02*
X0301023Y0263775D01*
X0301390Y0263775D01*
X0301573Y0263959D01*
X0301573Y0264142D01*
X0301390Y0264326D01*
X0301023Y0264326D01*
X0300839Y0264509D01*
X0300839Y0264693D01*
X0301023Y0264876D01*
X0301390Y0264876D01*
X0301573Y0264693D01*
X0301944Y0264876D02*
X0302678Y0264876D01*
X0302678Y0264693D01*
X0301944Y0263959D01*
X0301944Y0263775D01*
X0303049Y0263959D02*
X0303233Y0263775D01*
X0303600Y0263775D01*
X0303783Y0263959D01*
X0303783Y0264142D01*
X0303600Y0264326D01*
X0303049Y0264326D01*
X0303049Y0263959D01*
X0303049Y0264326D02*
X0303416Y0264693D01*
X0303783Y0264876D01*
X0304154Y0264693D02*
X0304154Y0264509D01*
X0304338Y0264326D01*
X0304705Y0264326D01*
X0304888Y0264142D01*
X0304888Y0263959D01*
X0304705Y0263775D01*
X0304338Y0263775D01*
X0304154Y0263959D01*
X0304154Y0264142D01*
X0304338Y0264326D01*
X0304705Y0264326D02*
X0304888Y0264509D01*
X0304888Y0264693D01*
X0304705Y0264876D01*
X0304338Y0264876D01*
X0304154Y0264693D01*
X0305259Y0264876D02*
X0305259Y0264326D01*
X0305626Y0264509D01*
X0305810Y0264509D01*
X0305993Y0264326D01*
X0305993Y0263959D01*
X0305810Y0263775D01*
X0305443Y0263775D01*
X0305259Y0263959D01*
X0305259Y0264876D02*
X0305993Y0264876D01*
X0306364Y0264693D02*
X0306548Y0264876D01*
X0306915Y0264876D01*
X0307098Y0264693D01*
X0306364Y0263959D01*
X0306548Y0263775D01*
X0306915Y0263775D01*
X0307098Y0263959D01*
X0307098Y0264693D01*
X0307469Y0264693D02*
X0307652Y0264876D01*
X0308019Y0264876D01*
X0308203Y0264693D01*
X0308203Y0263959D01*
X0308019Y0263775D01*
X0307652Y0263775D01*
X0307469Y0263959D01*
X0307469Y0264693D01*
X0307836Y0264142D02*
X0308203Y0263775D01*
X0308574Y0263775D02*
X0309124Y0263775D01*
X0309308Y0263959D01*
X0309308Y0264693D01*
X0309124Y0264876D01*
X0308574Y0264876D01*
X0308574Y0263775D01*
X0306364Y0263959D02*
X0306364Y0264693D01*
X0303993Y0268893D02*
X0304177Y0269077D01*
X0304177Y0269811D01*
X0303993Y0269994D01*
X0303626Y0269994D01*
X0303443Y0269811D01*
X0303443Y0269077D01*
X0303626Y0268893D01*
X0303993Y0268893D01*
X0303072Y0269077D02*
X0303072Y0269811D01*
X0302888Y0269994D01*
X0302338Y0269994D01*
X0302338Y0268893D01*
X0302888Y0268893D01*
X0303072Y0269077D01*
X0301967Y0268893D02*
X0301233Y0268893D01*
X0301233Y0269994D01*
X0300862Y0269811D02*
X0300128Y0269077D01*
X0300312Y0268893D01*
X0300679Y0268893D01*
X0300862Y0269077D01*
X0300862Y0269811D01*
X0300679Y0269994D01*
X0300312Y0269994D01*
X0300128Y0269811D01*
X0300128Y0269077D01*
X0299757Y0269077D02*
X0299574Y0268893D01*
X0299207Y0268893D01*
X0299023Y0269077D01*
X0299023Y0269444D02*
X0299390Y0269627D01*
X0299574Y0269627D01*
X0299757Y0269444D01*
X0299757Y0269077D01*
X0299023Y0269444D02*
X0299023Y0269994D01*
X0299757Y0269994D01*
X0373084Y0252422D02*
X0374085Y0252422D01*
X0373584Y0252422D02*
X0373584Y0250921D01*
X0374557Y0251171D02*
X0374557Y0252172D01*
X0374807Y0252422D01*
X0375308Y0252422D01*
X0375558Y0252172D01*
X0376030Y0251672D02*
X0376781Y0252422D01*
X0376781Y0250921D01*
X0377031Y0251672D02*
X0376030Y0251672D01*
X0375558Y0251171D02*
X0375308Y0250921D01*
X0374807Y0250921D01*
X0374557Y0251171D01*
X0377504Y0251672D02*
X0378504Y0251672D01*
X0378977Y0252172D02*
X0379227Y0252422D01*
X0379728Y0252422D01*
X0379978Y0252172D01*
X0379978Y0251922D01*
X0378977Y0250921D01*
X0379978Y0250921D01*
X0380450Y0250921D02*
X0380450Y0251171D01*
X0381451Y0252172D01*
X0381451Y0252422D01*
X0380450Y0252422D01*
X0381923Y0252172D02*
X0381923Y0251922D01*
X0382174Y0251672D01*
X0382674Y0251672D01*
X0382924Y0251421D01*
X0382924Y0251171D01*
X0382674Y0250921D01*
X0382174Y0250921D01*
X0381923Y0251171D01*
X0381923Y0251421D01*
X0382174Y0251672D01*
X0382674Y0251672D02*
X0382924Y0251922D01*
X0382924Y0252172D01*
X0382674Y0252422D01*
X0382174Y0252422D01*
X0381923Y0252172D01*
X0383397Y0252422D02*
X0383397Y0250921D01*
X0384397Y0250921D02*
X0384397Y0252422D01*
X0383897Y0251922D01*
X0383397Y0252422D01*
X0384870Y0252172D02*
X0384870Y0251922D01*
X0385120Y0251672D01*
X0385621Y0251672D01*
X0385871Y0251421D01*
X0385871Y0251171D01*
X0385621Y0250921D01*
X0385120Y0250921D01*
X0384870Y0251171D01*
X0384870Y0252172D02*
X0385120Y0252422D01*
X0385621Y0252422D01*
X0385871Y0252172D01*
X0386343Y0252172D02*
X0386343Y0251171D01*
X0386593Y0250921D01*
X0387094Y0250921D01*
X0387344Y0251171D01*
X0387344Y0252172D01*
X0387094Y0252422D01*
X0386593Y0252422D01*
X0386343Y0252172D01*
X0387816Y0252422D02*
X0388567Y0252422D01*
X0388817Y0252172D01*
X0388817Y0251672D01*
X0388567Y0251421D01*
X0387816Y0251421D01*
X0387816Y0250921D02*
X0387816Y0252422D01*
X0378254Y0252422D02*
X0377504Y0251672D01*
X0378254Y0252422D02*
X0378254Y0250921D01*
X0400137Y0240569D02*
X0400871Y0240569D01*
X0400871Y0240386D01*
X0400137Y0239652D01*
X0400137Y0239468D01*
X0400871Y0239468D01*
X0401242Y0239468D02*
X0401976Y0240569D01*
X0402347Y0240569D02*
X0402714Y0240202D01*
X0403081Y0240569D01*
X0403081Y0239468D01*
X0403452Y0239468D02*
X0403452Y0240569D01*
X0403452Y0240019D02*
X0404186Y0240019D01*
X0404557Y0240386D02*
X0404557Y0239652D01*
X0404741Y0239468D01*
X0405108Y0239468D01*
X0405291Y0239652D01*
X0405662Y0239652D02*
X0405846Y0239468D01*
X0406213Y0239468D01*
X0406396Y0239652D01*
X0406396Y0239835D01*
X0406213Y0240019D01*
X0406029Y0240019D01*
X0406213Y0240019D02*
X0406396Y0240202D01*
X0406396Y0240386D01*
X0406213Y0240569D01*
X0405846Y0240569D01*
X0405662Y0240386D01*
X0405291Y0240386D02*
X0405108Y0240569D01*
X0404741Y0240569D01*
X0404557Y0240386D01*
X0404186Y0240569D02*
X0404186Y0239468D01*
X0402347Y0239468D02*
X0402347Y0240569D01*
X0401242Y0240569D02*
X0401976Y0239468D01*
X0403637Y0243468D02*
X0403637Y0244569D01*
X0403637Y0244019D02*
X0404371Y0244019D01*
X0404371Y0244569D02*
X0404371Y0243468D01*
X0404742Y0243285D02*
X0405476Y0243285D01*
X0405847Y0243468D02*
X0406398Y0243468D01*
X0406581Y0243652D01*
X0406581Y0243835D01*
X0406398Y0244019D01*
X0405847Y0244019D01*
X0405847Y0244569D02*
X0406398Y0244569D01*
X0406581Y0244386D01*
X0406581Y0244202D01*
X0406398Y0244019D01*
X0406952Y0244202D02*
X0406952Y0243468D01*
X0406952Y0243835D02*
X0407319Y0244202D01*
X0407503Y0244202D01*
X0407873Y0244202D02*
X0408056Y0244202D01*
X0408056Y0243468D01*
X0407873Y0243468D02*
X0408240Y0243468D01*
X0408610Y0243652D02*
X0408610Y0244019D01*
X0408793Y0244202D01*
X0409344Y0244202D01*
X0409344Y0244569D02*
X0409344Y0243468D01*
X0408793Y0243468D01*
X0408610Y0243652D01*
X0408056Y0244569D02*
X0408056Y0244753D01*
X0409715Y0244019D02*
X0409715Y0243652D01*
X0409898Y0243468D01*
X0410448Y0243468D01*
X0410448Y0243285D02*
X0410448Y0244202D01*
X0409898Y0244202D01*
X0409715Y0244019D01*
X0410082Y0243101D02*
X0410265Y0243101D01*
X0410448Y0243285D01*
X0410819Y0243652D02*
X0410819Y0244019D01*
X0411003Y0244202D01*
X0411370Y0244202D01*
X0411553Y0244019D01*
X0411553Y0243835D01*
X0410819Y0243835D01*
X0410819Y0243652D02*
X0411003Y0243468D01*
X0411370Y0243468D01*
X0411924Y0243468D02*
X0411924Y0243652D01*
X0412108Y0243652D01*
X0412108Y0243468D01*
X0411924Y0243468D01*
X0411924Y0244019D02*
X0411924Y0244202D01*
X0412108Y0244202D01*
X0412108Y0244019D01*
X0411924Y0244019D01*
X0411921Y0240569D02*
X0411921Y0239468D01*
X0411187Y0240569D01*
X0411187Y0239468D01*
X0410816Y0239468D02*
X0410082Y0239468D01*
X0410449Y0239468D02*
X0410449Y0240569D01*
X0410082Y0240202D01*
X0409711Y0240202D02*
X0409527Y0240019D01*
X0409160Y0240019D01*
X0408977Y0240202D01*
X0408977Y0240386D01*
X0409160Y0240569D01*
X0409527Y0240569D01*
X0409711Y0240386D01*
X0409711Y0240202D01*
X0409527Y0240019D02*
X0409711Y0239835D01*
X0409711Y0239652D01*
X0409527Y0239468D01*
X0409160Y0239468D01*
X0408977Y0239652D01*
X0408977Y0239835D01*
X0409160Y0240019D01*
X0408606Y0240202D02*
X0408422Y0240019D01*
X0408606Y0239835D01*
X0408606Y0239652D01*
X0408422Y0239468D01*
X0408055Y0239468D01*
X0407872Y0239652D01*
X0408239Y0240019D02*
X0408422Y0240019D01*
X0408606Y0240202D02*
X0408606Y0240386D01*
X0408422Y0240569D01*
X0408055Y0240569D01*
X0407872Y0240386D01*
X0407501Y0240569D02*
X0406767Y0240569D01*
X0406767Y0239468D01*
X0406767Y0240019D02*
X0407134Y0240019D01*
X0405847Y0243468D02*
X0405847Y0244569D01*
X0412292Y0240386D02*
X0412292Y0240202D01*
X0412475Y0240019D01*
X0412842Y0240019D01*
X0413026Y0239835D01*
X0413026Y0239652D01*
X0412842Y0239468D01*
X0412475Y0239468D01*
X0412292Y0239652D01*
X0412292Y0239835D01*
X0412475Y0240019D01*
X0412842Y0240019D02*
X0413026Y0240202D01*
X0413026Y0240386D01*
X0412842Y0240569D01*
X0412475Y0240569D01*
X0412292Y0240386D01*
X0413397Y0240569D02*
X0414131Y0240569D01*
X0413764Y0240569D02*
X0413764Y0239468D01*
X0414502Y0239652D02*
X0414685Y0239468D01*
X0415052Y0239468D01*
X0415235Y0239652D01*
X0414502Y0239652D02*
X0414502Y0240386D01*
X0414685Y0240569D01*
X0415052Y0240569D01*
X0415235Y0240386D01*
X0417308Y0111583D02*
X0417308Y0111400D01*
X0417308Y0111033D02*
X0417308Y0110299D01*
X0417125Y0110299D02*
X0417492Y0110299D01*
X0417862Y0110482D02*
X0417862Y0110849D01*
X0418045Y0111033D01*
X0418596Y0111033D01*
X0418596Y0111400D02*
X0418596Y0110299D01*
X0418045Y0110299D01*
X0417862Y0110482D01*
X0417308Y0111033D02*
X0417125Y0111033D01*
X0416755Y0111033D02*
X0416571Y0111033D01*
X0416204Y0110666D01*
X0416204Y0110299D02*
X0416204Y0111033D01*
X0415833Y0111033D02*
X0415650Y0110849D01*
X0415099Y0110849D01*
X0415099Y0110299D02*
X0415650Y0110299D01*
X0415833Y0110482D01*
X0415833Y0110666D01*
X0415650Y0110849D01*
X0415833Y0111033D02*
X0415833Y0111216D01*
X0415650Y0111400D01*
X0415099Y0111400D01*
X0415099Y0110299D01*
X0414728Y0110115D02*
X0413994Y0110115D01*
X0413623Y0110299D02*
X0413623Y0111400D01*
X0413623Y0110849D02*
X0412889Y0110849D01*
X0412889Y0110299D02*
X0412889Y0111400D01*
X0412704Y0107400D02*
X0412704Y0106299D01*
X0412333Y0106299D02*
X0412333Y0107400D01*
X0411966Y0107033D01*
X0411599Y0107400D01*
X0411599Y0106299D01*
X0411228Y0106299D02*
X0410494Y0107400D01*
X0410123Y0107400D02*
X0410123Y0107216D01*
X0409389Y0106482D01*
X0409389Y0106299D01*
X0410123Y0106299D01*
X0410494Y0106299D02*
X0411228Y0107400D01*
X0410123Y0107400D02*
X0409389Y0107400D01*
X0412704Y0106849D02*
X0413438Y0106849D01*
X0413809Y0106482D02*
X0413993Y0106299D01*
X0414360Y0106299D01*
X0414543Y0106482D01*
X0414914Y0106482D02*
X0415098Y0106299D01*
X0415465Y0106299D01*
X0415648Y0106482D01*
X0415648Y0106666D01*
X0415465Y0106849D01*
X0415281Y0106849D01*
X0415465Y0106849D02*
X0415648Y0107033D01*
X0415648Y0107216D01*
X0415465Y0107400D01*
X0415098Y0107400D01*
X0414914Y0107216D01*
X0414543Y0107216D02*
X0414360Y0107400D01*
X0413993Y0107400D01*
X0413809Y0107216D01*
X0413809Y0106482D01*
X0413438Y0106299D02*
X0413438Y0107400D01*
X0416019Y0107400D02*
X0416753Y0107400D01*
X0417124Y0107216D02*
X0417307Y0107400D01*
X0417674Y0107400D01*
X0417858Y0107216D01*
X0417858Y0107033D01*
X0417674Y0106849D01*
X0417858Y0106666D01*
X0417858Y0106482D01*
X0417674Y0106299D01*
X0417307Y0106299D01*
X0417124Y0106482D01*
X0417491Y0106849D02*
X0417674Y0106849D01*
X0418229Y0106666D02*
X0418412Y0106849D01*
X0418779Y0106849D01*
X0418963Y0106666D01*
X0418963Y0106482D01*
X0418779Y0106299D01*
X0418412Y0106299D01*
X0418229Y0106482D01*
X0418229Y0106666D01*
X0418412Y0106849D02*
X0418229Y0107033D01*
X0418229Y0107216D01*
X0418412Y0107400D01*
X0418779Y0107400D01*
X0418963Y0107216D01*
X0418963Y0107033D01*
X0418779Y0106849D01*
X0419334Y0107033D02*
X0419701Y0107400D01*
X0419701Y0106299D01*
X0419334Y0106299D02*
X0420068Y0106299D01*
X0420439Y0106299D02*
X0420439Y0107400D01*
X0421173Y0106299D01*
X0421173Y0107400D01*
X0421544Y0107216D02*
X0421544Y0107033D01*
X0421727Y0106849D01*
X0422094Y0106849D01*
X0422278Y0106666D01*
X0422278Y0106482D01*
X0422094Y0106299D01*
X0421727Y0106299D01*
X0421544Y0106482D01*
X0421544Y0106666D01*
X0421727Y0106849D01*
X0422094Y0106849D02*
X0422278Y0107033D01*
X0422278Y0107216D01*
X0422094Y0107400D01*
X0421727Y0107400D01*
X0421544Y0107216D01*
X0422649Y0107400D02*
X0423383Y0107400D01*
X0423016Y0107400D02*
X0423016Y0106299D01*
X0423754Y0106482D02*
X0423937Y0106299D01*
X0424304Y0106299D01*
X0424487Y0106482D01*
X0423754Y0106482D02*
X0423754Y0107216D01*
X0423937Y0107400D01*
X0424304Y0107400D01*
X0424487Y0107216D01*
X0421360Y0110299D02*
X0421176Y0110299D01*
X0421176Y0110482D01*
X0421360Y0110482D01*
X0421360Y0110299D01*
X0421360Y0110849D02*
X0421176Y0110849D01*
X0421176Y0111033D01*
X0421360Y0111033D01*
X0421360Y0110849D01*
X0420805Y0110849D02*
X0420805Y0110666D01*
X0420071Y0110666D01*
X0420071Y0110849D02*
X0420255Y0111033D01*
X0420622Y0111033D01*
X0420805Y0110849D01*
X0420622Y0110299D02*
X0420255Y0110299D01*
X0420071Y0110482D01*
X0420071Y0110849D01*
X0419700Y0111033D02*
X0419150Y0111033D01*
X0418967Y0110849D01*
X0418967Y0110482D01*
X0419150Y0110299D01*
X0419700Y0110299D01*
X0419700Y0110115D02*
X0419700Y0111033D01*
X0419700Y0110115D02*
X0419517Y0109932D01*
X0419333Y0109932D01*
X0416019Y0107400D02*
X0416019Y0106299D01*
X0416019Y0106849D02*
X0416386Y0106849D01*
X0394396Y0108949D02*
X0394145Y0108699D01*
X0393395Y0108699D01*
X0393395Y0108199D02*
X0393395Y0109700D01*
X0394145Y0109700D01*
X0394396Y0109450D01*
X0394396Y0108949D01*
X0392922Y0108449D02*
X0392922Y0109450D01*
X0392672Y0109700D01*
X0392172Y0109700D01*
X0391922Y0109450D01*
X0391922Y0108449D01*
X0392172Y0108199D01*
X0392672Y0108199D01*
X0392922Y0108449D01*
X0391449Y0108449D02*
X0391199Y0108199D01*
X0390698Y0108199D01*
X0390448Y0108449D01*
X0389976Y0108199D02*
X0389976Y0109700D01*
X0389475Y0109200D01*
X0388975Y0109700D01*
X0388975Y0108199D01*
X0388503Y0108449D02*
X0388252Y0108199D01*
X0387752Y0108199D01*
X0387502Y0108449D01*
X0387502Y0108699D01*
X0387752Y0108949D01*
X0388252Y0108949D01*
X0388503Y0108699D01*
X0388503Y0108449D01*
X0388252Y0108949D02*
X0388503Y0109200D01*
X0388503Y0109450D01*
X0388252Y0109700D01*
X0387752Y0109700D01*
X0387502Y0109450D01*
X0387502Y0109200D01*
X0387752Y0108949D01*
X0387029Y0109450D02*
X0386029Y0108449D01*
X0386029Y0108199D01*
X0385556Y0108199D02*
X0384555Y0108199D01*
X0385556Y0109200D01*
X0385556Y0109450D01*
X0385306Y0109700D01*
X0384805Y0109700D01*
X0384555Y0109450D01*
X0384083Y0108949D02*
X0383082Y0108949D01*
X0383833Y0109700D01*
X0383833Y0108199D01*
X0382610Y0108949D02*
X0381609Y0108949D01*
X0382359Y0109700D01*
X0382359Y0108199D01*
X0381136Y0108449D02*
X0380886Y0108199D01*
X0380386Y0108199D01*
X0380136Y0108449D01*
X0380136Y0109450D01*
X0380386Y0109700D01*
X0380886Y0109700D01*
X0381136Y0109450D01*
X0379663Y0109700D02*
X0378662Y0109700D01*
X0379163Y0109700D02*
X0379163Y0108199D01*
X0386029Y0109700D02*
X0387029Y0109700D01*
X0387029Y0109450D01*
X0390448Y0109450D02*
X0390448Y0109200D01*
X0390698Y0108949D01*
X0391199Y0108949D01*
X0391449Y0108699D01*
X0391449Y0108449D01*
X0391449Y0109450D02*
X0391199Y0109700D01*
X0390698Y0109700D01*
X0390448Y0109450D01*
D13*
X0386723Y0159349D02*
X0387090Y0159716D01*
X0387090Y0160450D01*
X0386723Y0160817D01*
X0385989Y0160817D01*
X0385989Y0160083D01*
X0385255Y0160817D02*
X0384888Y0160450D01*
X0384888Y0159716D01*
X0385255Y0159349D01*
X0386723Y0159349D01*
X0387090Y0161559D02*
X0387090Y0163027D01*
X0387090Y0162293D02*
X0384888Y0162293D01*
X0385622Y0161559D01*
X0400636Y0161559D02*
X0400636Y0162660D01*
X0401003Y0163027D01*
X0402471Y0163027D01*
X0402838Y0162660D01*
X0402838Y0161559D01*
X0400636Y0161559D01*
X0401370Y0160817D02*
X0402838Y0160817D01*
X0401737Y0160817D02*
X0401737Y0159349D01*
X0401370Y0159349D02*
X0402838Y0159349D01*
X0401370Y0159349D02*
X0400636Y0160083D01*
X0401370Y0160817D01*
X0400636Y0163769D02*
X0402838Y0165236D01*
X0402838Y0165978D02*
X0400636Y0165978D01*
X0400636Y0167079D01*
X0401003Y0167446D01*
X0401737Y0167446D01*
X0402104Y0167079D01*
X0402104Y0165978D01*
X0402104Y0166712D02*
X0402838Y0167446D01*
X0402471Y0168188D02*
X0402838Y0168555D01*
X0402838Y0169289D01*
X0402471Y0169656D01*
X0402104Y0169656D01*
X0401737Y0169289D01*
X0401737Y0168555D01*
X0401370Y0168188D01*
X0401003Y0168188D01*
X0400636Y0168555D01*
X0400636Y0169289D01*
X0401003Y0169656D01*
X0401003Y0170398D02*
X0401370Y0170398D01*
X0401737Y0170765D01*
X0401737Y0171499D01*
X0402104Y0171866D01*
X0402471Y0171866D01*
X0402838Y0171499D01*
X0402838Y0170765D01*
X0402471Y0170398D01*
X0402104Y0170398D01*
X0401737Y0170765D01*
X0401737Y0171499D02*
X0401370Y0171866D01*
X0401003Y0171866D01*
X0400636Y0171499D01*
X0400636Y0170765D01*
X0401003Y0170398D01*
X0401370Y0172608D02*
X0400636Y0173342D01*
X0402838Y0173342D01*
X0402838Y0172608D02*
X0402838Y0174076D01*
X0402471Y0174818D02*
X0401003Y0176286D01*
X0402471Y0176286D01*
X0402838Y0175919D01*
X0402838Y0175185D01*
X0402471Y0174818D01*
X0401003Y0174818D01*
X0400636Y0175185D01*
X0400636Y0175919D01*
X0401003Y0176286D01*
X0400636Y0165236D02*
X0402838Y0163769D01*
X0165633Y0254944D02*
X0163031Y0254944D01*
X0163031Y0255811D02*
X0163031Y0254076D01*
X0163031Y0256655D02*
X0165633Y0256655D01*
X0165633Y0258389D01*
X0165633Y0259233D02*
X0163031Y0259233D01*
X0163031Y0260968D01*
X0163031Y0261811D02*
X0163031Y0263546D01*
X0163031Y0262678D02*
X0165633Y0262678D01*
X0164332Y0260100D02*
X0164332Y0259233D01*
X0163031Y0258389D02*
X0163031Y0256655D01*
X0164332Y0256655D02*
X0164332Y0257522D01*
X0164332Y0266967D02*
X0163031Y0268268D01*
X0165633Y0268268D01*
X0165199Y0269546D02*
X0165633Y0269979D01*
X0165633Y0270847D01*
X0165199Y0271280D01*
X0164766Y0271280D01*
X0164332Y0270847D01*
X0164332Y0270413D01*
X0164332Y0270847D02*
X0163898Y0271280D01*
X0163465Y0271280D01*
X0163031Y0270847D01*
X0163031Y0269979D01*
X0163465Y0269546D01*
X0164332Y0268702D02*
X0164332Y0266967D01*
X0165199Y0272124D02*
X0163465Y0272124D01*
X0163031Y0272557D01*
X0163031Y0273425D01*
X0163465Y0273859D01*
X0165199Y0272124D01*
X0165633Y0272557D01*
X0165633Y0273425D01*
X0165199Y0273859D01*
X0163465Y0273859D01*
X0163465Y0274702D02*
X0163031Y0275136D01*
X0163031Y0276003D01*
X0163465Y0276437D01*
X0165199Y0274702D01*
X0165633Y0275136D01*
X0165633Y0276003D01*
X0165199Y0276437D01*
X0163465Y0276437D01*
X0163465Y0274702D02*
X0165199Y0274702D01*
X0073890Y0222354D02*
X0073731Y0221762D01*
X0072980Y0221328D01*
X0072388Y0221487D01*
X0073023Y0223857D01*
X0073890Y0222354D01*
X0072388Y0221487D02*
X0071520Y0222989D01*
X0071679Y0223582D01*
X0072430Y0224016D01*
X0073023Y0223857D01*
X0070790Y0222568D02*
X0070155Y0220198D01*
X0070747Y0220039D01*
X0071499Y0220473D01*
X0071657Y0221065D01*
X0070790Y0222568D01*
X0070197Y0222726D01*
X0069446Y0222293D01*
X0069288Y0221700D01*
X0070155Y0220198D01*
X0069425Y0219776D02*
X0069266Y0219184D01*
X0068515Y0218750D01*
X0067922Y0218909D01*
X0066758Y0219238D02*
X0065256Y0218371D01*
X0065732Y0220148D01*
X0067033Y0217895D01*
X0068240Y0220094D02*
X0068615Y0220311D01*
X0069208Y0220152D01*
X0069425Y0219776D01*
X0068615Y0220311D02*
X0068774Y0220903D01*
X0068557Y0221279D01*
X0067965Y0221437D01*
X0067213Y0221004D01*
X0067055Y0220411D01*
X0061642Y0217787D02*
X0060140Y0216920D01*
X0059409Y0216498D02*
X0057907Y0215630D01*
X0059208Y0213377D01*
X0058478Y0212955D02*
X0056975Y0212088D01*
X0055674Y0214341D01*
X0057176Y0215209D01*
X0058557Y0214504D02*
X0059309Y0214937D01*
X0057076Y0213648D02*
X0056325Y0213215D01*
X0054944Y0213920D02*
X0053441Y0213052D01*
X0054192Y0213486D02*
X0055494Y0211232D01*
X0062192Y0215100D02*
X0060891Y0217353D01*
X0113702Y0163670D02*
X0113702Y0162195D01*
X0113997Y0161900D01*
X0114587Y0161900D01*
X0114882Y0162195D01*
X0114882Y0163670D01*
X0115514Y0163670D02*
X0115514Y0161900D01*
X0116694Y0161900D01*
X0117327Y0161900D02*
X0117327Y0163670D01*
X0118507Y0161900D01*
X0118507Y0163670D01*
X0119140Y0163375D02*
X0119435Y0163670D01*
X0120025Y0163670D01*
X0120320Y0163375D01*
X0120320Y0163080D01*
X0119140Y0161900D01*
X0120320Y0161900D01*
X0120952Y0162195D02*
X0122132Y0163375D01*
X0122132Y0162195D01*
X0121837Y0161900D01*
X0121247Y0161900D01*
X0120952Y0162195D01*
X0120952Y0163375D01*
X0121247Y0163670D01*
X0121837Y0163670D01*
X0122132Y0163375D01*
X0122765Y0163375D02*
X0123060Y0163670D01*
X0123650Y0163670D01*
X0123945Y0163375D01*
X0122765Y0162195D01*
X0123060Y0161900D01*
X0123650Y0161900D01*
X0123945Y0162195D01*
X0123945Y0163375D01*
X0124577Y0163375D02*
X0124872Y0163670D01*
X0125462Y0163670D01*
X0125757Y0163375D01*
X0125757Y0163080D01*
X0125462Y0162785D01*
X0125757Y0162490D01*
X0125757Y0162195D01*
X0125462Y0161900D01*
X0124872Y0161900D01*
X0124577Y0162195D01*
X0125167Y0162785D02*
X0125462Y0162785D01*
X0126390Y0162785D02*
X0127570Y0162785D01*
X0127570Y0163080D02*
X0127570Y0161900D01*
X0128202Y0161900D02*
X0128202Y0163670D01*
X0129087Y0163670D01*
X0129382Y0163375D01*
X0129382Y0162785D01*
X0129087Y0162490D01*
X0128202Y0162490D01*
X0127570Y0163080D02*
X0126980Y0163670D01*
X0126390Y0163080D01*
X0126390Y0161900D01*
X0130015Y0161900D02*
X0130015Y0163670D01*
X0131195Y0163670D02*
X0131195Y0161900D01*
X0130605Y0162490D01*
X0130015Y0161900D01*
X0131827Y0161900D02*
X0131827Y0163670D01*
X0132712Y0163670D01*
X0133007Y0163375D01*
X0133007Y0162785D01*
X0132712Y0162490D01*
X0131827Y0162490D01*
X0132417Y0162490D02*
X0133007Y0161900D01*
X0128985Y0156241D02*
X0128985Y0155241D01*
X0119485Y0155241D01*
X0119485Y0156241D01*
X0122765Y0162195D02*
X0122765Y0163375D01*
X0128153Y0167760D02*
X0128155Y0167821D01*
X0128161Y0167883D01*
X0128171Y0167943D01*
X0128184Y0168003D01*
X0128202Y0168062D01*
X0128223Y0168120D01*
X0128248Y0168176D01*
X0128276Y0168230D01*
X0128308Y0168283D01*
X0128343Y0168333D01*
X0128382Y0168381D01*
X0128423Y0168426D01*
X0128467Y0168469D01*
X0128514Y0168509D01*
X0128563Y0168546D01*
X0128614Y0168579D01*
X0128668Y0168609D01*
X0128723Y0168636D01*
X0128780Y0168659D01*
X0128838Y0168678D01*
X0128898Y0168694D01*
X0128958Y0168706D01*
X0129019Y0168714D01*
X0129080Y0168718D01*
X0129142Y0168718D01*
X0129203Y0168714D01*
X0129264Y0168706D01*
X0129324Y0168694D01*
X0129384Y0168678D01*
X0129442Y0168659D01*
X0129499Y0168636D01*
X0129554Y0168609D01*
X0129608Y0168579D01*
X0129659Y0168546D01*
X0129708Y0168509D01*
X0129755Y0168469D01*
X0129799Y0168426D01*
X0129840Y0168381D01*
X0129879Y0168333D01*
X0129914Y0168283D01*
X0129946Y0168230D01*
X0129974Y0168176D01*
X0129999Y0168120D01*
X0130020Y0168062D01*
X0130038Y0168003D01*
X0130051Y0167943D01*
X0130061Y0167883D01*
X0130067Y0167821D01*
X0130069Y0167760D01*
X0130067Y0167699D01*
X0130061Y0167637D01*
X0130051Y0167577D01*
X0130038Y0167517D01*
X0130020Y0167458D01*
X0129999Y0167400D01*
X0129974Y0167344D01*
X0129946Y0167290D01*
X0129914Y0167237D01*
X0129879Y0167187D01*
X0129840Y0167139D01*
X0129799Y0167094D01*
X0129755Y0167051D01*
X0129708Y0167011D01*
X0129659Y0166974D01*
X0129608Y0166941D01*
X0129554Y0166911D01*
X0129499Y0166884D01*
X0129442Y0166861D01*
X0129384Y0166842D01*
X0129324Y0166826D01*
X0129264Y0166814D01*
X0129203Y0166806D01*
X0129142Y0166802D01*
X0129080Y0166802D01*
X0129019Y0166806D01*
X0128958Y0166814D01*
X0128898Y0166826D01*
X0128838Y0166842D01*
X0128780Y0166861D01*
X0128723Y0166884D01*
X0128668Y0166911D01*
X0128614Y0166941D01*
X0128563Y0166974D01*
X0128514Y0167011D01*
X0128467Y0167051D01*
X0128423Y0167094D01*
X0128382Y0167139D01*
X0128343Y0167187D01*
X0128308Y0167237D01*
X0128276Y0167290D01*
X0128248Y0167344D01*
X0128223Y0167400D01*
X0128202Y0167458D01*
X0128184Y0167517D01*
X0128171Y0167577D01*
X0128161Y0167637D01*
X0128155Y0167699D01*
X0128153Y0167760D01*
X0128985Y0133241D02*
X0118985Y0133241D01*
X0118985Y0132241D01*
X0118985Y0123741D02*
X0118985Y0122741D01*
X0128485Y0122741D01*
X0128485Y0123741D01*
X0128985Y0132241D02*
X0128985Y0133241D01*
X0128485Y0100741D02*
X0118485Y0100741D01*
X0118485Y0099741D01*
X0128485Y0099741D02*
X0128485Y0100741D01*
X0148818Y0089846D02*
X0149252Y0090279D01*
X0150987Y0088545D01*
X0151420Y0088978D01*
X0151420Y0089846D01*
X0150987Y0090279D01*
X0149252Y0090279D01*
X0148818Y0089846D02*
X0148818Y0088978D01*
X0149252Y0088545D01*
X0150987Y0088545D01*
X0150987Y0087701D02*
X0149252Y0087701D01*
X0150987Y0085966D01*
X0151420Y0086400D01*
X0151420Y0087268D01*
X0150987Y0087701D01*
X0150987Y0085966D02*
X0149252Y0085966D01*
X0148818Y0086400D01*
X0148818Y0087268D01*
X0149252Y0087701D01*
X0149252Y0085123D02*
X0149686Y0085123D01*
X0150119Y0084689D01*
X0150553Y0085123D01*
X0150987Y0085123D01*
X0151420Y0084689D01*
X0151420Y0083822D01*
X0150987Y0083388D01*
X0150119Y0082545D02*
X0150119Y0080810D01*
X0148818Y0082111D01*
X0151420Y0082111D01*
X0150119Y0084256D02*
X0150119Y0084689D01*
X0149252Y0085123D02*
X0148818Y0084689D01*
X0148818Y0083822D01*
X0149252Y0083388D01*
X0148818Y0077388D02*
X0148818Y0075654D01*
X0148818Y0074810D02*
X0148818Y0073075D01*
X0151420Y0073075D01*
X0151420Y0072232D02*
X0151420Y0070497D01*
X0148818Y0070497D01*
X0148818Y0072232D01*
X0150119Y0073075D02*
X0150119Y0073943D01*
X0150119Y0071365D02*
X0150119Y0070497D01*
X0148818Y0069654D02*
X0148818Y0067919D01*
X0148818Y0068786D02*
X0151420Y0068786D01*
X0151420Y0076521D02*
X0148818Y0076521D01*
X0076404Y0113938D02*
X0074035Y0114573D01*
X0073876Y0113981D01*
X0074309Y0113230D01*
X0074902Y0113071D01*
X0076404Y0113938D01*
X0076563Y0114531D01*
X0076129Y0115282D01*
X0075537Y0115441D01*
X0074035Y0114573D01*
X0073613Y0115304D02*
X0073020Y0115463D01*
X0072587Y0116214D01*
X0072745Y0116806D01*
X0075115Y0116171D01*
X0073613Y0115304D01*
X0075115Y0116171D02*
X0075274Y0116764D01*
X0074840Y0117515D01*
X0074248Y0117674D01*
X0072745Y0116806D01*
X0072324Y0117537D02*
X0071731Y0117695D01*
X0071298Y0118447D01*
X0071456Y0119039D01*
X0071786Y0120203D02*
X0070918Y0121705D01*
X0072696Y0121229D01*
X0070442Y0119928D01*
X0072641Y0118721D02*
X0072858Y0118346D01*
X0072699Y0117753D01*
X0072324Y0117537D01*
X0072858Y0118346D02*
X0073451Y0118187D01*
X0073826Y0118404D01*
X0073985Y0118996D01*
X0073551Y0119748D01*
X0072959Y0119906D01*
X0070334Y0125319D02*
X0069467Y0126822D01*
X0069045Y0127552D02*
X0068178Y0129054D01*
X0065924Y0127753D01*
X0065503Y0128484D02*
X0064635Y0129986D01*
X0066889Y0131287D01*
X0067756Y0129785D01*
X0067051Y0128404D02*
X0067485Y0127653D01*
X0066196Y0129885D02*
X0065762Y0130637D01*
X0066467Y0132018D02*
X0065600Y0133520D01*
X0066033Y0132769D02*
X0063780Y0131468D01*
X0067647Y0124769D02*
X0069901Y0126070D01*
D14*
X0314957Y0088241D02*
X0322831Y0088241D01*
X0322831Y0083320D02*
X0314957Y0083320D01*
X0411005Y0136788D02*
X0423603Y0136788D01*
X0423603Y0143087D02*
X0411005Y0143087D01*
X0333410Y0271410D02*
X0333410Y0279284D01*
X0328489Y0279284D02*
X0328489Y0271410D01*
D15*
X0318894Y0085780D03*
D16*
X0417304Y0139938D03*
D17*
X0330950Y0275347D03*
D18*
X0191906Y0196946D03*
X0191406Y0184509D03*
X0191406Y0170572D03*
X0190906Y0157135D03*
X0190906Y0144698D03*
X0037942Y0164241D03*
D19*
X0049048Y0153368D02*
X0056548Y0140377D01*
X0040975Y0186791D02*
X0053966Y0194291D01*
X0132135Y0300304D02*
X0147135Y0300304D01*
X0149103Y0060422D02*
X0134103Y0060422D01*
D20*
X0133860Y0060235D01*
X0133622Y0060043D01*
X0133389Y0059844D01*
X0133161Y0059640D01*
X0132938Y0059431D01*
X0132720Y0059216D01*
X0132507Y0058996D01*
X0132300Y0058771D01*
X0132098Y0058540D01*
X0131902Y0058305D01*
X0131712Y0058065D01*
X0131528Y0057821D01*
X0131350Y0057572D01*
X0131178Y0057318D01*
X0131012Y0057061D01*
X0130852Y0056800D01*
X0130699Y0056535D01*
X0130553Y0056266D01*
X0130413Y0055993D01*
X0130280Y0055718D01*
X0130154Y0055439D01*
X0130034Y0055157D01*
X0129922Y0054872D01*
X0129817Y0054585D01*
X0129718Y0054295D01*
X0129627Y0054003D01*
X0129543Y0053708D01*
X0129466Y0053412D01*
X0129396Y0053114D01*
X0129334Y0052814D01*
X0129279Y0052513D01*
X0129232Y0052211D01*
X0129192Y0051907D01*
X0129159Y0051603D01*
X0129134Y0051298D01*
X0129116Y0050992D01*
X0129106Y0050686D01*
X0129103Y0050380D01*
X0129108Y0050074D01*
X0129120Y0049768D01*
X0129140Y0049462D01*
X0129167Y0049158D01*
X0129202Y0048853D01*
X0129244Y0048550D01*
X0129293Y0048248D01*
X0129350Y0047947D01*
X0129415Y0047648D01*
X0129486Y0047350D01*
X0129565Y0047055D01*
X0129651Y0046761D01*
X0129744Y0046469D01*
X0129845Y0046180D01*
X0129952Y0045893D01*
X0130067Y0045609D01*
X0130188Y0045328D01*
X0130316Y0045050D01*
X0130451Y0044775D01*
X0130593Y0044504D01*
X0130741Y0044236D01*
X0130896Y0043972D01*
X0131057Y0043712D01*
X0131224Y0043456D01*
X0131398Y0043203D01*
X0131578Y0042956D01*
X0131764Y0042712D01*
X0131955Y0042474D01*
X0132153Y0042240D01*
X0132356Y0042011D01*
X0132565Y0041787D01*
X0132779Y0041568D01*
X0132999Y0041355D01*
X0133223Y0041147D01*
X0133453Y0040944D01*
X0133687Y0040748D01*
X0133927Y0040557D01*
X0134170Y0040372D01*
X0134419Y0040193D01*
X0134671Y0040020D01*
X0134928Y0039853D01*
X0135189Y0039693D01*
X0135454Y0039539D01*
X0135722Y0039392D01*
X0135994Y0039251D01*
X0136269Y0039117D01*
X0136548Y0038990D01*
X0136829Y0038869D01*
X0137114Y0038756D01*
X0137401Y0038650D01*
X0137690Y0038550D01*
X0137982Y0038458D01*
X0138276Y0038373D01*
X0138572Y0038295D01*
X0138870Y0038224D01*
X0139170Y0038161D01*
X0139471Y0038105D01*
X0139773Y0038057D01*
X0140076Y0038016D01*
X0140380Y0037982D01*
X0140685Y0037956D01*
X0140991Y0037937D01*
X0141297Y0037926D01*
X0141603Y0037922D01*
X0141909Y0037926D01*
X0142215Y0037937D01*
X0142521Y0037956D01*
X0142826Y0037982D01*
X0143130Y0038016D01*
X0143433Y0038057D01*
X0143735Y0038105D01*
X0144036Y0038161D01*
X0144336Y0038224D01*
X0144634Y0038295D01*
X0144930Y0038373D01*
X0145224Y0038458D01*
X0145516Y0038550D01*
X0145805Y0038650D01*
X0146092Y0038756D01*
X0146377Y0038869D01*
X0146658Y0038990D01*
X0146937Y0039117D01*
X0147212Y0039251D01*
X0147484Y0039392D01*
X0147752Y0039539D01*
X0148017Y0039693D01*
X0148278Y0039853D01*
X0148535Y0040020D01*
X0148787Y0040193D01*
X0149036Y0040372D01*
X0149279Y0040557D01*
X0149519Y0040748D01*
X0149753Y0040944D01*
X0149983Y0041147D01*
X0150207Y0041355D01*
X0150427Y0041568D01*
X0150641Y0041787D01*
X0150850Y0042011D01*
X0151053Y0042240D01*
X0151251Y0042474D01*
X0151442Y0042712D01*
X0151628Y0042956D01*
X0151808Y0043203D01*
X0151982Y0043456D01*
X0152149Y0043712D01*
X0152310Y0043972D01*
X0152465Y0044236D01*
X0152613Y0044504D01*
X0152755Y0044775D01*
X0152890Y0045050D01*
X0153018Y0045328D01*
X0153139Y0045609D01*
X0153254Y0045893D01*
X0153361Y0046180D01*
X0153462Y0046469D01*
X0153555Y0046761D01*
X0153641Y0047055D01*
X0153720Y0047350D01*
X0153791Y0047648D01*
X0153856Y0047947D01*
X0153913Y0048248D01*
X0153962Y0048550D01*
X0154004Y0048853D01*
X0154039Y0049158D01*
X0154066Y0049462D01*
X0154086Y0049768D01*
X0154098Y0050074D01*
X0154103Y0050380D01*
X0154100Y0050686D01*
X0154090Y0050992D01*
X0154072Y0051298D01*
X0154047Y0051603D01*
X0154014Y0051907D01*
X0153974Y0052211D01*
X0153927Y0052513D01*
X0153872Y0052814D01*
X0153810Y0053114D01*
X0153740Y0053412D01*
X0153663Y0053708D01*
X0153579Y0054003D01*
X0153488Y0054295D01*
X0153389Y0054585D01*
X0153284Y0054872D01*
X0153172Y0055157D01*
X0153052Y0055439D01*
X0152926Y0055718D01*
X0152793Y0055993D01*
X0152653Y0056266D01*
X0152507Y0056535D01*
X0152354Y0056800D01*
X0152194Y0057061D01*
X0152028Y0057318D01*
X0151856Y0057572D01*
X0151678Y0057821D01*
X0151494Y0058065D01*
X0151304Y0058305D01*
X0151108Y0058540D01*
X0150906Y0058771D01*
X0150699Y0058996D01*
X0150486Y0059216D01*
X0150268Y0059431D01*
X0150045Y0059640D01*
X0149817Y0059844D01*
X0149584Y0060043D01*
X0149346Y0060235D01*
X0149103Y0060422D01*
X0056548Y0140377D02*
X0056508Y0140073D01*
X0056460Y0139771D01*
X0056405Y0139470D01*
X0056343Y0139170D01*
X0056273Y0138872D01*
X0056196Y0138576D01*
X0056111Y0138282D01*
X0056020Y0137989D01*
X0055921Y0137700D01*
X0055815Y0137412D01*
X0055703Y0137128D01*
X0055583Y0136846D01*
X0055457Y0136567D01*
X0055323Y0136292D01*
X0055183Y0136019D01*
X0055037Y0135751D01*
X0054883Y0135486D01*
X0054724Y0135224D01*
X0054558Y0134967D01*
X0054386Y0134714D01*
X0054207Y0134465D01*
X0054023Y0134221D01*
X0053832Y0133981D01*
X0053636Y0133746D01*
X0053434Y0133516D01*
X0053227Y0133291D01*
X0053014Y0133071D01*
X0052796Y0132856D01*
X0052573Y0132647D01*
X0052344Y0132443D01*
X0052111Y0132245D01*
X0051873Y0132052D01*
X0051630Y0131866D01*
X0051383Y0131685D01*
X0051131Y0131511D01*
X0050875Y0131343D01*
X0050615Y0131181D01*
X0050352Y0131026D01*
X0050084Y0130877D01*
X0049813Y0130734D01*
X0049539Y0130599D01*
X0049261Y0130470D01*
X0048980Y0130348D01*
X0048696Y0130233D01*
X0048410Y0130125D01*
X0048121Y0130024D01*
X0047830Y0129930D01*
X0047536Y0129843D01*
X0047241Y0129763D01*
X0046943Y0129691D01*
X0046644Y0129626D01*
X0046343Y0129568D01*
X0046041Y0129518D01*
X0045738Y0129475D01*
X0045434Y0129439D01*
X0045129Y0129411D01*
X0044824Y0129391D01*
X0044518Y0129378D01*
X0044212Y0129372D01*
X0043906Y0129374D01*
X0043600Y0129384D01*
X0043294Y0129401D01*
X0042989Y0129425D01*
X0042685Y0129457D01*
X0042381Y0129496D01*
X0042078Y0129543D01*
X0041777Y0129597D01*
X0041477Y0129658D01*
X0041179Y0129727D01*
X0040882Y0129803D01*
X0040588Y0129887D01*
X0040295Y0129977D01*
X0040005Y0130075D01*
X0039718Y0130180D01*
X0039433Y0130291D01*
X0039150Y0130410D01*
X0038871Y0130536D01*
X0038595Y0130668D01*
X0038323Y0130807D01*
X0038053Y0130953D01*
X0037788Y0131105D01*
X0037526Y0131264D01*
X0037268Y0131429D01*
X0037015Y0131600D01*
X0036765Y0131778D01*
X0036520Y0131961D01*
X0036280Y0132151D01*
X0036044Y0132346D01*
X0035813Y0132547D01*
X0035587Y0132754D01*
X0035367Y0132966D01*
X0035151Y0133184D01*
X0034941Y0133406D01*
X0034737Y0133634D01*
X0034538Y0133867D01*
X0034344Y0134104D01*
X0034157Y0134346D01*
X0033976Y0134593D01*
X0033801Y0134844D01*
X0033632Y0135099D01*
X0033469Y0135359D01*
X0033313Y0135622D01*
X0033163Y0135889D01*
X0033020Y0136160D01*
X0032883Y0136434D01*
X0032753Y0136711D01*
X0032630Y0136991D01*
X0032514Y0137274D01*
X0032405Y0137560D01*
X0032303Y0137849D01*
X0032208Y0138140D01*
X0032120Y0138433D01*
X0032040Y0138729D01*
X0031966Y0139026D01*
X0031900Y0139325D01*
X0031842Y0139625D01*
X0031790Y0139927D01*
X0031746Y0140230D01*
X0031710Y0140534D01*
X0031681Y0140839D01*
X0031659Y0141144D01*
X0031645Y0141450D01*
X0031639Y0141756D01*
X0031639Y0142062D01*
X0031648Y0142368D01*
X0031664Y0142674D01*
X0031687Y0142979D01*
X0031718Y0143284D01*
X0031756Y0143587D01*
X0031802Y0143890D01*
X0031855Y0144192D01*
X0031916Y0144492D01*
X0031983Y0144790D01*
X0032058Y0145087D01*
X0032141Y0145382D01*
X0032230Y0145675D01*
X0032327Y0145965D01*
X0032431Y0146253D01*
X0032542Y0146538D01*
X0032659Y0146821D01*
X0032784Y0147101D01*
X0032915Y0147377D01*
X0033054Y0147650D01*
X0033198Y0147920D01*
X0033350Y0148186D01*
X0033508Y0148448D01*
X0033672Y0148707D01*
X0033842Y0148961D01*
X0034019Y0149211D01*
X0034202Y0149456D01*
X0034391Y0149698D01*
X0034585Y0149934D01*
X0034785Y0150165D01*
X0034991Y0150392D01*
X0035203Y0150613D01*
X0035419Y0150830D01*
X0035641Y0151040D01*
X0035869Y0151246D01*
X0036101Y0151445D01*
X0036337Y0151639D01*
X0036579Y0151827D01*
X0036825Y0152010D01*
X0037075Y0152186D01*
X0037330Y0152355D01*
X0037589Y0152519D01*
X0037852Y0152676D01*
X0038118Y0152827D01*
X0038388Y0152971D01*
X0038662Y0153109D01*
X0038938Y0153239D01*
X0039218Y0153363D01*
X0039501Y0153480D01*
X0039787Y0153590D01*
X0040075Y0153693D01*
X0040366Y0153789D01*
X0040659Y0153878D01*
X0040954Y0153960D01*
X0041251Y0154034D01*
X0041550Y0154101D01*
X0041850Y0154161D01*
X0042151Y0154213D01*
X0042454Y0154258D01*
X0042758Y0154296D01*
X0043063Y0154326D01*
X0043368Y0154348D01*
X0043674Y0154363D01*
X0043980Y0154371D01*
X0044286Y0154371D01*
X0044592Y0154364D01*
X0044898Y0154349D01*
X0045203Y0154327D01*
X0045508Y0154297D01*
X0045812Y0154259D01*
X0046114Y0154215D01*
X0046416Y0154163D01*
X0046716Y0154103D01*
X0047015Y0154036D01*
X0047312Y0153962D01*
X0047607Y0153881D01*
X0047900Y0153792D01*
X0048191Y0153697D01*
X0048480Y0153594D01*
X0048765Y0153484D01*
X0049048Y0153367D01*
X0040976Y0186791D02*
X0040672Y0186831D01*
X0040370Y0186879D01*
X0040069Y0186934D01*
X0039769Y0186996D01*
X0039471Y0187066D01*
X0039175Y0187143D01*
X0038881Y0187228D01*
X0038588Y0187319D01*
X0038299Y0187418D01*
X0038011Y0187524D01*
X0037727Y0187636D01*
X0037445Y0187756D01*
X0037166Y0187882D01*
X0036891Y0188016D01*
X0036618Y0188156D01*
X0036350Y0188302D01*
X0036085Y0188456D01*
X0035823Y0188615D01*
X0035566Y0188781D01*
X0035313Y0188953D01*
X0035064Y0189132D01*
X0034820Y0189316D01*
X0034580Y0189507D01*
X0034345Y0189703D01*
X0034115Y0189905D01*
X0033890Y0190112D01*
X0033670Y0190325D01*
X0033455Y0190543D01*
X0033246Y0190766D01*
X0033042Y0190995D01*
X0032844Y0191228D01*
X0032651Y0191466D01*
X0032465Y0191709D01*
X0032284Y0191956D01*
X0032110Y0192208D01*
X0031942Y0192464D01*
X0031780Y0192724D01*
X0031625Y0192987D01*
X0031476Y0193255D01*
X0031333Y0193526D01*
X0031198Y0193800D01*
X0031069Y0194078D01*
X0030947Y0194359D01*
X0030832Y0194643D01*
X0030724Y0194929D01*
X0030623Y0195218D01*
X0030529Y0195509D01*
X0030442Y0195803D01*
X0030362Y0196098D01*
X0030290Y0196396D01*
X0030225Y0196695D01*
X0030167Y0196996D01*
X0030117Y0197298D01*
X0030074Y0197601D01*
X0030038Y0197905D01*
X0030010Y0198210D01*
X0029990Y0198515D01*
X0029977Y0198821D01*
X0029971Y0199127D01*
X0029973Y0199433D01*
X0029983Y0199739D01*
X0030000Y0200045D01*
X0030024Y0200350D01*
X0030056Y0200654D01*
X0030095Y0200958D01*
X0030142Y0201261D01*
X0030196Y0201562D01*
X0030257Y0201862D01*
X0030326Y0202160D01*
X0030402Y0202457D01*
X0030486Y0202751D01*
X0030576Y0203044D01*
X0030674Y0203334D01*
X0030779Y0203621D01*
X0030890Y0203906D01*
X0031009Y0204189D01*
X0031135Y0204468D01*
X0031267Y0204744D01*
X0031406Y0205016D01*
X0031552Y0205286D01*
X0031704Y0205551D01*
X0031863Y0205813D01*
X0032028Y0206071D01*
X0032199Y0206324D01*
X0032377Y0206574D01*
X0032560Y0206819D01*
X0032750Y0207059D01*
X0032945Y0207295D01*
X0033146Y0207526D01*
X0033353Y0207752D01*
X0033565Y0207972D01*
X0033783Y0208188D01*
X0034005Y0208398D01*
X0034233Y0208602D01*
X0034466Y0208801D01*
X0034703Y0208995D01*
X0034945Y0209182D01*
X0035192Y0209363D01*
X0035443Y0209538D01*
X0035698Y0209707D01*
X0035958Y0209870D01*
X0036221Y0210026D01*
X0036488Y0210176D01*
X0036759Y0210319D01*
X0037033Y0210456D01*
X0037310Y0210586D01*
X0037590Y0210709D01*
X0037873Y0210825D01*
X0038159Y0210934D01*
X0038448Y0211036D01*
X0038739Y0211131D01*
X0039032Y0211219D01*
X0039328Y0211299D01*
X0039625Y0211373D01*
X0039924Y0211439D01*
X0040224Y0211497D01*
X0040526Y0211549D01*
X0040829Y0211593D01*
X0041133Y0211629D01*
X0041438Y0211658D01*
X0041743Y0211680D01*
X0042049Y0211694D01*
X0042355Y0211700D01*
X0042661Y0211700D01*
X0042967Y0211691D01*
X0043273Y0211675D01*
X0043578Y0211652D01*
X0043883Y0211621D01*
X0044186Y0211583D01*
X0044489Y0211537D01*
X0044791Y0211484D01*
X0045091Y0211423D01*
X0045389Y0211356D01*
X0045686Y0211281D01*
X0045981Y0211198D01*
X0046274Y0211109D01*
X0046564Y0211012D01*
X0046852Y0210908D01*
X0047137Y0210797D01*
X0047420Y0210680D01*
X0047700Y0210555D01*
X0047976Y0210424D01*
X0048249Y0210285D01*
X0048519Y0210141D01*
X0048785Y0209989D01*
X0049047Y0209831D01*
X0049306Y0209667D01*
X0049560Y0209497D01*
X0049810Y0209320D01*
X0050055Y0209137D01*
X0050297Y0208948D01*
X0050533Y0208754D01*
X0050764Y0208554D01*
X0050991Y0208348D01*
X0051212Y0208136D01*
X0051429Y0207920D01*
X0051639Y0207698D01*
X0051845Y0207470D01*
X0052044Y0207238D01*
X0052238Y0207002D01*
X0052426Y0206760D01*
X0052609Y0206514D01*
X0052785Y0206264D01*
X0052954Y0206009D01*
X0053118Y0205750D01*
X0053275Y0205487D01*
X0053426Y0205221D01*
X0053570Y0204951D01*
X0053708Y0204677D01*
X0053838Y0204401D01*
X0053962Y0204121D01*
X0054079Y0203838D01*
X0054189Y0203552D01*
X0054292Y0203264D01*
X0054388Y0202973D01*
X0054477Y0202680D01*
X0054559Y0202385D01*
X0054633Y0202088D01*
X0054700Y0201789D01*
X0054760Y0201489D01*
X0054812Y0201188D01*
X0054857Y0200885D01*
X0054895Y0200581D01*
X0054925Y0200276D01*
X0054947Y0199971D01*
X0054962Y0199665D01*
X0054970Y0199359D01*
X0054970Y0199053D01*
X0054963Y0198747D01*
X0054948Y0198441D01*
X0054926Y0198136D01*
X0054896Y0197831D01*
X0054858Y0197527D01*
X0054814Y0197225D01*
X0054762Y0196923D01*
X0054702Y0196623D01*
X0054635Y0196324D01*
X0054561Y0196027D01*
X0054480Y0195732D01*
X0054391Y0195439D01*
X0054296Y0195148D01*
X0054193Y0194859D01*
X0054083Y0194574D01*
X0053966Y0194291D01*
X0132135Y0300304D02*
X0131892Y0300117D01*
X0131654Y0299925D01*
X0131421Y0299726D01*
X0131193Y0299522D01*
X0130970Y0299313D01*
X0130752Y0299098D01*
X0130539Y0298878D01*
X0130332Y0298653D01*
X0130130Y0298422D01*
X0129934Y0298187D01*
X0129744Y0297947D01*
X0129560Y0297703D01*
X0129382Y0297454D01*
X0129210Y0297200D01*
X0129044Y0296943D01*
X0128884Y0296682D01*
X0128731Y0296417D01*
X0128585Y0296148D01*
X0128445Y0295875D01*
X0128312Y0295600D01*
X0128186Y0295321D01*
X0128066Y0295039D01*
X0127954Y0294754D01*
X0127849Y0294467D01*
X0127750Y0294177D01*
X0127659Y0293885D01*
X0127575Y0293590D01*
X0127498Y0293294D01*
X0127428Y0292996D01*
X0127366Y0292696D01*
X0127311Y0292395D01*
X0127264Y0292093D01*
X0127224Y0291789D01*
X0127191Y0291485D01*
X0127166Y0291180D01*
X0127148Y0290874D01*
X0127138Y0290568D01*
X0127135Y0290262D01*
X0127140Y0289956D01*
X0127152Y0289650D01*
X0127172Y0289344D01*
X0127199Y0289040D01*
X0127234Y0288735D01*
X0127276Y0288432D01*
X0127325Y0288130D01*
X0127382Y0287829D01*
X0127447Y0287530D01*
X0127518Y0287232D01*
X0127597Y0286937D01*
X0127683Y0286643D01*
X0127776Y0286351D01*
X0127877Y0286062D01*
X0127984Y0285775D01*
X0128099Y0285491D01*
X0128220Y0285210D01*
X0128348Y0284932D01*
X0128483Y0284657D01*
X0128625Y0284386D01*
X0128773Y0284118D01*
X0128928Y0283854D01*
X0129089Y0283594D01*
X0129256Y0283338D01*
X0129430Y0283085D01*
X0129610Y0282838D01*
X0129796Y0282594D01*
X0129987Y0282356D01*
X0130185Y0282122D01*
X0130388Y0281893D01*
X0130597Y0281669D01*
X0130811Y0281450D01*
X0131031Y0281237D01*
X0131255Y0281029D01*
X0131485Y0280826D01*
X0131719Y0280630D01*
X0131959Y0280439D01*
X0132202Y0280254D01*
X0132451Y0280075D01*
X0132703Y0279902D01*
X0132960Y0279735D01*
X0133221Y0279575D01*
X0133486Y0279421D01*
X0133754Y0279274D01*
X0134026Y0279133D01*
X0134301Y0278999D01*
X0134580Y0278872D01*
X0134861Y0278751D01*
X0135146Y0278638D01*
X0135433Y0278532D01*
X0135722Y0278432D01*
X0136014Y0278340D01*
X0136308Y0278255D01*
X0136604Y0278177D01*
X0136902Y0278106D01*
X0137202Y0278043D01*
X0137503Y0277987D01*
X0137805Y0277939D01*
X0138108Y0277898D01*
X0138412Y0277864D01*
X0138717Y0277838D01*
X0139023Y0277819D01*
X0139329Y0277808D01*
X0139635Y0277804D01*
X0139941Y0277808D01*
X0140247Y0277819D01*
X0140553Y0277838D01*
X0140858Y0277864D01*
X0141162Y0277898D01*
X0141465Y0277939D01*
X0141767Y0277987D01*
X0142068Y0278043D01*
X0142368Y0278106D01*
X0142666Y0278177D01*
X0142962Y0278255D01*
X0143256Y0278340D01*
X0143548Y0278432D01*
X0143837Y0278532D01*
X0144124Y0278638D01*
X0144409Y0278751D01*
X0144690Y0278872D01*
X0144969Y0278999D01*
X0145244Y0279133D01*
X0145516Y0279274D01*
X0145784Y0279421D01*
X0146049Y0279575D01*
X0146310Y0279735D01*
X0146567Y0279902D01*
X0146819Y0280075D01*
X0147068Y0280254D01*
X0147311Y0280439D01*
X0147551Y0280630D01*
X0147785Y0280826D01*
X0148015Y0281029D01*
X0148239Y0281237D01*
X0148459Y0281450D01*
X0148673Y0281669D01*
X0148882Y0281893D01*
X0149085Y0282122D01*
X0149283Y0282356D01*
X0149474Y0282594D01*
X0149660Y0282838D01*
X0149840Y0283085D01*
X0150014Y0283338D01*
X0150181Y0283594D01*
X0150342Y0283854D01*
X0150497Y0284118D01*
X0150645Y0284386D01*
X0150787Y0284657D01*
X0150922Y0284932D01*
X0151050Y0285210D01*
X0151171Y0285491D01*
X0151286Y0285775D01*
X0151393Y0286062D01*
X0151494Y0286351D01*
X0151587Y0286643D01*
X0151673Y0286937D01*
X0151752Y0287232D01*
X0151823Y0287530D01*
X0151888Y0287829D01*
X0151945Y0288130D01*
X0151994Y0288432D01*
X0152036Y0288735D01*
X0152071Y0289040D01*
X0152098Y0289344D01*
X0152118Y0289650D01*
X0152130Y0289956D01*
X0152135Y0290262D01*
X0152132Y0290568D01*
X0152122Y0290874D01*
X0152104Y0291180D01*
X0152079Y0291485D01*
X0152046Y0291789D01*
X0152006Y0292093D01*
X0151959Y0292395D01*
X0151904Y0292696D01*
X0151842Y0292996D01*
X0151772Y0293294D01*
X0151695Y0293590D01*
X0151611Y0293885D01*
X0151520Y0294177D01*
X0151421Y0294467D01*
X0151316Y0294754D01*
X0151204Y0295039D01*
X0151084Y0295321D01*
X0150958Y0295600D01*
X0150825Y0295875D01*
X0150685Y0296148D01*
X0150539Y0296417D01*
X0150386Y0296682D01*
X0150226Y0296943D01*
X0150060Y0297200D01*
X0149888Y0297454D01*
X0149710Y0297703D01*
X0149526Y0297947D01*
X0149336Y0298187D01*
X0149140Y0298422D01*
X0148938Y0298653D01*
X0148731Y0298878D01*
X0148518Y0299098D01*
X0148300Y0299313D01*
X0148077Y0299522D01*
X0147849Y0299726D01*
X0147616Y0299925D01*
X0147378Y0300117D01*
X0147135Y0300304D01*
D21*
X0156819Y0276738D02*
X0156051Y0275971D01*
X0156051Y0274436D01*
X0156819Y0273669D01*
X0159888Y0273669D01*
X0160655Y0274436D01*
X0160655Y0275971D01*
X0159888Y0276738D01*
X0160655Y0257053D02*
X0160655Y0253984D01*
X0156051Y0253984D01*
X0156051Y0257053D01*
X0158353Y0255519D02*
X0158353Y0253984D01*
X0071496Y0227105D02*
X0071215Y0226057D01*
X0069886Y0225290D01*
X0068838Y0225571D01*
X0067303Y0228229D01*
X0067584Y0229277D01*
X0068913Y0230044D01*
X0069961Y0229763D01*
X0052530Y0220585D02*
X0049872Y0219051D01*
X0052173Y0215064D01*
X0054832Y0216598D01*
X0052352Y0217824D02*
X0051023Y0217057D01*
X0060229Y0131335D02*
X0057571Y0129800D01*
X0057290Y0128752D01*
X0058058Y0127423D01*
X0059106Y0127142D01*
X0061764Y0128677D02*
X0062045Y0129725D01*
X0061277Y0131054D01*
X0060229Y0131335D01*
X0070736Y0114671D02*
X0066749Y0112369D01*
X0068284Y0109711D01*
X0069510Y0112191D02*
X0068743Y0113520D01*
X0070736Y0114671D02*
X0072271Y0112013D01*
X0141839Y0089814D02*
X0141839Y0088279D01*
X0142606Y0087512D01*
X0145675Y0087512D01*
X0146443Y0088279D01*
X0146443Y0089814D01*
X0145675Y0090581D01*
X0142606Y0090581D02*
X0141839Y0089814D01*
X0141839Y0070896D02*
X0141839Y0067827D01*
X0146443Y0067827D01*
X0146443Y0070896D01*
X0144141Y0069361D02*
X0144141Y0067827D01*
X0288396Y0218219D02*
X0288396Y0221288D01*
X0298673Y0219754D02*
X0301742Y0219754D01*
X0300207Y0218219D02*
X0300207Y0221288D01*
X0299129Y0232500D02*
X0299129Y0235569D01*
X0288852Y0234035D02*
X0285783Y0234035D01*
X0287318Y0232500D02*
X0287318Y0235569D01*
D22*
X0311072Y0193253D02*
X0358316Y0193253D01*
X0358316Y0146009D01*
X0311072Y0146009D01*
X0311072Y0193253D01*
X0311072Y0134591D02*
X0309103Y0133017D01*
X0311072Y0134198D02*
X0311072Y0129080D01*
X0313040Y0133017D02*
X0311072Y0134591D01*
D23*
X0131572Y0165343D02*
X0131572Y0185028D01*
X0115824Y0185028D01*
X0115824Y0165343D01*
X0131572Y0165343D01*
M02*
