G75*
%MOIN*%
%OFA0B0*%
%FSLAX25Y25*%
%IPPOS*%
%LPD*%
%AMOC8*
5,1,8,0,0,1.08239X$1,22.5*
%
%ADD10C,0.06800*%
%ADD11C,0.01120*%
%ADD12C,0.06706*%
%ADD13OC8,0.05600*%
%ADD14OC8,0.06800*%
%ADD15R,0.05524X0.05524*%
%ADD16C,0.09461*%
%ADD17C,0.06050*%
%ADD18C,0.04343*%
D10*
X0107685Y0102841D02*
X0113685Y0102841D01*
X0113685Y0120641D02*
X0107685Y0120641D01*
X0108185Y0135341D02*
X0114185Y0135341D01*
X0133785Y0135341D02*
X0139785Y0135341D01*
X0139285Y0120641D02*
X0133285Y0120641D01*
X0133285Y0102841D02*
X0139285Y0102841D01*
X0139785Y0153141D02*
X0133785Y0153141D01*
X0114185Y0153141D02*
X0108185Y0153141D01*
D11*
X0050311Y0144129D02*
X0050871Y0144689D01*
X0050390Y0142896D01*
X0048785Y0141969D01*
X0046992Y0142450D01*
X0046065Y0144055D01*
X0046546Y0145848D01*
X0048151Y0146775D01*
X0049944Y0146294D01*
X0050871Y0144689D01*
X0049969Y0144570D01*
X0049669Y0143450D01*
X0048666Y0142871D01*
X0047546Y0143171D01*
X0046967Y0144174D01*
X0047267Y0145294D01*
X0048270Y0145873D01*
X0049390Y0145573D01*
X0049969Y0144570D01*
X0049068Y0144451D01*
X0048948Y0144003D01*
X0048547Y0143772D01*
X0048099Y0143892D01*
X0047868Y0144293D01*
X0047988Y0144741D01*
X0048389Y0144972D01*
X0048837Y0144852D01*
X0049068Y0144451D01*
X0041651Y0139129D02*
X0042211Y0139689D01*
X0041730Y0137896D01*
X0040125Y0136969D01*
X0038332Y0137450D01*
X0037405Y0139055D01*
X0037886Y0140848D01*
X0039491Y0141775D01*
X0041284Y0141294D01*
X0042211Y0139689D01*
X0041309Y0139570D01*
X0041009Y0138450D01*
X0040006Y0137871D01*
X0038886Y0138171D01*
X0038307Y0139174D01*
X0038607Y0140294D01*
X0039610Y0140873D01*
X0040730Y0140573D01*
X0041309Y0139570D01*
X0040408Y0139451D01*
X0040288Y0139003D01*
X0039887Y0138772D01*
X0039439Y0138892D01*
X0039208Y0139293D01*
X0039328Y0139741D01*
X0039729Y0139972D01*
X0040177Y0139852D01*
X0040408Y0139451D01*
X0044728Y0193028D02*
X0045288Y0192468D01*
X0043495Y0192949D01*
X0042568Y0194554D01*
X0043049Y0196347D01*
X0044654Y0197274D01*
X0046447Y0196793D01*
X0047374Y0195188D01*
X0046893Y0193395D01*
X0045288Y0192468D01*
X0045169Y0193370D01*
X0044049Y0193670D01*
X0043470Y0194673D01*
X0043770Y0195793D01*
X0044773Y0196372D01*
X0045893Y0196072D01*
X0046472Y0195069D01*
X0046172Y0193949D01*
X0045169Y0193370D01*
X0045050Y0194271D01*
X0044602Y0194391D01*
X0044371Y0194792D01*
X0044491Y0195240D01*
X0044892Y0195471D01*
X0045340Y0195351D01*
X0045571Y0194950D01*
X0045451Y0194502D01*
X0045050Y0194271D01*
X0039728Y0201688D02*
X0040288Y0201128D01*
X0038495Y0201609D01*
X0037568Y0203214D01*
X0038049Y0205007D01*
X0039654Y0205934D01*
X0041447Y0205453D01*
X0042374Y0203848D01*
X0041893Y0202055D01*
X0040288Y0201128D01*
X0040169Y0202030D01*
X0039049Y0202330D01*
X0038470Y0203333D01*
X0038770Y0204453D01*
X0039773Y0205032D01*
X0040893Y0204732D01*
X0041472Y0203729D01*
X0041172Y0202609D01*
X0040169Y0202030D01*
X0040050Y0202931D01*
X0039602Y0203051D01*
X0039371Y0203452D01*
X0039491Y0203900D01*
X0039892Y0204131D01*
X0040340Y0204011D01*
X0040571Y0203610D01*
X0040451Y0203162D01*
X0040050Y0202931D01*
D12*
X0055046Y0223310D03*
X0063706Y0228310D03*
X0154950Y0260595D03*
X0154950Y0270595D03*
X0059588Y0122561D03*
X0064588Y0113901D03*
X0140737Y0084438D03*
X0140737Y0074438D03*
D13*
X0141603Y0055422D03*
X0141603Y0045422D03*
X0139635Y0285304D03*
X0139635Y0295304D03*
D14*
X0130603Y0238765D03*
X0120603Y0238765D03*
X0120603Y0228765D03*
X0130603Y0228765D03*
X0130603Y0218765D03*
X0120603Y0218765D03*
X0120603Y0208765D03*
X0130603Y0208765D03*
X0348769Y0253178D03*
X0358769Y0253178D03*
X0358769Y0263178D03*
X0348769Y0263178D03*
X0348769Y0273178D03*
X0358769Y0273178D03*
X0360737Y0095580D03*
X0350737Y0095580D03*
X0350737Y0085580D03*
X0360737Y0085580D03*
X0360737Y0075580D03*
X0350737Y0075580D03*
D15*
X0361556Y0230509D03*
X0371556Y0230509D03*
X0381556Y0230509D03*
D16*
X0263020Y0256603D03*
X0194123Y0257587D03*
X0194123Y0086524D03*
X0263020Y0085540D03*
D17*
X0289835Y0214749D03*
X0297709Y0214749D03*
X0297694Y0240174D03*
X0289820Y0240174D03*
D18*
X0119985Y0072741D03*
X0174485Y0142741D03*
X0158485Y0166241D03*
X0153985Y0171241D03*
X0148485Y0176241D03*
X0154485Y0181241D03*
X0142985Y0161741D03*
X0240485Y0166241D03*
X0249985Y0163741D03*
X0257985Y0167241D03*
X0263485Y0167241D03*
X0274485Y0161741D03*
X0275985Y0166241D03*
X0285985Y0192741D03*
X0301985Y0209241D03*
X0306985Y0204741D03*
X0314485Y0192741D03*
X0332985Y0212241D03*
X0324485Y0225241D03*
X0313985Y0224741D03*
X0311485Y0245241D03*
X0315985Y0255741D03*
X0339985Y0240741D03*
X0363485Y0218241D03*
X0367685Y0215941D03*
X0370985Y0200741D03*
X0395985Y0196741D03*
X0370985Y0175741D03*
X0371485Y0171241D03*
X0354985Y0179241D03*
X0355485Y0154741D03*
X0359485Y0151741D03*
X0346985Y0154241D03*
X0362985Y0140241D03*
X0367485Y0135241D03*
X0374485Y0142741D03*
X0382485Y0146241D03*
X0387485Y0138741D03*
X0396985Y0134241D03*
X0404985Y0131241D03*
X0401985Y0117741D03*
X0419485Y0105741D03*
X0412985Y0104741D03*
X0384985Y0123741D03*
X0368985Y0123241D03*
X0340485Y0132741D03*
X0335485Y0128741D03*
X0325985Y0131741D03*
X0282985Y0109241D03*
X0275485Y0120241D03*
X0285985Y0091741D03*
X0389985Y0166741D03*
X0419985Y0132741D03*
X0417985Y0064741D03*
X0379485Y0239741D03*
X0404985Y0244741D03*
X0394985Y0261741D03*
X0383485Y0261741D03*
X0288985Y0256241D03*
X0274985Y0279241D03*
M02*
