G75*
%MOIN*%
%OFA0B0*%
%FSLAX25Y25*%
%IPPOS*%
%LPD*%
%AMOC8*
5,1,8,0,0,1.08239X$1,22.5*
%
%ADD10R,0.02953X0.04724*%
%ADD11R,0.02362X0.06102*%
%ADD12R,0.03937X0.04331*%
%ADD13R,0.04331X0.03937*%
%ADD14R,0.07087X0.06299*%
%ADD15R,0.05906X0.05118*%
%ADD16R,0.05512X0.05512*%
%ADD17R,0.02252X0.06657*%
%ADD18R,0.01654X0.05906*%
%ADD19R,0.01575X0.05906*%
%ADD20R,0.03543X0.03937*%
%ADD21R,0.04331X0.04724*%
%ADD22R,0.03937X0.03543*%
%ADD23R,0.04724X0.04724*%
%ADD24R,0.02500X0.05000*%
%ADD25R,0.02600X0.05000*%
%ADD26R,0.03937X0.03937*%
%ADD27R,0.04724X0.01181*%
%ADD28R,0.01181X0.04724*%
%ADD29R,0.06102X0.01181*%
D10*
X0315335Y0096662D03*
X0319076Y0096662D03*
X0322816Y0096662D03*
X0322816Y0106898D03*
X0315335Y0106898D03*
D11*
X0310017Y0255851D03*
X0305017Y0255851D03*
X0300017Y0255851D03*
X0295017Y0255851D03*
X0295017Y0277111D03*
X0300017Y0277111D03*
X0305017Y0277111D03*
X0310017Y0277111D03*
D12*
X0321087Y0279217D03*
X0321087Y0272524D03*
X0320800Y0260556D03*
X0320800Y0253863D03*
X0314698Y0240454D03*
X0314698Y0233761D03*
X0287312Y0265052D03*
X0287312Y0271745D03*
X0370635Y0277517D03*
X0377328Y0277517D03*
X0385918Y0277465D03*
X0392611Y0277465D03*
X0212721Y0196253D03*
X0206028Y0196253D03*
X0204906Y0184064D03*
X0211599Y0184064D03*
X0212040Y0171375D03*
X0205347Y0171375D03*
X0206225Y0157686D03*
X0212918Y0157686D03*
X0212796Y0144497D03*
X0206103Y0144497D03*
X0163985Y0147087D03*
X0163985Y0140394D03*
X0094324Y0164603D03*
X0087631Y0164603D03*
X0087753Y0173800D03*
X0094446Y0173800D03*
X0094643Y0183143D03*
X0087950Y0183143D03*
X0088001Y0192391D03*
X0094694Y0192391D03*
X0078729Y0202627D03*
X0078729Y0209320D03*
X0068887Y0209753D03*
X0068887Y0203060D03*
X0041824Y0178013D03*
X0035131Y0178013D03*
X0072284Y0106284D03*
X0078977Y0106284D03*
X0290721Y0116666D03*
X0290721Y0123359D03*
X0303564Y0122044D03*
X0303564Y0115351D03*
X0303879Y0108174D03*
X0303879Y0101481D03*
X0303158Y0093902D03*
X0303158Y0087209D03*
X0291662Y0087080D03*
X0291662Y0093772D03*
X0291536Y0101796D03*
X0291536Y0108489D03*
X0313406Y0115536D03*
X0313406Y0122229D03*
X0335080Y0120493D03*
X0335080Y0113800D03*
X0334828Y0105284D03*
X0334828Y0098591D03*
X0334394Y0089875D03*
X0334394Y0083182D03*
X0373914Y0077450D03*
X0380607Y0077450D03*
X0387690Y0077450D03*
X0394383Y0077450D03*
D13*
X0111461Y0046233D03*
X0118154Y0046233D03*
X0118217Y0056198D03*
X0111524Y0056198D03*
X0154745Y0067926D03*
X0154745Y0074619D03*
X0157658Y0084355D03*
X0150965Y0084355D03*
X0153485Y0108394D03*
X0153485Y0115087D03*
X0152485Y0140394D03*
X0152485Y0147087D03*
X0074017Y0217095D03*
X0074017Y0223788D03*
X0115434Y0286513D03*
X0122127Y0286513D03*
X0122099Y0295855D03*
X0115406Y0295855D03*
X0163265Y0270304D03*
X0169957Y0270304D03*
X0167150Y0259930D03*
X0167150Y0253237D03*
X0326198Y0241891D03*
X0332891Y0241891D03*
X0332741Y0233276D03*
X0326048Y0233276D03*
X0399993Y0204190D03*
X0406686Y0204190D03*
X0414513Y0203690D03*
X0421206Y0203690D03*
X0404154Y0139702D03*
X0397461Y0139702D03*
X0382064Y0137698D03*
X0375371Y0137698D03*
D14*
X0406910Y0084091D03*
X0406910Y0073068D03*
X0330989Y0252103D03*
X0330989Y0263127D03*
X0402942Y0263178D03*
X0402942Y0274202D03*
D15*
X0416721Y0271800D03*
X0416721Y0264320D03*
X0424190Y0083658D03*
X0424190Y0076178D03*
D16*
X0420371Y0163887D03*
X0420371Y0178847D03*
X0174772Y0184028D03*
X0174772Y0169068D03*
D17*
X0377780Y0152477D03*
X0382780Y0152477D03*
X0387780Y0152477D03*
X0392780Y0152477D03*
X0397780Y0152477D03*
X0402780Y0152477D03*
X0407780Y0152477D03*
X0412505Y0152477D03*
X0412505Y0189643D03*
X0407780Y0189643D03*
X0402780Y0189643D03*
X0397780Y0189643D03*
X0392780Y0189643D03*
X0387780Y0189643D03*
X0382780Y0189643D03*
X0377780Y0189643D03*
D18*
X0410087Y0232272D03*
X0415087Y0232272D03*
X0419339Y0099103D03*
X0424339Y0099103D03*
D19*
X0414339Y0099103D03*
X0409339Y0099103D03*
X0409339Y0118394D03*
X0414339Y0118394D03*
X0419339Y0118394D03*
X0424339Y0118394D03*
X0405087Y0232272D03*
X0400087Y0232272D03*
X0400087Y0251564D03*
X0405087Y0251564D03*
X0410087Y0251564D03*
X0415087Y0251564D03*
D20*
X0323028Y0085780D03*
X0314761Y0085780D03*
D21*
X0411202Y0139938D03*
X0423406Y0139938D03*
D22*
X0330950Y0271213D03*
X0330950Y0279481D03*
D23*
X0196434Y0196946D03*
X0188166Y0196946D03*
X0187666Y0184509D03*
X0195934Y0184509D03*
X0195934Y0170572D03*
X0187666Y0170572D03*
X0187166Y0157135D03*
X0195434Y0157135D03*
X0195434Y0144698D03*
X0187166Y0144698D03*
X0042469Y0164241D03*
X0034202Y0164241D03*
D24*
X0374536Y0245469D03*
X0379536Y0245469D03*
X0384536Y0245469D03*
X0384536Y0269091D03*
X0379536Y0269091D03*
X0374536Y0269091D03*
X0389536Y0269091D03*
X0388316Y0115150D03*
X0393316Y0115150D03*
X0383316Y0115150D03*
X0383316Y0091528D03*
X0378316Y0091528D03*
X0388316Y0091528D03*
X0393316Y0091528D03*
D25*
X0378316Y0115150D03*
X0389536Y0245469D03*
D26*
X0164418Y0186536D03*
X0164418Y0165276D03*
X0151032Y0165276D03*
D27*
X0304182Y0165694D03*
X0304182Y0167662D03*
X0304182Y0169631D03*
X0304182Y0171599D03*
X0304182Y0173568D03*
X0304182Y0175536D03*
X0304182Y0177505D03*
X0304182Y0179473D03*
X0304182Y0181442D03*
X0304182Y0183410D03*
X0304182Y0185379D03*
X0304182Y0187347D03*
X0304182Y0189316D03*
X0304182Y0191284D03*
X0304182Y0193253D03*
X0304182Y0163725D03*
X0304182Y0161757D03*
X0304182Y0159788D03*
X0304182Y0157820D03*
X0304182Y0155851D03*
X0304182Y0153883D03*
X0304182Y0151914D03*
X0304182Y0149946D03*
X0304182Y0147977D03*
X0304182Y0146009D03*
X0365206Y0146009D03*
X0365206Y0147977D03*
X0365206Y0149946D03*
X0365206Y0151914D03*
X0365206Y0153883D03*
X0365206Y0155851D03*
X0365206Y0157820D03*
X0365206Y0159788D03*
X0365206Y0161757D03*
X0365206Y0163725D03*
X0365206Y0165694D03*
X0365206Y0167662D03*
X0365206Y0169631D03*
X0365206Y0171599D03*
X0365206Y0173568D03*
X0365206Y0175536D03*
X0365206Y0177505D03*
X0365206Y0179473D03*
X0365206Y0181442D03*
X0365206Y0183410D03*
X0365206Y0185379D03*
X0365206Y0187347D03*
X0365206Y0189316D03*
X0365206Y0191284D03*
X0365206Y0193253D03*
D28*
X0358316Y0200143D03*
X0356347Y0200143D03*
X0354379Y0200143D03*
X0352410Y0200143D03*
X0350442Y0200143D03*
X0348473Y0200143D03*
X0346505Y0200143D03*
X0344536Y0200143D03*
X0342568Y0200143D03*
X0340599Y0200143D03*
X0338631Y0200143D03*
X0336662Y0200143D03*
X0334694Y0200143D03*
X0332725Y0200143D03*
X0330757Y0200143D03*
X0328788Y0200143D03*
X0326820Y0200143D03*
X0324851Y0200143D03*
X0322883Y0200143D03*
X0320914Y0200143D03*
X0318946Y0200143D03*
X0316977Y0200143D03*
X0315009Y0200143D03*
X0313040Y0200143D03*
X0311072Y0200143D03*
X0311072Y0139119D03*
X0313040Y0139119D03*
X0315009Y0139119D03*
X0316977Y0139119D03*
X0318946Y0139119D03*
X0320914Y0139119D03*
X0322883Y0139119D03*
X0324851Y0139119D03*
X0326820Y0139119D03*
X0328788Y0139119D03*
X0330757Y0139119D03*
X0332725Y0139119D03*
X0334694Y0139119D03*
X0336662Y0139119D03*
X0338631Y0139119D03*
X0340599Y0139119D03*
X0342568Y0139119D03*
X0344536Y0139119D03*
X0346505Y0139119D03*
X0348473Y0139119D03*
X0350442Y0139119D03*
X0352410Y0139119D03*
X0354379Y0139119D03*
X0356347Y0139119D03*
X0358316Y0139119D03*
D29*
X0134721Y0166229D03*
X0134721Y0168788D03*
X0134721Y0171347D03*
X0134721Y0173906D03*
X0134721Y0176465D03*
X0134721Y0179024D03*
X0134721Y0181583D03*
X0134721Y0184143D03*
X0112674Y0184143D03*
X0112674Y0181583D03*
X0112674Y0179024D03*
X0112674Y0176465D03*
X0112674Y0173906D03*
X0112674Y0171347D03*
X0112674Y0168788D03*
X0112674Y0166229D03*
M02*
