%
M48
M72
T01C0.02362
T02C0.03150
T03C0.03200
T04C0.03500
T05C0.04000
T06C0.08661
%
T01
X119985Y72741
X174485Y142741
X158485Y166241
X153985Y171241
X148485Y176241
X154485Y181241
X142985Y161741
X240485Y166241
X249985Y163741
X257985Y167241
X263485Y167241
X274485Y161741
X275985Y166241
X285985Y192741
X301985Y209241
X306985Y204741
X314485Y192741
X332985Y212241
X324485Y225241
X313985Y224741
X311485Y245241
X315985Y255741
X339985Y240741
X363485Y218241
X367685Y215941
X370985Y200741
X395985Y196741
X370985Y175741
X371485Y171241
X354985Y179241
X355485Y154741
X359485Y151741
X346985Y154241
X362985Y140241
X367485Y135241
X374485Y142741
X382485Y146241
X387485Y138741
X396985Y134241
X404985Y131241
X401985Y117741
X419485Y105741
X412985Y104741
X384985Y123741
X368985Y123241
X340485Y132741
X335485Y128741
X325985Y131741
X282985Y109241
X275485Y120241
X285985Y91741
X389985Y166741
X419985Y132741
X417985Y64741
X379485Y239741
X404985Y244741
X394985Y261741
X383485Y261741
X288985Y256241
X274985Y279241
T02
X361556Y230509
X371556Y230509
X381556Y230509
X154950Y260595
X154950Y270595
X63706Y228310
X55046Y223310
X59588Y122561
X64588Y113901
X140737Y84438
X140737Y74438
T03
X141603Y55422
X141603Y45422
X39808Y139372
X48468Y144372
X44971Y194871
X39971Y203531
X139635Y285304
X139635Y295304
T04
X289820Y240174
X297694Y240174
X297709Y214749
X289835Y214749
T05
X348769Y253178
X358769Y253178
X358769Y263178
X348769Y263178
X348769Y273178
X358769Y273178
X136785Y153141
X111185Y153141
X111185Y135341
X110685Y120641
X110685Y102841
X136285Y102841
X136285Y120641
X136785Y135341
X130603Y208765
X120603Y208765
X120603Y218765
X130603Y218765
X130603Y228765
X120603Y228765
X120603Y238765
X130603Y238765
X350737Y95580
X360737Y95580
X360737Y85580
X350737Y85580
X350737Y75580
X360737Y75580
T06
X263020Y85540
X194123Y86524
X194123Y257587
X263020Y256603
M30
