%
M48
M72
T01C0.02362
T02C0.03150
T03C0.03200
T04C0.03500
T05C0.04000
T06C0.08661
%
T01
X106309Y252899
X140707Y264853
X145870Y313116
X138242Y332063
X138980Y348918
X143729Y356915
X168385Y391856
X187701Y380414
X193360Y376231
X201972Y376231
X217351Y375370
X217351Y368726
X218458Y361836
X219689Y355808
X208616Y357284
X198650Y360237
X189669Y359006
X189300Y352486
X187578Y343135
X200865Y336984
X214644Y332555
X231131Y317545
X231131Y311147
X231131Y304750
X231131Y296876
X230146Y259966
X186347Y292446
X244910Y360360
X257706Y351994
X270255Y392348
X281820Y395547
X288217Y395670
X293877Y407850
X281820Y417939
X275668Y435040
X230639Y452387
X198650Y415478
X204556Y410065
X217843Y403913
X176997Y456817
X122253Y416636
X75373Y357653
X86446Y318037
X99118Y299090
X316761Y383859
X316884Y390995
X321436Y377092
X415924Y407850
X422691Y407998
X421830Y386196
X442499Y395055
X455048Y392102
X458739Y383736
X425767Y429627
X415801Y429627
X420722Y281251
X430565Y280635
T02
X458650Y345616
X458650Y355616
X458650Y365616
X137627Y459474
X137627Y469474
X81918Y411844
X73257Y406844
X73257Y304742
X81918Y299742
X137627Y252899
X137627Y242899
T03
X159280Y216994
X159280Y226994
X61248Y325439
X52588Y330439
X52588Y382643
X61248Y387643
X159280Y484435
X159280Y494435
T04
X391328Y359356
X391328Y351482
X418729Y351324
X418729Y359198
T05
X412981Y389986
X402981Y389986
X392981Y389986
X392981Y399986
X402981Y399986
X412981Y399986
X413532Y321246
X403532Y321246
X393532Y321246
X393532Y311246
X403532Y311246
X413532Y311246
X266569Y286130
X266569Y268330
X240969Y268330
X221293Y268113
X221293Y285913
X240969Y286130
X195693Y285913
X195693Y268113
X176820Y425065
X166820Y425065
X156820Y425065
X156820Y435065
X166820Y435065
X176820Y435065
X195772Y426302
X195772Y444102
X221372Y444102
X240831Y444102
X240831Y426302
X221372Y426302
X266431Y426302
X266431Y444102
X146820Y435065
X146820Y425065
T06
X296091Y430990
X364989Y430006
X364989Y279887
X296091Y280872
M30
