G75*
%MOIN*%
%OFA0B0*%
%FSLAX25Y25*%
%IPPOS*%
%LPD*%
%AMOC8*
5,1,8,0,0,1.08239X$1,22.5*
%
%ADD10R,0.05524X0.03753*%
%ADD11R,0.03162X0.06902*%
%ADD12C,0.06800*%
%ADD13R,0.04737X0.05131*%
%ADD14R,0.05131X0.04737*%
%ADD15R,0.06706X0.05918*%
%ADD16R,0.07099X0.07887*%
%ADD17R,0.06312X0.06312*%
%ADD18R,0.03052X0.07457*%
%ADD19R,0.02454X0.06706*%
%ADD20R,0.02375X0.06706*%
%ADD21R,0.04737X0.04343*%
%ADD22R,0.04343X0.04737*%
%ADD23R,0.05524X0.05524*%
%ADD24C,0.01200*%
%ADD25C,0.06706*%
%ADD26OC8,0.06000*%
%ADD27OC8,0.06800*%
%ADD28R,0.03300X0.05800*%
%ADD29R,0.03400X0.05800*%
%ADD30R,0.05950X0.05950*%
%ADD31R,0.04737X0.04737*%
%ADD32C,0.09461*%
%ADD33R,0.05524X0.01981*%
%ADD34R,0.01981X0.05524*%
%ADD35C,0.06300*%
%ADD36R,0.06902X0.01981*%
%ADD37R,0.04762X0.04762*%
D10*
X0265717Y0403982D03*
X0265717Y0411462D03*
X0275954Y0411462D03*
X0275954Y0407722D03*
X0275954Y0403982D03*
D11*
X0431702Y0358372D03*
X0436702Y0358372D03*
X0441702Y0358372D03*
X0446702Y0358372D03*
X0446702Y0337112D03*
X0441702Y0337112D03*
X0436702Y0337112D03*
X0431702Y0337112D03*
D12*
X0269569Y0286130D02*
X0263569Y0286130D01*
X0263569Y0268330D02*
X0269569Y0268330D01*
X0243969Y0268330D02*
X0237969Y0268330D01*
X0224293Y0268113D02*
X0218293Y0268113D01*
X0218293Y0285913D02*
X0224293Y0285913D01*
X0237969Y0286130D02*
X0243969Y0286130D01*
X0198693Y0285913D02*
X0192693Y0285913D01*
X0192693Y0268113D02*
X0198693Y0268113D01*
X0198772Y0426302D02*
X0192772Y0426302D01*
X0192772Y0444102D02*
X0198772Y0444102D01*
X0218372Y0444102D02*
X0224372Y0444102D01*
X0237831Y0444102D02*
X0243831Y0444102D01*
X0263431Y0444102D02*
X0269431Y0444102D01*
X0269431Y0426302D02*
X0263431Y0426302D01*
X0243831Y0426302D02*
X0237831Y0426302D01*
X0224372Y0426302D02*
X0218372Y0426302D01*
D13*
X0225412Y0410734D03*
X0225412Y0404041D03*
X0236761Y0404238D03*
X0236761Y0410931D03*
X0255904Y0411216D03*
X0255904Y0404523D03*
X0249005Y0384395D03*
X0249005Y0377702D03*
X0254044Y0337230D03*
X0254044Y0330537D03*
X0244881Y0260094D03*
X0238188Y0260094D03*
X0198759Y0259641D03*
X0192066Y0259641D03*
X0179241Y0301029D03*
X0179241Y0307722D03*
X0149517Y0329317D03*
X0149517Y0336009D03*
X0138099Y0366009D03*
X0131406Y0366009D03*
X0131367Y0376639D03*
X0138060Y0376639D03*
X0137902Y0386757D03*
X0131209Y0386757D03*
X0131288Y0396836D03*
X0137981Y0396836D03*
X0137981Y0406757D03*
X0131288Y0406757D03*
X0094566Y0395163D03*
X0094797Y0388908D03*
X0094797Y0382215D03*
X0087538Y0382156D03*
X0087538Y0388849D03*
X0087873Y0395163D03*
X0086121Y0357555D03*
X0092814Y0357555D03*
X0092784Y0348204D03*
X0086091Y0348204D03*
X0086160Y0338854D03*
X0092853Y0338854D03*
X0092774Y0329750D03*
X0086081Y0329750D03*
X0057637Y0361251D03*
X0050944Y0361251D03*
X0123335Y0447427D03*
X0130028Y0447427D03*
X0187056Y0411226D03*
X0187056Y0404533D03*
X0193552Y0452230D03*
X0200245Y0452230D03*
X0237371Y0452289D03*
X0244064Y0452289D03*
X0414910Y0447506D03*
X0421603Y0447506D03*
X0428926Y0447328D03*
X0435619Y0447328D03*
X0431603Y0262141D03*
X0424910Y0262141D03*
X0417479Y0262141D03*
X0410786Y0262141D03*
X0138507Y0231610D03*
X0131814Y0231610D03*
D14*
X0161859Y0247309D03*
X0161593Y0253706D03*
X0168286Y0253706D03*
X0168552Y0247309D03*
X0139013Y0272565D03*
X0132320Y0272565D03*
X0091898Y0284257D03*
X0091898Y0290950D03*
X0190501Y0317151D03*
X0197194Y0317151D03*
X0204674Y0306836D03*
X0211367Y0306836D03*
X0211564Y0297191D03*
X0204871Y0297191D03*
X0263463Y0259996D03*
X0270156Y0259996D03*
X0292932Y0324346D03*
X0299625Y0324346D03*
X0271288Y0327801D03*
X0264595Y0327801D03*
X0251702Y0371324D03*
X0245009Y0371324D03*
X0272292Y0383982D03*
X0278985Y0383982D03*
X0289615Y0384021D03*
X0296308Y0384021D03*
X0269280Y0452407D03*
X0262587Y0452407D03*
X0224103Y0452171D03*
X0217410Y0452171D03*
X0180028Y0407033D03*
X0173335Y0407033D03*
X0162587Y0456954D03*
X0155894Y0456954D03*
X0155422Y0466305D03*
X0162115Y0466305D03*
X0135776Y0476964D03*
X0129083Y0476964D03*
X0412312Y0335537D03*
X0419005Y0335537D03*
X0437391Y0369120D03*
X0444083Y0369120D03*
X0443769Y0377978D03*
X0437076Y0377978D03*
D15*
X0444182Y0424208D03*
X0444182Y0431689D03*
X0455009Y0432033D03*
X0455009Y0424553D03*
X0453119Y0287063D03*
X0453119Y0279582D03*
X0442538Y0279484D03*
X0442538Y0286964D03*
D16*
X0421013Y0375773D03*
X0409989Y0375773D03*
D17*
X0303493Y0362840D03*
X0303493Y0347880D03*
X0108109Y0322486D03*
X0108109Y0307525D03*
D18*
X0260540Y0337309D03*
X0265540Y0337309D03*
X0270540Y0337309D03*
X0275540Y0337309D03*
X0280540Y0337309D03*
X0285540Y0337309D03*
X0290540Y0337309D03*
X0295265Y0337309D03*
X0295265Y0374474D03*
X0290540Y0374474D03*
X0285540Y0374474D03*
X0280540Y0374474D03*
X0275540Y0374474D03*
X0270540Y0374474D03*
X0265540Y0374474D03*
X0260540Y0374474D03*
D19*
X0437843Y0385852D03*
X0442843Y0385852D03*
X0442253Y0307112D03*
X0437253Y0307112D03*
D20*
X0432253Y0307112D03*
X0427253Y0307112D03*
X0427253Y0326403D03*
X0432253Y0326403D03*
X0437253Y0326403D03*
X0442253Y0326403D03*
X0432843Y0385852D03*
X0427843Y0385852D03*
X0427843Y0405143D03*
X0432843Y0405143D03*
X0437843Y0405143D03*
X0442843Y0405143D03*
D21*
X0303749Y0338864D03*
X0303749Y0330596D03*
X0246367Y0403637D03*
X0246367Y0411905D03*
D22*
X0450461Y0376246D03*
X0458729Y0376246D03*
D23*
X0123769Y0376639D03*
X0115501Y0376639D03*
X0115461Y0365655D03*
X0123729Y0365655D03*
X0123572Y0386757D03*
X0115304Y0386757D03*
X0115265Y0396836D03*
X0123532Y0396836D03*
X0123257Y0406836D03*
X0114989Y0406836D03*
X0058380Y0351039D03*
X0050112Y0351039D03*
D24*
X0053569Y0328979D02*
X0054169Y0328379D01*
X0052249Y0327864D01*
X0050528Y0328858D01*
X0050013Y0330778D01*
X0051007Y0332499D01*
X0052927Y0333014D01*
X0054648Y0332020D01*
X0055163Y0330100D01*
X0054169Y0328379D01*
X0053576Y0329152D01*
X0052376Y0328830D01*
X0051301Y0329451D01*
X0050979Y0330651D01*
X0051600Y0331726D01*
X0052800Y0332048D01*
X0053875Y0331427D01*
X0054197Y0330227D01*
X0053576Y0329152D01*
X0052983Y0329925D01*
X0052503Y0329796D01*
X0052074Y0330044D01*
X0051945Y0330524D01*
X0052193Y0330953D01*
X0052673Y0331082D01*
X0053102Y0330834D01*
X0053231Y0330354D01*
X0052983Y0329925D01*
X0062229Y0323979D02*
X0062829Y0323379D01*
X0060909Y0322864D01*
X0059188Y0323858D01*
X0058673Y0325778D01*
X0059667Y0327499D01*
X0061587Y0328014D01*
X0063308Y0327020D01*
X0063823Y0325100D01*
X0062829Y0323379D01*
X0062236Y0324152D01*
X0061036Y0323830D01*
X0059961Y0324451D01*
X0059639Y0325651D01*
X0060260Y0326726D01*
X0061460Y0327048D01*
X0062535Y0326427D01*
X0062857Y0325227D01*
X0062236Y0324152D01*
X0061643Y0324925D01*
X0061163Y0324796D01*
X0060734Y0325044D01*
X0060605Y0325524D01*
X0060853Y0325953D01*
X0061333Y0326082D01*
X0061762Y0325834D01*
X0061891Y0325354D01*
X0061643Y0324925D01*
X0054563Y0382382D02*
X0055163Y0382982D01*
X0054648Y0381062D01*
X0052927Y0380068D01*
X0051007Y0380583D01*
X0050013Y0382304D01*
X0050528Y0384224D01*
X0052249Y0385218D01*
X0054169Y0384703D01*
X0055163Y0382982D01*
X0054197Y0382855D01*
X0053875Y0381655D01*
X0052800Y0381034D01*
X0051600Y0381356D01*
X0050979Y0382431D01*
X0051301Y0383631D01*
X0052376Y0384252D01*
X0053576Y0383930D01*
X0054197Y0382855D01*
X0053231Y0382728D01*
X0053102Y0382248D01*
X0052673Y0382000D01*
X0052193Y0382129D01*
X0051945Y0382558D01*
X0052074Y0383038D01*
X0052503Y0383286D01*
X0052983Y0383157D01*
X0053231Y0382728D01*
X0063223Y0387382D02*
X0063823Y0387982D01*
X0063308Y0386062D01*
X0061587Y0385068D01*
X0059667Y0385583D01*
X0058673Y0387304D01*
X0059188Y0389224D01*
X0060909Y0390218D01*
X0062829Y0389703D01*
X0063823Y0387982D01*
X0062857Y0387855D01*
X0062535Y0386655D01*
X0061460Y0386034D01*
X0060260Y0386356D01*
X0059639Y0387431D01*
X0059961Y0388631D01*
X0061036Y0389252D01*
X0062236Y0388930D01*
X0062857Y0387855D01*
X0061891Y0387728D01*
X0061762Y0387248D01*
X0061333Y0387000D01*
X0060853Y0387129D01*
X0060605Y0387558D01*
X0060734Y0388038D01*
X0061163Y0388286D01*
X0061643Y0388157D01*
X0061891Y0387728D01*
D25*
X0073257Y0406844D03*
X0081918Y0411844D03*
X0137627Y0459474D03*
X0137627Y0469474D03*
X0073257Y0304742D03*
X0081918Y0299742D03*
X0137627Y0252899D03*
X0137627Y0242899D03*
D26*
X0159280Y0216994D03*
X0159280Y0226994D03*
X0159280Y0484435D03*
X0159280Y0494435D03*
D27*
X0156820Y0435065D03*
X0166820Y0435065D03*
X0176820Y0435065D03*
X0176820Y0425065D03*
X0166820Y0425065D03*
X0156820Y0425065D03*
X0146820Y0425065D03*
X0146820Y0435065D03*
X0392981Y0399986D03*
X0402981Y0399986D03*
X0412981Y0399986D03*
X0412981Y0389986D03*
X0402981Y0389986D03*
X0392981Y0389986D03*
X0393532Y0321246D03*
X0403532Y0321246D03*
X0413532Y0321246D03*
X0413532Y0311246D03*
X0403532Y0311246D03*
X0393532Y0311246D03*
D28*
X0420678Y0296561D03*
X0425678Y0296561D03*
X0430678Y0296561D03*
X0430678Y0272939D03*
X0425678Y0272939D03*
X0420678Y0272939D03*
X0415678Y0272939D03*
X0415835Y0415301D03*
X0420835Y0415301D03*
X0425835Y0415301D03*
X0425835Y0438923D03*
X0420835Y0438923D03*
X0415835Y0438923D03*
X0430835Y0438923D03*
D29*
X0430835Y0415301D03*
X0415678Y0296561D03*
D30*
X0458650Y0345616D03*
X0458650Y0355616D03*
X0458650Y0365616D03*
D31*
X0134398Y0324986D03*
X0121013Y0324986D03*
X0121013Y0303726D03*
D32*
X0296091Y0280872D03*
X0364989Y0279887D03*
X0364989Y0430006D03*
X0296091Y0430990D03*
D33*
X0229438Y0380616D03*
X0229438Y0378647D03*
X0229438Y0376679D03*
X0229438Y0374710D03*
X0229438Y0372742D03*
X0229438Y0370773D03*
X0229438Y0368805D03*
X0229438Y0366836D03*
X0229438Y0364868D03*
X0229438Y0362899D03*
X0229438Y0360931D03*
X0229438Y0358962D03*
X0229438Y0356994D03*
X0229438Y0355025D03*
X0229438Y0353057D03*
X0229438Y0351088D03*
X0229438Y0349120D03*
X0229438Y0347151D03*
X0229438Y0345183D03*
X0229438Y0343214D03*
X0229438Y0341246D03*
X0229438Y0339277D03*
X0229438Y0337309D03*
X0229438Y0335340D03*
X0229438Y0333372D03*
X0168414Y0333372D03*
X0168414Y0335340D03*
X0168414Y0337309D03*
X0168414Y0339277D03*
X0168414Y0341246D03*
X0168414Y0343214D03*
X0168414Y0345183D03*
X0168414Y0347151D03*
X0168414Y0349120D03*
X0168414Y0351088D03*
X0168414Y0353057D03*
X0168414Y0355025D03*
X0168414Y0356994D03*
X0168414Y0358962D03*
X0168414Y0360931D03*
X0168414Y0362899D03*
X0168414Y0364868D03*
X0168414Y0366836D03*
X0168414Y0368805D03*
X0168414Y0370773D03*
X0168414Y0372742D03*
X0168414Y0374710D03*
X0168414Y0376679D03*
X0168414Y0378647D03*
X0168414Y0380616D03*
D34*
X0175304Y0387506D03*
X0177272Y0387506D03*
X0179241Y0387506D03*
X0181209Y0387506D03*
X0183178Y0387506D03*
X0185146Y0387506D03*
X0187115Y0387506D03*
X0189083Y0387506D03*
X0191052Y0387506D03*
X0193020Y0387506D03*
X0194989Y0387506D03*
X0196957Y0387506D03*
X0198926Y0387506D03*
X0200894Y0387506D03*
X0202863Y0387506D03*
X0204831Y0387506D03*
X0206800Y0387506D03*
X0208769Y0387506D03*
X0210737Y0387506D03*
X0212706Y0387506D03*
X0214674Y0387506D03*
X0216643Y0387506D03*
X0218611Y0387506D03*
X0220580Y0387506D03*
X0222548Y0387506D03*
X0222548Y0326482D03*
X0220580Y0326482D03*
X0218611Y0326482D03*
X0216643Y0326482D03*
X0214674Y0326482D03*
X0212706Y0326482D03*
X0210737Y0326482D03*
X0208769Y0326482D03*
X0206800Y0326482D03*
X0204831Y0326482D03*
X0202863Y0326482D03*
X0200894Y0326482D03*
X0198926Y0326482D03*
X0196957Y0326482D03*
X0194989Y0326482D03*
X0193020Y0326482D03*
X0191052Y0326482D03*
X0189083Y0326482D03*
X0187115Y0326482D03*
X0185146Y0326482D03*
X0183178Y0326482D03*
X0181209Y0326482D03*
X0179241Y0326482D03*
X0177272Y0326482D03*
X0175304Y0326482D03*
D35*
X0391328Y0351482D03*
X0391328Y0359356D03*
X0418729Y0359198D03*
X0418729Y0351324D03*
D36*
X0130850Y0351447D03*
X0130850Y0348888D03*
X0130850Y0346329D03*
X0130850Y0343770D03*
X0130850Y0341211D03*
X0130850Y0338652D03*
X0130850Y0336093D03*
X0130850Y0354006D03*
X0108803Y0354006D03*
X0108803Y0351447D03*
X0108803Y0348888D03*
X0108803Y0346329D03*
X0108803Y0343770D03*
X0108803Y0341211D03*
X0108803Y0338652D03*
X0108803Y0336093D03*
D37*
X0086446Y0318037D03*
X0099118Y0299090D03*
X0138242Y0332063D03*
X0138980Y0348918D03*
X0143729Y0356915D03*
X0168385Y0391856D03*
X0187701Y0380414D03*
X0193360Y0376231D03*
X0201972Y0376231D03*
X0217351Y0375370D03*
X0217351Y0368726D03*
X0218458Y0361836D03*
X0219689Y0355808D03*
X0208616Y0357284D03*
X0198650Y0360237D03*
X0189669Y0359006D03*
X0189300Y0352486D03*
X0187578Y0343135D03*
X0200865Y0336984D03*
X0214644Y0332555D03*
X0231131Y0317545D03*
X0231131Y0311147D03*
X0231131Y0304750D03*
X0231131Y0296876D03*
X0230146Y0259966D03*
X0186347Y0292446D03*
X0145870Y0313116D03*
X0140707Y0264853D03*
X0106309Y0252899D03*
X0075373Y0357653D03*
X0122253Y0416636D03*
X0176997Y0456817D03*
X0198650Y0415478D03*
X0204556Y0410065D03*
X0217843Y0403913D03*
X0244910Y0360360D03*
X0257706Y0351994D03*
X0270255Y0392348D03*
X0281820Y0395547D03*
X0288217Y0395670D03*
X0293877Y0407850D03*
X0281820Y0417939D03*
X0275668Y0435040D03*
X0230639Y0452387D03*
X0316884Y0390995D03*
X0316761Y0383859D03*
X0321436Y0377092D03*
X0415924Y0407850D03*
X0422691Y0407998D03*
X0421830Y0386196D03*
X0442499Y0395055D03*
X0455048Y0392102D03*
X0458739Y0383736D03*
X0425767Y0429627D03*
X0415801Y0429627D03*
X0420722Y0281251D03*
X0430565Y0280635D03*
M02*
