G75*
%MOIN*%
%OFA0B0*%
%FSLAX25Y25*%
%IPPOS*%
%LPD*%
%AMOC8*
5,1,8,0,0,1.08239X$1,22.5*
%
%ADD10C,0.06000*%
%ADD11C,0.01040*%
%ADD12C,0.05906*%
%ADD13OC8,0.05200*%
%ADD14OC8,0.06000*%
%ADD15R,0.05150X0.05150*%
%ADD16C,0.05500*%
%ADD17C,0.01200*%
%ADD18R,0.03962X0.03962*%
D10*
X0192693Y0268113D02*
X0198693Y0268113D01*
X0198693Y0285913D02*
X0192693Y0285913D01*
X0218293Y0285913D02*
X0224293Y0285913D01*
X0237969Y0286130D02*
X0243969Y0286130D01*
X0243969Y0268330D02*
X0237969Y0268330D01*
X0224293Y0268113D02*
X0218293Y0268113D01*
X0263569Y0268330D02*
X0269569Y0268330D01*
X0269569Y0286130D02*
X0263569Y0286130D01*
X0263431Y0426302D02*
X0269431Y0426302D01*
X0269431Y0444102D02*
X0263431Y0444102D01*
X0243831Y0444102D02*
X0237831Y0444102D01*
X0224372Y0444102D02*
X0218372Y0444102D01*
X0218372Y0426302D02*
X0224372Y0426302D01*
X0237831Y0426302D02*
X0243831Y0426302D01*
X0198772Y0426302D02*
X0192772Y0426302D01*
X0192772Y0444102D02*
X0198772Y0444102D01*
D11*
X0062959Y0387417D02*
X0063479Y0387937D01*
X0063033Y0386273D01*
X0061542Y0385412D01*
X0059878Y0385858D01*
X0059017Y0387349D01*
X0059463Y0389013D01*
X0060954Y0389874D01*
X0062618Y0389428D01*
X0063479Y0387937D01*
X0062642Y0387827D01*
X0062363Y0386787D01*
X0061432Y0386249D01*
X0060392Y0386528D01*
X0059854Y0387459D01*
X0060133Y0388499D01*
X0061064Y0389037D01*
X0062104Y0388758D01*
X0062642Y0387827D01*
X0061805Y0387716D01*
X0061694Y0387301D01*
X0061321Y0387086D01*
X0060906Y0387197D01*
X0060691Y0387570D01*
X0060802Y0387985D01*
X0061175Y0388200D01*
X0061590Y0388089D01*
X0061805Y0387716D01*
X0054299Y0382417D02*
X0054819Y0382937D01*
X0054373Y0381273D01*
X0052882Y0380412D01*
X0051218Y0380858D01*
X0050357Y0382349D01*
X0050803Y0384013D01*
X0052294Y0384874D01*
X0053958Y0384428D01*
X0054819Y0382937D01*
X0053982Y0382827D01*
X0053703Y0381787D01*
X0052772Y0381249D01*
X0051732Y0381528D01*
X0051194Y0382459D01*
X0051473Y0383499D01*
X0052404Y0384037D01*
X0053444Y0383758D01*
X0053982Y0382827D01*
X0053145Y0382716D01*
X0053034Y0382301D01*
X0052661Y0382086D01*
X0052246Y0382197D01*
X0052031Y0382570D01*
X0052142Y0382985D01*
X0052515Y0383200D01*
X0052930Y0383089D01*
X0053145Y0382716D01*
X0053438Y0329174D02*
X0053958Y0328654D01*
X0052294Y0328208D01*
X0050803Y0329069D01*
X0050357Y0330733D01*
X0051218Y0332224D01*
X0052882Y0332670D01*
X0054373Y0331809D01*
X0054819Y0330145D01*
X0053958Y0328654D01*
X0053444Y0329324D01*
X0052404Y0329045D01*
X0051473Y0329583D01*
X0051194Y0330623D01*
X0051732Y0331554D01*
X0052772Y0331833D01*
X0053703Y0331295D01*
X0053982Y0330255D01*
X0053444Y0329324D01*
X0052930Y0329993D01*
X0052515Y0329882D01*
X0052142Y0330097D01*
X0052031Y0330512D01*
X0052246Y0330885D01*
X0052661Y0330996D01*
X0053034Y0330781D01*
X0053145Y0330366D01*
X0052930Y0329993D01*
X0062098Y0324174D02*
X0062618Y0323654D01*
X0060954Y0323208D01*
X0059463Y0324069D01*
X0059017Y0325733D01*
X0059878Y0327224D01*
X0061542Y0327670D01*
X0063033Y0326809D01*
X0063479Y0325145D01*
X0062618Y0323654D01*
X0062104Y0324324D01*
X0061064Y0324045D01*
X0060133Y0324583D01*
X0059854Y0325623D01*
X0060392Y0326554D01*
X0061432Y0326833D01*
X0062363Y0326295D01*
X0062642Y0325255D01*
X0062104Y0324324D01*
X0061590Y0324993D01*
X0061175Y0324882D01*
X0060802Y0325097D01*
X0060691Y0325512D01*
X0060906Y0325885D01*
X0061321Y0325996D01*
X0061694Y0325781D01*
X0061805Y0325366D01*
X0061590Y0324993D01*
D12*
X0073257Y0304742D03*
X0081918Y0299742D03*
X0137627Y0252899D03*
X0137627Y0242899D03*
X0073257Y0406844D03*
X0081918Y0411844D03*
X0137627Y0459474D03*
X0137627Y0469474D03*
D13*
X0159280Y0484435D03*
X0159280Y0494435D03*
X0159280Y0226994D03*
X0159280Y0216994D03*
D14*
X0156820Y0425065D03*
X0166820Y0425065D03*
X0176820Y0425065D03*
X0176820Y0435065D03*
X0166820Y0435065D03*
X0156820Y0435065D03*
X0146820Y0435065D03*
X0146820Y0425065D03*
X0392981Y0399986D03*
X0402981Y0399986D03*
X0412981Y0399986D03*
X0412981Y0389986D03*
X0402981Y0389986D03*
X0392981Y0389986D03*
X0393532Y0321246D03*
X0403532Y0321246D03*
X0413532Y0321246D03*
X0413532Y0311246D03*
X0403532Y0311246D03*
X0393532Y0311246D03*
D15*
X0458650Y0345616D03*
X0458650Y0355616D03*
X0458650Y0365616D03*
D16*
X0418729Y0359198D03*
X0418729Y0351324D03*
X0391328Y0351482D03*
X0391328Y0359356D03*
D17*
X0162707Y0205200D02*
X0148477Y0207943D01*
X0134573Y0212026D01*
X0121119Y0217412D01*
X0108239Y0224052D01*
X0096047Y0231887D01*
X0084656Y0240845D01*
X0074168Y0250845D01*
X0064678Y0261797D01*
X0056272Y0273602D01*
X0049027Y0286152D01*
X0043007Y0299334D01*
X0038267Y0313028D01*
X0034850Y0327111D01*
X0032788Y0341456D01*
X0032098Y0355931D01*
X0032788Y0370406D01*
X0034850Y0384750D01*
X0038267Y0398833D01*
X0043007Y0412528D01*
X0049027Y0425710D01*
X0056272Y0438260D01*
X0064678Y0450064D01*
X0074168Y0461016D01*
X0084656Y0471016D01*
X0096047Y0479975D01*
X0108239Y0487809D01*
X0121119Y0494450D01*
X0134573Y0499836D01*
X0148477Y0503918D01*
X0162707Y0506661D01*
X0177133Y0508039D01*
X0179179Y0508087D01*
X0179179Y0463164D01*
X0179970Y0461253D01*
X0181433Y0459790D01*
X0183344Y0458998D01*
X0369688Y0458998D01*
X0369206Y0458517D01*
X0180078Y0458517D01*
X0180078Y0459253D01*
X0179434Y0459898D01*
X0174560Y0459898D01*
X0173916Y0459253D01*
X0173916Y0454380D01*
X0174560Y0453735D01*
X0179434Y0453735D01*
X0180078Y0454380D01*
X0180078Y0455117D01*
X0365806Y0455117D01*
X0320240Y0409550D01*
X0296958Y0409550D01*
X0296958Y0410287D01*
X0296314Y0410931D01*
X0291440Y0410931D01*
X0290796Y0410287D01*
X0290796Y0405413D01*
X0291440Y0404769D01*
X0296314Y0404769D01*
X0296958Y0405413D01*
X0296958Y0406150D01*
X0321648Y0406150D01*
X0370614Y0455117D01*
X0371107Y0455609D01*
X0409563Y0455609D01*
X0453348Y0411823D01*
X0453348Y0395183D01*
X0452611Y0395183D01*
X0451967Y0394539D01*
X0451967Y0389665D01*
X0452611Y0389021D01*
X0457485Y0389021D01*
X0458129Y0389665D01*
X0458129Y0394539D01*
X0457485Y0395183D01*
X0456748Y0395183D01*
X0456748Y0413232D01*
X0411967Y0458013D01*
X0410981Y0458998D01*
X0467072Y0458998D01*
X0467072Y0252863D01*
X0183344Y0252863D01*
X0181433Y0252071D01*
X0179970Y0250609D01*
X0179179Y0248697D01*
X0179179Y0203774D01*
X0177133Y0203823D01*
X0162707Y0205200D01*
X0159480Y0205822D02*
X0179179Y0205822D01*
X0179179Y0204624D02*
X0168746Y0204624D01*
X0160813Y0213294D02*
X0162980Y0215461D01*
X0162980Y0218526D01*
X0160813Y0220694D01*
X0157748Y0220694D01*
X0155580Y0218526D01*
X0155580Y0215461D01*
X0157748Y0213294D01*
X0160813Y0213294D01*
X0161731Y0214212D02*
X0179179Y0214212D01*
X0179179Y0215410D02*
X0162930Y0215410D01*
X0162980Y0216609D02*
X0179179Y0216609D01*
X0179179Y0217807D02*
X0162980Y0217807D01*
X0162501Y0219006D02*
X0179179Y0219006D01*
X0179179Y0220204D02*
X0161302Y0220204D01*
X0160813Y0223294D02*
X0162980Y0225461D01*
X0162980Y0228526D01*
X0160813Y0230694D01*
X0157748Y0230694D01*
X0155748Y0228694D01*
X0127996Y0228694D01*
X0121610Y0235080D01*
X0121610Y0263869D01*
X0120614Y0264865D01*
X0120586Y0264865D01*
X0088160Y0297291D01*
X0088160Y0314956D01*
X0088882Y0314956D01*
X0089527Y0315600D01*
X0089527Y0320474D01*
X0088882Y0321118D01*
X0084009Y0321118D01*
X0083365Y0320474D01*
X0083365Y0315600D01*
X0084009Y0314956D01*
X0084760Y0314956D01*
X0084760Y0302631D01*
X0084213Y0303178D01*
X0082724Y0303795D01*
X0081111Y0303795D01*
X0079622Y0303178D01*
X0078482Y0302037D01*
X0077865Y0300548D01*
X0077865Y0298936D01*
X0078482Y0297446D01*
X0079622Y0296306D01*
X0081111Y0295689D01*
X0082724Y0295689D01*
X0084213Y0296306D01*
X0084760Y0296853D01*
X0084760Y0295883D01*
X0085756Y0294887D01*
X0118210Y0262433D01*
X0118210Y0233671D01*
X0125592Y0226290D01*
X0126588Y0225294D01*
X0155748Y0225294D01*
X0157748Y0223294D01*
X0160813Y0223294D01*
X0161319Y0223800D02*
X0179179Y0223800D01*
X0179179Y0224998D02*
X0162518Y0224998D01*
X0162980Y0226197D02*
X0179179Y0226197D01*
X0179179Y0227395D02*
X0162980Y0227395D01*
X0162913Y0228594D02*
X0179179Y0228594D01*
X0179179Y0229792D02*
X0161714Y0229792D01*
X0159280Y0226994D02*
X0127292Y0226994D01*
X0119910Y0234376D01*
X0119910Y0263165D01*
X0119882Y0263165D01*
X0086460Y0296587D01*
X0086460Y0318023D01*
X0086446Y0318037D01*
X0089527Y0318482D02*
X0091593Y0318482D01*
X0092792Y0317284D02*
X0089527Y0317284D01*
X0089527Y0316085D02*
X0093990Y0316085D01*
X0095189Y0314887D02*
X0088160Y0314887D01*
X0088160Y0313688D02*
X0096387Y0313688D01*
X0097586Y0312490D02*
X0088160Y0312490D01*
X0088160Y0311291D02*
X0098784Y0311291D01*
X0099983Y0310093D02*
X0088160Y0310093D01*
X0088160Y0308894D02*
X0101181Y0308894D01*
X0102380Y0307696D02*
X0088160Y0307696D01*
X0088160Y0306497D02*
X0103578Y0306497D01*
X0104777Y0305299D02*
X0088160Y0305299D01*
X0088160Y0304100D02*
X0105975Y0304100D01*
X0107174Y0302902D02*
X0088160Y0302902D01*
X0088160Y0301703D02*
X0096213Y0301703D01*
X0096037Y0301527D02*
X0096037Y0296653D01*
X0096681Y0296009D01*
X0101555Y0296009D01*
X0102199Y0296653D01*
X0102199Y0297882D01*
X0158262Y0297882D01*
X0159258Y0298878D01*
X0164593Y0304213D01*
X0164593Y0296842D01*
X0140003Y0272251D01*
X0139007Y0271255D01*
X0139007Y0267934D01*
X0138270Y0267934D01*
X0137626Y0267290D01*
X0137626Y0262416D01*
X0138270Y0261772D01*
X0143144Y0261772D01*
X0143788Y0262416D01*
X0143788Y0267290D01*
X0143144Y0267934D01*
X0142407Y0267934D01*
X0142407Y0269847D01*
X0167993Y0295433D01*
X0167993Y0328898D01*
X0184496Y0345401D01*
X0184496Y0340699D01*
X0185141Y0340054D01*
X0188254Y0340054D01*
X0193993Y0334316D01*
X0193993Y0290013D01*
X0191877Y0290013D01*
X0190370Y0289389D01*
X0189217Y0288236D01*
X0188593Y0286729D01*
X0188593Y0285098D01*
X0189217Y0283591D01*
X0190370Y0282438D01*
X0191877Y0281813D01*
X0199508Y0281813D01*
X0201015Y0282438D01*
X0202169Y0283591D01*
X0202793Y0285098D01*
X0202793Y0286729D01*
X0202169Y0288236D01*
X0201015Y0289389D01*
X0199508Y0290013D01*
X0197393Y0290013D01*
X0197393Y0335724D01*
X0196397Y0336720D01*
X0190659Y0342458D01*
X0190659Y0345572D01*
X0190014Y0346217D01*
X0185312Y0346217D01*
X0188500Y0349405D01*
X0191737Y0349405D01*
X0192381Y0350049D01*
X0192381Y0354923D01*
X0191737Y0355567D01*
X0186863Y0355567D01*
X0186219Y0354923D01*
X0186219Y0351932D01*
X0165589Y0331302D01*
X0165040Y0330753D01*
X0165040Y0338248D01*
X0184099Y0357306D01*
X0186588Y0357306D01*
X0186588Y0356570D01*
X0187232Y0355925D01*
X0192106Y0355925D01*
X0192750Y0356570D01*
X0192750Y0361443D01*
X0192458Y0361736D01*
X0195363Y0361736D01*
X0195569Y0361529D01*
X0195569Y0357800D01*
X0196214Y0357156D01*
X0201087Y0357156D01*
X0201731Y0357800D01*
X0201731Y0361518D01*
X0205535Y0357715D01*
X0205535Y0354847D01*
X0206179Y0354203D01*
X0211053Y0354203D01*
X0211697Y0354847D01*
X0211697Y0359721D01*
X0211053Y0360365D01*
X0207693Y0360365D01*
X0203672Y0364386D01*
X0202676Y0365382D01*
X0202553Y0365382D01*
X0201212Y0366723D01*
X0200216Y0367719D01*
X0179491Y0367719D01*
X0155131Y0343359D01*
X0154135Y0342363D01*
X0154135Y0309391D01*
X0152179Y0307434D01*
X0114340Y0307434D01*
X0071290Y0350483D01*
X0071290Y0362294D01*
X0121610Y0413555D01*
X0124689Y0413555D01*
X0125334Y0414199D01*
X0125334Y0419072D01*
X0124689Y0419717D01*
X0119816Y0419717D01*
X0119172Y0419072D01*
X0119172Y0415924D01*
X0068383Y0364186D01*
X0067890Y0363693D01*
X0067890Y0363684D01*
X0067884Y0363677D01*
X0067890Y0362981D01*
X0067890Y0349075D01*
X0068886Y0348079D01*
X0112238Y0304727D01*
X0110157Y0304727D01*
X0073013Y0341871D01*
X0072017Y0342867D01*
X0071894Y0342867D01*
X0061448Y0353313D01*
X0061448Y0366422D01*
X0074355Y0379329D01*
X0075350Y0380325D01*
X0075350Y0403324D01*
X0075553Y0403408D01*
X0076693Y0404548D01*
X0077310Y0406038D01*
X0077310Y0407650D01*
X0076693Y0409140D01*
X0075553Y0410280D01*
X0074063Y0410897D01*
X0072451Y0410897D01*
X0070962Y0410280D01*
X0069822Y0409140D01*
X0069205Y0407650D01*
X0069205Y0406038D01*
X0069822Y0404548D01*
X0070962Y0403408D01*
X0071950Y0402999D01*
X0071950Y0381733D01*
X0058048Y0367831D01*
X0058048Y0351905D01*
X0059044Y0350909D01*
X0070486Y0339467D01*
X0070609Y0339467D01*
X0107753Y0302323D01*
X0108748Y0301327D01*
X0155432Y0301327D01*
X0156428Y0302323D01*
X0160242Y0306137D01*
X0160242Y0339355D01*
X0182622Y0361736D01*
X0186880Y0361736D01*
X0186588Y0361443D01*
X0186588Y0360706D01*
X0182690Y0360706D01*
X0162636Y0340652D01*
X0161640Y0339657D01*
X0161640Y0306069D01*
X0156854Y0301282D01*
X0102199Y0301282D01*
X0102199Y0301527D01*
X0101555Y0302171D01*
X0096681Y0302171D01*
X0096037Y0301527D01*
X0096037Y0300505D02*
X0088160Y0300505D01*
X0088160Y0299306D02*
X0096037Y0299306D01*
X0096037Y0298108D02*
X0088160Y0298108D01*
X0088542Y0296909D02*
X0096037Y0296909D01*
X0099118Y0299090D02*
X0099610Y0299582D01*
X0157558Y0299582D01*
X0163340Y0305365D01*
X0163340Y0338952D01*
X0183394Y0359006D01*
X0189669Y0359006D01*
X0192750Y0359232D02*
X0195569Y0359232D01*
X0195569Y0360430D02*
X0192750Y0360430D01*
X0192565Y0361629D02*
X0195469Y0361629D01*
X0196067Y0363436D02*
X0198281Y0361221D01*
X0198650Y0361221D01*
X0198650Y0360237D01*
X0201731Y0360430D02*
X0202820Y0360430D01*
X0201731Y0359232D02*
X0204018Y0359232D01*
X0205217Y0358033D02*
X0201731Y0358033D01*
X0205535Y0356835D02*
X0192750Y0356835D01*
X0192750Y0358033D02*
X0195569Y0358033D01*
X0192381Y0354438D02*
X0205944Y0354438D01*
X0205535Y0355636D02*
X0182428Y0355636D01*
X0181230Y0354438D02*
X0186219Y0354438D01*
X0186219Y0353239D02*
X0180031Y0353239D01*
X0178833Y0352041D02*
X0186219Y0352041D01*
X0185129Y0350842D02*
X0177634Y0350842D01*
X0176436Y0349644D02*
X0183931Y0349644D01*
X0182732Y0348445D02*
X0175237Y0348445D01*
X0174039Y0347247D02*
X0181534Y0347247D01*
X0180335Y0346048D02*
X0172840Y0346048D01*
X0171642Y0344850D02*
X0179137Y0344850D01*
X0177938Y0343651D02*
X0170443Y0343651D01*
X0169245Y0342453D02*
X0176740Y0342453D01*
X0175541Y0341254D02*
X0168046Y0341254D01*
X0166848Y0340056D02*
X0174343Y0340056D01*
X0173144Y0338857D02*
X0165649Y0338857D01*
X0165040Y0337659D02*
X0171945Y0337659D01*
X0170747Y0336460D02*
X0165040Y0336460D01*
X0165040Y0335261D02*
X0169548Y0335261D01*
X0168350Y0334063D02*
X0165040Y0334063D01*
X0165040Y0332864D02*
X0167151Y0332864D01*
X0165953Y0331666D02*
X0165040Y0331666D01*
X0166293Y0329602D02*
X0166293Y0296137D01*
X0140707Y0270551D01*
X0140707Y0264853D01*
X0143788Y0264549D02*
X0172778Y0264549D01*
X0171580Y0263351D02*
X0143788Y0263351D01*
X0143524Y0262152D02*
X0170381Y0262152D01*
X0169183Y0260954D02*
X0121610Y0260954D01*
X0121610Y0262152D02*
X0137890Y0262152D01*
X0137626Y0263351D02*
X0121610Y0263351D01*
X0120930Y0264549D02*
X0137626Y0264549D01*
X0137626Y0265748D02*
X0119703Y0265748D01*
X0118505Y0266946D02*
X0137626Y0266946D01*
X0139007Y0268145D02*
X0117306Y0268145D01*
X0116108Y0269343D02*
X0139007Y0269343D01*
X0139007Y0270542D02*
X0114909Y0270542D01*
X0113711Y0271740D02*
X0139492Y0271740D01*
X0140690Y0272939D02*
X0112512Y0272939D01*
X0111314Y0274137D02*
X0141889Y0274137D01*
X0143087Y0275336D02*
X0110115Y0275336D01*
X0108917Y0276534D02*
X0144286Y0276534D01*
X0145484Y0277733D02*
X0107718Y0277733D01*
X0106520Y0278931D02*
X0146683Y0278931D01*
X0147882Y0280130D02*
X0105321Y0280130D01*
X0104123Y0281328D02*
X0149080Y0281328D01*
X0150279Y0282527D02*
X0102924Y0282527D01*
X0101726Y0283725D02*
X0151477Y0283725D01*
X0152676Y0284924D02*
X0100527Y0284924D01*
X0099329Y0286123D02*
X0153874Y0286123D01*
X0155073Y0287321D02*
X0098130Y0287321D01*
X0096932Y0288520D02*
X0156271Y0288520D01*
X0157470Y0289718D02*
X0095733Y0289718D01*
X0094534Y0290917D02*
X0158668Y0290917D01*
X0159867Y0292115D02*
X0093336Y0292115D01*
X0092137Y0293314D02*
X0161065Y0293314D01*
X0162264Y0294512D02*
X0090939Y0294512D01*
X0089740Y0295711D02*
X0163462Y0295711D01*
X0164593Y0296909D02*
X0102199Y0296909D01*
X0102023Y0301703D02*
X0108372Y0301703D01*
X0107753Y0302323D02*
X0107753Y0302323D01*
X0109453Y0303027D02*
X0071313Y0341167D01*
X0071190Y0341167D01*
X0059748Y0352609D01*
X0059748Y0367127D01*
X0073650Y0381029D01*
X0073650Y0406451D01*
X0073257Y0406844D01*
X0069503Y0408371D02*
X0053199Y0408371D01*
X0054398Y0409569D02*
X0070251Y0409569D01*
X0072139Y0410768D02*
X0055668Y0410768D01*
X0055848Y0410948D02*
X0055848Y0411020D01*
X0069467Y0424639D01*
X0079224Y0414882D01*
X0078482Y0414140D01*
X0077865Y0412650D01*
X0077865Y0411038D01*
X0078482Y0409548D01*
X0079622Y0408408D01*
X0081111Y0407791D01*
X0082724Y0407791D01*
X0084213Y0408408D01*
X0085353Y0409548D01*
X0085970Y0411038D01*
X0085970Y0412650D01*
X0085353Y0414140D01*
X0084213Y0415280D01*
X0083225Y0415689D01*
X0071871Y0427043D01*
X0112248Y0467420D01*
X0118753Y0467420D01*
X0118767Y0467406D01*
X0119455Y0467420D01*
X0120142Y0467420D01*
X0120156Y0467433D01*
X0133974Y0467703D01*
X0134191Y0467178D01*
X0135331Y0466038D01*
X0136821Y0465421D01*
X0138433Y0465421D01*
X0139922Y0466038D01*
X0141063Y0467178D01*
X0141680Y0468668D01*
X0141680Y0470280D01*
X0141063Y0471770D01*
X0139922Y0472910D01*
X0138433Y0473527D01*
X0136821Y0473527D01*
X0135331Y0472910D01*
X0134191Y0471770D01*
X0133914Y0471102D01*
X0119421Y0470820D01*
X0110840Y0470820D01*
X0109844Y0469824D01*
X0068763Y0428743D01*
X0067767Y0427747D01*
X0053373Y0413352D01*
X0042927Y0402906D01*
X0041931Y0401910D01*
X0041931Y0314872D01*
X0042927Y0313876D01*
X0053004Y0303799D01*
X0053999Y0302804D01*
X0053999Y0302804D01*
X0060878Y0295925D01*
X0060880Y0295925D01*
X0103228Y0253576D01*
X0103228Y0250462D01*
X0103873Y0249818D01*
X0108746Y0249818D01*
X0109390Y0250462D01*
X0109390Y0255336D01*
X0108746Y0255980D01*
X0105632Y0255980D01*
X0062288Y0299325D01*
X0062287Y0299325D01*
X0058808Y0302804D01*
X0069673Y0302804D01*
X0069822Y0302446D01*
X0070962Y0301306D01*
X0072451Y0300689D01*
X0074063Y0300689D01*
X0075553Y0301306D01*
X0076693Y0302446D01*
X0077310Y0303936D01*
X0077310Y0305548D01*
X0076693Y0307037D01*
X0075553Y0308178D01*
X0074063Y0308795D01*
X0072451Y0308795D01*
X0070962Y0308178D01*
X0069822Y0307037D01*
X0069476Y0306204D01*
X0055408Y0306204D01*
X0045331Y0316281D01*
X0045331Y0400502D01*
X0054781Y0409952D01*
X0054852Y0409952D01*
X0055848Y0410948D01*
X0056795Y0411966D02*
X0077865Y0411966D01*
X0077977Y0410768D02*
X0074375Y0410768D01*
X0076264Y0409569D02*
X0078473Y0409569D01*
X0079713Y0408371D02*
X0077012Y0408371D01*
X0077310Y0407172D02*
X0110581Y0407172D01*
X0111757Y0408371D02*
X0084122Y0408371D01*
X0085362Y0409569D02*
X0112934Y0409569D01*
X0114110Y0410768D02*
X0085858Y0410768D01*
X0085970Y0411966D02*
X0115287Y0411966D01*
X0116463Y0413165D02*
X0085757Y0413165D01*
X0085130Y0414363D02*
X0117640Y0414363D01*
X0118816Y0415562D02*
X0083533Y0415562D01*
X0082154Y0416760D02*
X0119172Y0416760D01*
X0119172Y0417959D02*
X0080956Y0417959D01*
X0079757Y0419157D02*
X0119256Y0419157D01*
X0122253Y0416636D02*
X0069590Y0362989D01*
X0069590Y0349779D01*
X0113636Y0305734D01*
X0152883Y0305734D01*
X0155835Y0308687D01*
X0155835Y0341659D01*
X0180196Y0366019D01*
X0199512Y0366019D01*
X0201849Y0363682D01*
X0201972Y0363682D01*
X0208370Y0357284D01*
X0208616Y0357284D01*
X0211697Y0356835D02*
X0216608Y0356835D01*
X0216608Y0358033D02*
X0211697Y0358033D01*
X0211697Y0359232D02*
X0215545Y0359232D01*
X0215377Y0359399D02*
X0216022Y0358755D01*
X0217118Y0358755D01*
X0216608Y0358244D01*
X0216608Y0353371D01*
X0217252Y0352727D01*
X0222126Y0352727D01*
X0222770Y0353371D01*
X0222770Y0356485D01*
X0235034Y0368748D01*
X0304054Y0368748D01*
X0316084Y0380778D01*
X0319197Y0380778D01*
X0319736Y0381316D01*
X0319736Y0380173D01*
X0318999Y0380173D01*
X0318355Y0379529D01*
X0318355Y0376415D01*
X0276194Y0334255D01*
X0217726Y0334255D01*
X0217726Y0334991D01*
X0217081Y0335636D01*
X0212208Y0335636D01*
X0211563Y0334991D01*
X0211563Y0330118D01*
X0212208Y0329474D01*
X0217081Y0329474D01*
X0217726Y0330118D01*
X0217726Y0330855D01*
X0277603Y0330855D01*
X0320759Y0374011D01*
X0323873Y0374011D01*
X0324517Y0374655D01*
X0324517Y0379529D01*
X0323873Y0380173D01*
X0323136Y0380173D01*
X0323136Y0399327D01*
X0322140Y0400323D01*
X0320798Y0401664D01*
X0319802Y0402660D01*
X0288675Y0402660D01*
X0287949Y0403387D01*
X0287949Y0413910D01*
X0288023Y0414006D01*
X0287949Y0414600D01*
X0287949Y0415198D01*
X0287863Y0415283D01*
X0287848Y0415403D01*
X0287376Y0415771D01*
X0286953Y0416194D01*
X0286832Y0416194D01*
X0284901Y0417696D01*
X0284901Y0420375D01*
X0284256Y0421020D01*
X0279383Y0421020D01*
X0278739Y0420375D01*
X0278739Y0415502D01*
X0279383Y0414857D01*
X0283012Y0414857D01*
X0284549Y0413662D01*
X0284549Y0401979D01*
X0286271Y0400256D01*
X0287267Y0399260D01*
X0318394Y0399260D01*
X0319736Y0397918D01*
X0319736Y0393660D01*
X0319320Y0394076D01*
X0314447Y0394076D01*
X0313803Y0393431D01*
X0313803Y0390318D01*
X0297479Y0373994D01*
X0228212Y0373994D01*
X0227216Y0372998D01*
X0219135Y0364917D01*
X0216022Y0364917D01*
X0215377Y0364273D01*
X0215377Y0359399D01*
X0215377Y0360430D02*
X0207628Y0360430D01*
X0206429Y0361629D02*
X0215377Y0361629D01*
X0215377Y0362827D02*
X0205231Y0362827D01*
X0204032Y0364026D02*
X0215377Y0364026D01*
X0214914Y0365645D02*
X0219788Y0365645D01*
X0220432Y0366289D01*
X0220432Y0369403D01*
X0231343Y0380313D01*
X0275265Y0380313D01*
X0276261Y0381309D01*
X0276261Y0381309D01*
X0287540Y0392589D01*
X0290654Y0392589D01*
X0291298Y0393233D01*
X0291298Y0398107D01*
X0290654Y0398751D01*
X0285781Y0398751D01*
X0285136Y0398107D01*
X0285136Y0394993D01*
X0284901Y0394757D01*
X0284901Y0397984D01*
X0284256Y0398628D01*
X0279383Y0398628D01*
X0278739Y0397984D01*
X0278739Y0394870D01*
X0269674Y0385805D01*
X0225382Y0385805D01*
X0224386Y0384809D01*
X0218028Y0378451D01*
X0214914Y0378451D01*
X0214270Y0377806D01*
X0214270Y0372933D01*
X0214914Y0372289D01*
X0218510Y0372289D01*
X0218028Y0371807D01*
X0214914Y0371807D01*
X0214270Y0371163D01*
X0214270Y0366289D01*
X0214914Y0365645D01*
X0214270Y0366423D02*
X0201512Y0366423D01*
X0200314Y0367621D02*
X0214270Y0367621D01*
X0214270Y0368820D02*
X0168791Y0368820D01*
X0169990Y0370018D02*
X0214270Y0370018D01*
X0214324Y0371217D02*
X0199362Y0371217D01*
X0199489Y0371344D02*
X0198493Y0370348D01*
X0170319Y0370348D01*
X0139942Y0339971D01*
X0139942Y0335144D01*
X0140679Y0335144D01*
X0141323Y0334499D01*
X0141323Y0329626D01*
X0140679Y0328981D01*
X0135805Y0328981D01*
X0135161Y0329626D01*
X0135161Y0334499D01*
X0135805Y0335144D01*
X0136542Y0335144D01*
X0136542Y0341379D01*
X0141000Y0345837D01*
X0136543Y0345837D01*
X0135899Y0346481D01*
X0135899Y0351355D01*
X0136543Y0351999D01*
X0141417Y0351999D01*
X0142061Y0351355D01*
X0142061Y0350741D01*
X0142213Y0350741D01*
X0145306Y0353834D01*
X0141292Y0353834D01*
X0140648Y0354478D01*
X0140648Y0359352D01*
X0141292Y0359996D01*
X0144410Y0359996D01*
X0166075Y0381615D01*
X0166573Y0382114D01*
X0166574Y0382114D01*
X0166575Y0382115D01*
X0167279Y0382114D01*
X0184619Y0382114D01*
X0184619Y0382851D01*
X0185264Y0383495D01*
X0190137Y0383495D01*
X0190782Y0382851D01*
X0190782Y0379170D01*
X0190923Y0379312D01*
X0195797Y0379312D01*
X0196441Y0378668D01*
X0196441Y0373794D01*
X0196395Y0373748D01*
X0197085Y0373748D01*
X0198891Y0375554D01*
X0198891Y0378668D01*
X0199535Y0379312D01*
X0204409Y0379312D01*
X0205053Y0378668D01*
X0205053Y0373794D01*
X0204409Y0373150D01*
X0201295Y0373150D01*
X0199489Y0371344D01*
X0200561Y0372415D02*
X0214788Y0372415D01*
X0214270Y0373614D02*
X0204873Y0373614D01*
X0205053Y0374812D02*
X0214270Y0374812D01*
X0214270Y0376011D02*
X0205053Y0376011D01*
X0205053Y0377209D02*
X0214270Y0377209D01*
X0214872Y0378408D02*
X0205053Y0378408D01*
X0201972Y0376231D02*
X0197789Y0372048D01*
X0169615Y0372048D01*
X0138242Y0340675D01*
X0138242Y0332063D01*
X0141323Y0331666D02*
X0154135Y0331666D01*
X0154135Y0332864D02*
X0141323Y0332864D01*
X0141323Y0334063D02*
X0154135Y0334063D01*
X0154135Y0335261D02*
X0139942Y0335261D01*
X0139942Y0336460D02*
X0154135Y0336460D01*
X0154135Y0337659D02*
X0139942Y0337659D01*
X0139942Y0338857D02*
X0154135Y0338857D01*
X0154135Y0340056D02*
X0140027Y0340056D01*
X0141225Y0341254D02*
X0154135Y0341254D01*
X0154225Y0342453D02*
X0142424Y0342453D01*
X0143622Y0343651D02*
X0155423Y0343651D01*
X0156622Y0344850D02*
X0144821Y0344850D01*
X0146019Y0346048D02*
X0157820Y0346048D01*
X0159019Y0347247D02*
X0147218Y0347247D01*
X0148416Y0348445D02*
X0160217Y0348445D01*
X0161416Y0349644D02*
X0149615Y0349644D01*
X0150813Y0350842D02*
X0162614Y0350842D01*
X0163813Y0352041D02*
X0152012Y0352041D01*
X0153210Y0353239D02*
X0165011Y0353239D01*
X0166210Y0354438D02*
X0154409Y0354438D01*
X0155607Y0355636D02*
X0167408Y0355636D01*
X0168607Y0356835D02*
X0156806Y0356835D01*
X0158004Y0358033D02*
X0169805Y0358033D01*
X0171004Y0359232D02*
X0159203Y0359232D01*
X0160402Y0360430D02*
X0172202Y0360430D01*
X0173401Y0361629D02*
X0161600Y0361629D01*
X0162799Y0362827D02*
X0174599Y0362827D01*
X0175798Y0364026D02*
X0163997Y0364026D01*
X0165196Y0365224D02*
X0176996Y0365224D01*
X0178195Y0366423D02*
X0166394Y0366423D01*
X0167593Y0367621D02*
X0179394Y0367621D01*
X0181918Y0363436D02*
X0158542Y0340060D01*
X0158542Y0306841D01*
X0154728Y0303027D01*
X0109453Y0303027D01*
X0109585Y0305299D02*
X0111667Y0305299D01*
X0110468Y0306497D02*
X0108387Y0306497D01*
X0109270Y0307696D02*
X0107188Y0307696D01*
X0108071Y0308894D02*
X0105990Y0308894D01*
X0106873Y0310093D02*
X0104791Y0310093D01*
X0105674Y0311291D02*
X0103593Y0311291D01*
X0104476Y0312490D02*
X0102394Y0312490D01*
X0103277Y0313688D02*
X0101196Y0313688D01*
X0102079Y0314887D02*
X0099997Y0314887D01*
X0100880Y0316085D02*
X0098799Y0316085D01*
X0099682Y0317284D02*
X0097600Y0317284D01*
X0098483Y0318482D02*
X0096402Y0318482D01*
X0097284Y0319681D02*
X0095203Y0319681D01*
X0096086Y0320879D02*
X0094005Y0320879D01*
X0094887Y0322078D02*
X0092806Y0322078D01*
X0093689Y0323276D02*
X0091608Y0323276D01*
X0092490Y0324475D02*
X0090409Y0324475D01*
X0091292Y0325673D02*
X0089210Y0325673D01*
X0090093Y0326872D02*
X0088012Y0326872D01*
X0088895Y0328070D02*
X0086813Y0328070D01*
X0087696Y0329269D02*
X0085615Y0329269D01*
X0086498Y0330467D02*
X0084416Y0330467D01*
X0085299Y0331666D02*
X0083218Y0331666D01*
X0084101Y0332864D02*
X0082019Y0332864D01*
X0082902Y0334063D02*
X0080821Y0334063D01*
X0081704Y0335261D02*
X0079622Y0335261D01*
X0080505Y0336460D02*
X0078424Y0336460D01*
X0079307Y0337659D02*
X0077225Y0337659D01*
X0078108Y0338857D02*
X0076027Y0338857D01*
X0076910Y0340056D02*
X0074828Y0340056D01*
X0075711Y0341254D02*
X0073630Y0341254D01*
X0074513Y0342453D02*
X0072431Y0342453D01*
X0073314Y0343651D02*
X0071110Y0343651D01*
X0072116Y0344850D02*
X0069911Y0344850D01*
X0070917Y0346048D02*
X0068713Y0346048D01*
X0069719Y0347247D02*
X0067514Y0347247D01*
X0068520Y0348445D02*
X0066316Y0348445D01*
X0065117Y0349644D02*
X0067890Y0349644D01*
X0067890Y0350842D02*
X0063919Y0350842D01*
X0062720Y0352041D02*
X0067890Y0352041D01*
X0067890Y0353239D02*
X0061522Y0353239D01*
X0061448Y0354438D02*
X0067890Y0354438D01*
X0067890Y0355636D02*
X0061448Y0355636D01*
X0061448Y0356835D02*
X0067890Y0356835D01*
X0067890Y0358033D02*
X0061448Y0358033D01*
X0061448Y0359232D02*
X0067890Y0359232D01*
X0067890Y0360430D02*
X0061448Y0360430D01*
X0061448Y0361629D02*
X0067890Y0361629D01*
X0067890Y0362827D02*
X0061448Y0362827D01*
X0061448Y0364026D02*
X0068223Y0364026D01*
X0069402Y0365224D02*
X0061448Y0365224D01*
X0061448Y0366423D02*
X0070579Y0366423D01*
X0071755Y0367621D02*
X0062647Y0367621D01*
X0063845Y0368820D02*
X0072932Y0368820D01*
X0074108Y0370018D02*
X0065044Y0370018D01*
X0066242Y0371217D02*
X0075285Y0371217D01*
X0076461Y0372415D02*
X0067441Y0372415D01*
X0068639Y0373614D02*
X0077638Y0373614D01*
X0078814Y0374812D02*
X0069838Y0374812D01*
X0071036Y0376011D02*
X0079991Y0376011D01*
X0081168Y0377209D02*
X0072235Y0377209D01*
X0073433Y0378408D02*
X0082344Y0378408D01*
X0083521Y0379606D02*
X0074632Y0379606D01*
X0075350Y0380805D02*
X0084697Y0380805D01*
X0085874Y0382003D02*
X0075350Y0382003D01*
X0075350Y0383202D02*
X0087050Y0383202D01*
X0088227Y0384400D02*
X0075350Y0384400D01*
X0075350Y0385599D02*
X0089403Y0385599D01*
X0090580Y0386797D02*
X0075350Y0386797D01*
X0075350Y0387996D02*
X0091756Y0387996D01*
X0092933Y0389194D02*
X0075350Y0389194D01*
X0075350Y0390393D02*
X0094109Y0390393D01*
X0095286Y0391592D02*
X0075350Y0391592D01*
X0075350Y0392790D02*
X0096462Y0392790D01*
X0097639Y0393989D02*
X0075350Y0393989D01*
X0075350Y0395187D02*
X0098815Y0395187D01*
X0099992Y0396386D02*
X0075350Y0396386D01*
X0075350Y0397584D02*
X0101168Y0397584D01*
X0102345Y0398783D02*
X0075350Y0398783D01*
X0075350Y0399981D02*
X0103521Y0399981D01*
X0104698Y0401180D02*
X0075350Y0401180D01*
X0075350Y0402378D02*
X0105874Y0402378D01*
X0107051Y0403577D02*
X0075721Y0403577D01*
X0076787Y0404775D02*
X0108228Y0404775D01*
X0109404Y0405974D02*
X0077283Y0405974D01*
X0071950Y0402378D02*
X0047207Y0402378D01*
X0048405Y0403577D02*
X0070793Y0403577D01*
X0069728Y0404775D02*
X0049604Y0404775D01*
X0050802Y0405974D02*
X0069231Y0405974D01*
X0069205Y0407172D02*
X0052001Y0407172D01*
X0049589Y0409569D02*
X0041983Y0409569D01*
X0041568Y0408371D02*
X0048391Y0408371D01*
X0047192Y0407172D02*
X0041153Y0407172D01*
X0040738Y0405974D02*
X0045994Y0405974D01*
X0044795Y0404775D02*
X0040323Y0404775D01*
X0039909Y0403577D02*
X0043597Y0403577D01*
X0042398Y0402378D02*
X0039494Y0402378D01*
X0039079Y0401180D02*
X0041931Y0401180D01*
X0041931Y0399981D02*
X0038664Y0399981D01*
X0038255Y0398783D02*
X0041931Y0398783D01*
X0041931Y0397584D02*
X0037964Y0397584D01*
X0037673Y0396386D02*
X0041931Y0396386D01*
X0041931Y0395187D02*
X0037382Y0395187D01*
X0037092Y0393989D02*
X0041931Y0393989D01*
X0041931Y0392790D02*
X0036801Y0392790D01*
X0036510Y0391592D02*
X0041931Y0391592D01*
X0041931Y0390393D02*
X0036219Y0390393D01*
X0035929Y0389194D02*
X0041931Y0389194D01*
X0041931Y0387996D02*
X0035638Y0387996D01*
X0035347Y0386797D02*
X0041931Y0386797D01*
X0041931Y0385599D02*
X0035056Y0385599D01*
X0034800Y0384400D02*
X0041931Y0384400D01*
X0041931Y0383202D02*
X0034628Y0383202D01*
X0034455Y0382003D02*
X0041931Y0382003D01*
X0041931Y0380805D02*
X0034283Y0380805D01*
X0034111Y0379606D02*
X0041931Y0379606D01*
X0041931Y0378408D02*
X0033938Y0378408D01*
X0033766Y0377209D02*
X0041931Y0377209D01*
X0041931Y0376011D02*
X0033594Y0376011D01*
X0033422Y0374812D02*
X0041931Y0374812D01*
X0041931Y0373614D02*
X0033249Y0373614D01*
X0033077Y0372415D02*
X0041931Y0372415D01*
X0041931Y0371217D02*
X0032905Y0371217D01*
X0032769Y0370018D02*
X0041931Y0370018D01*
X0041931Y0368820D02*
X0032712Y0368820D01*
X0032655Y0367621D02*
X0041931Y0367621D01*
X0041931Y0366423D02*
X0032598Y0366423D01*
X0032541Y0365224D02*
X0041931Y0365224D01*
X0041931Y0364026D02*
X0032484Y0364026D01*
X0032427Y0362827D02*
X0041931Y0362827D01*
X0041931Y0361629D02*
X0032370Y0361629D01*
X0032313Y0360430D02*
X0041931Y0360430D01*
X0041931Y0359232D02*
X0032256Y0359232D01*
X0032199Y0358033D02*
X0041931Y0358033D01*
X0041931Y0356835D02*
X0032141Y0356835D01*
X0032112Y0355636D02*
X0041931Y0355636D01*
X0041931Y0354438D02*
X0032170Y0354438D01*
X0032227Y0353239D02*
X0041931Y0353239D01*
X0041931Y0352041D02*
X0032284Y0352041D01*
X0032341Y0350842D02*
X0041931Y0350842D01*
X0041931Y0349644D02*
X0032398Y0349644D01*
X0032455Y0348445D02*
X0041931Y0348445D01*
X0041931Y0347247D02*
X0032512Y0347247D01*
X0032569Y0346048D02*
X0041931Y0346048D01*
X0041931Y0344850D02*
X0032626Y0344850D01*
X0032683Y0343651D02*
X0041931Y0343651D01*
X0041931Y0342453D02*
X0032740Y0342453D01*
X0032817Y0341254D02*
X0041931Y0341254D01*
X0041931Y0340056D02*
X0032989Y0340056D01*
X0033162Y0338857D02*
X0041931Y0338857D01*
X0041931Y0337659D02*
X0033334Y0337659D01*
X0033506Y0336460D02*
X0041931Y0336460D01*
X0041931Y0335261D02*
X0033679Y0335261D01*
X0033851Y0334063D02*
X0041931Y0334063D01*
X0041931Y0332864D02*
X0034023Y0332864D01*
X0034195Y0331666D02*
X0041931Y0331666D01*
X0041931Y0330467D02*
X0034368Y0330467D01*
X0034540Y0329269D02*
X0041931Y0329269D01*
X0041931Y0328070D02*
X0034712Y0328070D01*
X0034908Y0326872D02*
X0041931Y0326872D01*
X0041931Y0325673D02*
X0035199Y0325673D01*
X0035490Y0324475D02*
X0041931Y0324475D01*
X0041931Y0323276D02*
X0035781Y0323276D01*
X0036071Y0322078D02*
X0041931Y0322078D01*
X0041931Y0320879D02*
X0036362Y0320879D01*
X0036653Y0319681D02*
X0041931Y0319681D01*
X0041931Y0318482D02*
X0036944Y0318482D01*
X0037234Y0317284D02*
X0041931Y0317284D01*
X0041931Y0316085D02*
X0037525Y0316085D01*
X0037816Y0314887D02*
X0041931Y0314887D01*
X0042927Y0313876D02*
X0042927Y0313876D01*
X0043115Y0313688D02*
X0038107Y0313688D01*
X0038453Y0312490D02*
X0044313Y0312490D01*
X0045512Y0311291D02*
X0038868Y0311291D01*
X0039283Y0310093D02*
X0046710Y0310093D01*
X0047909Y0308894D02*
X0039698Y0308894D01*
X0040112Y0307696D02*
X0049107Y0307696D01*
X0050306Y0306497D02*
X0040527Y0306497D01*
X0040942Y0305299D02*
X0051504Y0305299D01*
X0052703Y0304100D02*
X0041357Y0304100D01*
X0041772Y0302902D02*
X0053901Y0302902D01*
X0053004Y0303799D02*
X0053004Y0303799D01*
X0054704Y0304504D02*
X0073019Y0304504D01*
X0073257Y0304742D01*
X0070480Y0307696D02*
X0053916Y0307696D01*
X0055114Y0306497D02*
X0069598Y0306497D01*
X0070564Y0301703D02*
X0059908Y0301703D01*
X0061107Y0300505D02*
X0077865Y0300505D01*
X0077865Y0299306D02*
X0062307Y0299306D01*
X0063505Y0298108D02*
X0078208Y0298108D01*
X0079019Y0296909D02*
X0064704Y0296909D01*
X0065902Y0295711D02*
X0081059Y0295711D01*
X0082776Y0295711D02*
X0084932Y0295711D01*
X0086131Y0294512D02*
X0067101Y0294512D01*
X0068299Y0293314D02*
X0087329Y0293314D01*
X0088528Y0292115D02*
X0069498Y0292115D01*
X0070696Y0290917D02*
X0089726Y0290917D01*
X0090925Y0289718D02*
X0071895Y0289718D01*
X0073093Y0288520D02*
X0092123Y0288520D01*
X0093322Y0287321D02*
X0074292Y0287321D01*
X0075490Y0286123D02*
X0094520Y0286123D01*
X0095719Y0284924D02*
X0076689Y0284924D01*
X0077887Y0283725D02*
X0096917Y0283725D01*
X0098116Y0282527D02*
X0079086Y0282527D01*
X0080284Y0281328D02*
X0099314Y0281328D01*
X0100513Y0280130D02*
X0081483Y0280130D01*
X0082681Y0278931D02*
X0101711Y0278931D01*
X0102910Y0277733D02*
X0083880Y0277733D01*
X0085078Y0276534D02*
X0104108Y0276534D01*
X0105307Y0275336D02*
X0086277Y0275336D01*
X0087475Y0274137D02*
X0106505Y0274137D01*
X0107704Y0272939D02*
X0088674Y0272939D01*
X0089872Y0271740D02*
X0108902Y0271740D01*
X0110101Y0270542D02*
X0091071Y0270542D01*
X0092269Y0269343D02*
X0111299Y0269343D01*
X0112498Y0268145D02*
X0093468Y0268145D01*
X0094666Y0266946D02*
X0113696Y0266946D01*
X0114895Y0265748D02*
X0095865Y0265748D01*
X0097063Y0264549D02*
X0116093Y0264549D01*
X0117292Y0263351D02*
X0098262Y0263351D01*
X0099460Y0262152D02*
X0118210Y0262152D01*
X0118210Y0260954D02*
X0100659Y0260954D01*
X0101857Y0259755D02*
X0118210Y0259755D01*
X0118210Y0258557D02*
X0103056Y0258557D01*
X0104254Y0257358D02*
X0118210Y0257358D01*
X0118210Y0256160D02*
X0105453Y0256160D01*
X0106309Y0252899D02*
X0061584Y0297625D01*
X0061582Y0297625D01*
X0054704Y0304504D01*
X0043631Y0315576D01*
X0043631Y0401206D01*
X0054077Y0411652D01*
X0054148Y0411652D01*
X0054148Y0411724D01*
X0069467Y0427043D01*
X0081918Y0414593D01*
X0081918Y0411844D01*
X0078078Y0413165D02*
X0057993Y0413165D01*
X0059192Y0414363D02*
X0078705Y0414363D01*
X0078544Y0415562D02*
X0060390Y0415562D01*
X0061589Y0416760D02*
X0077346Y0416760D01*
X0076147Y0417959D02*
X0062787Y0417959D01*
X0063986Y0419157D02*
X0074949Y0419157D01*
X0073750Y0420356D02*
X0065184Y0420356D01*
X0066383Y0421554D02*
X0072552Y0421554D01*
X0071353Y0422753D02*
X0067581Y0422753D01*
X0068780Y0423951D02*
X0070155Y0423951D01*
X0069467Y0427043D02*
X0111544Y0469120D01*
X0119438Y0469120D01*
X0137627Y0469474D01*
X0141680Y0469495D02*
X0149706Y0469495D01*
X0149706Y0470693D02*
X0141508Y0470693D01*
X0140940Y0471892D02*
X0149706Y0471892D01*
X0149706Y0473090D02*
X0139487Y0473090D01*
X0135767Y0473090D02*
X0087293Y0473090D01*
X0085769Y0471892D02*
X0134313Y0471892D01*
X0134272Y0467098D02*
X0111926Y0467098D01*
X0110728Y0465899D02*
X0135667Y0465899D01*
X0136761Y0463502D02*
X0108331Y0463502D01*
X0109529Y0464701D02*
X0149706Y0464701D01*
X0149706Y0465899D02*
X0139587Y0465899D01*
X0140982Y0467098D02*
X0149706Y0467098D01*
X0149706Y0468296D02*
X0141526Y0468296D01*
X0139922Y0462910D02*
X0138433Y0463527D01*
X0136821Y0463527D01*
X0135331Y0462910D01*
X0134191Y0461770D01*
X0133574Y0460280D01*
X0133574Y0458668D01*
X0134191Y0457178D01*
X0135331Y0456038D01*
X0136821Y0455421D01*
X0138433Y0455421D01*
X0139922Y0456038D01*
X0141063Y0457178D01*
X0141680Y0458668D01*
X0141680Y0460280D01*
X0141063Y0461770D01*
X0139922Y0462910D01*
X0140529Y0462304D02*
X0149706Y0462304D01*
X0149706Y0463502D02*
X0138492Y0463502D01*
X0141338Y0461105D02*
X0149706Y0461105D01*
X0149706Y0459981D02*
X0134943Y0445218D01*
X0134943Y0419627D01*
X0076050Y0360734D01*
X0072936Y0360734D01*
X0072292Y0360090D01*
X0072292Y0355216D01*
X0072936Y0354572D01*
X0077810Y0354572D01*
X0078454Y0355216D01*
X0078454Y0358330D01*
X0137347Y0417223D01*
X0138343Y0418219D01*
X0138343Y0443809D01*
X0152110Y0457577D01*
X0153106Y0458573D01*
X0153106Y0488101D01*
X0156744Y0491738D01*
X0157748Y0490735D01*
X0160813Y0490735D01*
X0162980Y0492902D01*
X0162980Y0495967D01*
X0160813Y0498135D01*
X0157748Y0498135D01*
X0155580Y0495967D01*
X0155580Y0495383D01*
X0155336Y0495139D01*
X0150702Y0490505D01*
X0149706Y0489509D01*
X0149706Y0459981D01*
X0149632Y0459907D02*
X0141680Y0459907D01*
X0141680Y0458708D02*
X0148433Y0458708D01*
X0147235Y0457510D02*
X0141200Y0457510D01*
X0140195Y0456311D02*
X0146036Y0456311D01*
X0144838Y0455113D02*
X0099941Y0455113D01*
X0101140Y0456311D02*
X0135058Y0456311D01*
X0134054Y0457510D02*
X0102338Y0457510D01*
X0103537Y0458708D02*
X0133574Y0458708D01*
X0133574Y0459907D02*
X0104735Y0459907D01*
X0105934Y0461105D02*
X0133916Y0461105D01*
X0134725Y0462304D02*
X0107132Y0462304D01*
X0104721Y0464701D02*
X0078033Y0464701D01*
X0079289Y0465899D02*
X0105919Y0465899D01*
X0107118Y0467098D02*
X0080546Y0467098D01*
X0081803Y0468296D02*
X0108316Y0468296D01*
X0109515Y0469495D02*
X0083060Y0469495D01*
X0084317Y0470693D02*
X0110714Y0470693D01*
X0103522Y0463502D02*
X0076776Y0463502D01*
X0075519Y0462304D02*
X0102324Y0462304D01*
X0101125Y0461105D02*
X0074262Y0461105D01*
X0073207Y0459907D02*
X0099927Y0459907D01*
X0098728Y0458708D02*
X0072168Y0458708D01*
X0071130Y0457510D02*
X0097530Y0457510D01*
X0096331Y0456311D02*
X0070091Y0456311D01*
X0069053Y0455113D02*
X0095133Y0455113D01*
X0093934Y0453914D02*
X0068014Y0453914D01*
X0066976Y0452716D02*
X0092736Y0452716D01*
X0091537Y0451517D02*
X0065937Y0451517D01*
X0064899Y0450319D02*
X0090339Y0450319D01*
X0089140Y0449120D02*
X0064006Y0449120D01*
X0063153Y0447922D02*
X0087942Y0447922D01*
X0086743Y0446723D02*
X0062299Y0446723D01*
X0061446Y0445525D02*
X0085545Y0445525D01*
X0084346Y0444326D02*
X0060592Y0444326D01*
X0059739Y0443127D02*
X0083148Y0443127D01*
X0081949Y0441929D02*
X0058885Y0441929D01*
X0058032Y0440730D02*
X0080751Y0440730D01*
X0079552Y0439532D02*
X0057178Y0439532D01*
X0056325Y0438333D02*
X0078354Y0438333D01*
X0077155Y0437135D02*
X0055623Y0437135D01*
X0054931Y0435936D02*
X0075957Y0435936D01*
X0074758Y0434738D02*
X0054239Y0434738D01*
X0053547Y0433539D02*
X0073560Y0433539D01*
X0072361Y0432341D02*
X0052855Y0432341D01*
X0052163Y0431142D02*
X0071163Y0431142D01*
X0069964Y0429944D02*
X0051471Y0429944D01*
X0050779Y0428745D02*
X0068766Y0428745D01*
X0067567Y0427547D02*
X0050087Y0427547D01*
X0049395Y0426348D02*
X0066369Y0426348D01*
X0065170Y0425150D02*
X0048771Y0425150D01*
X0048224Y0423951D02*
X0063972Y0423951D01*
X0062773Y0422753D02*
X0047676Y0422753D01*
X0047129Y0421554D02*
X0061575Y0421554D01*
X0060376Y0420356D02*
X0046582Y0420356D01*
X0046034Y0419157D02*
X0059178Y0419157D01*
X0057979Y0417959D02*
X0045487Y0417959D01*
X0044940Y0416760D02*
X0056780Y0416760D01*
X0055582Y0415562D02*
X0044392Y0415562D01*
X0043845Y0414363D02*
X0054383Y0414363D01*
X0053185Y0413165D02*
X0043298Y0413165D01*
X0042812Y0411966D02*
X0051986Y0411966D01*
X0050788Y0410768D02*
X0042397Y0410768D01*
X0046008Y0401180D02*
X0071950Y0401180D01*
X0071950Y0399981D02*
X0045331Y0399981D01*
X0045331Y0398783D02*
X0071950Y0398783D01*
X0071950Y0397584D02*
X0045331Y0397584D01*
X0045331Y0396386D02*
X0071950Y0396386D01*
X0071950Y0395187D02*
X0045331Y0395187D01*
X0045331Y0393989D02*
X0071950Y0393989D01*
X0071950Y0392790D02*
X0045331Y0392790D01*
X0045331Y0391592D02*
X0060687Y0391592D01*
X0060725Y0391614D02*
X0058071Y0390081D01*
X0057278Y0387121D01*
X0058810Y0384466D01*
X0061771Y0383673D01*
X0064425Y0385205D01*
X0065219Y0388166D01*
X0063686Y0390821D01*
X0060725Y0391614D01*
X0060809Y0391592D02*
X0071950Y0391592D01*
X0071950Y0390393D02*
X0063933Y0390393D01*
X0064625Y0389194D02*
X0071950Y0389194D01*
X0071950Y0387996D02*
X0065173Y0387996D01*
X0064852Y0386797D02*
X0071950Y0386797D01*
X0071950Y0385599D02*
X0064531Y0385599D01*
X0063031Y0384400D02*
X0071950Y0384400D01*
X0071950Y0383202D02*
X0056538Y0383202D01*
X0056559Y0383166D02*
X0055765Y0380205D01*
X0054288Y0379352D01*
X0054288Y0333729D01*
X0055765Y0332877D01*
X0056559Y0329916D01*
X0055026Y0327261D01*
X0052065Y0326468D01*
X0049411Y0328001D01*
X0048617Y0330961D01*
X0050150Y0333616D01*
X0050888Y0333814D01*
X0050888Y0379268D01*
X0050150Y0379466D01*
X0048617Y0382121D01*
X0049411Y0385081D01*
X0052065Y0386614D01*
X0055026Y0385821D01*
X0056559Y0383166D01*
X0056247Y0382003D02*
X0071950Y0382003D01*
X0071022Y0380805D02*
X0055926Y0380805D01*
X0054728Y0379606D02*
X0069823Y0379606D01*
X0068625Y0378408D02*
X0054288Y0378408D01*
X0054288Y0377209D02*
X0067426Y0377209D01*
X0066228Y0376011D02*
X0054288Y0376011D01*
X0054288Y0374812D02*
X0065029Y0374812D01*
X0063831Y0373614D02*
X0054288Y0373614D01*
X0054288Y0372415D02*
X0062632Y0372415D01*
X0061434Y0371217D02*
X0054288Y0371217D01*
X0054288Y0370018D02*
X0060235Y0370018D01*
X0059037Y0368820D02*
X0054288Y0368820D01*
X0054288Y0367621D02*
X0058048Y0367621D01*
X0058048Y0366423D02*
X0054288Y0366423D01*
X0054288Y0365224D02*
X0058048Y0365224D01*
X0058048Y0364026D02*
X0054288Y0364026D01*
X0054288Y0362827D02*
X0058048Y0362827D01*
X0058048Y0361629D02*
X0054288Y0361629D01*
X0054288Y0360430D02*
X0058048Y0360430D01*
X0058048Y0359232D02*
X0054288Y0359232D01*
X0054288Y0358033D02*
X0058048Y0358033D01*
X0058048Y0356835D02*
X0054288Y0356835D01*
X0054288Y0355636D02*
X0058048Y0355636D01*
X0058048Y0354438D02*
X0054288Y0354438D01*
X0054288Y0353239D02*
X0058048Y0353239D01*
X0058048Y0352041D02*
X0054288Y0352041D01*
X0054288Y0350842D02*
X0059110Y0350842D01*
X0060309Y0349644D02*
X0054288Y0349644D01*
X0054288Y0348445D02*
X0061507Y0348445D01*
X0062706Y0347247D02*
X0054288Y0347247D01*
X0054288Y0346048D02*
X0063904Y0346048D01*
X0065103Y0344850D02*
X0054288Y0344850D01*
X0054288Y0343651D02*
X0066301Y0343651D01*
X0067500Y0342453D02*
X0054288Y0342453D01*
X0054288Y0341254D02*
X0068698Y0341254D01*
X0069897Y0340056D02*
X0054288Y0340056D01*
X0054288Y0338857D02*
X0071219Y0338857D01*
X0072417Y0337659D02*
X0054288Y0337659D01*
X0054288Y0336460D02*
X0073616Y0336460D01*
X0074814Y0335261D02*
X0054288Y0335261D01*
X0054288Y0334063D02*
X0076013Y0334063D01*
X0077211Y0332864D02*
X0055768Y0332864D01*
X0056090Y0331666D02*
X0078410Y0331666D01*
X0079608Y0330467D02*
X0056411Y0330467D01*
X0056185Y0329269D02*
X0061248Y0329269D01*
X0061771Y0329409D02*
X0058810Y0328616D01*
X0057278Y0325961D01*
X0058071Y0323001D01*
X0060725Y0321468D01*
X0063686Y0322261D01*
X0065219Y0324916D01*
X0064425Y0327877D01*
X0061771Y0329409D01*
X0062014Y0329269D02*
X0080807Y0329269D01*
X0082005Y0328070D02*
X0064090Y0328070D01*
X0064695Y0326872D02*
X0083204Y0326872D01*
X0084402Y0325673D02*
X0065016Y0325673D01*
X0064964Y0324475D02*
X0085601Y0324475D01*
X0086799Y0323276D02*
X0064272Y0323276D01*
X0063001Y0322078D02*
X0087998Y0322078D01*
X0089121Y0320879D02*
X0089196Y0320879D01*
X0089527Y0319681D02*
X0090395Y0319681D01*
X0083770Y0320879D02*
X0045331Y0320879D01*
X0045331Y0319681D02*
X0083365Y0319681D01*
X0083365Y0318482D02*
X0045331Y0318482D01*
X0045331Y0317284D02*
X0083365Y0317284D01*
X0083365Y0316085D02*
X0045526Y0316085D01*
X0046724Y0314887D02*
X0084760Y0314887D01*
X0084760Y0313688D02*
X0047923Y0313688D01*
X0049121Y0312490D02*
X0084760Y0312490D01*
X0084760Y0311291D02*
X0050320Y0311291D01*
X0051518Y0310093D02*
X0084760Y0310093D01*
X0084760Y0308894D02*
X0052717Y0308894D01*
X0055100Y0301703D02*
X0042187Y0301703D01*
X0042601Y0300505D02*
X0056298Y0300505D01*
X0057497Y0299306D02*
X0043019Y0299306D01*
X0043567Y0298108D02*
X0058695Y0298108D01*
X0059894Y0296909D02*
X0044114Y0296909D01*
X0044661Y0295711D02*
X0061094Y0295711D01*
X0062292Y0294512D02*
X0045209Y0294512D01*
X0045756Y0293314D02*
X0063491Y0293314D01*
X0064689Y0292115D02*
X0046303Y0292115D01*
X0046851Y0290917D02*
X0065888Y0290917D01*
X0067086Y0289718D02*
X0047398Y0289718D01*
X0047945Y0288520D02*
X0068285Y0288520D01*
X0069483Y0287321D02*
X0048493Y0287321D01*
X0049044Y0286123D02*
X0070682Y0286123D01*
X0071880Y0284924D02*
X0049735Y0284924D01*
X0050427Y0283725D02*
X0073079Y0283725D01*
X0074277Y0282527D02*
X0051119Y0282527D01*
X0051811Y0281328D02*
X0075476Y0281328D01*
X0076674Y0280130D02*
X0052503Y0280130D01*
X0053195Y0278931D02*
X0077873Y0278931D01*
X0079071Y0277733D02*
X0053887Y0277733D01*
X0054579Y0276534D02*
X0080270Y0276534D01*
X0081468Y0275336D02*
X0055271Y0275336D01*
X0055963Y0274137D02*
X0082667Y0274137D01*
X0083865Y0272939D02*
X0056744Y0272939D01*
X0057598Y0271740D02*
X0085064Y0271740D01*
X0086263Y0270542D02*
X0058451Y0270542D01*
X0059305Y0269343D02*
X0087461Y0269343D01*
X0088660Y0268145D02*
X0060158Y0268145D01*
X0061012Y0266946D02*
X0089858Y0266946D01*
X0091057Y0265748D02*
X0061865Y0265748D01*
X0062719Y0264549D02*
X0092255Y0264549D01*
X0093454Y0263351D02*
X0063572Y0263351D01*
X0064426Y0262152D02*
X0094652Y0262152D01*
X0095851Y0260954D02*
X0065409Y0260954D01*
X0066448Y0259755D02*
X0097049Y0259755D01*
X0098248Y0258557D02*
X0067486Y0258557D01*
X0068525Y0257358D02*
X0099446Y0257358D01*
X0100645Y0256160D02*
X0069563Y0256160D01*
X0070602Y0254961D02*
X0101843Y0254961D01*
X0103042Y0253763D02*
X0071640Y0253763D01*
X0072679Y0252564D02*
X0103228Y0252564D01*
X0103228Y0251366D02*
X0073717Y0251366D01*
X0074879Y0250167D02*
X0103524Y0250167D01*
X0109095Y0250167D02*
X0118210Y0250167D01*
X0118210Y0248969D02*
X0076136Y0248969D01*
X0077393Y0247770D02*
X0118210Y0247770D01*
X0118210Y0246572D02*
X0078650Y0246572D01*
X0079907Y0245373D02*
X0118210Y0245373D01*
X0118210Y0244175D02*
X0081164Y0244175D01*
X0082421Y0242976D02*
X0118210Y0242976D01*
X0118210Y0241778D02*
X0083678Y0241778D01*
X0084994Y0240579D02*
X0118210Y0240579D01*
X0118210Y0239381D02*
X0086518Y0239381D01*
X0088042Y0238182D02*
X0118210Y0238182D01*
X0118210Y0236984D02*
X0089566Y0236984D01*
X0091091Y0235785D02*
X0118210Y0235785D01*
X0118210Y0234587D02*
X0092615Y0234587D01*
X0094139Y0233388D02*
X0118494Y0233388D01*
X0119692Y0232190D02*
X0095663Y0232190D01*
X0097441Y0230991D02*
X0120891Y0230991D01*
X0122089Y0229792D02*
X0099306Y0229792D01*
X0101171Y0228594D02*
X0123288Y0228594D01*
X0124486Y0227395D02*
X0103036Y0227395D01*
X0104901Y0226197D02*
X0125685Y0226197D01*
X0126897Y0229792D02*
X0156847Y0229792D01*
X0156043Y0224998D02*
X0106766Y0224998D01*
X0108728Y0223800D02*
X0157241Y0223800D01*
X0157258Y0220204D02*
X0115702Y0220204D01*
X0118027Y0219006D02*
X0156060Y0219006D01*
X0155580Y0217807D02*
X0120352Y0217807D01*
X0123124Y0216609D02*
X0155580Y0216609D01*
X0155631Y0215410D02*
X0126118Y0215410D01*
X0129112Y0214212D02*
X0156830Y0214212D01*
X0153262Y0207021D02*
X0179179Y0207021D01*
X0179179Y0208219D02*
X0147536Y0208219D01*
X0143454Y0209418D02*
X0179179Y0209418D01*
X0179179Y0210616D02*
X0139373Y0210616D01*
X0135291Y0211815D02*
X0179179Y0211815D01*
X0179179Y0213013D02*
X0132106Y0213013D01*
X0125699Y0230991D02*
X0179179Y0230991D01*
X0179179Y0232190D02*
X0124500Y0232190D01*
X0123302Y0233388D02*
X0179179Y0233388D01*
X0179179Y0234587D02*
X0122103Y0234587D01*
X0121610Y0235785D02*
X0179179Y0235785D01*
X0179179Y0236984D02*
X0121610Y0236984D01*
X0121610Y0238182D02*
X0179179Y0238182D01*
X0179179Y0239381D02*
X0139722Y0239381D01*
X0139922Y0239463D02*
X0141063Y0240604D01*
X0141680Y0242093D01*
X0141680Y0243705D01*
X0141063Y0245195D01*
X0139922Y0246335D01*
X0138433Y0246952D01*
X0136821Y0246952D01*
X0135331Y0246335D01*
X0134191Y0245195D01*
X0133574Y0243705D01*
X0133574Y0242093D01*
X0134191Y0240604D01*
X0135331Y0239463D01*
X0136821Y0238846D01*
X0138433Y0238846D01*
X0139922Y0239463D01*
X0141038Y0240579D02*
X0179179Y0240579D01*
X0179179Y0241778D02*
X0141549Y0241778D01*
X0141680Y0242976D02*
X0179179Y0242976D01*
X0179179Y0244175D02*
X0141485Y0244175D01*
X0140884Y0245373D02*
X0179179Y0245373D01*
X0179179Y0246572D02*
X0139351Y0246572D01*
X0138433Y0248846D02*
X0139922Y0249463D01*
X0141063Y0250604D01*
X0141309Y0251199D01*
X0164236Y0251199D01*
X0188047Y0275010D01*
X0188047Y0289365D01*
X0188784Y0289365D01*
X0189428Y0290010D01*
X0189428Y0294883D01*
X0188784Y0295528D01*
X0183910Y0295528D01*
X0183266Y0294883D01*
X0183266Y0290010D01*
X0183910Y0289365D01*
X0184647Y0289365D01*
X0184647Y0276418D01*
X0162828Y0254599D01*
X0141309Y0254599D01*
X0141063Y0255195D01*
X0139922Y0256335D01*
X0138433Y0256952D01*
X0136821Y0256952D01*
X0135331Y0256335D01*
X0134191Y0255195D01*
X0133574Y0253705D01*
X0133574Y0252093D01*
X0134191Y0250604D01*
X0135331Y0249463D01*
X0136821Y0248846D01*
X0138433Y0248846D01*
X0138728Y0248969D02*
X0179291Y0248969D01*
X0179179Y0247770D02*
X0121610Y0247770D01*
X0121610Y0246572D02*
X0135902Y0246572D01*
X0134369Y0245373D02*
X0121610Y0245373D01*
X0121610Y0244175D02*
X0133768Y0244175D01*
X0133574Y0242976D02*
X0121610Y0242976D01*
X0121610Y0241778D02*
X0133705Y0241778D01*
X0134215Y0240579D02*
X0121610Y0240579D01*
X0121610Y0239381D02*
X0135531Y0239381D01*
X0136526Y0248969D02*
X0121610Y0248969D01*
X0121610Y0250167D02*
X0134627Y0250167D01*
X0133875Y0251366D02*
X0121610Y0251366D01*
X0121610Y0252564D02*
X0133574Y0252564D01*
X0133598Y0253763D02*
X0121610Y0253763D01*
X0121610Y0254961D02*
X0134094Y0254961D01*
X0135156Y0256160D02*
X0121610Y0256160D01*
X0121610Y0257358D02*
X0165587Y0257358D01*
X0164389Y0256160D02*
X0140098Y0256160D01*
X0141159Y0254961D02*
X0163190Y0254961D01*
X0163532Y0252899D02*
X0137627Y0252899D01*
X0140626Y0250167D02*
X0179788Y0250167D01*
X0180728Y0251366D02*
X0164403Y0251366D01*
X0165601Y0252564D02*
X0182623Y0252564D01*
X0173991Y0260954D02*
X0200448Y0260954D01*
X0199250Y0262152D02*
X0175190Y0262152D01*
X0176388Y0263351D02*
X0198051Y0263351D01*
X0197389Y0264013D02*
X0191877Y0264013D01*
X0190370Y0264638D01*
X0189217Y0265791D01*
X0188593Y0267298D01*
X0188593Y0268929D01*
X0189217Y0270436D01*
X0190370Y0271589D01*
X0191877Y0272213D01*
X0199508Y0272213D01*
X0201015Y0271589D01*
X0202169Y0270436D01*
X0202793Y0268929D01*
X0202793Y0267298D01*
X0202169Y0265791D01*
X0201294Y0264916D01*
X0204544Y0261666D01*
X0227065Y0261666D01*
X0227065Y0262403D01*
X0227710Y0263047D01*
X0232583Y0263047D01*
X0233228Y0262403D01*
X0233228Y0257529D01*
X0232583Y0256885D01*
X0227710Y0256885D01*
X0227065Y0257529D01*
X0227065Y0258266D01*
X0203136Y0258266D01*
X0202140Y0259262D01*
X0197389Y0264013D01*
X0201661Y0264549D02*
X0216184Y0264549D01*
X0215970Y0264638D02*
X0217477Y0264013D01*
X0225108Y0264013D01*
X0226615Y0264638D01*
X0227769Y0265791D01*
X0228393Y0267298D01*
X0228393Y0268929D01*
X0227769Y0270436D01*
X0226615Y0271589D01*
X0225108Y0272213D01*
X0217477Y0272213D01*
X0215970Y0271589D01*
X0214817Y0270436D01*
X0214193Y0268929D01*
X0214193Y0267298D01*
X0214817Y0265791D01*
X0215970Y0264638D01*
X0214860Y0265748D02*
X0202126Y0265748D01*
X0202647Y0266946D02*
X0214339Y0266946D01*
X0214193Y0268145D02*
X0202793Y0268145D01*
X0202621Y0269343D02*
X0214365Y0269343D01*
X0214923Y0270542D02*
X0202063Y0270542D01*
X0200650Y0271740D02*
X0216335Y0271740D01*
X0226250Y0271740D02*
X0234874Y0271740D01*
X0234972Y0271839D02*
X0234460Y0271327D01*
X0234034Y0270741D01*
X0233706Y0270096D01*
X0233482Y0269407D01*
X0233375Y0268730D01*
X0240568Y0268730D01*
X0240568Y0267930D01*
X0233375Y0267930D01*
X0233482Y0267253D01*
X0233706Y0266564D01*
X0234034Y0265919D01*
X0234460Y0265333D01*
X0234972Y0264821D01*
X0235558Y0264396D01*
X0236203Y0264067D01*
X0236891Y0263843D01*
X0237606Y0263730D01*
X0240568Y0263730D01*
X0240568Y0267930D01*
X0241369Y0267930D01*
X0241369Y0268730D01*
X0248562Y0268730D01*
X0248455Y0269407D01*
X0248231Y0270096D01*
X0247903Y0270741D01*
X0247477Y0271327D01*
X0246965Y0271839D01*
X0246379Y0272264D01*
X0245734Y0272593D01*
X0245046Y0272817D01*
X0244331Y0272930D01*
X0241369Y0272930D01*
X0241369Y0268730D01*
X0240568Y0268730D01*
X0240568Y0272930D01*
X0237606Y0272930D01*
X0236891Y0272817D01*
X0236203Y0272593D01*
X0235558Y0272264D01*
X0234972Y0271839D01*
X0233933Y0270542D02*
X0227663Y0270542D01*
X0228221Y0269343D02*
X0233472Y0269343D01*
X0233581Y0266946D02*
X0228247Y0266946D01*
X0228393Y0268145D02*
X0240568Y0268145D01*
X0241369Y0268145D02*
X0259469Y0268145D01*
X0259469Y0267514D02*
X0260093Y0266007D01*
X0261246Y0264854D01*
X0262753Y0264230D01*
X0270384Y0264230D01*
X0271891Y0264854D01*
X0273044Y0266007D01*
X0273668Y0267514D01*
X0273668Y0269145D01*
X0273044Y0270652D01*
X0271891Y0271806D01*
X0270384Y0272430D01*
X0262753Y0272430D01*
X0261246Y0271806D01*
X0260093Y0270652D01*
X0259469Y0269145D01*
X0259469Y0267514D01*
X0259704Y0266946D02*
X0248356Y0266946D01*
X0248455Y0267253D02*
X0248231Y0266564D01*
X0247903Y0265919D01*
X0247477Y0265333D01*
X0246965Y0264821D01*
X0246379Y0264396D01*
X0245734Y0264067D01*
X0245046Y0263843D01*
X0244331Y0263730D01*
X0241369Y0263730D01*
X0241369Y0267930D01*
X0248562Y0267930D01*
X0248455Y0267253D01*
X0247778Y0265748D02*
X0260352Y0265748D01*
X0261982Y0264549D02*
X0246591Y0264549D01*
X0248465Y0269343D02*
X0259550Y0269343D01*
X0260047Y0270542D02*
X0248004Y0270542D01*
X0247063Y0271740D02*
X0261181Y0271740D01*
X0262753Y0282030D02*
X0270384Y0282030D01*
X0271891Y0282654D01*
X0273044Y0283807D01*
X0273668Y0285314D01*
X0273668Y0286945D01*
X0273044Y0288452D01*
X0271891Y0289606D01*
X0270384Y0290230D01*
X0262753Y0290230D01*
X0261246Y0289606D01*
X0260093Y0288452D01*
X0259469Y0286945D01*
X0259469Y0285314D01*
X0260093Y0283807D01*
X0261246Y0282654D01*
X0262753Y0282030D01*
X0261553Y0282527D02*
X0245984Y0282527D01*
X0246291Y0282654D02*
X0247444Y0283807D01*
X0248068Y0285314D01*
X0248068Y0286945D01*
X0247444Y0288452D01*
X0246291Y0289606D01*
X0244784Y0290230D01*
X0237153Y0290230D01*
X0235646Y0289606D01*
X0234493Y0288452D01*
X0234235Y0287830D01*
X0233230Y0287830D01*
X0225941Y0295119D01*
X0225941Y0314312D01*
X0224945Y0315308D01*
X0203946Y0336307D01*
X0203946Y0339421D01*
X0203302Y0340065D01*
X0198428Y0340065D01*
X0197784Y0339421D01*
X0197784Y0334547D01*
X0198428Y0333903D01*
X0201542Y0333903D01*
X0222541Y0312904D01*
X0222541Y0293711D01*
X0230826Y0285426D01*
X0231822Y0284430D01*
X0234235Y0284430D01*
X0234493Y0283807D01*
X0235646Y0282654D01*
X0237153Y0282030D01*
X0244784Y0282030D01*
X0246291Y0282654D01*
X0247362Y0283725D02*
X0260175Y0283725D01*
X0259630Y0284924D02*
X0247907Y0284924D01*
X0248068Y0286123D02*
X0259469Y0286123D01*
X0259624Y0287321D02*
X0247913Y0287321D01*
X0247377Y0288520D02*
X0260160Y0288520D01*
X0261517Y0289718D02*
X0246020Y0289718D01*
X0240969Y0286130D02*
X0232526Y0286130D01*
X0224241Y0294415D01*
X0224241Y0313608D01*
X0200865Y0336984D01*
X0203946Y0336460D02*
X0278400Y0336460D01*
X0279598Y0337659D02*
X0203946Y0337659D01*
X0203946Y0338857D02*
X0280797Y0338857D01*
X0281995Y0340056D02*
X0203311Y0340056D01*
X0198419Y0340056D02*
X0193062Y0340056D01*
X0191863Y0341254D02*
X0283194Y0341254D01*
X0284392Y0342453D02*
X0190665Y0342453D01*
X0190659Y0343651D02*
X0285591Y0343651D01*
X0286789Y0344850D02*
X0190659Y0344850D01*
X0190183Y0346048D02*
X0287988Y0346048D01*
X0289186Y0347247D02*
X0186342Y0347247D01*
X0187540Y0348445D02*
X0290385Y0348445D01*
X0291583Y0349644D02*
X0260787Y0349644D01*
X0260787Y0349557D02*
X0260142Y0348913D01*
X0255269Y0348913D01*
X0254624Y0349557D01*
X0254624Y0350294D01*
X0252572Y0350294D01*
X0245587Y0357279D01*
X0242473Y0357279D01*
X0241829Y0357923D01*
X0241829Y0362797D01*
X0242473Y0363441D01*
X0247347Y0363441D01*
X0247991Y0362797D01*
X0247991Y0359683D01*
X0253981Y0353694D01*
X0254624Y0353694D01*
X0254624Y0354430D01*
X0255269Y0355075D01*
X0260142Y0355075D01*
X0260787Y0354430D01*
X0260787Y0349557D01*
X0260787Y0350842D02*
X0292782Y0350842D01*
X0293980Y0352041D02*
X0260787Y0352041D01*
X0260787Y0353239D02*
X0295179Y0353239D01*
X0296377Y0354438D02*
X0260779Y0354438D01*
X0257706Y0351994D02*
X0253276Y0351994D01*
X0244910Y0360360D01*
X0241829Y0360430D02*
X0226715Y0360430D01*
X0225517Y0359232D02*
X0241829Y0359232D01*
X0241829Y0358033D02*
X0224318Y0358033D01*
X0223120Y0356835D02*
X0246031Y0356835D01*
X0247230Y0355636D02*
X0222770Y0355636D01*
X0222770Y0354438D02*
X0248428Y0354438D01*
X0249627Y0353239D02*
X0222638Y0353239D01*
X0219689Y0355808D02*
X0234330Y0370448D01*
X0303350Y0370448D01*
X0316761Y0383859D01*
X0319225Y0380805D02*
X0319736Y0380805D01*
X0318432Y0379606D02*
X0314912Y0379606D01*
X0313714Y0378408D02*
X0318355Y0378408D01*
X0318355Y0377209D02*
X0312515Y0377209D01*
X0311317Y0376011D02*
X0317950Y0376011D01*
X0316752Y0374812D02*
X0310118Y0374812D01*
X0308920Y0373614D02*
X0315553Y0373614D01*
X0314355Y0372415D02*
X0307721Y0372415D01*
X0306523Y0371217D02*
X0313156Y0371217D01*
X0311958Y0370018D02*
X0305324Y0370018D01*
X0304126Y0368820D02*
X0310759Y0368820D01*
X0309561Y0367621D02*
X0233907Y0367621D01*
X0232708Y0366423D02*
X0308362Y0366423D01*
X0307164Y0365224D02*
X0231510Y0365224D01*
X0230311Y0364026D02*
X0305965Y0364026D01*
X0304767Y0362827D02*
X0247961Y0362827D01*
X0247991Y0361629D02*
X0303568Y0361629D01*
X0302370Y0360430D02*
X0247991Y0360430D01*
X0248443Y0359232D02*
X0301171Y0359232D01*
X0299973Y0358033D02*
X0249641Y0358033D01*
X0250840Y0356835D02*
X0298774Y0356835D01*
X0297576Y0355636D02*
X0252038Y0355636D01*
X0253237Y0354438D02*
X0254632Y0354438D01*
X0252024Y0350842D02*
X0192381Y0350842D01*
X0192381Y0352041D02*
X0250825Y0352041D01*
X0254624Y0349644D02*
X0191976Y0349644D01*
X0192381Y0353239D02*
X0216739Y0353239D01*
X0216608Y0354438D02*
X0211287Y0354438D01*
X0211697Y0355636D02*
X0216608Y0355636D01*
X0218458Y0361836D02*
X0228916Y0372294D01*
X0298183Y0372294D01*
X0316884Y0390995D01*
X0313803Y0391592D02*
X0286543Y0391592D01*
X0285345Y0390393D02*
X0313803Y0390393D01*
X0312679Y0389194D02*
X0284146Y0389194D01*
X0282948Y0387996D02*
X0311481Y0387996D01*
X0310282Y0386797D02*
X0281749Y0386797D01*
X0280551Y0385599D02*
X0309084Y0385599D01*
X0307885Y0384400D02*
X0279352Y0384400D01*
X0278154Y0383202D02*
X0306687Y0383202D01*
X0305488Y0382003D02*
X0276955Y0382003D01*
X0275757Y0380805D02*
X0304290Y0380805D01*
X0303091Y0379606D02*
X0230636Y0379606D01*
X0229437Y0378408D02*
X0301893Y0378408D01*
X0300694Y0377209D02*
X0228239Y0377209D01*
X0227040Y0376011D02*
X0299496Y0376011D01*
X0298297Y0374812D02*
X0225842Y0374812D01*
X0224643Y0373614D02*
X0227832Y0373614D01*
X0226633Y0372415D02*
X0223445Y0372415D01*
X0222246Y0371217D02*
X0225435Y0371217D01*
X0224236Y0370018D02*
X0221048Y0370018D01*
X0220432Y0368820D02*
X0223038Y0368820D01*
X0221839Y0367621D02*
X0220432Y0367621D01*
X0220432Y0366423D02*
X0220641Y0366423D01*
X0219442Y0365224D02*
X0202834Y0365224D01*
X0196067Y0363436D02*
X0181918Y0363436D01*
X0182515Y0361629D02*
X0186773Y0361629D01*
X0182414Y0360430D02*
X0181317Y0360430D01*
X0181216Y0359232D02*
X0180118Y0359232D01*
X0180017Y0358033D02*
X0178920Y0358033D01*
X0178819Y0356835D02*
X0177721Y0356835D01*
X0177620Y0355636D02*
X0176523Y0355636D01*
X0176421Y0354438D02*
X0175324Y0354438D01*
X0175223Y0353239D02*
X0174126Y0353239D01*
X0174024Y0352041D02*
X0172927Y0352041D01*
X0172826Y0350842D02*
X0171729Y0350842D01*
X0171627Y0349644D02*
X0170530Y0349644D01*
X0170429Y0348445D02*
X0169332Y0348445D01*
X0169230Y0347247D02*
X0168133Y0347247D01*
X0168032Y0346048D02*
X0166935Y0346048D01*
X0166833Y0344850D02*
X0165736Y0344850D01*
X0165635Y0343651D02*
X0164538Y0343651D01*
X0164436Y0342453D02*
X0163339Y0342453D01*
X0163238Y0341254D02*
X0162141Y0341254D01*
X0162039Y0340056D02*
X0160942Y0340056D01*
X0161640Y0338857D02*
X0160242Y0338857D01*
X0160242Y0337659D02*
X0161640Y0337659D01*
X0161640Y0336460D02*
X0160242Y0336460D01*
X0160242Y0335261D02*
X0161640Y0335261D01*
X0161640Y0334063D02*
X0160242Y0334063D01*
X0160242Y0332864D02*
X0161640Y0332864D01*
X0161640Y0331666D02*
X0160242Y0331666D01*
X0160242Y0330467D02*
X0161640Y0330467D01*
X0161640Y0329269D02*
X0160242Y0329269D01*
X0160242Y0328070D02*
X0161640Y0328070D01*
X0161640Y0326872D02*
X0160242Y0326872D01*
X0160242Y0325673D02*
X0161640Y0325673D01*
X0161640Y0324475D02*
X0160242Y0324475D01*
X0160242Y0323276D02*
X0161640Y0323276D01*
X0161640Y0322078D02*
X0160242Y0322078D01*
X0160242Y0320879D02*
X0161640Y0320879D01*
X0161640Y0319681D02*
X0160242Y0319681D01*
X0160242Y0318482D02*
X0161640Y0318482D01*
X0161640Y0317284D02*
X0160242Y0317284D01*
X0160242Y0316085D02*
X0161640Y0316085D01*
X0161640Y0314887D02*
X0160242Y0314887D01*
X0160242Y0313688D02*
X0161640Y0313688D01*
X0161640Y0312490D02*
X0160242Y0312490D01*
X0160242Y0311291D02*
X0161640Y0311291D01*
X0161640Y0310093D02*
X0160242Y0310093D01*
X0160242Y0308894D02*
X0161640Y0308894D01*
X0161640Y0307696D02*
X0160242Y0307696D01*
X0160242Y0306497D02*
X0161640Y0306497D01*
X0160870Y0305299D02*
X0159404Y0305299D01*
X0159672Y0304100D02*
X0158205Y0304100D01*
X0158473Y0302902D02*
X0157007Y0302902D01*
X0157275Y0301703D02*
X0155808Y0301703D01*
X0158487Y0298108D02*
X0164593Y0298108D01*
X0164593Y0299306D02*
X0159686Y0299306D01*
X0160884Y0300505D02*
X0164593Y0300505D01*
X0164593Y0301703D02*
X0162083Y0301703D01*
X0163281Y0302902D02*
X0164593Y0302902D01*
X0164593Y0304100D02*
X0164480Y0304100D01*
X0167993Y0304100D02*
X0193993Y0304100D01*
X0193993Y0302902D02*
X0167993Y0302902D01*
X0167993Y0301703D02*
X0193993Y0301703D01*
X0193993Y0300505D02*
X0167993Y0300505D01*
X0167993Y0299306D02*
X0193993Y0299306D01*
X0193993Y0298108D02*
X0167993Y0298108D01*
X0167993Y0296909D02*
X0193993Y0296909D01*
X0193993Y0295711D02*
X0167993Y0295711D01*
X0167072Y0294512D02*
X0183266Y0294512D01*
X0183266Y0293314D02*
X0165873Y0293314D01*
X0164675Y0292115D02*
X0183266Y0292115D01*
X0183266Y0290917D02*
X0163476Y0290917D01*
X0162278Y0289718D02*
X0183558Y0289718D01*
X0184647Y0288520D02*
X0161079Y0288520D01*
X0159881Y0287321D02*
X0184647Y0287321D01*
X0184647Y0286123D02*
X0158682Y0286123D01*
X0157484Y0284924D02*
X0184647Y0284924D01*
X0184647Y0283725D02*
X0156285Y0283725D01*
X0155087Y0282527D02*
X0184647Y0282527D01*
X0184647Y0281328D02*
X0153888Y0281328D01*
X0152690Y0280130D02*
X0184647Y0280130D01*
X0184647Y0278931D02*
X0151491Y0278931D01*
X0150293Y0277733D02*
X0184647Y0277733D01*
X0184647Y0276534D02*
X0149094Y0276534D01*
X0147896Y0275336D02*
X0183565Y0275336D01*
X0182366Y0274137D02*
X0146697Y0274137D01*
X0145499Y0272939D02*
X0181168Y0272939D01*
X0179969Y0271740D02*
X0144300Y0271740D01*
X0143102Y0270542D02*
X0178771Y0270542D01*
X0177572Y0269343D02*
X0142407Y0269343D01*
X0142407Y0268145D02*
X0176374Y0268145D01*
X0175175Y0266946D02*
X0143788Y0266946D01*
X0143788Y0265748D02*
X0173977Y0265748D01*
X0177587Y0264549D02*
X0190584Y0264549D01*
X0189260Y0265748D02*
X0178785Y0265748D01*
X0179984Y0266946D02*
X0188739Y0266946D01*
X0188593Y0268145D02*
X0181182Y0268145D01*
X0182381Y0269343D02*
X0188765Y0269343D01*
X0189323Y0270542D02*
X0183579Y0270542D01*
X0184778Y0271740D02*
X0190735Y0271740D01*
X0187175Y0274137D02*
X0290196Y0274137D01*
X0291032Y0273301D02*
X0294315Y0271941D01*
X0297868Y0271941D01*
X0301150Y0273301D01*
X0303662Y0275813D01*
X0305022Y0279095D01*
X0305022Y0282648D01*
X0303662Y0285930D01*
X0301150Y0288443D01*
X0297868Y0289802D01*
X0294315Y0289802D01*
X0291032Y0288443D01*
X0288520Y0285930D01*
X0287161Y0282648D01*
X0287161Y0279095D01*
X0288520Y0275813D01*
X0291032Y0273301D01*
X0291906Y0272939D02*
X0185976Y0272939D01*
X0186347Y0275714D02*
X0163532Y0252899D01*
X0166800Y0253763D02*
X0467072Y0253763D01*
X0467072Y0254961D02*
X0167998Y0254961D01*
X0169197Y0256160D02*
X0467072Y0256160D01*
X0467072Y0257358D02*
X0233056Y0257358D01*
X0233228Y0258557D02*
X0467072Y0258557D01*
X0467072Y0259755D02*
X0233228Y0259755D01*
X0233228Y0260954D02*
X0467072Y0260954D01*
X0467072Y0262152D02*
X0233228Y0262152D01*
X0235346Y0264549D02*
X0226402Y0264549D01*
X0227726Y0265748D02*
X0234159Y0265748D01*
X0240568Y0265748D02*
X0241369Y0265748D01*
X0241369Y0266946D02*
X0240568Y0266946D01*
X0240568Y0264549D02*
X0241369Y0264549D01*
X0241369Y0269343D02*
X0240568Y0269343D01*
X0240568Y0270542D02*
X0241369Y0270542D01*
X0241369Y0271740D02*
X0240568Y0271740D01*
X0235953Y0282527D02*
X0226705Y0282527D01*
X0226615Y0282438D02*
X0227769Y0283591D01*
X0228393Y0285098D01*
X0228393Y0286729D01*
X0227769Y0288236D01*
X0226615Y0289389D01*
X0225108Y0290013D01*
X0217477Y0290013D01*
X0215970Y0289389D01*
X0214817Y0288236D01*
X0214193Y0286729D01*
X0214193Y0285098D01*
X0214817Y0283591D01*
X0215970Y0282438D01*
X0217477Y0281813D01*
X0225108Y0281813D01*
X0226615Y0282438D01*
X0227824Y0283725D02*
X0234575Y0283725D01*
X0231328Y0284924D02*
X0228321Y0284924D01*
X0228393Y0286123D02*
X0230129Y0286123D01*
X0228931Y0287321D02*
X0228148Y0287321D01*
X0227732Y0288520D02*
X0227485Y0288520D01*
X0226534Y0289718D02*
X0225821Y0289718D01*
X0225335Y0290917D02*
X0197393Y0290917D01*
X0197393Y0292115D02*
X0224137Y0292115D01*
X0222938Y0293314D02*
X0197393Y0293314D01*
X0197393Y0294512D02*
X0222541Y0294512D01*
X0222541Y0295711D02*
X0197393Y0295711D01*
X0197393Y0296909D02*
X0222541Y0296909D01*
X0222541Y0298108D02*
X0197393Y0298108D01*
X0197393Y0299306D02*
X0222541Y0299306D01*
X0222541Y0300505D02*
X0197393Y0300505D01*
X0197393Y0301703D02*
X0222541Y0301703D01*
X0222541Y0302902D02*
X0197393Y0302902D01*
X0197393Y0304100D02*
X0222541Y0304100D01*
X0222541Y0305299D02*
X0197393Y0305299D01*
X0197393Y0306497D02*
X0222541Y0306497D01*
X0222541Y0307696D02*
X0197393Y0307696D01*
X0197393Y0308894D02*
X0222541Y0308894D01*
X0222541Y0310093D02*
X0197393Y0310093D01*
X0197393Y0311291D02*
X0222541Y0311291D01*
X0222541Y0312490D02*
X0197393Y0312490D01*
X0197393Y0313688D02*
X0221756Y0313688D01*
X0220558Y0314887D02*
X0197393Y0314887D01*
X0197393Y0316085D02*
X0219359Y0316085D01*
X0218161Y0317284D02*
X0197393Y0317284D01*
X0197393Y0318482D02*
X0216962Y0318482D01*
X0215764Y0319681D02*
X0197393Y0319681D01*
X0197393Y0320879D02*
X0214565Y0320879D01*
X0213367Y0322078D02*
X0197393Y0322078D01*
X0197393Y0323276D02*
X0212168Y0323276D01*
X0210970Y0324475D02*
X0197393Y0324475D01*
X0197393Y0325673D02*
X0209771Y0325673D01*
X0208573Y0326872D02*
X0197393Y0326872D01*
X0197393Y0328070D02*
X0207374Y0328070D01*
X0206176Y0329269D02*
X0197393Y0329269D01*
X0197393Y0330467D02*
X0204977Y0330467D01*
X0203779Y0331666D02*
X0197393Y0331666D01*
X0197393Y0332864D02*
X0202580Y0332864D01*
X0204991Y0335261D02*
X0211833Y0335261D01*
X0211563Y0334063D02*
X0206190Y0334063D01*
X0207389Y0332864D02*
X0211563Y0332864D01*
X0211563Y0331666D02*
X0208587Y0331666D01*
X0209786Y0330467D02*
X0211563Y0330467D01*
X0210984Y0329269D02*
X0285972Y0329269D01*
X0284774Y0328070D02*
X0212183Y0328070D01*
X0213381Y0326872D02*
X0283575Y0326872D01*
X0282377Y0325673D02*
X0214580Y0325673D01*
X0215778Y0324475D02*
X0281178Y0324475D01*
X0279980Y0323276D02*
X0216977Y0323276D01*
X0218175Y0322078D02*
X0278781Y0322078D01*
X0277583Y0320879D02*
X0219374Y0320879D01*
X0220572Y0319681D02*
X0228050Y0319681D01*
X0228050Y0319982D02*
X0228050Y0315108D01*
X0228694Y0314464D01*
X0233567Y0314464D01*
X0234212Y0315108D01*
X0234212Y0315845D01*
X0276485Y0315845D01*
X0273488Y0312847D01*
X0234212Y0312847D01*
X0234212Y0313584D01*
X0233567Y0314228D01*
X0228694Y0314228D01*
X0228050Y0313584D01*
X0228050Y0308710D01*
X0228694Y0308066D01*
X0233567Y0308066D01*
X0234212Y0308710D01*
X0234212Y0309447D01*
X0274896Y0309447D01*
X0275892Y0310443D01*
X0372337Y0406888D01*
X0405432Y0406888D01*
X0425090Y0426545D01*
X0428203Y0426545D01*
X0428848Y0427190D01*
X0428848Y0432063D01*
X0428203Y0432708D01*
X0423330Y0432708D01*
X0422685Y0432063D01*
X0422685Y0428950D01*
X0404024Y0410288D01*
X0398867Y0410288D01*
X0415124Y0426545D01*
X0418238Y0426545D01*
X0418882Y0427190D01*
X0418882Y0432063D01*
X0418238Y0432708D01*
X0413364Y0432708D01*
X0412720Y0432063D01*
X0412720Y0428950D01*
X0397134Y0413364D01*
X0370067Y0413364D01*
X0369071Y0412368D01*
X0275948Y0319245D01*
X0234212Y0319245D01*
X0234212Y0319982D01*
X0233567Y0320626D01*
X0228694Y0320626D01*
X0228050Y0319982D01*
X0228050Y0318482D02*
X0221771Y0318482D01*
X0222969Y0317284D02*
X0228050Y0317284D01*
X0228050Y0316085D02*
X0224168Y0316085D01*
X0225366Y0314887D02*
X0228271Y0314887D01*
X0228154Y0313688D02*
X0225941Y0313688D01*
X0225941Y0312490D02*
X0228050Y0312490D01*
X0228050Y0311291D02*
X0225941Y0311291D01*
X0225941Y0310093D02*
X0228050Y0310093D01*
X0228050Y0308894D02*
X0225941Y0308894D01*
X0225941Y0307696D02*
X0228559Y0307696D01*
X0228694Y0307831D02*
X0228050Y0307186D01*
X0228050Y0302313D01*
X0228694Y0301669D01*
X0233567Y0301669D01*
X0234212Y0302313D01*
X0234212Y0303050D01*
X0334142Y0303050D01*
X0337944Y0299247D01*
X0338616Y0298576D01*
X0234212Y0298576D01*
X0234212Y0299312D01*
X0233567Y0299957D01*
X0228694Y0299957D01*
X0228050Y0299312D01*
X0228050Y0294439D01*
X0228694Y0293794D01*
X0233567Y0293794D01*
X0234212Y0294439D01*
X0234212Y0295176D01*
X0404393Y0295176D01*
X0417641Y0281928D01*
X0417641Y0278814D01*
X0418285Y0278169D01*
X0423159Y0278169D01*
X0423803Y0278814D01*
X0423803Y0283687D01*
X0423159Y0284332D01*
X0420045Y0284332D01*
X0406126Y0298251D01*
X0410545Y0298251D01*
X0427484Y0281312D01*
X0427484Y0278199D01*
X0428128Y0277554D01*
X0433002Y0277554D01*
X0433646Y0278199D01*
X0433646Y0283072D01*
X0433002Y0283717D01*
X0429888Y0283717D01*
X0411953Y0301651D01*
X0396342Y0301651D01*
X0401836Y0307146D01*
X0405231Y0307146D01*
X0407632Y0309547D01*
X0407632Y0312944D01*
X0405231Y0315346D01*
X0401834Y0315346D01*
X0399432Y0312944D01*
X0399432Y0309550D01*
X0393994Y0304112D01*
X0390422Y0304112D01*
X0382314Y0312220D01*
X0382314Y0366915D01*
X0401285Y0385886D01*
X0404677Y0385886D01*
X0416524Y0374039D01*
X0447017Y0374039D01*
X0448013Y0375035D01*
X0455014Y0382036D01*
X0455658Y0382036D01*
X0455658Y0381299D01*
X0456302Y0380655D01*
X0461176Y0380655D01*
X0461820Y0381299D01*
X0461820Y0386173D01*
X0461176Y0386817D01*
X0456302Y0386817D01*
X0455658Y0386173D01*
X0455658Y0385436D01*
X0453606Y0385436D01*
X0445609Y0377439D01*
X0417932Y0377439D01*
X0407081Y0388290D01*
X0407081Y0391684D01*
X0404679Y0394086D01*
X0401283Y0394086D01*
X0398881Y0391684D01*
X0398881Y0388290D01*
X0379910Y0369319D01*
X0378914Y0368323D01*
X0378914Y0310812D01*
X0388018Y0301708D01*
X0388075Y0301651D01*
X0340349Y0301651D01*
X0335550Y0306450D01*
X0234212Y0306450D01*
X0234212Y0307186D01*
X0233567Y0307831D01*
X0228694Y0307831D01*
X0228050Y0306497D02*
X0225941Y0306497D01*
X0225941Y0305299D02*
X0228050Y0305299D01*
X0228050Y0304100D02*
X0225941Y0304100D01*
X0225941Y0302902D02*
X0228050Y0302902D01*
X0228659Y0301703D02*
X0225941Y0301703D01*
X0225941Y0300505D02*
X0336687Y0300505D01*
X0335489Y0301703D02*
X0233602Y0301703D01*
X0234212Y0302902D02*
X0334290Y0302902D01*
X0334846Y0304750D02*
X0339644Y0299951D01*
X0411249Y0299951D01*
X0430565Y0280635D01*
X0433646Y0280130D02*
X0467072Y0280130D01*
X0467072Y0281328D02*
X0433646Y0281328D01*
X0433646Y0282527D02*
X0467072Y0282527D01*
X0467072Y0283725D02*
X0429879Y0283725D01*
X0428680Y0284924D02*
X0467072Y0284924D01*
X0467072Y0286123D02*
X0427482Y0286123D01*
X0426283Y0287321D02*
X0467072Y0287321D01*
X0467072Y0288520D02*
X0425085Y0288520D01*
X0423886Y0289718D02*
X0467072Y0289718D01*
X0467072Y0290917D02*
X0422688Y0290917D01*
X0421489Y0292115D02*
X0467072Y0292115D01*
X0467072Y0293314D02*
X0420291Y0293314D01*
X0419092Y0294512D02*
X0467072Y0294512D01*
X0467072Y0295711D02*
X0417894Y0295711D01*
X0416695Y0296909D02*
X0467072Y0296909D01*
X0467072Y0298108D02*
X0415497Y0298108D01*
X0414298Y0299306D02*
X0467072Y0299306D01*
X0467072Y0300505D02*
X0413100Y0300505D01*
X0410688Y0298108D02*
X0406269Y0298108D01*
X0407468Y0296909D02*
X0411887Y0296909D01*
X0413085Y0295711D02*
X0408666Y0295711D01*
X0409865Y0294512D02*
X0414284Y0294512D01*
X0415482Y0293314D02*
X0411063Y0293314D01*
X0412262Y0292115D02*
X0416681Y0292115D01*
X0417879Y0290917D02*
X0413460Y0290917D01*
X0414659Y0289718D02*
X0419078Y0289718D01*
X0420276Y0288520D02*
X0415857Y0288520D01*
X0417056Y0287321D02*
X0421475Y0287321D01*
X0422674Y0286123D02*
X0418254Y0286123D01*
X0419453Y0284924D02*
X0423872Y0284924D01*
X0423765Y0283725D02*
X0425071Y0283725D01*
X0426269Y0282527D02*
X0423803Y0282527D01*
X0423803Y0281328D02*
X0427468Y0281328D01*
X0427484Y0280130D02*
X0423803Y0280130D01*
X0423803Y0278931D02*
X0427484Y0278931D01*
X0427949Y0277733D02*
X0373763Y0277733D01*
X0373920Y0278111D02*
X0372560Y0274829D01*
X0370048Y0272316D01*
X0366765Y0270957D01*
X0363213Y0270957D01*
X0359930Y0272316D01*
X0357418Y0274829D01*
X0356058Y0278111D01*
X0356058Y0281664D01*
X0357418Y0284946D01*
X0359930Y0287458D01*
X0363213Y0288818D01*
X0366765Y0288818D01*
X0370048Y0287458D01*
X0372560Y0284946D01*
X0373920Y0281664D01*
X0373920Y0278111D01*
X0373920Y0278931D02*
X0417641Y0278931D01*
X0417641Y0280130D02*
X0373920Y0280130D01*
X0373920Y0281328D02*
X0417641Y0281328D01*
X0417042Y0282527D02*
X0373562Y0282527D01*
X0373066Y0283725D02*
X0415843Y0283725D01*
X0414645Y0284924D02*
X0372569Y0284924D01*
X0371384Y0286123D02*
X0413446Y0286123D01*
X0412248Y0287321D02*
X0370185Y0287321D01*
X0367486Y0288520D02*
X0411049Y0288520D01*
X0409851Y0289718D02*
X0298071Y0289718D01*
X0300965Y0288520D02*
X0362492Y0288520D01*
X0359793Y0287321D02*
X0302272Y0287321D01*
X0303470Y0286123D02*
X0358594Y0286123D01*
X0357409Y0284924D02*
X0304079Y0284924D01*
X0304576Y0283725D02*
X0356912Y0283725D01*
X0356416Y0282527D02*
X0305022Y0282527D01*
X0305022Y0281328D02*
X0356058Y0281328D01*
X0356058Y0280130D02*
X0305022Y0280130D01*
X0304954Y0278931D02*
X0356058Y0278931D01*
X0356215Y0277733D02*
X0304458Y0277733D01*
X0303961Y0276534D02*
X0356711Y0276534D01*
X0357208Y0275336D02*
X0303186Y0275336D01*
X0301987Y0274137D02*
X0358109Y0274137D01*
X0359308Y0272939D02*
X0300277Y0272939D01*
X0288997Y0275336D02*
X0188047Y0275336D01*
X0188047Y0276534D02*
X0288221Y0276534D01*
X0287725Y0277733D02*
X0188047Y0277733D01*
X0188047Y0278931D02*
X0287228Y0278931D01*
X0287161Y0280130D02*
X0188047Y0280130D01*
X0188047Y0281328D02*
X0287161Y0281328D01*
X0287161Y0282527D02*
X0271584Y0282527D01*
X0272962Y0283725D02*
X0287607Y0283725D01*
X0288103Y0284924D02*
X0273507Y0284924D01*
X0273668Y0286123D02*
X0288712Y0286123D01*
X0289911Y0287321D02*
X0273513Y0287321D01*
X0272977Y0288520D02*
X0291218Y0288520D01*
X0294111Y0289718D02*
X0271620Y0289718D01*
X0271956Y0271740D02*
X0361321Y0271740D01*
X0368657Y0271740D02*
X0467072Y0271740D01*
X0467072Y0270542D02*
X0273090Y0270542D01*
X0273587Y0269343D02*
X0467072Y0269343D01*
X0467072Y0268145D02*
X0273668Y0268145D01*
X0273433Y0266946D02*
X0467072Y0266946D01*
X0467072Y0265748D02*
X0272785Y0265748D01*
X0271155Y0264549D02*
X0467072Y0264549D01*
X0467072Y0263351D02*
X0202860Y0263351D01*
X0204058Y0262152D02*
X0227065Y0262152D01*
X0230146Y0259966D02*
X0203840Y0259966D01*
X0195693Y0268113D01*
X0201647Y0259755D02*
X0172792Y0259755D01*
X0171594Y0258557D02*
X0202845Y0258557D01*
X0186347Y0275714D02*
X0186347Y0292446D01*
X0189428Y0292115D02*
X0193993Y0292115D01*
X0193993Y0290917D02*
X0189428Y0290917D01*
X0189137Y0289718D02*
X0191164Y0289718D01*
X0189501Y0288520D02*
X0188047Y0288520D01*
X0188047Y0287321D02*
X0188838Y0287321D01*
X0188593Y0286123D02*
X0188047Y0286123D01*
X0188047Y0284924D02*
X0188665Y0284924D01*
X0189161Y0283725D02*
X0188047Y0283725D01*
X0188047Y0282527D02*
X0190281Y0282527D01*
X0195693Y0285913D02*
X0195693Y0335020D01*
X0187578Y0343135D01*
X0184496Y0343651D02*
X0182746Y0343651D01*
X0181548Y0342453D02*
X0184496Y0342453D01*
X0184496Y0341254D02*
X0180349Y0341254D01*
X0179151Y0340056D02*
X0185140Y0340056D01*
X0189452Y0338857D02*
X0177952Y0338857D01*
X0176754Y0337659D02*
X0190650Y0337659D01*
X0191849Y0336460D02*
X0175555Y0336460D01*
X0174357Y0335261D02*
X0193047Y0335261D01*
X0193993Y0334063D02*
X0173158Y0334063D01*
X0171960Y0332864D02*
X0193993Y0332864D01*
X0193993Y0331666D02*
X0170761Y0331666D01*
X0169563Y0330467D02*
X0193993Y0330467D01*
X0193993Y0329269D02*
X0168364Y0329269D01*
X0167993Y0328070D02*
X0193993Y0328070D01*
X0193993Y0326872D02*
X0167993Y0326872D01*
X0167993Y0325673D02*
X0193993Y0325673D01*
X0193993Y0324475D02*
X0167993Y0324475D01*
X0167993Y0323276D02*
X0193993Y0323276D01*
X0193993Y0322078D02*
X0167993Y0322078D01*
X0167993Y0320879D02*
X0193993Y0320879D01*
X0193993Y0319681D02*
X0167993Y0319681D01*
X0167993Y0318482D02*
X0193993Y0318482D01*
X0193993Y0317284D02*
X0167993Y0317284D01*
X0167993Y0316085D02*
X0193993Y0316085D01*
X0193993Y0314887D02*
X0167993Y0314887D01*
X0167993Y0313688D02*
X0193993Y0313688D01*
X0193993Y0312490D02*
X0167993Y0312490D01*
X0167993Y0311291D02*
X0193993Y0311291D01*
X0193993Y0310093D02*
X0167993Y0310093D01*
X0167993Y0308894D02*
X0193993Y0308894D01*
X0193993Y0307696D02*
X0167993Y0307696D01*
X0167993Y0306497D02*
X0193993Y0306497D01*
X0193993Y0305299D02*
X0167993Y0305299D01*
X0154135Y0310093D02*
X0148365Y0310093D01*
X0148307Y0310035D02*
X0148951Y0310679D01*
X0148951Y0315552D01*
X0148307Y0316197D01*
X0145193Y0316197D01*
X0132683Y0328707D01*
X0132683Y0342308D01*
X0132929Y0342554D01*
X0132929Y0353996D01*
X0167708Y0388775D01*
X0170821Y0388775D01*
X0171466Y0389419D01*
X0171466Y0392533D01*
X0181146Y0402213D01*
X0214762Y0402213D01*
X0214762Y0401476D01*
X0215407Y0400832D01*
X0220280Y0400832D01*
X0220924Y0401476D01*
X0220924Y0406350D01*
X0220280Y0406994D01*
X0215407Y0406994D01*
X0214762Y0406350D01*
X0214762Y0405613D01*
X0179738Y0405613D01*
X0169062Y0394937D01*
X0165948Y0394937D01*
X0165304Y0394293D01*
X0165304Y0391179D01*
X0129529Y0355405D01*
X0129529Y0346300D01*
X0129283Y0346054D01*
X0129283Y0327298D01*
X0142789Y0313793D01*
X0142789Y0310679D01*
X0143433Y0310035D01*
X0148307Y0310035D01*
X0148951Y0311291D02*
X0154135Y0311291D01*
X0154135Y0312490D02*
X0148951Y0312490D01*
X0148951Y0313688D02*
X0154135Y0313688D01*
X0154135Y0314887D02*
X0148951Y0314887D01*
X0148418Y0316085D02*
X0154135Y0316085D01*
X0154135Y0317284D02*
X0144106Y0317284D01*
X0142907Y0318482D02*
X0154135Y0318482D01*
X0154135Y0319681D02*
X0141709Y0319681D01*
X0140510Y0320879D02*
X0154135Y0320879D01*
X0154135Y0322078D02*
X0139312Y0322078D01*
X0138113Y0323276D02*
X0154135Y0323276D01*
X0154135Y0324475D02*
X0136915Y0324475D01*
X0135716Y0325673D02*
X0154135Y0325673D01*
X0154135Y0326872D02*
X0134518Y0326872D01*
X0133319Y0328070D02*
X0154135Y0328070D01*
X0154135Y0329269D02*
X0140966Y0329269D01*
X0141323Y0330467D02*
X0154135Y0330467D01*
X0166293Y0329602D02*
X0189177Y0352486D01*
X0189300Y0352486D01*
X0186588Y0356835D02*
X0183627Y0356835D01*
X0183945Y0344850D02*
X0184496Y0344850D01*
X0194260Y0338857D02*
X0197784Y0338857D01*
X0197784Y0337659D02*
X0195459Y0337659D01*
X0196657Y0336460D02*
X0197784Y0336460D01*
X0197784Y0335261D02*
X0197393Y0335261D01*
X0197393Y0334063D02*
X0198268Y0334063D01*
X0214644Y0332555D02*
X0276898Y0332555D01*
X0321436Y0377092D01*
X0321436Y0398623D01*
X0319098Y0400960D01*
X0287971Y0400960D01*
X0286249Y0402683D01*
X0286249Y0414494D01*
X0281820Y0417939D01*
X0284901Y0417959D02*
X0328648Y0417959D01*
X0327450Y0416760D02*
X0286104Y0416760D01*
X0287645Y0415562D02*
X0326251Y0415562D01*
X0325053Y0414363D02*
X0287978Y0414363D01*
X0287949Y0413165D02*
X0323854Y0413165D01*
X0322656Y0411966D02*
X0287949Y0411966D01*
X0287949Y0410768D02*
X0291277Y0410768D01*
X0290796Y0409569D02*
X0287949Y0409569D01*
X0287949Y0408371D02*
X0290796Y0408371D01*
X0290796Y0407172D02*
X0287949Y0407172D01*
X0287949Y0405974D02*
X0290796Y0405974D01*
X0291434Y0404775D02*
X0287949Y0404775D01*
X0287949Y0403577D02*
X0360280Y0403577D01*
X0361478Y0404775D02*
X0296320Y0404775D01*
X0296958Y0405974D02*
X0362677Y0405974D01*
X0363875Y0407172D02*
X0322670Y0407172D01*
X0323869Y0408371D02*
X0365074Y0408371D01*
X0366273Y0409569D02*
X0325067Y0409569D01*
X0326266Y0410768D02*
X0367471Y0410768D01*
X0368670Y0411966D02*
X0327464Y0411966D01*
X0328663Y0413165D02*
X0369868Y0413165D01*
X0370771Y0411664D02*
X0397838Y0411664D01*
X0415801Y0429627D01*
X0418882Y0429944D02*
X0422685Y0429944D01*
X0422685Y0431142D02*
X0418882Y0431142D01*
X0418604Y0432341D02*
X0422963Y0432341D01*
X0422481Y0428745D02*
X0418882Y0428745D01*
X0418882Y0427547D02*
X0421283Y0427547D01*
X0420084Y0426348D02*
X0414927Y0426348D01*
X0413728Y0425150D02*
X0418886Y0425150D01*
X0417687Y0423951D02*
X0412530Y0423951D01*
X0411331Y0422753D02*
X0416489Y0422753D01*
X0415290Y0421554D02*
X0410133Y0421554D01*
X0408934Y0420356D02*
X0414092Y0420356D01*
X0412893Y0419157D02*
X0407736Y0419157D01*
X0406537Y0417959D02*
X0411695Y0417959D01*
X0410496Y0416760D02*
X0405339Y0416760D01*
X0404140Y0415562D02*
X0409298Y0415562D01*
X0408099Y0414363D02*
X0402942Y0414363D01*
X0401743Y0413165D02*
X0406901Y0413165D01*
X0405702Y0411966D02*
X0400545Y0411966D01*
X0399346Y0410768D02*
X0404503Y0410768D01*
X0404728Y0408588D02*
X0425767Y0429627D01*
X0428848Y0429944D02*
X0435228Y0429944D01*
X0436426Y0428745D02*
X0428848Y0428745D01*
X0428848Y0427547D02*
X0437625Y0427547D01*
X0438823Y0426348D02*
X0424892Y0426348D01*
X0423694Y0425150D02*
X0440022Y0425150D01*
X0441220Y0423951D02*
X0422495Y0423951D01*
X0421297Y0422753D02*
X0442419Y0422753D01*
X0443617Y0421554D02*
X0420098Y0421554D01*
X0418900Y0420356D02*
X0444816Y0420356D01*
X0446014Y0419157D02*
X0417701Y0419157D01*
X0416503Y0417959D02*
X0447213Y0417959D01*
X0448411Y0416760D02*
X0415304Y0416760D01*
X0414106Y0415562D02*
X0449610Y0415562D01*
X0450808Y0414363D02*
X0412907Y0414363D01*
X0411709Y0413165D02*
X0452007Y0413165D01*
X0453205Y0411966D02*
X0410510Y0411966D01*
X0409312Y0410768D02*
X0413324Y0410768D01*
X0413487Y0410931D02*
X0412843Y0410287D01*
X0412843Y0405413D01*
X0413487Y0404769D01*
X0416601Y0404769D01*
X0428015Y0393355D01*
X0439418Y0393355D01*
X0439418Y0392618D01*
X0440062Y0391974D01*
X0444936Y0391974D01*
X0445474Y0392512D01*
X0445474Y0391207D01*
X0442041Y0387773D01*
X0424911Y0387773D01*
X0424911Y0388633D01*
X0424266Y0389278D01*
X0419393Y0389278D01*
X0418748Y0388633D01*
X0418748Y0383760D01*
X0419393Y0383115D01*
X0424266Y0383115D01*
X0424911Y0383760D01*
X0424911Y0384373D01*
X0443449Y0384373D01*
X0444445Y0385369D01*
X0448874Y0389798D01*
X0448874Y0400926D01*
X0447878Y0401922D01*
X0446402Y0403398D01*
X0440441Y0403398D01*
X0439445Y0402403D01*
X0436873Y0399830D01*
X0431269Y0399830D01*
X0425655Y0405444D01*
X0425772Y0405561D01*
X0425772Y0410434D01*
X0425127Y0411079D01*
X0420254Y0411079D01*
X0419610Y0410434D01*
X0419610Y0406569D01*
X0419005Y0407173D01*
X0419005Y0410287D01*
X0418361Y0410931D01*
X0413487Y0410931D01*
X0412843Y0409569D02*
X0408113Y0409569D01*
X0406915Y0408371D02*
X0412843Y0408371D01*
X0412843Y0407172D02*
X0405716Y0407172D01*
X0404728Y0408588D02*
X0371633Y0408588D01*
X0274192Y0311147D01*
X0231131Y0311147D01*
X0234212Y0308894D02*
X0380832Y0308894D01*
X0382030Y0307696D02*
X0233702Y0307696D01*
X0234212Y0306497D02*
X0383229Y0306497D01*
X0384427Y0305299D02*
X0336701Y0305299D01*
X0337900Y0304100D02*
X0385626Y0304100D01*
X0386824Y0302902D02*
X0339098Y0302902D01*
X0340297Y0301703D02*
X0388023Y0301703D01*
X0389718Y0302412D02*
X0394699Y0302412D01*
X0403532Y0311246D01*
X0399432Y0311291D02*
X0397632Y0311291D01*
X0397632Y0310093D02*
X0399432Y0310093D01*
X0398777Y0308894D02*
X0396979Y0308894D01*
X0397632Y0309547D02*
X0395231Y0307146D01*
X0391834Y0307146D01*
X0389432Y0309547D01*
X0389432Y0312944D01*
X0391834Y0315346D01*
X0395231Y0315346D01*
X0397632Y0312944D01*
X0397632Y0309547D01*
X0397578Y0307696D02*
X0395781Y0307696D01*
X0396380Y0306497D02*
X0388037Y0306497D01*
X0386839Y0307696D02*
X0391284Y0307696D01*
X0390085Y0308894D02*
X0385640Y0308894D01*
X0384442Y0310093D02*
X0389432Y0310093D01*
X0389432Y0311291D02*
X0383243Y0311291D01*
X0382314Y0312490D02*
X0389432Y0312490D01*
X0390177Y0313688D02*
X0382314Y0313688D01*
X0382314Y0314887D02*
X0391375Y0314887D01*
X0391834Y0317146D02*
X0389432Y0319547D01*
X0389432Y0322944D01*
X0391834Y0325346D01*
X0395231Y0325346D01*
X0397632Y0322944D01*
X0397632Y0319547D01*
X0395231Y0317146D01*
X0391834Y0317146D01*
X0391696Y0317284D02*
X0382314Y0317284D01*
X0382314Y0318482D02*
X0390497Y0318482D01*
X0389432Y0319681D02*
X0382314Y0319681D01*
X0382314Y0320879D02*
X0389432Y0320879D01*
X0389432Y0322078D02*
X0382314Y0322078D01*
X0382314Y0323276D02*
X0389765Y0323276D01*
X0390963Y0324475D02*
X0382314Y0324475D01*
X0382314Y0325673D02*
X0401455Y0325673D01*
X0401627Y0325846D02*
X0398932Y0323151D01*
X0398932Y0321646D01*
X0403132Y0321646D01*
X0403132Y0325846D01*
X0401627Y0325846D01*
X0403132Y0325673D02*
X0403932Y0325673D01*
X0403932Y0325846D02*
X0405438Y0325846D01*
X0408132Y0323151D01*
X0408132Y0321646D01*
X0403932Y0321646D01*
X0403132Y0321646D01*
X0403132Y0320846D01*
X0398932Y0320846D01*
X0398932Y0319340D01*
X0401627Y0316646D01*
X0403132Y0316646D01*
X0403132Y0320846D01*
X0403932Y0320846D01*
X0403932Y0321646D01*
X0403932Y0325846D01*
X0403932Y0324475D02*
X0403132Y0324475D01*
X0403132Y0323276D02*
X0403932Y0323276D01*
X0403932Y0322078D02*
X0403132Y0322078D01*
X0403132Y0320879D02*
X0397632Y0320879D01*
X0397632Y0319681D02*
X0398932Y0319681D01*
X0399790Y0318482D02*
X0396567Y0318482D01*
X0395369Y0317284D02*
X0400989Y0317284D01*
X0403132Y0317284D02*
X0403932Y0317284D01*
X0403932Y0316646D02*
X0405438Y0316646D01*
X0408132Y0319340D01*
X0408132Y0320846D01*
X0403932Y0320846D01*
X0403932Y0316646D01*
X0403932Y0318482D02*
X0403132Y0318482D01*
X0403132Y0319681D02*
X0403932Y0319681D01*
X0403932Y0320879D02*
X0409432Y0320879D01*
X0409432Y0319681D02*
X0408132Y0319681D01*
X0409432Y0319547D02*
X0411834Y0317146D01*
X0415231Y0317146D01*
X0417632Y0319547D01*
X0417632Y0322944D01*
X0415231Y0325346D01*
X0411834Y0325346D01*
X0409432Y0322944D01*
X0409432Y0319547D01*
X0410497Y0318482D02*
X0407274Y0318482D01*
X0406076Y0317284D02*
X0411696Y0317284D01*
X0411834Y0315346D02*
X0409432Y0312944D01*
X0409432Y0309547D01*
X0411834Y0307146D01*
X0415231Y0307146D01*
X0417632Y0309547D01*
X0417632Y0312944D01*
X0415231Y0315346D01*
X0411834Y0315346D01*
X0411375Y0314887D02*
X0405689Y0314887D01*
X0406888Y0313688D02*
X0410177Y0313688D01*
X0409432Y0312490D02*
X0407632Y0312490D01*
X0407632Y0311291D02*
X0409432Y0311291D01*
X0409432Y0310093D02*
X0407632Y0310093D01*
X0406979Y0308894D02*
X0410085Y0308894D01*
X0411284Y0307696D02*
X0405781Y0307696D01*
X0401188Y0306497D02*
X0467072Y0306497D01*
X0467072Y0305299D02*
X0399989Y0305299D01*
X0398791Y0304100D02*
X0467072Y0304100D01*
X0467072Y0302902D02*
X0397592Y0302902D01*
X0396394Y0301703D02*
X0467072Y0301703D01*
X0467072Y0307696D02*
X0415781Y0307696D01*
X0416979Y0308894D02*
X0467072Y0308894D01*
X0467072Y0310093D02*
X0417632Y0310093D01*
X0417632Y0311291D02*
X0467072Y0311291D01*
X0467072Y0312490D02*
X0417632Y0312490D01*
X0416888Y0313688D02*
X0467072Y0313688D01*
X0467072Y0314887D02*
X0415689Y0314887D01*
X0415369Y0317284D02*
X0467072Y0317284D01*
X0467072Y0318482D02*
X0416567Y0318482D01*
X0417632Y0319681D02*
X0467072Y0319681D01*
X0467072Y0320879D02*
X0417632Y0320879D01*
X0417632Y0322078D02*
X0467072Y0322078D01*
X0467072Y0323276D02*
X0417300Y0323276D01*
X0416101Y0324475D02*
X0467072Y0324475D01*
X0467072Y0325673D02*
X0405610Y0325673D01*
X0406808Y0324475D02*
X0410963Y0324475D01*
X0409765Y0323276D02*
X0408007Y0323276D01*
X0408132Y0322078D02*
X0409432Y0322078D01*
X0400256Y0324475D02*
X0396101Y0324475D01*
X0397300Y0323276D02*
X0399058Y0323276D01*
X0398932Y0322078D02*
X0397632Y0322078D01*
X0395689Y0314887D02*
X0401375Y0314887D01*
X0400177Y0313688D02*
X0396888Y0313688D01*
X0397632Y0312490D02*
X0399432Y0312490D01*
X0395181Y0305299D02*
X0389236Y0305299D01*
X0389718Y0302412D02*
X0380614Y0311516D01*
X0380614Y0367619D01*
X0402981Y0389986D01*
X0417228Y0375739D01*
X0446313Y0375739D01*
X0454310Y0383736D01*
X0458739Y0383736D01*
X0461820Y0383202D02*
X0467072Y0383202D01*
X0467072Y0384400D02*
X0461820Y0384400D01*
X0461820Y0385599D02*
X0467072Y0385599D01*
X0467072Y0386797D02*
X0461195Y0386797D01*
X0457658Y0389194D02*
X0467072Y0389194D01*
X0467072Y0387996D02*
X0447072Y0387996D01*
X0448270Y0389194D02*
X0452438Y0389194D01*
X0451967Y0390393D02*
X0448874Y0390393D01*
X0448874Y0391592D02*
X0451967Y0391592D01*
X0451967Y0392790D02*
X0448874Y0392790D01*
X0448874Y0393989D02*
X0451967Y0393989D01*
X0453348Y0395187D02*
X0448874Y0395187D01*
X0448874Y0396386D02*
X0453348Y0396386D01*
X0453348Y0397584D02*
X0448874Y0397584D01*
X0448874Y0398783D02*
X0453348Y0398783D01*
X0453348Y0399981D02*
X0448874Y0399981D01*
X0448621Y0401180D02*
X0453348Y0401180D01*
X0453348Y0402378D02*
X0447422Y0402378D01*
X0445698Y0401698D02*
X0447174Y0400222D01*
X0447174Y0390503D01*
X0442745Y0386073D01*
X0421953Y0386073D01*
X0421830Y0386196D01*
X0418748Y0385599D02*
X0409772Y0385599D01*
X0410371Y0386797D02*
X0408574Y0386797D01*
X0409173Y0387996D02*
X0407375Y0387996D01*
X0407081Y0389194D02*
X0408881Y0389194D01*
X0408881Y0388288D02*
X0411283Y0385886D01*
X0414679Y0385886D01*
X0417081Y0388288D01*
X0417081Y0391684D01*
X0414679Y0394086D01*
X0411283Y0394086D01*
X0408881Y0391684D01*
X0408881Y0388288D01*
X0408881Y0390393D02*
X0407081Y0390393D01*
X0407081Y0391592D02*
X0408881Y0391592D01*
X0409987Y0392790D02*
X0405975Y0392790D01*
X0404777Y0393989D02*
X0411186Y0393989D01*
X0411283Y0395886D02*
X0414679Y0395886D01*
X0417081Y0398288D01*
X0417081Y0401684D01*
X0414679Y0404086D01*
X0411283Y0404086D01*
X0408881Y0401684D01*
X0408881Y0398288D01*
X0411283Y0395886D01*
X0410783Y0396386D02*
X0405886Y0396386D01*
X0404886Y0395386D02*
X0407581Y0398080D01*
X0407581Y0399586D01*
X0403381Y0399586D01*
X0403381Y0400386D01*
X0402581Y0400386D01*
X0402581Y0404586D01*
X0401076Y0404586D01*
X0398381Y0401891D01*
X0398381Y0400386D01*
X0402581Y0400386D01*
X0402581Y0399586D01*
X0398381Y0399586D01*
X0398381Y0398080D01*
X0401076Y0395386D01*
X0402581Y0395386D01*
X0402581Y0399586D01*
X0403381Y0399586D01*
X0403381Y0395386D01*
X0404886Y0395386D01*
X0403381Y0396386D02*
X0402581Y0396386D01*
X0402581Y0397584D02*
X0403381Y0397584D01*
X0403381Y0398783D02*
X0402581Y0398783D01*
X0402581Y0399981D02*
X0397081Y0399981D01*
X0397081Y0398783D02*
X0398381Y0398783D01*
X0398877Y0397584D02*
X0396378Y0397584D01*
X0397081Y0398288D02*
X0394679Y0395886D01*
X0391283Y0395886D01*
X0388881Y0398288D01*
X0388881Y0401684D01*
X0391283Y0404086D01*
X0394679Y0404086D01*
X0397081Y0401684D01*
X0397081Y0398288D01*
X0395179Y0396386D02*
X0400076Y0396386D01*
X0401186Y0393989D02*
X0394777Y0393989D01*
X0394679Y0394086D02*
X0391283Y0394086D01*
X0388881Y0391684D01*
X0388881Y0388288D01*
X0391283Y0385886D01*
X0394679Y0385886D01*
X0397081Y0388288D01*
X0397081Y0391684D01*
X0394679Y0394086D01*
X0395975Y0392790D02*
X0399987Y0392790D01*
X0398881Y0391592D02*
X0397081Y0391592D01*
X0397081Y0390393D02*
X0398881Y0390393D01*
X0398881Y0389194D02*
X0397081Y0389194D01*
X0396790Y0387996D02*
X0398587Y0387996D01*
X0397389Y0386797D02*
X0395591Y0386797D01*
X0396190Y0385599D02*
X0351048Y0385599D01*
X0352246Y0386797D02*
X0390371Y0386797D01*
X0389173Y0387996D02*
X0353445Y0387996D01*
X0354643Y0389194D02*
X0388881Y0389194D01*
X0388881Y0390393D02*
X0355842Y0390393D01*
X0357040Y0391592D02*
X0388881Y0391592D01*
X0389987Y0392790D02*
X0358239Y0392790D01*
X0359437Y0393989D02*
X0391186Y0393989D01*
X0390783Y0396386D02*
X0361834Y0396386D01*
X0363033Y0397584D02*
X0389585Y0397584D01*
X0388881Y0398783D02*
X0364231Y0398783D01*
X0365430Y0399981D02*
X0388881Y0399981D01*
X0388881Y0401180D02*
X0366628Y0401180D01*
X0367827Y0402378D02*
X0389575Y0402378D01*
X0390774Y0403577D02*
X0369025Y0403577D01*
X0370224Y0404775D02*
X0413481Y0404775D01*
X0412843Y0405974D02*
X0371422Y0405974D01*
X0370771Y0411664D02*
X0276652Y0317545D01*
X0231131Y0317545D01*
X0234212Y0319681D02*
X0276384Y0319681D01*
X0275527Y0314887D02*
X0233990Y0314887D01*
X0234108Y0313688D02*
X0274329Y0313688D01*
X0276740Y0311291D02*
X0378914Y0311291D01*
X0378914Y0312490D02*
X0277938Y0312490D01*
X0279137Y0313688D02*
X0378914Y0313688D01*
X0378914Y0314887D02*
X0280335Y0314887D01*
X0281534Y0316085D02*
X0378914Y0316085D01*
X0378914Y0317284D02*
X0282732Y0317284D01*
X0283931Y0318482D02*
X0378914Y0318482D01*
X0378914Y0319681D02*
X0285129Y0319681D01*
X0286328Y0320879D02*
X0378914Y0320879D01*
X0378914Y0322078D02*
X0287527Y0322078D01*
X0288725Y0323276D02*
X0378914Y0323276D01*
X0378914Y0324475D02*
X0289924Y0324475D01*
X0291122Y0325673D02*
X0378914Y0325673D01*
X0378914Y0326872D02*
X0292321Y0326872D01*
X0293519Y0328070D02*
X0378914Y0328070D01*
X0378914Y0329269D02*
X0294718Y0329269D01*
X0295916Y0330467D02*
X0378914Y0330467D01*
X0378914Y0331666D02*
X0297115Y0331666D01*
X0298313Y0332864D02*
X0378914Y0332864D01*
X0378914Y0334063D02*
X0299512Y0334063D01*
X0300710Y0335261D02*
X0378914Y0335261D01*
X0378914Y0336460D02*
X0301909Y0336460D01*
X0303107Y0337659D02*
X0378914Y0337659D01*
X0378914Y0338857D02*
X0304306Y0338857D01*
X0305504Y0340056D02*
X0378914Y0340056D01*
X0378914Y0341254D02*
X0306703Y0341254D01*
X0307901Y0342453D02*
X0378914Y0342453D01*
X0378914Y0343651D02*
X0309100Y0343651D01*
X0310298Y0344850D02*
X0378914Y0344850D01*
X0378914Y0346048D02*
X0311497Y0346048D01*
X0312695Y0347247D02*
X0378914Y0347247D01*
X0378914Y0348445D02*
X0313894Y0348445D01*
X0315092Y0349644D02*
X0378914Y0349644D01*
X0378914Y0350842D02*
X0316291Y0350842D01*
X0317489Y0352041D02*
X0378914Y0352041D01*
X0378914Y0353239D02*
X0318688Y0353239D01*
X0319886Y0354438D02*
X0378914Y0354438D01*
X0378914Y0355636D02*
X0321085Y0355636D01*
X0322283Y0356835D02*
X0378914Y0356835D01*
X0378914Y0358033D02*
X0323482Y0358033D01*
X0324680Y0359232D02*
X0378914Y0359232D01*
X0378914Y0360430D02*
X0325879Y0360430D01*
X0327077Y0361629D02*
X0378914Y0361629D01*
X0378914Y0362827D02*
X0328276Y0362827D01*
X0329474Y0364026D02*
X0378914Y0364026D01*
X0378914Y0365224D02*
X0330673Y0365224D01*
X0331871Y0366423D02*
X0378914Y0366423D01*
X0378914Y0367621D02*
X0333070Y0367621D01*
X0334268Y0368820D02*
X0379411Y0368820D01*
X0379910Y0369319D02*
X0379910Y0369319D01*
X0380609Y0370018D02*
X0335467Y0370018D01*
X0336665Y0371217D02*
X0381808Y0371217D01*
X0383006Y0372415D02*
X0337864Y0372415D01*
X0339062Y0373614D02*
X0384205Y0373614D01*
X0385403Y0374812D02*
X0340261Y0374812D01*
X0341460Y0376011D02*
X0386602Y0376011D01*
X0387801Y0377209D02*
X0342658Y0377209D01*
X0343857Y0378408D02*
X0388999Y0378408D01*
X0390198Y0379606D02*
X0345055Y0379606D01*
X0346254Y0380805D02*
X0391396Y0380805D01*
X0392595Y0382003D02*
X0347452Y0382003D01*
X0348651Y0383202D02*
X0393793Y0383202D01*
X0394992Y0384400D02*
X0349849Y0384400D01*
X0345898Y0389194D02*
X0323136Y0389194D01*
X0323136Y0387996D02*
X0344699Y0387996D01*
X0343501Y0386797D02*
X0323136Y0386797D01*
X0323136Y0385599D02*
X0342302Y0385599D01*
X0341104Y0384400D02*
X0323136Y0384400D01*
X0323136Y0383202D02*
X0339905Y0383202D01*
X0338707Y0382003D02*
X0323136Y0382003D01*
X0323136Y0380805D02*
X0337508Y0380805D01*
X0336310Y0379606D02*
X0324439Y0379606D01*
X0324517Y0378408D02*
X0335111Y0378408D01*
X0333913Y0377209D02*
X0324517Y0377209D01*
X0324517Y0376011D02*
X0332714Y0376011D01*
X0331516Y0374812D02*
X0324517Y0374812D01*
X0320362Y0373614D02*
X0330317Y0373614D01*
X0329119Y0372415D02*
X0319163Y0372415D01*
X0317965Y0371217D02*
X0327920Y0371217D01*
X0326722Y0370018D02*
X0316766Y0370018D01*
X0315568Y0368820D02*
X0325523Y0368820D01*
X0324325Y0367621D02*
X0314369Y0367621D01*
X0313171Y0366423D02*
X0323126Y0366423D01*
X0321928Y0365224D02*
X0311972Y0365224D01*
X0310774Y0364026D02*
X0320729Y0364026D01*
X0319531Y0362827D02*
X0309575Y0362827D01*
X0308377Y0361629D02*
X0318332Y0361629D01*
X0317134Y0360430D02*
X0307178Y0360430D01*
X0305980Y0359232D02*
X0315935Y0359232D01*
X0314737Y0358033D02*
X0304781Y0358033D01*
X0303583Y0356835D02*
X0313538Y0356835D01*
X0312339Y0355636D02*
X0302384Y0355636D01*
X0301186Y0354438D02*
X0311141Y0354438D01*
X0309942Y0353239D02*
X0299987Y0353239D01*
X0298788Y0352041D02*
X0308744Y0352041D01*
X0307545Y0350842D02*
X0297590Y0350842D01*
X0296391Y0349644D02*
X0306347Y0349644D01*
X0305148Y0348445D02*
X0295193Y0348445D01*
X0293994Y0347247D02*
X0303950Y0347247D01*
X0302751Y0346048D02*
X0292796Y0346048D01*
X0291597Y0344850D02*
X0301553Y0344850D01*
X0300354Y0343651D02*
X0290399Y0343651D01*
X0289200Y0342453D02*
X0299156Y0342453D01*
X0297957Y0341254D02*
X0288002Y0341254D01*
X0286803Y0340056D02*
X0296759Y0340056D01*
X0295560Y0338857D02*
X0285605Y0338857D01*
X0284406Y0337659D02*
X0294362Y0337659D01*
X0293163Y0336460D02*
X0283208Y0336460D01*
X0282009Y0335261D02*
X0291965Y0335261D01*
X0290766Y0334063D02*
X0280811Y0334063D01*
X0279612Y0332864D02*
X0289568Y0332864D01*
X0288369Y0331666D02*
X0278414Y0331666D01*
X0277201Y0335261D02*
X0217456Y0335261D01*
X0217726Y0330467D02*
X0287171Y0330467D01*
X0275541Y0310093D02*
X0379633Y0310093D01*
X0382314Y0316085D02*
X0467072Y0316085D01*
X0467072Y0326872D02*
X0382314Y0326872D01*
X0382314Y0328070D02*
X0467072Y0328070D01*
X0467072Y0329269D02*
X0382314Y0329269D01*
X0382314Y0330467D02*
X0467072Y0330467D01*
X0467072Y0331666D02*
X0382314Y0331666D01*
X0382314Y0332864D02*
X0467072Y0332864D01*
X0467072Y0334063D02*
X0382314Y0334063D01*
X0382314Y0335261D02*
X0467072Y0335261D01*
X0467072Y0336460D02*
X0382314Y0336460D01*
X0382314Y0337659D02*
X0467072Y0337659D01*
X0467072Y0338857D02*
X0382314Y0338857D01*
X0382314Y0340056D02*
X0467072Y0340056D01*
X0467072Y0341254D02*
X0382314Y0341254D01*
X0382314Y0342453D02*
X0397994Y0342453D01*
X0398588Y0341858D02*
X0447297Y0341858D01*
X0457380Y0351941D01*
X0461681Y0351941D01*
X0462325Y0352585D01*
X0462325Y0358646D01*
X0461681Y0359291D01*
X0455620Y0359291D01*
X0454976Y0358646D01*
X0454976Y0354345D01*
X0445889Y0345258D01*
X0399996Y0345258D01*
X0394990Y0350264D01*
X0395178Y0350716D01*
X0395178Y0352248D01*
X0394591Y0353663D01*
X0393508Y0354746D01*
X0392093Y0355332D01*
X0390562Y0355332D01*
X0389147Y0354746D01*
X0388064Y0353663D01*
X0387478Y0352248D01*
X0387478Y0350716D01*
X0388064Y0349301D01*
X0389147Y0348218D01*
X0390562Y0347632D01*
X0392093Y0347632D01*
X0392603Y0347843D01*
X0398588Y0341858D01*
X0399292Y0343558D02*
X0391369Y0351482D01*
X0391328Y0351482D01*
X0394767Y0353239D02*
X0414823Y0353239D01*
X0414698Y0352994D02*
X0414486Y0352343D01*
X0414379Y0351667D01*
X0414379Y0351599D01*
X0418454Y0351599D01*
X0418454Y0351049D01*
X0419004Y0351049D01*
X0419004Y0346974D01*
X0419071Y0346974D01*
X0419748Y0347082D01*
X0420399Y0347293D01*
X0421009Y0347604D01*
X0421563Y0348006D01*
X0422047Y0348491D01*
X0422450Y0349045D01*
X0422760Y0349655D01*
X0422972Y0350306D01*
X0423079Y0350982D01*
X0423079Y0351049D01*
X0419004Y0351049D01*
X0419004Y0351599D01*
X0423079Y0351599D01*
X0423079Y0351667D01*
X0422972Y0352343D01*
X0422760Y0352994D01*
X0422450Y0353604D01*
X0422047Y0354158D01*
X0421563Y0354642D01*
X0421009Y0355045D01*
X0420399Y0355356D01*
X0419902Y0355517D01*
X0420910Y0355935D01*
X0421993Y0357018D01*
X0422579Y0358433D01*
X0422579Y0359964D01*
X0421993Y0361379D01*
X0420910Y0362462D01*
X0419495Y0363048D01*
X0417963Y0363048D01*
X0416548Y0362462D01*
X0415465Y0361379D01*
X0415266Y0360898D01*
X0394856Y0360898D01*
X0394591Y0361537D01*
X0393508Y0362620D01*
X0392093Y0363206D01*
X0390562Y0363206D01*
X0389147Y0362620D01*
X0388064Y0361537D01*
X0387478Y0360122D01*
X0387478Y0358590D01*
X0388064Y0357175D01*
X0389147Y0356092D01*
X0390562Y0355506D01*
X0392093Y0355506D01*
X0393508Y0356092D01*
X0394591Y0357175D01*
X0394725Y0357498D01*
X0415266Y0357498D01*
X0415465Y0357018D01*
X0416548Y0355935D01*
X0417556Y0355517D01*
X0417059Y0355356D01*
X0416449Y0355045D01*
X0415895Y0354642D01*
X0415411Y0354158D01*
X0415009Y0353604D01*
X0414698Y0352994D01*
X0414438Y0352041D02*
X0395178Y0352041D01*
X0395178Y0350842D02*
X0414401Y0350842D01*
X0414379Y0350982D02*
X0414486Y0350306D01*
X0414698Y0349655D01*
X0415009Y0349045D01*
X0415411Y0348491D01*
X0415895Y0348006D01*
X0416449Y0347604D01*
X0417059Y0347293D01*
X0417710Y0347082D01*
X0418387Y0346974D01*
X0418454Y0346974D01*
X0418454Y0351049D01*
X0414379Y0351049D01*
X0414379Y0350982D01*
X0414703Y0349644D02*
X0395611Y0349644D01*
X0396810Y0348445D02*
X0415457Y0348445D01*
X0417202Y0347247D02*
X0398008Y0347247D01*
X0399207Y0346048D02*
X0446679Y0346048D01*
X0447877Y0347247D02*
X0420256Y0347247D01*
X0419004Y0347247D02*
X0418454Y0347247D01*
X0418454Y0348445D02*
X0419004Y0348445D01*
X0419004Y0349644D02*
X0418454Y0349644D01*
X0418454Y0350842D02*
X0419004Y0350842D01*
X0422002Y0348445D02*
X0449076Y0348445D01*
X0450274Y0349644D02*
X0422755Y0349644D01*
X0423057Y0350842D02*
X0451473Y0350842D01*
X0452671Y0352041D02*
X0423020Y0352041D01*
X0422636Y0353239D02*
X0453870Y0353239D01*
X0454976Y0354438D02*
X0421768Y0354438D01*
X0420190Y0355636D02*
X0454976Y0355636D01*
X0454976Y0356835D02*
X0421810Y0356835D01*
X0422414Y0358033D02*
X0454976Y0358033D01*
X0455561Y0359232D02*
X0422579Y0359232D01*
X0422386Y0360430D02*
X0467072Y0360430D01*
X0467072Y0359232D02*
X0461740Y0359232D01*
X0462325Y0358033D02*
X0467072Y0358033D01*
X0467072Y0356835D02*
X0462325Y0356835D01*
X0462325Y0355636D02*
X0467072Y0355636D01*
X0467072Y0354438D02*
X0462325Y0354438D01*
X0462325Y0353239D02*
X0467072Y0353239D01*
X0467072Y0352041D02*
X0461781Y0352041D01*
X0461681Y0349291D02*
X0455620Y0349291D01*
X0454976Y0348646D01*
X0454976Y0342585D01*
X0455620Y0341941D01*
X0461681Y0341941D01*
X0462325Y0342585D01*
X0462325Y0348646D01*
X0461681Y0349291D01*
X0462325Y0348445D02*
X0467072Y0348445D01*
X0467072Y0347247D02*
X0462325Y0347247D01*
X0462325Y0346048D02*
X0467072Y0346048D01*
X0467072Y0344850D02*
X0462325Y0344850D01*
X0462325Y0343651D02*
X0467072Y0343651D01*
X0467072Y0342453D02*
X0462192Y0342453D01*
X0455108Y0342453D02*
X0447891Y0342453D01*
X0449090Y0343651D02*
X0454976Y0343651D01*
X0454976Y0344850D02*
X0450288Y0344850D01*
X0451487Y0346048D02*
X0454976Y0346048D01*
X0454976Y0347247D02*
X0452685Y0347247D01*
X0453884Y0348445D02*
X0454976Y0348445D01*
X0455082Y0349644D02*
X0467072Y0349644D01*
X0467072Y0350842D02*
X0456281Y0350842D01*
X0458650Y0355616D02*
X0446593Y0343558D01*
X0399292Y0343558D01*
X0396795Y0343651D02*
X0382314Y0343651D01*
X0382314Y0344850D02*
X0395597Y0344850D01*
X0394398Y0346048D02*
X0382314Y0346048D01*
X0382314Y0347247D02*
X0393200Y0347247D01*
X0388920Y0348445D02*
X0382314Y0348445D01*
X0382314Y0349644D02*
X0387922Y0349644D01*
X0387478Y0350842D02*
X0382314Y0350842D01*
X0382314Y0352041D02*
X0387478Y0352041D01*
X0387888Y0353239D02*
X0382314Y0353239D01*
X0382314Y0354438D02*
X0388839Y0354438D01*
X0390247Y0355636D02*
X0382314Y0355636D01*
X0382314Y0356835D02*
X0388404Y0356835D01*
X0387708Y0358033D02*
X0382314Y0358033D01*
X0382314Y0359232D02*
X0387478Y0359232D01*
X0387605Y0360430D02*
X0382314Y0360430D01*
X0382314Y0361629D02*
X0388156Y0361629D01*
X0389648Y0362827D02*
X0382314Y0362827D01*
X0382314Y0364026D02*
X0454976Y0364026D01*
X0454976Y0365224D02*
X0382314Y0365224D01*
X0382314Y0366423D02*
X0454976Y0366423D01*
X0454976Y0367621D02*
X0383021Y0367621D01*
X0384219Y0368820D02*
X0455149Y0368820D01*
X0454976Y0368646D02*
X0454976Y0362585D01*
X0455620Y0361941D01*
X0461681Y0361941D01*
X0462325Y0362585D01*
X0462325Y0368646D01*
X0461681Y0369291D01*
X0455620Y0369291D01*
X0454976Y0368646D01*
X0454976Y0362827D02*
X0420029Y0362827D01*
X0421744Y0361629D02*
X0467072Y0361629D01*
X0467072Y0362827D02*
X0462325Y0362827D01*
X0462325Y0364026D02*
X0467072Y0364026D01*
X0467072Y0365224D02*
X0462325Y0365224D01*
X0462325Y0366423D02*
X0467072Y0366423D01*
X0467072Y0367621D02*
X0462325Y0367621D01*
X0462152Y0368820D02*
X0467072Y0368820D01*
X0467072Y0370018D02*
X0385418Y0370018D01*
X0386616Y0371217D02*
X0467072Y0371217D01*
X0467072Y0372415D02*
X0387815Y0372415D01*
X0389013Y0373614D02*
X0467072Y0373614D01*
X0467072Y0374812D02*
X0447791Y0374812D01*
X0448989Y0376011D02*
X0467072Y0376011D01*
X0467072Y0377209D02*
X0450188Y0377209D01*
X0451386Y0378408D02*
X0467072Y0378408D01*
X0467072Y0379606D02*
X0452585Y0379606D01*
X0453783Y0380805D02*
X0456152Y0380805D01*
X0455658Y0382003D02*
X0454982Y0382003D01*
X0452570Y0384400D02*
X0443476Y0384400D01*
X0444675Y0385599D02*
X0455658Y0385599D01*
X0456283Y0386797D02*
X0445873Y0386797D01*
X0443462Y0389194D02*
X0424349Y0389194D01*
X0424911Y0387996D02*
X0442263Y0387996D01*
X0444660Y0390393D02*
X0417081Y0390393D01*
X0417081Y0391592D02*
X0445474Y0391592D01*
X0442499Y0395055D02*
X0428719Y0395055D01*
X0415924Y0407850D01*
X0419005Y0408371D02*
X0419610Y0408371D01*
X0419610Y0409569D02*
X0419005Y0409569D01*
X0418524Y0410768D02*
X0419943Y0410768D01*
X0419610Y0407172D02*
X0419006Y0407172D01*
X0422691Y0407998D02*
X0422691Y0406005D01*
X0430565Y0398131D01*
X0437578Y0398131D01*
X0441145Y0401698D01*
X0445698Y0401698D01*
X0439421Y0402378D02*
X0428721Y0402378D01*
X0427523Y0403577D02*
X0453348Y0403577D01*
X0453348Y0404775D02*
X0426324Y0404775D01*
X0425772Y0405974D02*
X0453348Y0405974D01*
X0453348Y0407172D02*
X0425772Y0407172D01*
X0425772Y0408371D02*
X0453348Y0408371D01*
X0453348Y0409569D02*
X0425772Y0409569D01*
X0425439Y0410768D02*
X0453348Y0410768D01*
X0455048Y0412528D02*
X0410267Y0457309D01*
X0370402Y0457309D01*
X0369910Y0456817D01*
X0176997Y0456817D01*
X0173916Y0456311D02*
X0150844Y0456311D01*
X0149646Y0455113D02*
X0173916Y0455113D01*
X0174381Y0453914D02*
X0148447Y0453914D01*
X0147249Y0452716D02*
X0363405Y0452716D01*
X0364604Y0453914D02*
X0179612Y0453914D01*
X0180078Y0455113D02*
X0365802Y0455113D01*
X0368213Y0452716D02*
X0412456Y0452716D01*
X0411257Y0453914D02*
X0369412Y0453914D01*
X0370610Y0455113D02*
X0410059Y0455113D01*
X0410267Y0457309D02*
X0410253Y0457323D01*
X0411272Y0458708D02*
X0467072Y0458708D01*
X0467072Y0457510D02*
X0412470Y0457510D01*
X0413669Y0456311D02*
X0467072Y0456311D01*
X0467072Y0455113D02*
X0414867Y0455113D01*
X0416066Y0453914D02*
X0467072Y0453914D01*
X0467072Y0452716D02*
X0417264Y0452716D01*
X0418463Y0451517D02*
X0467072Y0451517D01*
X0467072Y0450319D02*
X0419661Y0450319D01*
X0420860Y0449120D02*
X0467072Y0449120D01*
X0467072Y0447922D02*
X0422058Y0447922D01*
X0423257Y0446723D02*
X0467072Y0446723D01*
X0467072Y0445525D02*
X0424455Y0445525D01*
X0425654Y0444326D02*
X0467072Y0444326D01*
X0467072Y0443127D02*
X0426852Y0443127D01*
X0428051Y0441929D02*
X0467072Y0441929D01*
X0467072Y0440730D02*
X0429249Y0440730D01*
X0430448Y0439532D02*
X0467072Y0439532D01*
X0467072Y0438333D02*
X0431646Y0438333D01*
X0432845Y0437135D02*
X0467072Y0437135D01*
X0467072Y0435936D02*
X0434043Y0435936D01*
X0435242Y0434738D02*
X0467072Y0434738D01*
X0467072Y0433539D02*
X0436440Y0433539D01*
X0437639Y0432341D02*
X0467072Y0432341D01*
X0467072Y0431142D02*
X0438837Y0431142D01*
X0440036Y0429944D02*
X0467072Y0429944D01*
X0467072Y0428745D02*
X0441234Y0428745D01*
X0442433Y0427547D02*
X0467072Y0427547D01*
X0467072Y0426348D02*
X0443631Y0426348D01*
X0444830Y0425150D02*
X0467072Y0425150D01*
X0467072Y0423951D02*
X0446028Y0423951D01*
X0447227Y0422753D02*
X0467072Y0422753D01*
X0467072Y0421554D02*
X0448425Y0421554D01*
X0449624Y0420356D02*
X0467072Y0420356D01*
X0467072Y0419157D02*
X0450822Y0419157D01*
X0452021Y0417959D02*
X0467072Y0417959D01*
X0467072Y0416760D02*
X0453220Y0416760D01*
X0454418Y0415562D02*
X0467072Y0415562D01*
X0467072Y0414363D02*
X0455617Y0414363D01*
X0456748Y0413165D02*
X0467072Y0413165D01*
X0467072Y0411966D02*
X0456748Y0411966D01*
X0456748Y0410768D02*
X0467072Y0410768D01*
X0467072Y0409569D02*
X0456748Y0409569D01*
X0456748Y0408371D02*
X0467072Y0408371D01*
X0467072Y0407172D02*
X0456748Y0407172D01*
X0456748Y0405974D02*
X0467072Y0405974D01*
X0467072Y0404775D02*
X0456748Y0404775D01*
X0456748Y0403577D02*
X0467072Y0403577D01*
X0467072Y0402378D02*
X0456748Y0402378D01*
X0456748Y0401180D02*
X0467072Y0401180D01*
X0467072Y0399981D02*
X0456748Y0399981D01*
X0456748Y0398783D02*
X0467072Y0398783D01*
X0467072Y0397584D02*
X0456748Y0397584D01*
X0456748Y0396386D02*
X0467072Y0396386D01*
X0467072Y0395187D02*
X0456748Y0395187D01*
X0458129Y0393989D02*
X0467072Y0393989D01*
X0467072Y0392790D02*
X0458129Y0392790D01*
X0458129Y0391592D02*
X0467072Y0391592D01*
X0467072Y0390393D02*
X0458129Y0390393D01*
X0455048Y0392102D02*
X0455048Y0412528D01*
X0438222Y0401180D02*
X0429920Y0401180D01*
X0431118Y0399981D02*
X0437024Y0399981D01*
X0439418Y0392790D02*
X0415975Y0392790D01*
X0414777Y0393989D02*
X0427381Y0393989D01*
X0426183Y0395187D02*
X0360636Y0395187D01*
X0356684Y0399981D02*
X0322482Y0399981D01*
X0323136Y0398783D02*
X0355486Y0398783D01*
X0354287Y0397584D02*
X0323136Y0397584D01*
X0323136Y0396386D02*
X0353089Y0396386D01*
X0351890Y0395187D02*
X0323136Y0395187D01*
X0323136Y0393989D02*
X0350692Y0393989D01*
X0349493Y0392790D02*
X0323136Y0392790D01*
X0323136Y0391592D02*
X0348295Y0391592D01*
X0347096Y0390393D02*
X0323136Y0390393D01*
X0319736Y0393989D02*
X0319408Y0393989D01*
X0319736Y0395187D02*
X0291298Y0395187D01*
X0291298Y0393989D02*
X0314360Y0393989D01*
X0313803Y0392790D02*
X0290855Y0392790D01*
X0291298Y0396386D02*
X0319736Y0396386D01*
X0319736Y0397584D02*
X0291298Y0397584D01*
X0288217Y0395670D02*
X0274561Y0382013D01*
X0230639Y0382013D01*
X0217351Y0368726D01*
X0217351Y0375370D02*
X0226086Y0384105D01*
X0270378Y0384105D01*
X0281820Y0395547D01*
X0284901Y0395187D02*
X0285136Y0395187D01*
X0285136Y0396386D02*
X0284901Y0396386D01*
X0284901Y0397584D02*
X0285136Y0397584D01*
X0286546Y0399981D02*
X0276911Y0399981D01*
X0276896Y0398783D02*
X0318872Y0398783D01*
X0321283Y0401180D02*
X0357883Y0401180D01*
X0359081Y0402378D02*
X0320084Y0402378D01*
X0320944Y0407850D02*
X0369910Y0456817D01*
X0369398Y0458708D02*
X0180078Y0458708D01*
X0181317Y0459907D02*
X0153106Y0459907D01*
X0153106Y0461105D02*
X0180118Y0461105D01*
X0179535Y0462304D02*
X0153106Y0462304D01*
X0153106Y0463502D02*
X0179179Y0463502D01*
X0179179Y0464701D02*
X0153106Y0464701D01*
X0153106Y0465899D02*
X0179179Y0465899D01*
X0179179Y0467098D02*
X0153106Y0467098D01*
X0153106Y0468296D02*
X0179179Y0468296D01*
X0179179Y0469495D02*
X0153106Y0469495D01*
X0153106Y0470693D02*
X0179179Y0470693D01*
X0179179Y0471892D02*
X0153106Y0471892D01*
X0153106Y0473090D02*
X0179179Y0473090D01*
X0179179Y0474289D02*
X0153106Y0474289D01*
X0153106Y0475487D02*
X0179179Y0475487D01*
X0179179Y0476686D02*
X0153106Y0476686D01*
X0153106Y0477884D02*
X0179179Y0477884D01*
X0179179Y0479083D02*
X0153106Y0479083D01*
X0153106Y0480281D02*
X0179179Y0480281D01*
X0179179Y0481480D02*
X0161558Y0481480D01*
X0160813Y0480735D02*
X0162980Y0482902D01*
X0162980Y0485967D01*
X0160813Y0488135D01*
X0157748Y0488135D01*
X0155580Y0485967D01*
X0155580Y0482902D01*
X0157748Y0480735D01*
X0160813Y0480735D01*
X0162757Y0482678D02*
X0179179Y0482678D01*
X0179179Y0483877D02*
X0162980Y0483877D01*
X0162980Y0485075D02*
X0179179Y0485075D01*
X0179179Y0486274D02*
X0162674Y0486274D01*
X0161475Y0487472D02*
X0179179Y0487472D01*
X0179179Y0488671D02*
X0153677Y0488671D01*
X0153106Y0487472D02*
X0157086Y0487472D01*
X0155887Y0486274D02*
X0153106Y0486274D01*
X0153106Y0485075D02*
X0155580Y0485075D01*
X0155580Y0483877D02*
X0153106Y0483877D01*
X0153106Y0482678D02*
X0155804Y0482678D01*
X0157003Y0481480D02*
X0153106Y0481480D01*
X0149706Y0481480D02*
X0098390Y0481480D01*
X0100255Y0482678D02*
X0149706Y0482678D01*
X0149706Y0483877D02*
X0102120Y0483877D01*
X0103984Y0485075D02*
X0149706Y0485075D01*
X0149706Y0486274D02*
X0105849Y0486274D01*
X0107714Y0487472D02*
X0149706Y0487472D01*
X0149706Y0488671D02*
X0109910Y0488671D01*
X0112235Y0489869D02*
X0150067Y0489869D01*
X0150702Y0490505D02*
X0150702Y0490505D01*
X0151265Y0491068D02*
X0114559Y0491068D01*
X0116884Y0492266D02*
X0152464Y0492266D01*
X0153662Y0493465D02*
X0119209Y0493465D01*
X0121653Y0494663D02*
X0154861Y0494663D01*
X0155336Y0495139D02*
X0155336Y0495139D01*
X0155580Y0495862D02*
X0124647Y0495862D01*
X0127641Y0497061D02*
X0156674Y0497061D01*
X0157036Y0494435D02*
X0151406Y0488805D01*
X0151406Y0459277D01*
X0136643Y0444513D01*
X0136643Y0418923D01*
X0075373Y0357653D01*
X0078454Y0358033D02*
X0132158Y0358033D01*
X0133356Y0359232D02*
X0079356Y0359232D01*
X0080554Y0360430D02*
X0134555Y0360430D01*
X0135753Y0361629D02*
X0081753Y0361629D01*
X0082951Y0362827D02*
X0136952Y0362827D01*
X0138150Y0364026D02*
X0084150Y0364026D01*
X0085348Y0365224D02*
X0139349Y0365224D01*
X0140547Y0366423D02*
X0086547Y0366423D01*
X0087745Y0367621D02*
X0141746Y0367621D01*
X0142944Y0368820D02*
X0088944Y0368820D01*
X0090142Y0370018D02*
X0144143Y0370018D01*
X0145341Y0371217D02*
X0091341Y0371217D01*
X0092539Y0372415D02*
X0146540Y0372415D01*
X0147738Y0373614D02*
X0093738Y0373614D01*
X0094936Y0374812D02*
X0148937Y0374812D01*
X0150135Y0376011D02*
X0096135Y0376011D01*
X0097333Y0377209D02*
X0151334Y0377209D01*
X0152532Y0378408D02*
X0098532Y0378408D01*
X0099730Y0379606D02*
X0153731Y0379606D01*
X0154930Y0380805D02*
X0100929Y0380805D01*
X0102127Y0382003D02*
X0156128Y0382003D01*
X0157327Y0383202D02*
X0103326Y0383202D01*
X0104524Y0384400D02*
X0158525Y0384400D01*
X0159724Y0385599D02*
X0105723Y0385599D01*
X0106921Y0386797D02*
X0160922Y0386797D01*
X0162121Y0387996D02*
X0108120Y0387996D01*
X0109318Y0389194D02*
X0163319Y0389194D01*
X0164518Y0390393D02*
X0110517Y0390393D01*
X0111715Y0391592D02*
X0165304Y0391592D01*
X0165304Y0392790D02*
X0112914Y0392790D01*
X0114112Y0393989D02*
X0165304Y0393989D01*
X0168385Y0391856D02*
X0131229Y0354700D01*
X0131229Y0345596D01*
X0130983Y0345350D01*
X0130983Y0328003D01*
X0145870Y0313116D01*
X0142789Y0313688D02*
X0108085Y0313688D01*
X0106887Y0314887D02*
X0141695Y0314887D01*
X0140496Y0316085D02*
X0105688Y0316085D01*
X0104490Y0317284D02*
X0139298Y0317284D01*
X0138099Y0318482D02*
X0103291Y0318482D01*
X0102093Y0319681D02*
X0136901Y0319681D01*
X0135702Y0320879D02*
X0100894Y0320879D01*
X0099696Y0322078D02*
X0134504Y0322078D01*
X0133305Y0323276D02*
X0098497Y0323276D01*
X0097299Y0324475D02*
X0132107Y0324475D01*
X0130908Y0325673D02*
X0096100Y0325673D01*
X0094902Y0326872D02*
X0129710Y0326872D01*
X0129283Y0328070D02*
X0093703Y0328070D01*
X0092505Y0329269D02*
X0129283Y0329269D01*
X0129283Y0330467D02*
X0091306Y0330467D01*
X0090108Y0331666D02*
X0129283Y0331666D01*
X0129283Y0332864D02*
X0088909Y0332864D01*
X0087711Y0334063D02*
X0129283Y0334063D01*
X0129283Y0335261D02*
X0086512Y0335261D01*
X0085314Y0336460D02*
X0129283Y0336460D01*
X0129283Y0337659D02*
X0084115Y0337659D01*
X0082917Y0338857D02*
X0129283Y0338857D01*
X0129283Y0340056D02*
X0081718Y0340056D01*
X0080520Y0341254D02*
X0129283Y0341254D01*
X0129283Y0342453D02*
X0079321Y0342453D01*
X0078123Y0343651D02*
X0129283Y0343651D01*
X0129283Y0344850D02*
X0076924Y0344850D01*
X0075726Y0346048D02*
X0129283Y0346048D01*
X0129529Y0347247D02*
X0074527Y0347247D01*
X0073329Y0348445D02*
X0129529Y0348445D01*
X0129529Y0349644D02*
X0072130Y0349644D01*
X0071290Y0350842D02*
X0129529Y0350842D01*
X0129529Y0352041D02*
X0071290Y0352041D01*
X0071290Y0353239D02*
X0129529Y0353239D01*
X0129529Y0354438D02*
X0071290Y0354438D01*
X0071290Y0355636D02*
X0072292Y0355636D01*
X0072292Y0356835D02*
X0071290Y0356835D01*
X0071290Y0358033D02*
X0072292Y0358033D01*
X0072292Y0359232D02*
X0071290Y0359232D01*
X0071290Y0360430D02*
X0072632Y0360430D01*
X0071290Y0361629D02*
X0076944Y0361629D01*
X0078143Y0362827D02*
X0071814Y0362827D01*
X0072990Y0364026D02*
X0079341Y0364026D01*
X0080540Y0365224D02*
X0074167Y0365224D01*
X0075343Y0366423D02*
X0081738Y0366423D01*
X0082937Y0367621D02*
X0076520Y0367621D01*
X0077696Y0368820D02*
X0084135Y0368820D01*
X0085334Y0370018D02*
X0078873Y0370018D01*
X0080049Y0371217D02*
X0086532Y0371217D01*
X0087731Y0372415D02*
X0081226Y0372415D01*
X0082402Y0373614D02*
X0088929Y0373614D01*
X0090128Y0374812D02*
X0083579Y0374812D01*
X0084755Y0376011D02*
X0091326Y0376011D01*
X0092525Y0377209D02*
X0085932Y0377209D01*
X0087108Y0378408D02*
X0093723Y0378408D01*
X0094922Y0379606D02*
X0088285Y0379606D01*
X0089461Y0380805D02*
X0096120Y0380805D01*
X0097319Y0382003D02*
X0090638Y0382003D01*
X0091815Y0383202D02*
X0098517Y0383202D01*
X0099716Y0384400D02*
X0092991Y0384400D01*
X0094168Y0385599D02*
X0100914Y0385599D01*
X0102113Y0386797D02*
X0095344Y0386797D01*
X0096521Y0387996D02*
X0103312Y0387996D01*
X0104510Y0389194D02*
X0097697Y0389194D01*
X0098874Y0390393D02*
X0105709Y0390393D01*
X0106907Y0391592D02*
X0100050Y0391592D01*
X0101227Y0392790D02*
X0108106Y0392790D01*
X0109304Y0393989D02*
X0102403Y0393989D01*
X0103580Y0395187D02*
X0110503Y0395187D01*
X0111701Y0396386D02*
X0104756Y0396386D01*
X0105933Y0397584D02*
X0112900Y0397584D01*
X0114098Y0398783D02*
X0107109Y0398783D01*
X0108286Y0399981D02*
X0115297Y0399981D01*
X0116495Y0401180D02*
X0109462Y0401180D01*
X0110639Y0402378D02*
X0117694Y0402378D01*
X0118892Y0403577D02*
X0111815Y0403577D01*
X0112992Y0404775D02*
X0120091Y0404775D01*
X0121289Y0405974D02*
X0114168Y0405974D01*
X0115345Y0407172D02*
X0122488Y0407172D01*
X0123686Y0408371D02*
X0116522Y0408371D01*
X0117698Y0409569D02*
X0124885Y0409569D01*
X0126083Y0410768D02*
X0118875Y0410768D01*
X0120051Y0411966D02*
X0127282Y0411966D01*
X0128480Y0413165D02*
X0121228Y0413165D01*
X0125334Y0414363D02*
X0129679Y0414363D01*
X0130877Y0415562D02*
X0125334Y0415562D01*
X0125334Y0416760D02*
X0132076Y0416760D01*
X0133274Y0417959D02*
X0125334Y0417959D01*
X0125249Y0419157D02*
X0134473Y0419157D01*
X0134943Y0420356D02*
X0078559Y0420356D01*
X0077360Y0421554D02*
X0134943Y0421554D01*
X0134943Y0422753D02*
X0076162Y0422753D01*
X0074963Y0423951D02*
X0134943Y0423951D01*
X0134943Y0425150D02*
X0073765Y0425150D01*
X0072566Y0426348D02*
X0134943Y0426348D01*
X0134943Y0427547D02*
X0072375Y0427547D01*
X0073574Y0428745D02*
X0134943Y0428745D01*
X0134943Y0429944D02*
X0074772Y0429944D01*
X0075971Y0431142D02*
X0134943Y0431142D01*
X0134943Y0432341D02*
X0077169Y0432341D01*
X0078368Y0433539D02*
X0134943Y0433539D01*
X0134943Y0434738D02*
X0079566Y0434738D01*
X0080765Y0435936D02*
X0134943Y0435936D01*
X0134943Y0437135D02*
X0081963Y0437135D01*
X0083162Y0438333D02*
X0134943Y0438333D01*
X0134943Y0439532D02*
X0084361Y0439532D01*
X0085559Y0440730D02*
X0134943Y0440730D01*
X0134943Y0441929D02*
X0086758Y0441929D01*
X0087956Y0443127D02*
X0134943Y0443127D01*
X0134943Y0444326D02*
X0089155Y0444326D01*
X0090353Y0445525D02*
X0135249Y0445525D01*
X0136448Y0446723D02*
X0091552Y0446723D01*
X0092750Y0447922D02*
X0137647Y0447922D01*
X0138845Y0449120D02*
X0093949Y0449120D01*
X0095147Y0450319D02*
X0140044Y0450319D01*
X0141242Y0451517D02*
X0096346Y0451517D01*
X0097544Y0452716D02*
X0142441Y0452716D01*
X0143639Y0453914D02*
X0098743Y0453914D01*
X0088817Y0474289D02*
X0149706Y0474289D01*
X0149706Y0475487D02*
X0090341Y0475487D01*
X0091865Y0476686D02*
X0149706Y0476686D01*
X0149706Y0477884D02*
X0093389Y0477884D01*
X0094914Y0479083D02*
X0149706Y0479083D01*
X0149706Y0480281D02*
X0096525Y0480281D01*
X0130634Y0498259D02*
X0179179Y0498259D01*
X0179179Y0497061D02*
X0161887Y0497061D01*
X0162980Y0495862D02*
X0179179Y0495862D01*
X0179179Y0494663D02*
X0162980Y0494663D01*
X0162980Y0493465D02*
X0179179Y0493465D01*
X0179179Y0492266D02*
X0162345Y0492266D01*
X0161146Y0491068D02*
X0179179Y0491068D01*
X0179179Y0489869D02*
X0154875Y0489869D01*
X0156074Y0491068D02*
X0157414Y0491068D01*
X0157036Y0494435D02*
X0159280Y0494435D01*
X0156424Y0505450D02*
X0179179Y0505450D01*
X0179179Y0504252D02*
X0150206Y0504252D01*
X0145530Y0503053D02*
X0179179Y0503053D01*
X0179179Y0501855D02*
X0141448Y0501855D01*
X0137366Y0500656D02*
X0179179Y0500656D01*
X0179179Y0499458D02*
X0133628Y0499458D01*
X0162643Y0506649D02*
X0179179Y0506649D01*
X0179179Y0507847D02*
X0175128Y0507847D01*
X0173916Y0458708D02*
X0153106Y0458708D01*
X0152043Y0457510D02*
X0173916Y0457510D01*
X0189296Y0446425D02*
X0188672Y0444918D01*
X0188672Y0443287D01*
X0189296Y0441780D01*
X0190449Y0440627D01*
X0191956Y0440002D01*
X0199587Y0440002D01*
X0201094Y0440627D01*
X0202247Y0441780D01*
X0202872Y0443287D01*
X0202872Y0444918D01*
X0202247Y0446425D01*
X0201094Y0447578D01*
X0199587Y0448202D01*
X0191956Y0448202D01*
X0190449Y0447578D01*
X0189296Y0446425D01*
X0189594Y0446723D02*
X0141256Y0446723D01*
X0140058Y0445525D02*
X0188923Y0445525D01*
X0188672Y0444326D02*
X0138859Y0444326D01*
X0138343Y0443127D02*
X0188738Y0443127D01*
X0189234Y0441929D02*
X0138343Y0441929D01*
X0138343Y0440730D02*
X0190345Y0440730D01*
X0191278Y0447922D02*
X0142455Y0447922D01*
X0143653Y0449120D02*
X0359810Y0449120D01*
X0361008Y0450319D02*
X0144852Y0450319D01*
X0146050Y0451517D02*
X0362207Y0451517D01*
X0364618Y0449120D02*
X0416051Y0449120D01*
X0414853Y0450319D02*
X0365816Y0450319D01*
X0367015Y0451517D02*
X0413654Y0451517D01*
X0417250Y0447922D02*
X0363419Y0447922D01*
X0362221Y0446723D02*
X0418448Y0446723D01*
X0419647Y0445525D02*
X0361022Y0445525D01*
X0359824Y0444326D02*
X0420845Y0444326D01*
X0422044Y0443127D02*
X0358625Y0443127D01*
X0357427Y0441929D02*
X0423242Y0441929D01*
X0424441Y0440730D02*
X0356228Y0440730D01*
X0355030Y0439532D02*
X0425639Y0439532D01*
X0426838Y0438333D02*
X0368221Y0438333D01*
X0366765Y0438936D02*
X0363213Y0438936D01*
X0359930Y0437577D01*
X0357418Y0435064D01*
X0356058Y0431782D01*
X0356058Y0428229D01*
X0357418Y0424947D01*
X0359930Y0422434D01*
X0363213Y0421075D01*
X0366765Y0421075D01*
X0370048Y0422434D01*
X0372560Y0424947D01*
X0373920Y0428229D01*
X0373920Y0431782D01*
X0372560Y0435064D01*
X0370048Y0437577D01*
X0366765Y0438936D01*
X0370489Y0437135D02*
X0428037Y0437135D01*
X0429235Y0435936D02*
X0371688Y0435936D01*
X0372695Y0434738D02*
X0430434Y0434738D01*
X0431632Y0433539D02*
X0373192Y0433539D01*
X0373688Y0432341D02*
X0412997Y0432341D01*
X0412720Y0431142D02*
X0373920Y0431142D01*
X0373920Y0429944D02*
X0412720Y0429944D01*
X0412516Y0428745D02*
X0373920Y0428745D01*
X0373637Y0427547D02*
X0411317Y0427547D01*
X0410119Y0426348D02*
X0373141Y0426348D01*
X0372644Y0425150D02*
X0408920Y0425150D01*
X0407722Y0423951D02*
X0371565Y0423951D01*
X0370366Y0422753D02*
X0406523Y0422753D01*
X0405325Y0421554D02*
X0367923Y0421554D01*
X0362055Y0421554D02*
X0337052Y0421554D01*
X0335854Y0420356D02*
X0404126Y0420356D01*
X0402928Y0419157D02*
X0334655Y0419157D01*
X0333457Y0417959D02*
X0401729Y0417959D01*
X0400530Y0416760D02*
X0332258Y0416760D01*
X0331060Y0415562D02*
X0399332Y0415562D01*
X0398133Y0414363D02*
X0329861Y0414363D01*
X0329847Y0419157D02*
X0284901Y0419157D01*
X0284901Y0420356D02*
X0331045Y0420356D01*
X0332244Y0421554D02*
X0277193Y0421554D01*
X0277177Y0420356D02*
X0278739Y0420356D01*
X0278739Y0419157D02*
X0277161Y0419157D01*
X0277146Y0417959D02*
X0278739Y0417959D01*
X0278739Y0416760D02*
X0277130Y0416760D01*
X0277114Y0415562D02*
X0278739Y0415562D01*
X0277099Y0414363D02*
X0283648Y0414363D01*
X0284549Y0413165D02*
X0277083Y0413165D01*
X0277068Y0411966D02*
X0284549Y0411966D01*
X0284549Y0410768D02*
X0277052Y0410768D01*
X0277036Y0409569D02*
X0284549Y0409569D01*
X0284549Y0408371D02*
X0277021Y0408371D01*
X0277005Y0407172D02*
X0284549Y0407172D01*
X0284549Y0405974D02*
X0276990Y0405974D01*
X0276974Y0404775D02*
X0284549Y0404775D01*
X0284549Y0403577D02*
X0276958Y0403577D01*
X0276943Y0402378D02*
X0284549Y0402378D01*
X0285348Y0401180D02*
X0276927Y0401180D01*
X0273527Y0401180D02*
X0220628Y0401180D01*
X0220924Y0402378D02*
X0273542Y0402378D01*
X0273558Y0403577D02*
X0220924Y0403577D01*
X0220924Y0404775D02*
X0273574Y0404775D01*
X0273589Y0405974D02*
X0220924Y0405974D01*
X0217843Y0403913D02*
X0180442Y0403913D01*
X0168385Y0391856D01*
X0171466Y0391592D02*
X0267174Y0391592D01*
X0267174Y0392790D02*
X0171723Y0392790D01*
X0172921Y0393989D02*
X0267174Y0393989D01*
X0267174Y0394785D02*
X0267174Y0389911D01*
X0267818Y0389267D01*
X0272691Y0389267D01*
X0273336Y0389911D01*
X0273336Y0393025D01*
X0276370Y0396059D01*
X0276867Y0396543D01*
X0276867Y0396556D01*
X0276876Y0396565D01*
X0276876Y0397258D01*
X0277328Y0431959D01*
X0278105Y0431959D01*
X0278749Y0432603D01*
X0278749Y0437477D01*
X0278105Y0438121D01*
X0273231Y0438121D01*
X0272587Y0437477D01*
X0272587Y0432603D01*
X0273231Y0431959D01*
X0273928Y0431959D01*
X0273485Y0397983D01*
X0270932Y0395429D01*
X0267818Y0395429D01*
X0267174Y0394785D01*
X0267576Y0395187D02*
X0174120Y0395187D01*
X0175318Y0396386D02*
X0271888Y0396386D01*
X0273087Y0397584D02*
X0176517Y0397584D01*
X0177715Y0398783D02*
X0273496Y0398783D01*
X0273511Y0399981D02*
X0178914Y0399981D01*
X0180112Y0401180D02*
X0215059Y0401180D01*
X0214762Y0405974D02*
X0126097Y0405974D01*
X0124899Y0404775D02*
X0178900Y0404775D01*
X0177701Y0403577D02*
X0123700Y0403577D01*
X0122502Y0402378D02*
X0176503Y0402378D01*
X0175304Y0401180D02*
X0121303Y0401180D01*
X0120105Y0399981D02*
X0174106Y0399981D01*
X0172907Y0398783D02*
X0118906Y0398783D01*
X0117708Y0397584D02*
X0171709Y0397584D01*
X0170510Y0396386D02*
X0116509Y0396386D01*
X0115311Y0395187D02*
X0169312Y0395187D01*
X0171466Y0390393D02*
X0267174Y0390393D01*
X0270255Y0392348D02*
X0275176Y0397269D01*
X0275668Y0435040D01*
X0272587Y0434738D02*
X0180920Y0434738D01*
X0180920Y0435936D02*
X0272587Y0435936D01*
X0272587Y0437135D02*
X0180548Y0437135D01*
X0180920Y0436763D02*
X0178518Y0439165D01*
X0175121Y0439165D01*
X0172720Y0436763D01*
X0172720Y0433366D01*
X0175121Y0430965D01*
X0178518Y0430965D01*
X0180920Y0433366D01*
X0180920Y0436763D01*
X0179349Y0438333D02*
X0290805Y0438333D01*
X0291032Y0438561D02*
X0288520Y0436049D01*
X0287161Y0432766D01*
X0287161Y0429213D01*
X0288520Y0425931D01*
X0291032Y0423419D01*
X0294315Y0422059D01*
X0297868Y0422059D01*
X0301150Y0423419D01*
X0303662Y0425931D01*
X0305022Y0429213D01*
X0305022Y0432766D01*
X0303662Y0436049D01*
X0301150Y0438561D01*
X0297868Y0439920D01*
X0294315Y0439920D01*
X0291032Y0438561D01*
X0289607Y0437135D02*
X0278749Y0437135D01*
X0278749Y0435936D02*
X0288474Y0435936D01*
X0287977Y0434738D02*
X0278749Y0434738D01*
X0278749Y0433539D02*
X0287481Y0433539D01*
X0287161Y0432341D02*
X0278487Y0432341D01*
X0277317Y0431142D02*
X0287161Y0431142D01*
X0287161Y0429944D02*
X0277302Y0429944D01*
X0277286Y0428745D02*
X0287354Y0428745D01*
X0287851Y0427547D02*
X0277271Y0427547D01*
X0277255Y0426348D02*
X0288347Y0426348D01*
X0289301Y0425150D02*
X0277239Y0425150D01*
X0277224Y0423951D02*
X0290500Y0423951D01*
X0292640Y0422753D02*
X0277208Y0422753D01*
X0273808Y0422753D02*
X0271575Y0422753D01*
X0271753Y0422827D02*
X0272907Y0423980D01*
X0273531Y0425487D01*
X0273531Y0427118D01*
X0272907Y0428625D01*
X0271753Y0429778D01*
X0270246Y0430402D01*
X0262615Y0430402D01*
X0261108Y0429778D01*
X0259955Y0428625D01*
X0259331Y0427118D01*
X0259331Y0425487D01*
X0259955Y0423980D01*
X0261108Y0422827D01*
X0262615Y0422202D01*
X0270246Y0422202D01*
X0271753Y0422827D01*
X0272878Y0423951D02*
X0273823Y0423951D01*
X0273839Y0425150D02*
X0273391Y0425150D01*
X0273531Y0426348D02*
X0273855Y0426348D01*
X0273870Y0427547D02*
X0273353Y0427547D01*
X0273886Y0428745D02*
X0272786Y0428745D01*
X0273902Y0429944D02*
X0271353Y0429944D01*
X0272849Y0432341D02*
X0179894Y0432341D01*
X0180920Y0433539D02*
X0272587Y0433539D01*
X0273917Y0431142D02*
X0178696Y0431142D01*
X0178518Y0429165D02*
X0175121Y0429165D01*
X0172720Y0426763D01*
X0172720Y0423366D01*
X0175121Y0420965D01*
X0178516Y0420965D01*
X0180277Y0419203D01*
X0180334Y0419146D01*
X0171795Y0419146D01*
X0169248Y0421694D01*
X0170920Y0423366D01*
X0170920Y0426763D01*
X0168518Y0429165D01*
X0165121Y0429165D01*
X0162720Y0426763D01*
X0162720Y0423366D01*
X0165121Y0420965D01*
X0165169Y0420965D01*
X0169391Y0416742D01*
X0170387Y0415746D01*
X0195569Y0415746D01*
X0195569Y0413041D01*
X0196214Y0412397D01*
X0201087Y0412397D01*
X0201731Y0413041D01*
X0201731Y0417867D01*
X0202856Y0416742D01*
X0202856Y0413146D01*
X0202119Y0413146D01*
X0201475Y0412501D01*
X0201475Y0407628D01*
X0202119Y0406983D01*
X0206993Y0406983D01*
X0207637Y0407628D01*
X0207637Y0412501D01*
X0206993Y0413146D01*
X0206256Y0413146D01*
X0206256Y0418151D01*
X0205260Y0419146D01*
X0202799Y0421607D01*
X0182681Y0421607D01*
X0180920Y0423369D01*
X0180920Y0426763D01*
X0178518Y0429165D01*
X0178937Y0428745D02*
X0188861Y0428745D01*
X0188837Y0428713D02*
X0188509Y0428068D01*
X0188285Y0427380D01*
X0188178Y0426702D01*
X0195372Y0426702D01*
X0195372Y0425902D01*
X0196172Y0425902D01*
X0196172Y0426702D01*
X0203366Y0426702D01*
X0203258Y0427380D01*
X0203035Y0428068D01*
X0202706Y0428713D01*
X0202280Y0429299D01*
X0201768Y0429811D01*
X0201183Y0430237D01*
X0200537Y0430565D01*
X0199849Y0430789D01*
X0199134Y0430902D01*
X0196172Y0430902D01*
X0196172Y0426702D01*
X0195372Y0426702D01*
X0195372Y0430902D01*
X0192410Y0430902D01*
X0191694Y0430789D01*
X0191006Y0430565D01*
X0190361Y0430237D01*
X0189775Y0429811D01*
X0189263Y0429299D01*
X0188837Y0428713D01*
X0188339Y0427547D02*
X0180136Y0427547D01*
X0180920Y0426348D02*
X0195372Y0426348D01*
X0195372Y0425902D02*
X0188178Y0425902D01*
X0188285Y0425225D01*
X0188509Y0424537D01*
X0188837Y0423891D01*
X0189263Y0423306D01*
X0189775Y0422794D01*
X0190361Y0422368D01*
X0191006Y0422039D01*
X0191694Y0421816D01*
X0192410Y0421702D01*
X0195372Y0421702D01*
X0195372Y0425902D01*
X0195372Y0425150D02*
X0196172Y0425150D01*
X0196172Y0425902D02*
X0196172Y0421702D01*
X0199134Y0421702D01*
X0199849Y0421816D01*
X0200537Y0422039D01*
X0201183Y0422368D01*
X0201768Y0422794D01*
X0202280Y0423306D01*
X0202706Y0423891D01*
X0203035Y0424537D01*
X0203258Y0425225D01*
X0203366Y0425902D01*
X0196172Y0425902D01*
X0196172Y0426348D02*
X0214272Y0426348D01*
X0214272Y0427118D02*
X0214272Y0425487D01*
X0214896Y0423980D01*
X0216049Y0422827D01*
X0217556Y0422202D01*
X0225187Y0422202D01*
X0226694Y0422827D01*
X0227847Y0423980D01*
X0228472Y0425487D01*
X0228472Y0427118D01*
X0227847Y0428625D01*
X0226694Y0429778D01*
X0225187Y0430402D01*
X0217556Y0430402D01*
X0216049Y0429778D01*
X0214896Y0428625D01*
X0214272Y0427118D01*
X0214449Y0427547D02*
X0203204Y0427547D01*
X0202683Y0428745D02*
X0215016Y0428745D01*
X0216449Y0429944D02*
X0201586Y0429944D01*
X0203234Y0425150D02*
X0214411Y0425150D01*
X0214924Y0423951D02*
X0202736Y0423951D01*
X0201712Y0422753D02*
X0216227Y0422753D01*
X0226516Y0422753D02*
X0234890Y0422753D01*
X0234834Y0422794D02*
X0235420Y0422368D01*
X0236065Y0422039D01*
X0236754Y0421816D01*
X0237469Y0421702D01*
X0240431Y0421702D01*
X0240431Y0425902D01*
X0241231Y0425902D01*
X0241231Y0421702D01*
X0244193Y0421702D01*
X0244908Y0421816D01*
X0245596Y0422039D01*
X0246242Y0422368D01*
X0246827Y0422794D01*
X0247339Y0423306D01*
X0247765Y0423891D01*
X0248094Y0424537D01*
X0248317Y0425225D01*
X0248425Y0425902D01*
X0241231Y0425902D01*
X0241231Y0426702D01*
X0248425Y0426702D01*
X0248317Y0427380D01*
X0248094Y0428068D01*
X0247765Y0428713D01*
X0247339Y0429299D01*
X0246827Y0429811D01*
X0246242Y0430237D01*
X0245596Y0430565D01*
X0244908Y0430789D01*
X0244193Y0430902D01*
X0241231Y0430902D01*
X0241231Y0426702D01*
X0240431Y0426702D01*
X0240431Y0425902D01*
X0233237Y0425902D01*
X0233344Y0425225D01*
X0233568Y0424537D01*
X0233896Y0423891D01*
X0234322Y0423306D01*
X0234834Y0422794D01*
X0233866Y0423951D02*
X0227819Y0423951D01*
X0228332Y0425150D02*
X0233368Y0425150D01*
X0233237Y0426702D02*
X0240431Y0426702D01*
X0240431Y0430902D01*
X0237469Y0430902D01*
X0236754Y0430789D01*
X0236065Y0430565D01*
X0235420Y0430237D01*
X0234834Y0429811D01*
X0234322Y0429299D01*
X0233896Y0428713D01*
X0233568Y0428068D01*
X0233344Y0427380D01*
X0233237Y0426702D01*
X0233398Y0427547D02*
X0228294Y0427547D01*
X0228472Y0426348D02*
X0240431Y0426348D01*
X0240831Y0426302D02*
X0230639Y0436494D01*
X0230639Y0452387D01*
X0226694Y0447578D02*
X0225187Y0448202D01*
X0217556Y0448202D01*
X0216049Y0447578D01*
X0214896Y0446425D01*
X0214272Y0444918D01*
X0214272Y0443287D01*
X0214896Y0441780D01*
X0216049Y0440627D01*
X0217556Y0440002D01*
X0225187Y0440002D01*
X0226694Y0440627D01*
X0227847Y0441780D01*
X0228472Y0443287D01*
X0228472Y0444918D01*
X0227847Y0446425D01*
X0226694Y0447578D01*
X0225865Y0447922D02*
X0236337Y0447922D01*
X0237015Y0448202D02*
X0235508Y0447578D01*
X0234355Y0446425D01*
X0233731Y0444918D01*
X0233731Y0443287D01*
X0234355Y0441780D01*
X0235508Y0440627D01*
X0237015Y0440002D01*
X0244646Y0440002D01*
X0246153Y0440627D01*
X0247307Y0441780D01*
X0247931Y0443287D01*
X0247931Y0444918D01*
X0247307Y0446425D01*
X0246153Y0447578D01*
X0244646Y0448202D01*
X0237015Y0448202D01*
X0234653Y0446723D02*
X0227549Y0446723D01*
X0228220Y0445525D02*
X0233982Y0445525D01*
X0233731Y0444326D02*
X0228472Y0444326D01*
X0228406Y0443127D02*
X0233797Y0443127D01*
X0234293Y0441929D02*
X0227909Y0441929D01*
X0226798Y0440730D02*
X0235404Y0440730D01*
X0235017Y0429944D02*
X0226294Y0429944D01*
X0227727Y0428745D02*
X0233920Y0428745D01*
X0240431Y0428745D02*
X0241231Y0428745D01*
X0241231Y0427547D02*
X0240431Y0427547D01*
X0241231Y0426348D02*
X0259331Y0426348D01*
X0259470Y0425150D02*
X0248293Y0425150D01*
X0247795Y0423951D02*
X0259983Y0423951D01*
X0261286Y0422753D02*
X0246771Y0422753D01*
X0248263Y0427547D02*
X0259508Y0427547D01*
X0260075Y0428745D02*
X0247742Y0428745D01*
X0246645Y0429944D02*
X0261508Y0429944D01*
X0262615Y0440002D02*
X0270246Y0440002D01*
X0271753Y0440627D01*
X0272907Y0441780D01*
X0273531Y0443287D01*
X0273531Y0444918D01*
X0272907Y0446425D01*
X0271753Y0447578D01*
X0270246Y0448202D01*
X0262615Y0448202D01*
X0261108Y0447578D01*
X0259955Y0446425D01*
X0259331Y0444918D01*
X0259331Y0443287D01*
X0259955Y0441780D01*
X0261108Y0440627D01*
X0262615Y0440002D01*
X0261004Y0440730D02*
X0246257Y0440730D01*
X0247368Y0441929D02*
X0259893Y0441929D01*
X0259397Y0443127D02*
X0247865Y0443127D01*
X0247931Y0444326D02*
X0259331Y0444326D01*
X0259582Y0445525D02*
X0247679Y0445525D01*
X0247008Y0446723D02*
X0260253Y0446723D01*
X0261937Y0447922D02*
X0245324Y0447922D01*
X0241231Y0429944D02*
X0240431Y0429944D01*
X0240431Y0425150D02*
X0241231Y0425150D01*
X0241231Y0423951D02*
X0240431Y0423951D01*
X0240431Y0422753D02*
X0241231Y0422753D01*
X0215945Y0440730D02*
X0201198Y0440730D01*
X0202309Y0441929D02*
X0214834Y0441929D01*
X0214338Y0443127D02*
X0202806Y0443127D01*
X0202872Y0444326D02*
X0214272Y0444326D01*
X0214523Y0445525D02*
X0202620Y0445525D01*
X0201949Y0446723D02*
X0215194Y0446723D01*
X0216878Y0447922D02*
X0200265Y0447922D01*
X0196172Y0429944D02*
X0195372Y0429944D01*
X0195372Y0428745D02*
X0196172Y0428745D01*
X0196172Y0427547D02*
X0195372Y0427547D01*
X0195372Y0423951D02*
X0196172Y0423951D01*
X0196172Y0422753D02*
X0195372Y0422753D01*
X0196682Y0417446D02*
X0198650Y0415478D01*
X0196682Y0417446D02*
X0171091Y0417446D01*
X0166820Y0421718D01*
X0166820Y0425065D01*
X0170920Y0425150D02*
X0172720Y0425150D01*
X0172720Y0426348D02*
X0170920Y0426348D01*
X0170136Y0427547D02*
X0173504Y0427547D01*
X0174702Y0428745D02*
X0168937Y0428745D01*
X0168518Y0430965D02*
X0170920Y0433366D01*
X0170920Y0436763D01*
X0168518Y0439165D01*
X0165121Y0439165D01*
X0162720Y0436763D01*
X0162720Y0433366D01*
X0165121Y0430965D01*
X0168518Y0430965D01*
X0168696Y0431142D02*
X0174944Y0431142D01*
X0173745Y0432341D02*
X0169894Y0432341D01*
X0170920Y0433539D02*
X0172720Y0433539D01*
X0172720Y0434738D02*
X0170920Y0434738D01*
X0170920Y0435936D02*
X0172720Y0435936D01*
X0173092Y0437135D02*
X0170548Y0437135D01*
X0169349Y0438333D02*
X0174290Y0438333D01*
X0164290Y0438333D02*
X0160056Y0438333D01*
X0161255Y0437135D02*
X0163092Y0437135D01*
X0162720Y0435936D02*
X0161420Y0435936D01*
X0161420Y0435465D02*
X0161420Y0436970D01*
X0158725Y0439665D01*
X0157220Y0439665D01*
X0157220Y0435465D01*
X0156420Y0435465D01*
X0156420Y0439665D01*
X0154914Y0439665D01*
X0152220Y0436970D01*
X0152220Y0435465D01*
X0156420Y0435465D01*
X0156420Y0434665D01*
X0152220Y0434665D01*
X0152220Y0433159D01*
X0154914Y0430465D01*
X0156420Y0430465D01*
X0156420Y0434664D01*
X0157220Y0434664D01*
X0157220Y0430465D01*
X0158725Y0430465D01*
X0161420Y0433159D01*
X0161420Y0434665D01*
X0157220Y0434665D01*
X0157220Y0435465D01*
X0161420Y0435465D01*
X0162720Y0434738D02*
X0157220Y0434738D01*
X0156820Y0435065D02*
X0156820Y0425065D01*
X0157220Y0425150D02*
X0162720Y0425150D01*
X0162720Y0426348D02*
X0161420Y0426348D01*
X0161420Y0426970D02*
X0158725Y0429665D01*
X0157220Y0429665D01*
X0157220Y0425465D01*
X0156420Y0425465D01*
X0156420Y0429665D01*
X0154914Y0429665D01*
X0152220Y0426970D01*
X0152220Y0425465D01*
X0156420Y0425465D01*
X0156420Y0424665D01*
X0152220Y0424665D01*
X0152220Y0423159D01*
X0154914Y0420465D01*
X0156420Y0420465D01*
X0156420Y0424664D01*
X0157220Y0424664D01*
X0157220Y0420465D01*
X0158725Y0420465D01*
X0161420Y0423159D01*
X0161420Y0424665D01*
X0157220Y0424665D01*
X0157220Y0425465D01*
X0161420Y0425465D01*
X0161420Y0426970D01*
X0160843Y0427547D02*
X0163504Y0427547D01*
X0164702Y0428745D02*
X0159644Y0428745D01*
X0159403Y0431142D02*
X0164944Y0431142D01*
X0163745Y0432341D02*
X0160601Y0432341D01*
X0161420Y0433539D02*
X0162720Y0433539D01*
X0157220Y0433539D02*
X0156420Y0433539D01*
X0156420Y0432341D02*
X0157220Y0432341D01*
X0157220Y0431142D02*
X0156420Y0431142D01*
X0154236Y0431142D02*
X0148696Y0431142D01*
X0148520Y0430966D02*
X0150920Y0433366D01*
X0150920Y0436763D01*
X0148518Y0439165D01*
X0145121Y0439165D01*
X0142720Y0436763D01*
X0142720Y0433366D01*
X0145120Y0430966D01*
X0145120Y0429163D01*
X0142720Y0426763D01*
X0142720Y0423366D01*
X0145121Y0420965D01*
X0148518Y0420965D01*
X0150920Y0423366D01*
X0150920Y0426763D01*
X0148520Y0429163D01*
X0148520Y0430966D01*
X0148520Y0429944D02*
X0189958Y0429944D01*
X0188309Y0425150D02*
X0180920Y0425150D01*
X0180920Y0423951D02*
X0188807Y0423951D01*
X0189831Y0422753D02*
X0181536Y0422753D01*
X0181977Y0419907D02*
X0202095Y0419907D01*
X0204556Y0417446D01*
X0204556Y0410065D01*
X0207637Y0409569D02*
X0273636Y0409569D01*
X0273620Y0408371D02*
X0207637Y0408371D01*
X0207181Y0407172D02*
X0273605Y0407172D01*
X0273652Y0410768D02*
X0207637Y0410768D01*
X0207637Y0411966D02*
X0273667Y0411966D01*
X0273683Y0413165D02*
X0206256Y0413165D01*
X0206256Y0414363D02*
X0273699Y0414363D01*
X0273714Y0415562D02*
X0206256Y0415562D01*
X0206256Y0416760D02*
X0273730Y0416760D01*
X0273745Y0417959D02*
X0206256Y0417959D01*
X0205249Y0419157D02*
X0273761Y0419157D01*
X0273777Y0420356D02*
X0204051Y0420356D01*
X0202852Y0421554D02*
X0273792Y0421554D01*
X0271857Y0440730D02*
X0351420Y0440730D01*
X0350222Y0439532D02*
X0298806Y0439532D01*
X0301378Y0438333D02*
X0349023Y0438333D01*
X0347824Y0437135D02*
X0302576Y0437135D01*
X0303709Y0435936D02*
X0346626Y0435936D01*
X0345427Y0434738D02*
X0304205Y0434738D01*
X0304702Y0433539D02*
X0344229Y0433539D01*
X0343030Y0432341D02*
X0305022Y0432341D01*
X0305022Y0431142D02*
X0341832Y0431142D01*
X0340633Y0429944D02*
X0305022Y0429944D01*
X0304828Y0428745D02*
X0339435Y0428745D01*
X0338236Y0427547D02*
X0304332Y0427547D01*
X0303835Y0426348D02*
X0337038Y0426348D01*
X0335839Y0425150D02*
X0302881Y0425150D01*
X0301683Y0423951D02*
X0334641Y0423951D01*
X0333442Y0422753D02*
X0299543Y0422753D01*
X0296477Y0410768D02*
X0321457Y0410768D01*
X0320259Y0409569D02*
X0296958Y0409569D01*
X0293877Y0407850D02*
X0320944Y0407850D01*
X0338251Y0422753D02*
X0359612Y0422753D01*
X0358413Y0423951D02*
X0339449Y0423951D01*
X0340648Y0425150D02*
X0357334Y0425150D01*
X0356837Y0426348D02*
X0341846Y0426348D01*
X0343045Y0427547D02*
X0356341Y0427547D01*
X0356058Y0428745D02*
X0344243Y0428745D01*
X0345442Y0429944D02*
X0356058Y0429944D01*
X0356058Y0431142D02*
X0346640Y0431142D01*
X0347839Y0432341D02*
X0356290Y0432341D01*
X0356786Y0433539D02*
X0349037Y0433539D01*
X0350236Y0434738D02*
X0357283Y0434738D01*
X0358290Y0435936D02*
X0351434Y0435936D01*
X0352633Y0437135D02*
X0359488Y0437135D01*
X0361757Y0438333D02*
X0353831Y0438333D01*
X0352619Y0441929D02*
X0272968Y0441929D01*
X0273465Y0443127D02*
X0353817Y0443127D01*
X0355016Y0444326D02*
X0273531Y0444326D01*
X0273279Y0445525D02*
X0356214Y0445525D01*
X0357413Y0446723D02*
X0272608Y0446723D01*
X0270924Y0447922D02*
X0358611Y0447922D01*
X0395189Y0403577D02*
X0400067Y0403577D01*
X0398868Y0402378D02*
X0396387Y0402378D01*
X0397081Y0401180D02*
X0398381Y0401180D01*
X0402581Y0401180D02*
X0403381Y0401180D01*
X0403381Y0400386D02*
X0403381Y0404586D01*
X0404886Y0404586D01*
X0407581Y0401891D01*
X0407581Y0400386D01*
X0403381Y0400386D01*
X0403381Y0399981D02*
X0408881Y0399981D01*
X0408881Y0398783D02*
X0407581Y0398783D01*
X0407085Y0397584D02*
X0409585Y0397584D01*
X0408881Y0401180D02*
X0407581Y0401180D01*
X0407094Y0402378D02*
X0409575Y0402378D01*
X0410774Y0403577D02*
X0405896Y0403577D01*
X0403381Y0403577D02*
X0402581Y0403577D01*
X0402581Y0402378D02*
X0403381Y0402378D01*
X0415189Y0403577D02*
X0417793Y0403577D01*
X0418992Y0402378D02*
X0416387Y0402378D01*
X0417081Y0401180D02*
X0420190Y0401180D01*
X0421389Y0399981D02*
X0417081Y0399981D01*
X0417081Y0398783D02*
X0422587Y0398783D01*
X0423786Y0397584D02*
X0416378Y0397584D01*
X0415179Y0396386D02*
X0424984Y0396386D01*
X0419310Y0389194D02*
X0417081Y0389194D01*
X0416790Y0387996D02*
X0418748Y0387996D01*
X0418748Y0386797D02*
X0415591Y0386797D01*
X0418748Y0384400D02*
X0410971Y0384400D01*
X0412169Y0383202D02*
X0419306Y0383202D01*
X0415765Y0379606D02*
X0447776Y0379606D01*
X0446578Y0378408D02*
X0416963Y0378408D01*
X0414566Y0380805D02*
X0448975Y0380805D01*
X0450173Y0382003D02*
X0413368Y0382003D01*
X0410956Y0379606D02*
X0395006Y0379606D01*
X0393807Y0378408D02*
X0412155Y0378408D01*
X0413353Y0377209D02*
X0392609Y0377209D01*
X0391410Y0376011D02*
X0414552Y0376011D01*
X0415750Y0374812D02*
X0390212Y0374812D01*
X0396204Y0380805D02*
X0409758Y0380805D01*
X0408559Y0382003D02*
X0397403Y0382003D01*
X0398601Y0383202D02*
X0407361Y0383202D01*
X0406162Y0384400D02*
X0399800Y0384400D01*
X0400998Y0385599D02*
X0404964Y0385599D01*
X0424353Y0383202D02*
X0451372Y0383202D01*
X0461326Y0380805D02*
X0467072Y0380805D01*
X0467072Y0382003D02*
X0461820Y0382003D01*
X0417429Y0362827D02*
X0393008Y0362827D01*
X0394499Y0361629D02*
X0415715Y0361629D01*
X0418729Y0359198D02*
X0391485Y0359198D01*
X0391328Y0359356D01*
X0394251Y0356835D02*
X0415648Y0356835D01*
X0417269Y0355636D02*
X0392408Y0355636D01*
X0393816Y0354438D02*
X0415691Y0354438D01*
X0405097Y0296876D02*
X0420722Y0281251D01*
X0433180Y0277733D02*
X0467072Y0277733D01*
X0467072Y0278931D02*
X0433646Y0278931D01*
X0408652Y0290917D02*
X0230143Y0290917D01*
X0228945Y0292115D02*
X0407454Y0292115D01*
X0406255Y0293314D02*
X0227746Y0293314D01*
X0228050Y0294512D02*
X0226548Y0294512D01*
X0225941Y0295711D02*
X0228050Y0295711D01*
X0228050Y0296909D02*
X0225941Y0296909D01*
X0225941Y0298108D02*
X0228050Y0298108D01*
X0228050Y0299306D02*
X0225941Y0299306D01*
X0231131Y0296876D02*
X0405097Y0296876D01*
X0405057Y0294512D02*
X0234212Y0294512D01*
X0234212Y0299306D02*
X0337886Y0299306D01*
X0334846Y0304750D02*
X0231131Y0304750D01*
X0231342Y0289718D02*
X0235917Y0289718D01*
X0234560Y0288520D02*
X0232541Y0288520D01*
X0216764Y0289718D02*
X0200221Y0289718D01*
X0201885Y0288520D02*
X0215101Y0288520D01*
X0214438Y0287321D02*
X0202548Y0287321D01*
X0202793Y0286123D02*
X0214193Y0286123D01*
X0214265Y0284924D02*
X0202721Y0284924D01*
X0202224Y0283725D02*
X0214761Y0283725D01*
X0215881Y0282527D02*
X0201105Y0282527D01*
X0193993Y0293314D02*
X0189428Y0293314D01*
X0189428Y0294512D02*
X0193993Y0294512D01*
X0167984Y0259755D02*
X0121610Y0259755D01*
X0121610Y0258557D02*
X0166786Y0258557D01*
X0170395Y0257358D02*
X0227237Y0257358D01*
X0179179Y0222601D02*
X0111052Y0222601D01*
X0113377Y0221403D02*
X0179179Y0221403D01*
X0118210Y0251366D02*
X0109390Y0251366D01*
X0109390Y0252564D02*
X0118210Y0252564D01*
X0118210Y0253763D02*
X0109390Y0253763D01*
X0109390Y0254961D02*
X0118210Y0254961D01*
X0084760Y0302902D02*
X0084489Y0302902D01*
X0084760Y0304100D02*
X0077310Y0304100D01*
X0077310Y0305299D02*
X0084760Y0305299D01*
X0084760Y0306497D02*
X0076917Y0306497D01*
X0076035Y0307696D02*
X0084760Y0307696D01*
X0079346Y0302902D02*
X0076882Y0302902D01*
X0075950Y0301703D02*
X0078343Y0301703D01*
X0059669Y0322078D02*
X0045331Y0322078D01*
X0045331Y0323276D02*
X0057997Y0323276D01*
X0057676Y0324475D02*
X0045331Y0324475D01*
X0045331Y0325673D02*
X0057355Y0325673D01*
X0057803Y0326872D02*
X0053573Y0326872D01*
X0051366Y0326872D02*
X0045331Y0326872D01*
X0045331Y0328070D02*
X0049392Y0328070D01*
X0049071Y0329269D02*
X0045331Y0329269D01*
X0045331Y0330467D02*
X0048750Y0330467D01*
X0049024Y0331666D02*
X0045331Y0331666D01*
X0045331Y0332864D02*
X0049716Y0332864D01*
X0050888Y0334063D02*
X0045331Y0334063D01*
X0045331Y0335261D02*
X0050888Y0335261D01*
X0050888Y0336460D02*
X0045331Y0336460D01*
X0045331Y0337659D02*
X0050888Y0337659D01*
X0050888Y0338857D02*
X0045331Y0338857D01*
X0045331Y0340056D02*
X0050888Y0340056D01*
X0050888Y0341254D02*
X0045331Y0341254D01*
X0045331Y0342453D02*
X0050888Y0342453D01*
X0050888Y0343651D02*
X0045331Y0343651D01*
X0045331Y0344850D02*
X0050888Y0344850D01*
X0050888Y0346048D02*
X0045331Y0346048D01*
X0045331Y0347247D02*
X0050888Y0347247D01*
X0050888Y0348445D02*
X0045331Y0348445D01*
X0045331Y0349644D02*
X0050888Y0349644D01*
X0050888Y0350842D02*
X0045331Y0350842D01*
X0045331Y0352041D02*
X0050888Y0352041D01*
X0050888Y0353239D02*
X0045331Y0353239D01*
X0045331Y0354438D02*
X0050888Y0354438D01*
X0050888Y0355636D02*
X0045331Y0355636D01*
X0045331Y0356835D02*
X0050888Y0356835D01*
X0050888Y0358033D02*
X0045331Y0358033D01*
X0045331Y0359232D02*
X0050888Y0359232D01*
X0050888Y0360430D02*
X0045331Y0360430D01*
X0045331Y0361629D02*
X0050888Y0361629D01*
X0050888Y0362827D02*
X0045331Y0362827D01*
X0045331Y0364026D02*
X0050888Y0364026D01*
X0050888Y0365224D02*
X0045331Y0365224D01*
X0045331Y0366423D02*
X0050888Y0366423D01*
X0050888Y0367621D02*
X0045331Y0367621D01*
X0045331Y0368820D02*
X0050888Y0368820D01*
X0050888Y0370018D02*
X0045331Y0370018D01*
X0045331Y0371217D02*
X0050888Y0371217D01*
X0050888Y0372415D02*
X0045331Y0372415D01*
X0045331Y0373614D02*
X0050888Y0373614D01*
X0050888Y0374812D02*
X0045331Y0374812D01*
X0045331Y0376011D02*
X0050888Y0376011D01*
X0050888Y0377209D02*
X0045331Y0377209D01*
X0045331Y0378408D02*
X0050888Y0378408D01*
X0050069Y0379606D02*
X0045331Y0379606D01*
X0045331Y0380805D02*
X0049377Y0380805D01*
X0048685Y0382003D02*
X0045331Y0382003D01*
X0045331Y0383202D02*
X0048907Y0383202D01*
X0049228Y0384400D02*
X0045331Y0384400D01*
X0045331Y0385599D02*
X0050307Y0385599D01*
X0052588Y0382643D02*
X0052588Y0330439D01*
X0055493Y0328070D02*
X0058495Y0328070D01*
X0078454Y0355636D02*
X0129761Y0355636D01*
X0130959Y0356835D02*
X0078454Y0356835D01*
X0059055Y0384400D02*
X0055846Y0384400D01*
X0055154Y0385599D02*
X0058156Y0385599D01*
X0057464Y0386797D02*
X0045331Y0386797D01*
X0045331Y0387996D02*
X0057512Y0387996D01*
X0057833Y0389194D02*
X0045331Y0389194D01*
X0045331Y0390393D02*
X0058611Y0390393D01*
X0127296Y0407172D02*
X0201930Y0407172D01*
X0201475Y0408371D02*
X0128495Y0408371D01*
X0129693Y0409569D02*
X0201475Y0409569D01*
X0201475Y0410768D02*
X0130892Y0410768D01*
X0132090Y0411966D02*
X0201475Y0411966D01*
X0201731Y0413165D02*
X0202856Y0413165D01*
X0202856Y0414363D02*
X0201731Y0414363D01*
X0201731Y0415562D02*
X0202856Y0415562D01*
X0202838Y0416760D02*
X0201731Y0416760D01*
X0195569Y0415562D02*
X0135686Y0415562D01*
X0136884Y0416760D02*
X0169373Y0416760D01*
X0168175Y0417959D02*
X0138083Y0417959D01*
X0138343Y0419157D02*
X0166976Y0419157D01*
X0165778Y0420356D02*
X0138343Y0420356D01*
X0138343Y0421554D02*
X0144532Y0421554D01*
X0143333Y0422753D02*
X0138343Y0422753D01*
X0138343Y0423951D02*
X0142720Y0423951D01*
X0142720Y0425150D02*
X0138343Y0425150D01*
X0138343Y0426348D02*
X0142720Y0426348D01*
X0143504Y0427547D02*
X0138343Y0427547D01*
X0138343Y0428745D02*
X0144702Y0428745D01*
X0145120Y0429944D02*
X0138343Y0429944D01*
X0138343Y0431142D02*
X0144944Y0431142D01*
X0143745Y0432341D02*
X0138343Y0432341D01*
X0138343Y0433539D02*
X0142720Y0433539D01*
X0142720Y0434738D02*
X0138343Y0434738D01*
X0138343Y0435936D02*
X0142720Y0435936D01*
X0143092Y0437135D02*
X0138343Y0437135D01*
X0138343Y0438333D02*
X0144290Y0438333D01*
X0146820Y0435065D02*
X0146820Y0425065D01*
X0150920Y0425150D02*
X0156420Y0425150D01*
X0156420Y0426348D02*
X0157220Y0426348D01*
X0157220Y0427547D02*
X0156420Y0427547D01*
X0156420Y0428745D02*
X0157220Y0428745D01*
X0153995Y0428745D02*
X0148937Y0428745D01*
X0150136Y0427547D02*
X0152797Y0427547D01*
X0152220Y0426348D02*
X0150920Y0426348D01*
X0150920Y0423951D02*
X0152220Y0423951D01*
X0152626Y0422753D02*
X0150306Y0422753D01*
X0149108Y0421554D02*
X0153825Y0421554D01*
X0156420Y0421554D02*
X0157220Y0421554D01*
X0157220Y0422753D02*
X0156420Y0422753D01*
X0156420Y0423951D02*
X0157220Y0423951D01*
X0159815Y0421554D02*
X0164532Y0421554D01*
X0163333Y0422753D02*
X0161013Y0422753D01*
X0161420Y0423951D02*
X0162720Y0423951D01*
X0169388Y0421554D02*
X0174532Y0421554D01*
X0173333Y0422753D02*
X0170306Y0422753D01*
X0170920Y0423951D02*
X0172720Y0423951D01*
X0170586Y0420356D02*
X0179124Y0420356D01*
X0180323Y0419157D02*
X0171785Y0419157D01*
X0176820Y0425065D02*
X0181977Y0419907D01*
X0195569Y0414363D02*
X0134487Y0414363D01*
X0133289Y0413165D02*
X0195569Y0413165D01*
X0171241Y0389194D02*
X0273063Y0389194D01*
X0273336Y0390393D02*
X0274262Y0390393D01*
X0273336Y0391592D02*
X0275460Y0391592D01*
X0276659Y0392790D02*
X0273336Y0392790D01*
X0274299Y0393989D02*
X0277857Y0393989D01*
X0278739Y0395187D02*
X0275498Y0395187D01*
X0276705Y0396386D02*
X0278739Y0396386D01*
X0278739Y0397584D02*
X0276880Y0397584D01*
X0271865Y0387996D02*
X0166929Y0387996D01*
X0165730Y0386797D02*
X0270666Y0386797D01*
X0286271Y0400256D02*
X0286271Y0400256D01*
X0293377Y0439532D02*
X0158858Y0439532D01*
X0157220Y0439532D02*
X0156420Y0439532D01*
X0156420Y0438333D02*
X0157220Y0438333D01*
X0157220Y0437135D02*
X0156420Y0437135D01*
X0156420Y0435936D02*
X0157220Y0435936D01*
X0156420Y0434738D02*
X0150920Y0434738D01*
X0150920Y0435936D02*
X0152220Y0435936D01*
X0152385Y0437135D02*
X0150548Y0437135D01*
X0149349Y0438333D02*
X0153583Y0438333D01*
X0154782Y0439532D02*
X0138343Y0439532D01*
X0149894Y0432341D02*
X0153038Y0432341D01*
X0152220Y0433539D02*
X0150920Y0433539D01*
X0164532Y0385599D02*
X0225176Y0385599D01*
X0224386Y0384809D02*
X0224386Y0384809D01*
X0223978Y0384400D02*
X0163333Y0384400D01*
X0162135Y0383202D02*
X0184971Y0383202D01*
X0187701Y0380414D02*
X0167277Y0380414D01*
X0143729Y0356915D01*
X0140648Y0356835D02*
X0135768Y0356835D01*
X0136966Y0358033D02*
X0140648Y0358033D01*
X0140648Y0359232D02*
X0138165Y0359232D01*
X0139363Y0360430D02*
X0144845Y0360430D01*
X0146046Y0361629D02*
X0140562Y0361629D01*
X0141760Y0362827D02*
X0147247Y0362827D01*
X0148448Y0364026D02*
X0142959Y0364026D01*
X0144157Y0365224D02*
X0149649Y0365224D01*
X0150850Y0366423D02*
X0145356Y0366423D01*
X0146554Y0367621D02*
X0152051Y0367621D01*
X0153252Y0368820D02*
X0147753Y0368820D01*
X0148951Y0370018D02*
X0154453Y0370018D01*
X0155654Y0371217D02*
X0150150Y0371217D01*
X0151348Y0372415D02*
X0156855Y0372415D01*
X0158056Y0373614D02*
X0152547Y0373614D01*
X0153745Y0374812D02*
X0159257Y0374812D01*
X0160458Y0376011D02*
X0154944Y0376011D01*
X0156142Y0377209D02*
X0161659Y0377209D01*
X0162860Y0378408D02*
X0157341Y0378408D01*
X0158539Y0379606D02*
X0164061Y0379606D01*
X0165262Y0380805D02*
X0159738Y0380805D01*
X0160936Y0382003D02*
X0166463Y0382003D01*
X0170107Y0376231D02*
X0142917Y0349041D01*
X0139103Y0349041D01*
X0138980Y0348918D01*
X0135899Y0348445D02*
X0132929Y0348445D01*
X0132929Y0347247D02*
X0135899Y0347247D01*
X0136332Y0346048D02*
X0132929Y0346048D01*
X0132929Y0344850D02*
X0140013Y0344850D01*
X0138814Y0343651D02*
X0132929Y0343651D01*
X0132827Y0342453D02*
X0137616Y0342453D01*
X0136542Y0341254D02*
X0132683Y0341254D01*
X0132683Y0340056D02*
X0136542Y0340056D01*
X0136542Y0338857D02*
X0132683Y0338857D01*
X0132683Y0337659D02*
X0136542Y0337659D01*
X0136542Y0336460D02*
X0132683Y0336460D01*
X0132683Y0335261D02*
X0136542Y0335261D01*
X0135161Y0334063D02*
X0132683Y0334063D01*
X0132683Y0332864D02*
X0135161Y0332864D01*
X0135161Y0331666D02*
X0132683Y0331666D01*
X0132683Y0330467D02*
X0135161Y0330467D01*
X0135518Y0329269D02*
X0132683Y0329269D01*
X0131229Y0343258D02*
X0131229Y0345596D01*
X0132929Y0349644D02*
X0135899Y0349644D01*
X0135899Y0350842D02*
X0132929Y0350842D01*
X0132929Y0352041D02*
X0143513Y0352041D01*
X0144711Y0353239D02*
X0132929Y0353239D01*
X0133371Y0354438D02*
X0140689Y0354438D01*
X0140648Y0355636D02*
X0134569Y0355636D01*
X0142061Y0350842D02*
X0142314Y0350842D01*
X0170107Y0376231D02*
X0193360Y0376231D01*
X0196441Y0376011D02*
X0198891Y0376011D01*
X0198891Y0377209D02*
X0196441Y0377209D01*
X0196441Y0378408D02*
X0198891Y0378408D01*
X0198150Y0374812D02*
X0196441Y0374812D01*
X0190782Y0379606D02*
X0219184Y0379606D01*
X0220382Y0380805D02*
X0190782Y0380805D01*
X0190782Y0382003D02*
X0221581Y0382003D01*
X0222779Y0383202D02*
X0190430Y0383202D01*
X0227914Y0361629D02*
X0241829Y0361629D01*
X0241860Y0362827D02*
X0229112Y0362827D01*
X0153639Y0308894D02*
X0112879Y0308894D01*
X0111681Y0310093D02*
X0143375Y0310093D01*
X0142789Y0311291D02*
X0110482Y0311291D01*
X0109284Y0312490D02*
X0142789Y0312490D01*
X0152440Y0307696D02*
X0114078Y0307696D01*
X0370670Y0272939D02*
X0467072Y0272939D01*
X0467072Y0274137D02*
X0371869Y0274137D01*
X0372770Y0275336D02*
X0467072Y0275336D01*
X0467072Y0276534D02*
X0373267Y0276534D01*
X0428848Y0431142D02*
X0434029Y0431142D01*
X0432831Y0432341D02*
X0428570Y0432341D01*
D18*
X0425767Y0429627D03*
X0415801Y0429627D03*
X0415924Y0407850D03*
X0422691Y0407998D03*
X0421830Y0386196D03*
X0442499Y0395055D03*
X0455048Y0392102D03*
X0458739Y0383736D03*
X0430565Y0280635D03*
X0420722Y0281251D03*
X0321436Y0377092D03*
X0316761Y0383859D03*
X0316884Y0390995D03*
X0293877Y0407850D03*
X0288217Y0395670D03*
X0281820Y0395547D03*
X0270255Y0392348D03*
X0281820Y0417939D03*
X0275668Y0435040D03*
X0230639Y0452387D03*
X0198650Y0415478D03*
X0204556Y0410065D03*
X0217843Y0403913D03*
X0217351Y0375370D03*
X0217351Y0368726D03*
X0218458Y0361836D03*
X0219689Y0355808D03*
X0208616Y0357284D03*
X0198650Y0360237D03*
X0189669Y0359006D03*
X0189300Y0352486D03*
X0187578Y0343135D03*
X0200865Y0336984D03*
X0214644Y0332555D03*
X0231131Y0317545D03*
X0231131Y0311147D03*
X0231131Y0304750D03*
X0231131Y0296876D03*
X0230146Y0259966D03*
X0186347Y0292446D03*
X0145870Y0313116D03*
X0138242Y0332063D03*
X0138980Y0348918D03*
X0143729Y0356915D03*
X0168385Y0391856D03*
X0187701Y0380414D03*
X0193360Y0376231D03*
X0201972Y0376231D03*
X0244910Y0360360D03*
X0257706Y0351994D03*
X0176997Y0456817D03*
X0122253Y0416636D03*
X0075373Y0357653D03*
X0086446Y0318037D03*
X0099118Y0299090D03*
X0140707Y0264853D03*
X0106309Y0252899D03*
M02*
