G75*
%MOIN*%
%OFA0B0*%
%FSLAX25Y25*%
%IPPOS*%
%LPD*%
%AMOC8*
5,1,8,0,0,1.08239X$1,22.5*
%
%ADD10C,0.06800*%
%ADD11C,0.01200*%
%ADD12C,0.06706*%
%ADD13OC8,0.06000*%
%ADD14OC8,0.06800*%
%ADD15R,0.05950X0.05950*%
%ADD16C,0.09461*%
%ADD17C,0.06300*%
%ADD18R,0.04762X0.04762*%
D10*
X0192693Y0268113D02*
X0198693Y0268113D01*
X0198693Y0285913D02*
X0192693Y0285913D01*
X0218293Y0285913D02*
X0224293Y0285913D01*
X0237969Y0286130D02*
X0243969Y0286130D01*
X0243969Y0268330D02*
X0237969Y0268330D01*
X0224293Y0268113D02*
X0218293Y0268113D01*
X0263569Y0268330D02*
X0269569Y0268330D01*
X0269569Y0286130D02*
X0263569Y0286130D01*
X0263431Y0426302D02*
X0269431Y0426302D01*
X0269431Y0444102D02*
X0263431Y0444102D01*
X0243831Y0444102D02*
X0237831Y0444102D01*
X0224372Y0444102D02*
X0218372Y0444102D01*
X0218372Y0426302D02*
X0224372Y0426302D01*
X0237831Y0426302D02*
X0243831Y0426302D01*
X0198772Y0426302D02*
X0192772Y0426302D01*
X0192772Y0444102D02*
X0198772Y0444102D01*
D11*
X0063223Y0387382D02*
X0063823Y0387982D01*
X0063308Y0386062D01*
X0061587Y0385068D01*
X0059667Y0385583D01*
X0058673Y0387304D01*
X0059188Y0389224D01*
X0060909Y0390218D01*
X0062829Y0389703D01*
X0063823Y0387982D01*
X0062857Y0387855D01*
X0062535Y0386655D01*
X0061460Y0386034D01*
X0060260Y0386356D01*
X0059639Y0387431D01*
X0059961Y0388631D01*
X0061036Y0389252D01*
X0062236Y0388930D01*
X0062857Y0387855D01*
X0061891Y0387728D01*
X0061762Y0387248D01*
X0061333Y0387000D01*
X0060853Y0387129D01*
X0060605Y0387558D01*
X0060734Y0388038D01*
X0061163Y0388286D01*
X0061643Y0388157D01*
X0061891Y0387728D01*
X0054563Y0382382D02*
X0055163Y0382982D01*
X0054648Y0381062D01*
X0052927Y0380068D01*
X0051007Y0380583D01*
X0050013Y0382304D01*
X0050528Y0384224D01*
X0052249Y0385218D01*
X0054169Y0384703D01*
X0055163Y0382982D01*
X0054197Y0382855D01*
X0053875Y0381655D01*
X0052800Y0381034D01*
X0051600Y0381356D01*
X0050979Y0382431D01*
X0051301Y0383631D01*
X0052376Y0384252D01*
X0053576Y0383930D01*
X0054197Y0382855D01*
X0053231Y0382728D01*
X0053102Y0382248D01*
X0052673Y0382000D01*
X0052193Y0382129D01*
X0051945Y0382558D01*
X0052074Y0383038D01*
X0052503Y0383286D01*
X0052983Y0383157D01*
X0053231Y0382728D01*
X0053569Y0328979D02*
X0054169Y0328379D01*
X0052249Y0327864D01*
X0050528Y0328858D01*
X0050013Y0330778D01*
X0051007Y0332499D01*
X0052927Y0333014D01*
X0054648Y0332020D01*
X0055163Y0330100D01*
X0054169Y0328379D01*
X0053576Y0329152D01*
X0052376Y0328830D01*
X0051301Y0329451D01*
X0050979Y0330651D01*
X0051600Y0331726D01*
X0052800Y0332048D01*
X0053875Y0331427D01*
X0054197Y0330227D01*
X0053576Y0329152D01*
X0052983Y0329925D01*
X0052503Y0329796D01*
X0052074Y0330044D01*
X0051945Y0330524D01*
X0052193Y0330953D01*
X0052673Y0331082D01*
X0053102Y0330834D01*
X0053231Y0330354D01*
X0052983Y0329925D01*
X0062229Y0323979D02*
X0062829Y0323379D01*
X0060909Y0322864D01*
X0059188Y0323858D01*
X0058673Y0325778D01*
X0059667Y0327499D01*
X0061587Y0328014D01*
X0063308Y0327020D01*
X0063823Y0325100D01*
X0062829Y0323379D01*
X0062236Y0324152D01*
X0061036Y0323830D01*
X0059961Y0324451D01*
X0059639Y0325651D01*
X0060260Y0326726D01*
X0061460Y0327048D01*
X0062535Y0326427D01*
X0062857Y0325227D01*
X0062236Y0324152D01*
X0061643Y0324925D01*
X0061163Y0324796D01*
X0060734Y0325044D01*
X0060605Y0325524D01*
X0060853Y0325953D01*
X0061333Y0326082D01*
X0061762Y0325834D01*
X0061891Y0325354D01*
X0061643Y0324925D01*
D12*
X0073257Y0304742D03*
X0081918Y0299742D03*
X0137627Y0252899D03*
X0137627Y0242899D03*
X0073257Y0406844D03*
X0081918Y0411844D03*
X0137627Y0459474D03*
X0137627Y0469474D03*
D13*
X0159280Y0216994D03*
X0159280Y0226994D03*
X0159280Y0484435D03*
X0159280Y0494435D03*
D14*
X0156820Y0435065D03*
X0166820Y0435065D03*
X0176820Y0435065D03*
X0176820Y0425065D03*
X0166820Y0425065D03*
X0156820Y0425065D03*
X0146820Y0425065D03*
X0146820Y0435065D03*
X0392981Y0399986D03*
X0402981Y0399986D03*
X0412981Y0399986D03*
X0412981Y0389986D03*
X0402981Y0389986D03*
X0392981Y0389986D03*
X0393532Y0321246D03*
X0403532Y0321246D03*
X0413532Y0321246D03*
X0413532Y0311246D03*
X0403532Y0311246D03*
X0393532Y0311246D03*
D15*
X0458650Y0345616D03*
X0458650Y0355616D03*
X0458650Y0365616D03*
D16*
X0364989Y0430006D03*
X0296091Y0430990D03*
X0296091Y0280872D03*
X0364989Y0279887D03*
D17*
X0391328Y0351482D03*
X0391328Y0359356D03*
X0418729Y0359198D03*
X0418729Y0351324D03*
D18*
X0421830Y0386196D03*
X0422691Y0407998D03*
X0415924Y0407850D03*
X0415801Y0429627D03*
X0425767Y0429627D03*
X0442499Y0395055D03*
X0455048Y0392102D03*
X0458739Y0383736D03*
X0430565Y0280635D03*
X0420722Y0281251D03*
X0321436Y0377092D03*
X0316761Y0383859D03*
X0316884Y0390995D03*
X0293877Y0407850D03*
X0288217Y0395670D03*
X0281820Y0395547D03*
X0270255Y0392348D03*
X0281820Y0417939D03*
X0275668Y0435040D03*
X0230639Y0452387D03*
X0198650Y0415478D03*
X0204556Y0410065D03*
X0217843Y0403913D03*
X0217351Y0375370D03*
X0217351Y0368726D03*
X0218458Y0361836D03*
X0219689Y0355808D03*
X0208616Y0357284D03*
X0198650Y0360237D03*
X0189669Y0359006D03*
X0189300Y0352486D03*
X0187578Y0343135D03*
X0200865Y0336984D03*
X0214644Y0332555D03*
X0231131Y0317545D03*
X0231131Y0311147D03*
X0231131Y0304750D03*
X0231131Y0296876D03*
X0230146Y0259966D03*
X0186347Y0292446D03*
X0145870Y0313116D03*
X0138242Y0332063D03*
X0138980Y0348918D03*
X0143729Y0356915D03*
X0168385Y0391856D03*
X0187701Y0380414D03*
X0193360Y0376231D03*
X0201972Y0376231D03*
X0244910Y0360360D03*
X0257706Y0351994D03*
X0176997Y0456817D03*
X0122253Y0416636D03*
X0075373Y0357653D03*
X0086446Y0318037D03*
X0099118Y0299090D03*
X0140707Y0264853D03*
X0106309Y0252899D03*
M02*
